<svg xmlns="http://www.w3.org/2000/svg" width="20" height="20" viewBox="0 0 5.292 5.292"><defs><filter id="a" x="0" width="1" y="0" height="1" color-interpolation-filters="sRGB"><feGaussianBlur/></filter></defs><g filter="url(#a)"><path d="M.375 4.804s.334.238.957-.103c0 0 .145.122.344-.167 0 0 .23.034.15-.131l.032-.02.03.033.13-.002s.034 0 .028-.064c0 0-.021-.01.076-.075l.034-.038.103-.041s.018-.01.034.016l.121.002s.038-.01.04-.077l.118-.11.017-.038.088-.067.041.003.09-.05.107-.098s.028-.03.011-.069l.046-.052s.062.042.108-.045c0 0 .001-.028.053-.05 0 0 .154-.016.123-.219l.049-.071s.05.059.133-.063c0 0 .087-.108.024-.199l.045-.08s-.002.067.096.018c0 0 .149-.13.082-.249l.002-.018s.028.03.073.025c.062-.005.149-.06.153-.222 0 0-.02-.07.132-.11 0 0 .084-.018.06-.118 0 0-.062-.133.073-.192 0 0 .056.002.083-.094.008-.025-.033-.06.036-.123 0 0 .145-.022.2-.145 0 0 .039-.209.093-.265 0 0 .105-.143-.076-.096l.026-.146s.03-.105.003-.257c0 0-.072-.162-.129-.216C4.29.604 4.27.57 4.192.506L4.067.42S4.043.362 4.01.403c0 0-.187-.085-.423-.005l-.113.034s-.026-.06-.102.008l-.067.039S3.112.514 3.022.6c0 0-.08.072-.075.11l-.086.056s-.11-.016-.125.057c0 0-.054.135-.189.123 0 0-.13-.02-.125.118 0 0 .017.13-.127.103 0 0-.122.034-.14.128 0 0-.04.063.025.075l-.017.018h-.08s-.183.064-.152.153c.025.05.072-.004-.027.093 0 0-.09-.028-.145.031-.056.06-.116.113-.072.192l-.053.059s-.131-.032-.197.065l-.027.09-.075.064s-.033.038.01.078l-.043.057s-.032-.045-.084.015l-.13.157s-.048.05.015.062l-.076.102s-.022-.034-.069.016l-.095.103s-.107-.005-.076.099c0 0-.008.054.03.076l-.13.177-.044.024s-.105-.018-.06.135c0 0 .029.027-.02.076 0 0-.14-.047-.106.103 0 0 .051.04-.11.125 0 0-.158.1-.074.24.02.032.065.014.098.024l-.008.073s-.163-.05-.146.094c0 0 .088.073.03.137 0 0-.155.188.06.323 0 0-.005.311.068.372z" fill="#78ab42"/><path d="M.516 3.707s.064-.249.133-.027c0 0-.037.18-.133.027zM.642 3.452s.202.003.178-.243c0 0-.013-.064.107-.088 0 0 .112-.012.056-.178 0 0-.032-.118.132-.148 0 0 .08-.005.074-.162 0 0 .024-.03.185-.067 0 0 .144-.11.153-.21 0 0 .218-.196.055-.183 0 0-.203-.021-.177.161 0 0-.036.046-.109.072l-.122.127s-.07.03-.068.131l-.078.063s-.087.036-.093.125c0 0-.035.076-.076.063 0 0-.052.118-.035.17 0 0-.028.073-.091.068 0 0 .004.112-.083.136 0 0-.03.043-.02.079.012.036.012.084.012.084z" fill="#8bbf3f"/><path d="M1.517 2.21s.131-.027-.034.13c0 0-.03.057-.017.085 0 0-.08.117-.163.131 0 0-.131.037-.074-.02 0 0 .073-.129.141-.135 0 0 .113-.029.074-.117 0 0-.015-.082.073-.074z" fill="#99cc50"/><path d="M.892 2.996s.146-.122.035.076c0 0-.077.068-.035-.076zM.74 3.237s.097-.004 0 .105c-.098.11-.036-.08 0-.105z" fill="#9acc51"/><path d="M1.673 2.055l-.044.055-.045-.005.046-.074s-.006-.122.073-.128c0 0 .06-.081.107-.055 0 0 .095.069.027.168 0 0-.139 0-.164.039zM1.947 1.889s.223.07.245-.21c0 0-.018-.052.144-.078 0 0 .076 0 .067-.216 0 0-.009-.055.148-.086 0 0 .092-.03.078-.134 0 0 .048-.066.225-.049 0 0 .135-.085.148-.17L3.12.843s.093-.147-.115-.06l-.042.043L2.9.834s.035.09-.135.126l-.093.071s-.117.044-.13.117c0 0-.016.095-.126.108l-.14.095s-.054.037-.06.135c0 0 .018.083-.099.094 0 0-.204.142-.17.309z" fill="#8fc73f"/><path d="M3.424.653s.144-.059.319-.272c0 0 .256-.07.547.223 0 0-.179.178-.244.228 0 0-.298.207-.327.29l-.18.252-.145.197s-.237.328-.316.374c0 0-.54.396-.604.456-.064.06-.46.505-.46.505l-.18.209-.279.327-.3.354-.368.424-.292.33-.144.115S.367 4.33.509 4.1l.187-.35.17-.368s.153-.395.256-.47l.189-.23.33-.363s.239-.31.35-.328c.11-.017.356-.268.385-.356.028-.09.127-.356.312-.384 0 0 .213-.043.301-.17 0 0 .154-.21.196-.292 0 0 .137-.136.24-.135z" fill="#8bc13f"/><path d="M3.55.857s-.218.219-.263.312c-.044.094-.163.268-.277.55 0 0-.102.176-.278.27 0 0-.348.114-.475.346 0 0-.131.28-.37.35 0 0-.238.024-.28.316 0 0 .006.084-.22.297 0 0-.294.255-.336.347 0 0-.26.334-.32.45l-.182.342s.1-.336.126-.402c0 0 .121-.306.283-.426 0 0 .191-.197.217-.35 0 0 .036-.294.232-.429l.375-.337.442-.415s.286-.262.343-.369c0 0 .138-.25.236-.297.097-.046.555-.434.747-.555z" fill="#7ab042"/><path d="M3.118 1.222s-.175.042.002.098c0 0 .151-.089-.002-.098z" fill="#8ec63f"/><path d="M2.922 1.54s.039-.068-.016-.13c0 0 .139-.045.114.107 0 0-.06.143-.156.132 0 0-.143-.11.058-.108zM2.67 1.828s.037-.087.005-.133c0 0 .165-.092.089.133 0 0-.157.219-.194.063 0 0-.026-.078.1-.063z" fill="#8fc73f"/><path d="M2.42 1.97s.14-.106.14.025c0 0-.113.09-.14-.024z" fill="#8bbf3f"/><path d="M2.237 2.109s.08-.122.143.006c0 0-.1.119-.143-.006z" fill="#8fc73f"/><path d="M2.051 2.347s.096-.148.132.002c0 0-.054.078-.132-.002z" fill="#8ec63f"/><path d="M1.87 2.461s.126-.129.153.065c0 0 .01.113-.175.082 0 0-.203.168-.14-.001zM1.507 2.818s.16.029.014.166c0 0-.191-.014-.014-.166zM1.355 3.028s.13.096-.012.166c0 0-.15-.06.012-.166z" fill="#8fc73f"/><path d="M1.06 4.092s.074-.037.145.075c0 0 .086.15-.107.154 0 0-.195-.004-.038-.23z" fill="#8dc43f"/><path d="M3.363.78s.21-.167.322-.176c0 0 .259-.084.049.114 0 0-.189.044-.277.125l-.23.16s-.3.186-.39.287c0 0-.209.16-.248.245-.04.084-.216.284-.216.284s-.186.207-.279.26l-.36.339s-.27.2-.356.317c-.086.118-.177.177-.215.25 0 0-.098.2-.154.35-.055.149-.044.22-.155.286l-.094.085.05-.129.12-.274s.148-.321.186-.333c0 0 .15-.198.211-.268l.282-.3.233-.192.267-.213s.232-.166.267-.307.194-.268.247-.32c.053-.05.246-.118.388-.261.143-.144.352-.328.352-.328zM3.697.816s.153-.253.234-.07c0 0 .071.05-.147.2 0 0-.272.288-.317.398-.045.11-.318.512-.395.566 0 0-.542.426-.59.44 0 0-.842.82-.925.985-.083.164-.367.447-.367.447l-.474.577-.078.078s.237-.488.327-.55c.09-.064.175-.317.33-.402.153-.085.133-.193.267-.275 0 0 .133-.184.142-.307 0 0 .009-.139.259-.203 0 0 .21-.146.328-.345.117-.199.488-.328.488-.328s.357-.27.41-.455c.053-.187.054-.228.151-.303 0 0 .296-.422.357-.453z" fill="#9acc51"/><path d="M1.533 3.687s.019-.248.14-.078c0 0 .17.135-.004.171-.175.037-.136-.093-.136-.093zM1.688 3.402s.082-.142.171.05c0 0 .028.061.08.077 0 0 .038.05-.127.094 0 0-.08-.002-.135-.077 0 0-.08-.062.011-.144z" fill="#8dc43f"/><path d="M1.736 3.395s.056.02.07.083c0 0 .095.041.044.075-.052.033-.123.012-.17-.066 0 0-.02-.06.056-.092z" fill="#9acc51"/><path d="M1.936 3.398s.171-.06.214-.21c0 0-.03-.064.088-.035 0 0 .228-.193-.125-.158l-.174.151s-.336.215-.003.252z" fill="#8dc43f"/><path d="M2.105 3.058s.155-.073.04.058l-.081.112s-.09.15-.163.127c-.074-.023-.071-.064.019-.141 0 0 .142-.153.185-.156z" fill="#9acc51"/><path d="M2.508 2.645s.285-.16.167.058c0 0-.072.01-.058.075 0 0 .089.112-.102.104 0 0-.23-.116-.007-.237z" fill="#8dc43f"/><path d="M2.798 2.517s-.21-.03-.044-.176c0 0 .092-.107.134.039 0 0 .05.104-.09.137zM2.883 2.248s.053-.123.147.077c0 0-.088.114-.147-.077zM3.151 2.051s.332-.238.139.125c0 0-.331.254-.15-.124z" fill="#8dc53f"/><path d="M3.511 1.996s.032-.035.109-.01c0 0 .162-.001.195-.017 0 0 .08.034-.033.134 0 0-.23.049-.27-.107z" fill="none"/><path d="M3.468 1.741s-.01-.201.134-.096c0 0 .064.159-.134.096z" fill="#8dc53f"/><path d="M3.744 1.485s.244-.048.064.109c0 0-.059.014-.026.194 0 0-.057.136-.119-.003 0 0-.09-.274.081-.3z" fill="#8fc73f"/><path d="M3.683 1.3s.135.028.286-.08c0 0 .112.013.039.13-.073.117-.33.08-.325-.05zM3.836 1.069s.12-.145.161.064c0 0-.02.122-.197.081 0 0-.104-.063.036-.145z" fill="#8dc53f"/><path d="M4.414.721s.184.216.085.312c0 0-.047.006-.04.178 0 0 .009.1-.096.156 0 0-.04.09-.016.151 0 0-.136.164-.261.255 0 0-.225.206-.199-.074 0 0 .063-.207.171-.297 0 0 .05-.092.044-.214 0 0 .032-.108.105-.12 0 0 .065.004.068-.209 0 0 .111-.22.14-.138z" fill="#8bbf3f"/><path d="M4.4.88s.139-.089.072.096c0 0-.074.069-.08.17-.005.102-.003.122-.116.208 0 0 .015.232-.135.297 0 0-.234.19-.186.02 0 0 .104-.163.147-.177 0 0 .093-.21.083-.251 0 0 .002-.156.1-.177 0 0 .111-.08.114-.187z" fill="#9acc51"/><path d="M4.192.506l.184-.085s.147-.02.297.024c0 0 .182.038.28-.075 0 0 .123-.076.188.004 0 0-.274.126-.33.136-.055.01-.258.039-.322.082 0 0-.059.02-.075.13z" fill="#689f41"/><path d="M3.542 2.382s.147-.177.21.003c0 0 .05.134-.105.219 0 0-.085.06-.094-.084 0 0-.032-.127-.011-.138zM2.45 3.665s.269-.23.225-.03c0 0-.152.16-.232.16 0 0-.07-.03.007-.13zM2.205 3.894s.192-.211.161-.02c0 0-.1.066-.111.113 0 0-.01.118-.17.05 0 0-.102-.105.12-.143z" fill="#8fc73f"/><path d="M.5 4.845s.003-.185.277-.286c.275-.1.527-.287.53-.422 0 0 .192-.22.307-.236.115-.016.322-.236.342-.268.02-.032.01-.27.154-.268 0 0 .142.046.242-.195 0 0 .143-.209.22-.003 0 0 .129.065.106-.17 0 0-.004-.191.1-.252.106-.061.276-.259.276-.259l.17-.178s.111-.132.242-.144c0 0-.098-.076-.01-.24 0 0-.112.048-.168-.04 0 0-.08-.092.015-.142 0 0 .103-.056.19.12 0 0 .073-.084.146.063 0 0 .125-.011.123-.032-.001-.02.235.002.08.308 0 0-.066.157-.184.007 0 0-.08-.06-.122 0 0 0 .083.12-.143.284 0 0-.109.117-.123.172 0 0 .174-.08.17.089 0 0-.055.244-.185.184 0 0-.01-.155-.042-.151 0 0-.115.139-.11.15 0 0 .11-.047.113-.013 0 0 .07.162-.1.196 0 0-.14.022-.099-.07l-.114.124s.14-.075.18-.045c0 0 .035.178-.13.199 0 0-.09.002-.125.068 0 0-.116.025-.091-.022 0 0-.101.14-.192.157 0 0-.158.056-.24.145 0 0-.164.098-.283.28 0 0-.081.169-.24.235l-.115.062s.077-.019-.01.071c0 0-.087.064-.115.159 0 0-.042.061-.165-.006 0 0 .042-.107-.102.034 0 0-.212.166-.293.193 0 0-.313.175-.483.142z" fill="#8fc73f"/><path d="M3.341 2.327s.257-.144.02.087c0 0-.07.067-.125.167 0 0-.138.268-.215.336 0 0-.18.279-.218.304-.037.025-.157.217-.338.279 0 0-.334.138-.417.27 0 0-.12.263-.301.354 0 0-.515.17-.64.374 0 0-.339.268-.506.26 0 0-.11.016.364-.25 0 0 .49-.316.512-.426 0 0 .292-.257.422-.31 0 0 .197-.142.162-.282 0 0 .014-.099.219-.08 0 0 .138-.078.105-.159 0 0-.022-.109.21.018 0 0 .183-.147.137-.27-.046-.123.233-.349.233-.349z" fill="#9acc51"/><path d="M3.672 1.043s.767-.497.662.11c0 0-.645.564-.95.678 0 0-.598.375-.803.686-.206.311-.84 1.3-.946 1.51 0 0-1.014.863-.49.004L1.845 2.8s.5-.884 1.008-1.066c0 0 .516-.577.818-.69z" fill="#add572" fill-opacity=".593"/><path d="M3.62 1.986s-.12-.069-.109.01c0 0-.03.107.12.107 0 0 .31.08-.011-.117z" fill="#9acc51"/></g></svg>