<svg xmlns="http://www.w3.org/2000/svg" width="20" height="20"><g fill-rule="evenodd"><path d="M11.11.868c.075-.131.348-.027.369.102.016.102.12.048.19.073.084.03.117.122.184.173.04.03.08.027.126.025.057-.003.096.031.138.065.064.051.078.152.148.18.11.042.191.086.266.178.067.08.19.076.256.158.043.054.027.141.072.194.056.066.19.006.217.135.007.034.007.1.052.107.042.008.074-.035.114-.027.08.016.1.123.14.179.06.085.096-.066.155-.084.12-.04.213.007.323-.073.032-.023.189-.063.228-.04.048.027.05.073.104.029.043-.035.109.004.141-.052.017.017.104.131.127.123.043-.016.091-.069.13-.096.116-.08.24.014.321.097-.02-.095.123-.1.184-.11.039-.006.086-.053.125-.044.055.014.059.086.105.112.06-.107.271-.108.34-.02.116.153.302-.023.417.107.052.06.086.13.145.185.056.051.134.061.193.109.075.06.217.277.31.115-.01.047.032.04.063.038.035-.002.017.053.016.07-.004.04.032.019.043.041.019.04-.02.094.048.1.22.017.505.049.593.287.038.101.073.202.154.277.103.095.1.224.067.35-.03.111.005.152.066.242.078.115-.005.264-.059.372.069 0 .148.017.195.07.046.051.047.128.096.176.054.052.137.056.194.111.058.058.073.151.132.2.14.12.25.203.322.383.034.085.043.175.07.262.035.11.108.205.113.325.004.1-.014.202-.004.302.007.075-.054.106-.026.177.028.068.08.131.087.206.01.091-.105.124-.093.214.015.102.027.141-.012.243-.025.063-.03.145-.087.19-.057.045-.144.036-.195.09-.02.021-.022.061-.029.088-.013.052-.05.093-.066.144-.045.147.198.116.253.224.038.075.044.164.065.245.028.106.086.162.148.247.11.15-.01.351.068.513.034.07-.022.111-.036.175-.014.066.075.12.086.186.012.079-.013.121-.049.186-.04.072-.009.136.021.206.034.08.048.17.032.255-.015.083-.1.148-.089.235.009.065-.07.075-.087.13-.025.081-.048.162-.102.23-.087.11-.253.157-.366.228-.057.036-.045.12-.038.177.012.1-.036.123-.12.156-.074.028-.152.069-.178.15-.008.026.004.066-.021.086-.033.027-.071.04-.106.07-.045.038-.094.016-.102.092-.007.078-.092.14-.164.158-.038.01-.273.035-.16.1-.048.049-.09.107-.153.139-.054.027-.11.02-.165.052-.081.046-.181-.083-.267-.017-.048.037-.067.07-.132.081-.073.012-.148.004-.22.024-.078.022-.102.09-.168.128a.428.428 0 01-.17.055c-.053.004-.113-.053-.15-.086a.334.334 0 00-.195-.1c-.152-.022-.255-.05-.346-.18-.093-.134-.218-.18-.329-.29-.127-.128-.143-.338-.143-.508-.053.03-.026.102-.044.15-.015.042-.086.032-.12.046-.14.056-.212.214-.27.343-.057.126-.102.268-.207.365-.134.125-.313.073-.474.046.024.12-.168.186-.254.21-.083.023-.068.066-.078.14-.005.028-.032.044-.044.069-.025.053-.023.115-.041.17-.047.14-.151.284-.137.438.013.142.206.13.3.07.052-.033.053-.117.063-.172a.247.247 0 01.129-.18c.07-.042.172-.08.247-.029.049.033.101.14.171.096.066-.042.102-.096.177-.126.083-.034.171-.064.257-.086.119-.03.469-.045.477.147.006.145-.242.207-.323.288-.069.068-.084.166-.131.247-.049.085-.107.203-.173.274-.09.1-.26.21-.394.222-.047.005-.1-.005-.146-.013-.066-.012-.083-.056-.134-.073-.163-.053-.2-.197-.388-.09-.196.111-.276.296-.327.506-.107.444-.215.889-.28 1.34-.032.228-.058.456-.087.684.08 0 .198.009.259-.052.088-.088.179.035.237.093-.05.028-.035.09-.055.134-.033.07-.14.094-.196.139a.832.832 0 00-.256.461c-.038.2-.062.404-.079.606-.017.206-.064.407-.075.614-.014.248-.066.546-.291.693a.992.992 0 01-.459.131c-.09.005-.165-.027-.25-.042-.045-.008-.1-.064-.14-.051-.054.017-.06.085-.11.11-.059.03-.13.06-.191.083-.146.052-.27.029-.41-.017-.16-.051-.32.056-.47.097-.186.05-.368-.013-.521-.121-.134-.096-.316-.135-.432-.253-.076-.078-.122-.03-.215-.017-.095.013-.19-.03-.278-.062-.14-.055-.283-.129-.355-.269-.086-.167-.051-.361-.051-.542.019.099-.03-.059-.033-.087a2.72 2.72 0 00-.032-.212 27.414 27.414 0 01-.108-.623c-.064-.397-.118-.794-.173-1.192-.051-.369-.108-.734-.14-1.105-.014-.171-.073-.254-.228-.321-.149-.065-.218-.139-.392-.082-.057.018-.275.079-.278.154-.002.056.099.097.134.127a.918.918 0 01.171.207c.077.122.14.282.085.426-.025.065-.075.119-.105.182-.031.066-.086.098-.12.159-.036.065.018.154.039.215.024.07.009.138-.022.203-.074.157-.19.28-.323.389-.128.104-.264.207-.35.351-.04.068-.035.148-.055.221-.022.083-.108.153-.095.245-.024-.044-.086-.04-.104-.09-.02-.054-.107-.097-.144-.143-.108-.132-.275-.2-.367-.347-.106-.168-.062-.357-.104-.54-.042-.189-.142-.342-.24-.505-.036-.06-.033-.124-.05-.189-.022-.089-.074-.154-.071-.25.004-.175.107-.358.227-.48.133-.135.286-.187.463-.24.172-.05.268-.182.381-.312.1-.115.205-.23.341-.301.083-.043.177-.063.266-.088.034-.01.095-.04.131-.021.039.02.051.037.098.04.172.014.636.352.584-.027-.029-.21-.125-.403-.19-.603-.123-.38-.32-.71-.56-1.028-.096.127-.272.156-.42.168-.13.01-.4.008-.494-.109-.031-.037-.24-.123-.182-.187.048-.052.143-.073.203-.112a.505.505 0 00.197-.213c.03-.07.037-.152.096-.207.036-.033.128-.032.142-.087.033-.126-.139-.198-.226-.24-.113-.053-.212-.17-.331-.198-.072-.017-.15.02-.218.036-.109.026-.119.13-.166.212-.09.154-.261.263-.441.238-.08-.011-.137-.05-.2.018a.24.24 0 01-.245.078.452.452 0 01-.225-.124c-.048-.05-.092-.114-.17-.107-.07.006-.388-.028-.405-.125-.027-.15-.188-.106-.287-.172a.678.678 0 01-.165-.164c-.04-.056-.03-.179-.101-.194a.435.435 0 00-.172-.001c-.068.017-.11.086-.17.119a.375.375 0 01-.232.038c-.098-.014-.167-.084-.26-.106-.068-.016-.135.003-.203 0-.066 0-.105-.06-.167-.056-.068.003-.024-.064-.034-.107-.015-.061-.117-.053-.163-.057-.142-.013-.293-.046-.366-.181a.719.719 0 01-.083-.243c-.007-.064.013-.158-.04-.208a1.726 1.726 0 01-.173-.182c-.064-.083-.062-.167-.088-.263-.018-.067-.103-.092-.115-.16a.32.32 0 01.036-.191c.025-.046.076-.065.105-.107.04-.057.011-.137.045-.199.055-.102.223-.06.272-.153.05-.096-.275-.208-.33-.22a.418.418 0 01-.333-.32c-.032-.145.092-.242.136-.365.023-.066-.06-.118-.09-.166a.25.25 0 01-.014-.229c.024-.055.057-.072.104-.106.056-.043-.014-.094-.043-.132-.083-.11-.024-.315.105-.36.154-.054.13-.106.17-.243.028-.095.179-.244.288-.221-.04-.079-.087-.163-.084-.254.002-.106.092-.145.166-.2-.135-.136-.198-.239-.086-.408.084-.128.036-.333.193-.41.105-.05.038-.21.067-.297.02-.061.076-.068.132-.072.114-.01.053-.124.065-.198.027-.174.247-.15.31-.284.025-.056.001-.15.07-.18.08-.034.158-.03.21-.111.075-.123.285-.046.327-.194.023-.08.091-.082.163-.075.105.01.156-.074.25-.08.08-.004.148.064.203.114.038.036.103-.094.132-.111.069-.042.162-.073.236-.111.076-.04.077-.137.166-.163.04-.012.082-.012.12-.03.042-.022.068-.061.116-.072.072-.016.14.031.209.041.062.009.135.011.139-.069.001-.034-.003-.073.024-.1.028-.025.074-.047.076-.09.005-.1-.02-.167.014-.268.027-.078.052-.158.094-.23.037-.062.088-.12.16-.14.101-.03.072-.074.091-.167.017-.078.042-.148.12-.18.071-.03.076-.097.123-.15.04-.048.101-.064.161-.073.078-.012.165-.095.246-.07.215.068.2-.073.253-.25.021-.07.073-.151.146-.177.075-.027.143.022.218.019.064-.003.11-.059.162-.09.08-.049.136-.001.205.042.097.062.149-.01.2-.09a.334.334 0 01.232-.148c.09-.014.154.013.226.063a.516.516 0 00.302.098c.089.004.189.006.264.06.063.044.064.146.128.184.05.03.127.008.182.006.094-.004.127.046.194.101.084.069.346.03.346-.103.092.16.288-.211.368-.239.087-.03.177.027.265.019.046-.004.094-.04.14-.03.025.006.045.03.07.03.067 0 .089-.113.175-.116.09-.002.183.05.272.021.083-.026.1-.128.192-.138.087-.008.198-.058.254.04-.022-.078.15-.114.2-.12.119-.01.163.157.254.203" fill="#010101"/><path d="M8.26 5.784c-.02.09.053.066.106.049.024-.007.063.005.081-.016.012-.014.013-.032.033-.036.041-.01.118.035.145.063.055.058.008.232.048.312.023-.04.082-.04.082-.095 0-.07.09-.111.15-.115.111-.007.12.149.18.21.075-.074.184-.301.32-.238.15.072-.032.236-.031.338 0 .146.205-.027.265-.015.08.017.097.157.088.22-.014.099-.127.153-.134.252-.007.091.062.064.097.018.037-.05.048-.083.118-.085.22-.006.063.177 0 .265-.03.04-.071.117-.065.167.014.105.159-.035.18-.06.037-.043.1-.092.161-.067.084.034.003.22-.006.28.036 0 .185-.038.165.04.067-.033.156-.033.207.029.032.038.074.124.01.155-.042.02-.137.052-.141.11-.007.081.157.121.204.166.08.074-.176.176-.069.229.053.026.109.014.157.057.04.036.085.15.031.193-.083.066-.227-.054-.279.075-.021.053-.022.115-.083.139-.06.023-.166.029-.215-.02-.061-.06-.001-.154.028-.213.048-.095-.03-.17-.055-.257-.022-.074.047-.148.013-.22-.04-.086-.135-.112-.221-.112.084.024.083-.098.066-.147-.028-.083-.133-.21-.224-.227-.067-.012-.178.04-.233.073-.053.03-.093.143-.019.18.014.007.098-.126.137-.147.077-.041.166-.034.217.043.12.183-.12.214-.158.349-.022.076.099.038.126.02.067-.043.135-.099.208-.03.18.172-.189.225-.199.332-.006.068.297-.093.266.098-.012.075-.028.156-.114.174-.066.014-.158-.002-.197.067.115 0 .26.015.248.166-.01.111-.096.266-.228.244-.1-.016-.072.147-.132.19-.049.037-.246.033-.219-.063-.02.036-.328.055-.206.124a.555.555 0 01-.172-.055c-.03-.021-.09-.156-.073-.185.018-.03.093.003.123-.008a.418.418 0 00.152-.13c.06-.07.03-.143.07-.218.038-.074.105-.115.089-.207-.011-.064-.05-.135-.109-.167-.014-.007-.19-.035-.162.007.021.033.105.034.137.07.032.036.036.085.021.13-.032.097-.137.185-.242.185a.081.081 0 01.042.072c0 .037.059.04.082.052-.043.043-.078.107-.14.125-.066.019-.138-.02-.202.003-.053.019.083.132.045.184-.04.055-.15.067-.212.061-.049-.004-.152-.026-.181-.072-.04-.06-.013-.053-.095-.053a.455.455 0 00.245.224c.068.026.252-.03.292-.1.057.113.158.081.232.155.026.026-.012.074-.011.107.002.057.03.11-.001.165-.081.143-.19-.034-.264.044-.037.038.042.092.04.132-.002.061-.092.127-.145.142-.084.022-.059-.121-.058-.164.001-.07-.105-.17-.169-.138-.073.037-.115.126-.198.147-.107.027-.079-.161-.17-.136.015-.029.048-.071.026-.105-.025-.039-.081-.04-.101.004-.041.088-.063.12-.174.134-.083.01-.164-.002-.216-.076-.032-.047-.02-.091-.027-.143-.008-.062-.08-.079-.09-.007-.005.045.057.18.08.223.058.1.253.116.35.085.125-.04.129-.025.213.07.082.092.223.025.311-.02-.045.045-.086.14-.165.124.048.09.132-.05.165-.082 0 .136-.032.128-.146.16-.12.034-.157.174-.305.113-.06-.025-.03-.178-.118-.088-.075.078-.119.14-.243.1-.108-.036-.173-.103-.147-.215.01-.04.006-.102-.052-.063-.04.025-.031.093-.032.133-.002.136.075.164.194.195.054.015.125-.002.182 0 .062.002.116-.076.17-.023.247.24.492-.302.719-.1.119.105.056.215-.079.262-.059.02-.135.036-.14-.044-.002-.054-.04 0-.044.02-.016.09.021.186-.03.267-.075.117-.21.074-.282-.02-.025-.032-.157-.226-.206-.135-.04.077-.048.21-.184.181.037-.02.055-.102.044-.14-.023-.073-.114.031-.134.052-.048.049-.125.081-.194.063-.019-.005-.123-.091-.13-.122-.01-.052-.01-.106-.061-.139-.057-.036-.02.13-.012.147.026.06.09.152.157.167.045.01.073.01.11.04.047.04.068-.04.114-.025.043.013.033.092.027.122-.014.067-.037.063-.084.095-.064.044-.138.035-.214.033-.068-.001-.084-.063-.13-.101-.044-.036-.085.06-.099.085-.039.074-.12.079-.19.042-.063-.032-.087-.096-.137-.142-.08-.072-.209-.053-.307-.053.077-.038.177-.083.202-.174.032-.117-.04-.242-.12-.321.042-.021.089-.042.111-.086.021-.04-.002-.09.018-.13.033-.066 0-.089-.056-.147-.043-.046-.093-.069-.147-.102-.008-.005-.058-.033-.032-.048.076-.042.077-.056.077-.155 0-.122-.098-.15-.149-.25-.03-.06.059-.126.098-.175.064-.081.019-.16-.052-.218-.087-.072-.192-.056-.279-.114-.04-.028-.039-.075-.048-.119-.011-.05-.05-.073-.092-.097-.073-.042-.183-.049-.194-.143-.008-.066-.015-.132-.09-.148-.145-.031-.072-.034-.069-.156.003-.1-.074-.094-.146-.12-.118-.044-.052-.19-.141-.254-.079-.056-.207-.044-.29-.005-.088.04-.102.153-.212.153.027-.028.05-.06.082-.083.036-.024.077-.019.096-.064.037-.085.1-.053.16-.106.05-.044.036-.127.034-.186-.002-.07.08-.082.124-.114.148-.106-.009-.311.111-.391.063-.042.14-.088.172-.16.042-.094-.044-.191-.034-.287.008-.078.075-.102.144-.094.08.01.047-.026.06-.077a.742.742 0 01.156-.072c.043-.01.19.12.203.028.006-.048-.036-.037-.06-.05-.018-.01-.015-.083-.013-.098.006-.053.088-.139.141-.145.11-.013.22-.002.33-.005.111-.002.21.044.318.044-.046.046-.189.146-.082.207-.02-.071.17-.163.224-.17.054-.008.117.007.149.055.007.01.051.115.05.115.1 0 .097-.154.195-.164.166-.016.2.198.29.288-.012-.078.026-.27.12-.28.131-.016.24-.092.376-.092" fill="#557c3e"/><path d="M6.235 5.784c.059.013.105-.04.161-.043.05-.003.078.054.128.043h-.29M6.565 5.784c.02-.02.107-.09.04-.106-.029-.007-.058-.01-.087-.018-.042-.01-.024-.05-.046-.076-.062-.07-.1.046-.141.062-.08.031-.178.014-.217-.071-.035-.078.004-.115.06-.158.063-.049-.015-.083-.064-.059-.05.024-.103.076-.16.04-.032-.021-.085-.122-.128-.11.051-.103-.015-.146-.095-.073-.071.065-.197.032-.271-.011-.056-.033-.062-.172-.039-.225.031-.07.136-.062.198-.062-.032-.064-.19-.115-.163-.203.013-.044.25-.158.245-.166-.003-.006-.143-.026-.165-.039-.063-.036-.135-.097-.154-.17-.018-.065.046-.133.09-.173.079-.07.178-.034.271-.034-.05-.087-.176-.08-.213-.176a.167.167 0 01.037-.186c.05-.05.137.018.176-.052-.065.014-.137-.063-.161-.115-.03-.063.013-.175.05-.228.068-.098.288-.15.359-.028 0-.094-.037-.2.027-.282.062-.08.165-.022.221.034.046-.092.033-.074-.026-.148-.042-.051.003-.142.035-.188.098-.138.28.006.363.088-.018-.09-.085-.259.025-.316.04-.021.117-.037.16-.02.05.017.014.14.093.083.102-.075-.04-.244.07-.323.037-.027.148-.088.17-.011.014.052.018.142.086.075.032-.031.134-.219.193-.173.045.034.039.16.086.177.022.008.046-.085.05-.093a.52.52 0 01.184-.186c.12-.076.151-.018.199.085.058.125.126-.043.169-.082.044-.04.167-.052.198.015.028.06.012.147.113.088.055-.033.105-.086.168-.035.065.051.104.107.195.062.163-.08.264-.297.275-.471.006-.105.101-.296.24-.213.061.037.093.115.093.184 0 .018.046.14.072.11.05-.059-.018-.15.05-.214.036-.035.107-.084.157-.047.04.03.076.1.13.109.081.015.011-.118 0-.14-.095-.194.333-.252.295-.069 0-.129-.043-.228-.194-.207a.238.238 0 00-.152.082c-.04.05-.034.114-.11.125-.046.007-.097 0-.14.024-.112.06-.068-.006-.167-.032a.399.399 0 00-.12-.019c-.03.018-.12.014-.109.068-.146-.084.154-.146.184-.188.032-.046.007-.115.051-.15.042-.034.11-.015.156-.005.127.03.192-.056.304.028.132.1.185-.086.266-.15.09-.071.196.088.275-.04.034-.056.087-.104.154-.11.03-.004.196.033.175.084-.014.034-.065.044-.078.077-.014.037-.008.081-.03.116-.028.045-.089-.025-.125-.027-.068-.003-.114.08-.154.122a.399.399 0 00-.071.392c.018.042.064.062.109.057.06-.005-.044-.09-.053-.105-.068-.123.029-.252.109-.331.103-.102.199.17.252.092.062-.09-.056-.274.106-.318.143-.039.26-.083.322.082.022.06.028.048.001.113-.01.021-.013.112.036.082.103-.065.06-.209-.006-.275a.545.545 0 00.216-.044c.093-.033.063.093.083.142.077.186.2-.014.326.085.08.063.031.315.184.202.114-.084.2 0 .22.114.014.087.024.237.146.171.099-.052.169-.076.198.056.01.04.015.113.055.136.044.025.097-.04.144-.035.093.008.023.144 0 .18-.038.06-.064.133-.025.2.064.112.234-.152.348-.058.085.07-.062.307.082.29.109-.014.235-.033.217.13a.23.23 0 01-.115.173c-.081.043-.131-.021-.206-.009-.057.01-.004.146-.032.185-.078.108-.287-.065-.335.014-.048.077.137.16.178.22.037.052.01.12-.044.148-.09.048-.16-.032-.235-.069 0 .049-.011.108.03.143.053.044.127.068.099.156-.05.153-.218-.028-.319-.006-.056.012.022.133.026.16.01.096-.103.093-.16.065-.086-.04-.131-.132-.24-.1-.106.033.03.115.05.158.021.046.036.136-.025.16-.056.02-.147.094-.204.09-.074-.005-.098-.107-.127-.16-.038-.068-.103.003-.145.033-.037.026-.277.067-.268-.007.006-.043-.065-.077-.085-.128-.013-.032-.037-.062-.037-.099 0-.028-.07-.03-.082-.052 0 .155.104.27.206.372-.08.04-.126.125-.206.165.051-.201-.447-.115-.495.035-.01.031.013.059-.036.052-.052-.008-.1-.031-.15-.042-.044-.008-.116.07-.137.103-.034.058.02.143-.05.183.047-.013.053.053-.004.046-.037-.004-.034-.055-.026-.08.015-.046.053-.082.067-.13.02-.072-.03-.12-.028-.189.002-.049.046-.074.066-.114.024-.05.01-.113.03-.166.05-.136.18-.244.102-.4.092.026.074-.112.047-.153-.024-.037-.009-.083-.033-.12-.033-.048-.088-.074-.138-.099.155-.09-.042-.259-.044-.352-.002-.065.063-.131.029-.194-.028-.051-.117-.088-.161-.13-.073-.067-.124.025-.2.017-.047-.006-.174-.047-.195-.095-.05-.117-.259-.21-.338-.072 0-.117-.056-.205-.166-.246-.07-.026-.204.055-.27.08-.04.016-.136.18-.081.167.07-.015.128-.125.198-.125.075 0 .242-.101.225.068-.003.038-.066.24.053.169.057-.034.164-.188.24-.114.084.08-.034.233-.034.331.021-.01.244-.208.241-.1 0 .026-.053.195.047.132.078-.049.097-.133.196-.154.089-.019.171.084.164.168-.01.124-.129.087-.156.178-.032.11.126.018.172.04.225.104-.303.303.012.414.027.01.064.022.068.055.007.058-.062.044-.088.08-.082.108.062.145.071.23.013.119-.182.084-.228.145-.04.053.067.121.058.179-.018.108-.14.02-.175-.013-.049-.047-.15-.03-.098.048.04.061.126.116.084.2-.039.08-.158.056-.203.134.081-.017.022.086 0 .113-.069.084-.163-.003-.248.01.076.077.174.11.18.23a.562.562 0 01-.047.268c-.039.08-.18.098-.258.116-.1.023-.168-.078-.246-.118.066.133.16.258.194.405.024.106-.111.141-.176.189-.117.086-.24.033-.326-.073-.059-.072-.073-.19-.188-.19.123.07.01.3-.104.312-.11.013-.132-.117-.222-.14-.037-.01-.075-.003-.091-.046-.013-.034-.067-.11-.011-.131.068-.026.192-.08.259-.05.008.004.076.048.083.044.063-.038.141-.039.209-.065.045-.018.07.015.093.048.037.05.105.032.151.008.093-.048.043-.18.129-.228-.065.013-.043-.1-.083-.124.09 0 .196-.048.253-.118.049-.06.134-.24.105-.317-.034-.089-.16-.114-.243-.124-.026-.003-.171-.012-.118.047.066.073.35-.044.29.142-.034.1-.114.183-.18.263-.077.09-.21.066-.314.066.052.068.194.066.207.165.01.07-.102.098-.083.165-.054-.027-.157-.125-.222-.104-.057.017-.08.086-.145.093-.084.01-.135-.133-.215-.101-.057.023-.088.094-.143.125-.06.034-.128.011-.186-.015-.056-.025-.134-.243-.204-.122.08-.022.13.178.197.205.058.022.053.035.012.089-.037.05-.07.108-.126.14-.18.1-.215-.184-.359-.095-.136.084-.153-.055-.128-.154.006-.025.03-.073.02-.099-.015-.04-.09.024-.098.04-.042.079-.038.242.037.302.08.065.29-.036.316.101.012.068-.07.072-.115.06-.1-.025-.181-.105-.252-.175.023.107-.164.216-.257.214-.057 0-.246-.155-.28-.09.082-.018.07.093.124.124h-.249M8.094 5.784c.028 0 .167-.031.166-.033.033.053-.15.033-.166.033" fill="#557c3e"/><path d="M7.764 1.198c.036-.072.113-.182.206-.124.097.061.076.201.15.28.087.093.178-.017.264-.042.082-.023.125.083.161.135.053.079.115.06.197.043.115-.022.174.107.072.174-.065.042-.204.02-.18.137.021.098.146.036.204.017-.029.086-.063.262-.167.29-.078.02-.086-.09-.158-.086-.042.002-.148.02-.13.085-.038-.021-.027-.071-.041-.105-.02-.048-.13-.062-.175-.062-.062 0-.087.039-.14.058-.052.019-.098-.04-.143-.055-.127-.046-.223.07-.306.145-.069.062-.131.074-.186-.022-.046.06-.13.13-.212.12-.057-.006-.095-.04-.156-.021a.514.514 0 00-.154.08c-.057.044-.03.168-.082.192-.07.033-.137-.024-.204.044-.04.041-.063.097-.105.138-.062.062-.11.005-.178.009-.112.007-.29.226-.149.306-.07 0-.193.028-.24.085-.046.055-.008.142-.008.204-.027-.048-.061-.035-.1-.01-.056.034-.075 0-.112-.038-.035-.034-.132-.24.006-.2-.095.016-.222-.087-.208-.187.008-.054.064-.097.11-.117.017-.007.158-.078.06-.069-.13.012-.194-.146-.151-.252.052-.126.226-.202.354-.202-.054-.095-.14 0-.215 0-.095 0-.172.07-.212.151-.047.093-.002.17.025.26.03.105-.007.207-.015.312-.006.083.058.06.09.111.052.087-.075.056-.109.045-.079-.026-.142.02-.215.044-.104.033-.204-.064-.3-.096.04-.07.281-.008.164-.141-.059-.068-.115-.179-.065-.27.025-.045.073-.042.118-.046.045-.005-.022-.096-.01-.13.016-.05.099-.093.137-.13.07-.07.11.038.186.022.048-.01-.083-.197-.078-.235.009-.08.07-.107.139-.122.09-.02.071-.078.087-.153.019-.088.074-.06.135-.045.068.016.11-.054.173-.047.149.016.212.037.296-.108.062.107.088-.087.09-.129.006-.083.024-.286.16-.237.068.025.15.126.215.044.029-.038.104-.164.165-.145.066.02.05.169.127.2.09.036.188-.198.234-.249.078-.083.245-.147.34-.058.052.05.063.126.11.179.033.037.085.023.129.023" fill="#557c3e"/><path d="M8.59 1.611c-.015.072.086.14-.01.188-.094.047-.166.143-.28.143.076-.075.268-.14.252-.272-.017-.144-.231-.076-.293-.183.123 0 .243.036.331.124M12.64 2.314a.848.848 0 01-.066.283c-.034.094-.046.204-.1.288a.593.593 0 00-.098.276c-.014.089-.033.133-.12.146-.088.013-.061.143-.09.201-.04.085-.085.145-.184.133-.113-.013-.099.025-.177.08-.058.04-.159.01-.199.08-.036-.063-.13-.035-.159-.107-.023-.059-.055-.114-.083-.17-.018-.036-.069-.02-.088-.053.018.065-.117.085-.157.084a.427.427 0 01-.292-.12.373.373 0 01-.09-.29c.005-.064.064-.194.125-.087-.07-.015-.013.097-.082.082.07.14.115.357.31.362.073.002.164-.02.208-.084.024-.034-.03-.14-.005-.15.107-.042.082.243.256.126.058-.04.103-.094.152-.144.037-.039.016-.027.001-.077-.008-.03-.066-.04-.064-.059.001-.019.22.006.26-.022.066-.047.123-.119.083-.202-.013-.027-.23-.228-.247-.203.044-.062.202.037.235.068a.218.218 0 01.03.296c-.06.087-.153.13-.221.207-.063.071-.096.163-.194.195-.04.012-.2-.009-.21.037-.02.081.101.193.166.218.077.03.191-.008.244-.072.026-.032.01-.194.068-.165.053.028.079.11.141.12.071.01.113-.092.13-.144.035-.1.007-.08-.055-.146-.053-.055.126-.038.15-.049.073-.031.146-.127.116-.21-.032-.089-.063-.11.029-.17.05-.034.154-.15.12-.216-.031-.06-.157-.042-.133-.136.102.051.267-.03.21-.157-.022-.05-.077-.117-.132-.132-.059-.017-.117.048-.184.04-.108-.015.004-.116.062-.111.044.004.13.042.175.057.053.018.095.113.158.097" fill="#010101"/><path d="M15.366 2.396c.078 0 .15-.064.23-.04.08.026.033.15.116.17.065.017.102-.086.166-.091.08-.006.14.077.19.127-.13.075-.107.285.067.25.071-.015.112-.102.191-.094.066.006.123.108.109.169-.004.019-.029.003-.032.025-.004.037.02.07.04.098.049.074.124-.015.167-.048.076-.06.137-.006.115.081-.025.102 0 .172.046.262.062-.061.118-.144.208-.166.108-.027.198.055.295.09.083.03.144.061.123.154-.016.074-.032.1-.085.131-.044.026.131.086.137.086.081.01.14.052.109.139-.056.162-.155.07-.264.036-.021-.007-.086-.024-.064.021.038.078.12.047.118.153 0 .077.083.135.01.207-.058.057-.145.065-.215.1.098.051-.028.155-.079.186-.033.02-.109.028-.087.084.028.072.036.113 0 .184-.015-.026-.11-.064-.115-.01-.004.038.042.073-.016.094-.037.014-.11.017-.13-.029-.005-.014-.052-.143-.028-.055.013-.045-.054-.038-.041-.083-.08.047.02.256.117.249.045-.004.116-.067.16-.035.062.043-.007.103-.046.13-.154.105-.157-.09-.29-.104-.076-.009-.067.151-.105.193-.087.096-.202-.08-.26-.123-.125-.09-.187.16-.296.028-.05-.061-.066-.12-.149-.145-.077-.023-.15-.038-.222-.077-.084-.045-.145-.032-.234-.006-.084.025-.08.108-.08.18-.069-.12-.294-.152-.396-.072-.082.063-.088-.015-.16-.004-.08.013-.154.04-.201.106-.091.127-.243-.027-.362-.05-.052-.01-.32-.06-.286.061-.058-.1-.226-.124-.33-.124.11-.063.016-.174-.055-.222-.107-.071-.2-.033-.196-.193.006-.264-.359-.218-.522-.178-.13.031-.054-.045-.09-.122-.034-.077-.165-.089-.236-.08-.08.01-.147.172-.232.097-.039-.034-.17-.164-.07-.201.06-.022.127-.002.189-.01.08-.01.104-.065.144-.125.055-.081.198-.057.283-.09.064-.025.048-.084.042-.138-.008-.067.068-.088.1-.135.066-.095.027-.236.113-.306.04-.033.063-.077.09-.121.043-.069.096-.07.163-.1.13-.058.18-.198.262-.3a.61.61 0 01.14-.127c.062-.036.102.028.158.04.05.01.073-.054.091-.088.034-.06.103-.092.163-.121 0 .075.026.201.126.194.082-.006.059-.146.132-.164.071-.017.092.109.112.151.057.121.153.003.19-.069.149-.288.232.173.377.024.054-.055.088-.161.184-.129.04.014.168.138.201.075M5.078 3.181c.016.033.046.095.088.098.055.004.053-.111.068-.143.054-.112.407.032.369.13-.03.078-.103.114-.112.206-.008.078.05.142.044.217-.006.075-.088.095-.08.184.006.085.008.148-.038.223-.063.102-.161.228-.056.343.032.035.133.074.123.132-.012.07-.112.091-.125.16-.013.061.066.1.046.163-.02.062-.11-.02-.147-.015-.052.006-.28.038-.262.12-.065-.037.002-.08.04-.103.077-.05.08-.113.1-.199.02-.082.085-.132.127-.201.057-.095.009-.175-.054-.25-.026-.032-.083-.134-.138-.104-.09.048-.003.11.049.118.17.03.037.266-.042.326-.025-.045-.14-.073-.132.008.006.07.13.045.118.135-.008.07-.12.208-.2.196-.062-.009-.182-.191-.24-.09.044.044.099.065.038.126-.039.039-.058.095-.116.046-.143-.121-.303-.03-.377.116-.07-.07-.151-.101-.246-.063-.088.035-.084.137-.156.182-.152.094-.396-.2-.274-.245.092-.035.024-.102-.045-.075-.08.031-.085.17-.052.235.047.091.154.132.25.138.08.006.069.045.069.118-.074-.037-.197-.063-.25.022-.022.036-.022.187-.073.172-.093-.027-.123-.02-.206.033-.075.05-.164.11-.26.094-.058-.01-.186-.071-.15-.154.015-.037.09-.107.013-.123-.045-.01-.108.015-.149-.003-.09-.039-.078-.162 0-.207-.08 0-.134.003-.16.09-.016.055.034.013.04.054.005.04 0 .058.03.089.065.07.124.087.145.188.02.093.142.113.095.21-.028.06-.089.116-.05.185.04.07.139.144.024.203-.212.108-.288.345-.041.469-.068.034-.165.076-.166.165-.001.085.082.143.125.207-.067.033-.165.091-.151.18.014.094.093.191.192.191-.055.111-.065.253.05.329.14.09.065.151-.03.238-.077.072-.013.149-.15.108-.034-.01-.223-.055-.2.028-.086-.066-.12-.188-.249-.124.093.053.003.178-.052.223-.09.072-.176-.03-.272-.02-.087.01-.194-.043-.23-.125-.047-.108.127-.189.059-.326-.05.1-.188.33-.324.317-.153-.014-.146-.189-.097-.29.036-.074.152-.209.1-.296-.052-.089-.248-.153-.142-.296.062-.085.27-.12.124-.255-.109-.1-.088-.288.07-.335.095-.028.215.004.163-.138-.061-.168.103-.237.231-.287.035-.013.093-.058.131-.03.04.031.045.117.076.158.086.114.189-.146.258.02.017.041.018.1.046.134.045.057.07-.082.07-.103-.003-.062-.054-.128-.12-.128-.048 0-.081-.09-.131-.07-.072.028-.066.006-.11-.046-.046-.054-.125-.045-.18-.085-.103-.077-.031-.244.039-.317.106-.112.256-.057.286.088.014.068.01.125.076.164.05.03.105.047.136.101.046-.082.158-.02.226-.062.037-.023.047-.078 0-.097-.056-.023-.113.026-.171.018-.12-.016-.199-.007-.183-.154.008-.077.102-.209-.043-.193-.07.007-.182.02-.21-.066-.038-.12.103-.158.169-.222.039-.038-.02-.045-.045-.048-.063-.008-.105.029-.146.07-.032.033-.03.084-.047.124-.033.074-.044.055-.004.134-.148-.074-.151-.289.041-.289-.074-.056-.112-.177-.063-.26.02-.036.044-.077.067-.11.03-.044.11-.037.155-.05-.029.008-.028-.21-.026-.231.017-.14.145-.107.233-.147.06-.027-.008-.078-.025-.107-.024-.044.026-.155.058-.19.038-.044.113-.036.164-.05.078-.023.068-.122.095-.183.02-.047.052-.12.114-.12.061.001.123.067.16-.022.018-.042.004-.1.065-.103.063-.003.192.032.227-.042.024-.05.006-.115.069-.142.062-.028.14.058.194.012.026-.021.026-.086.07-.08.047.005.04.105.096.09-.05.05-.127.08-.158.147-.03.067.012.188.075.225a.44.44 0 00-.19.154c-.04.066.006.114.02.177.015.07-.064.1-.1.144-.049.061.008.15.042.204.075.117.329.023.142-.011-.138-.026-.116-.246.014-.211.027.007.106.077.095.005-.009-.055-.046-.044-.08-.072-.128-.106.009-.26.141-.262.187-.003-.073-.175-.086-.26-.018-.123.25-.186.333-.158 0-.067-.011-.152.04-.205.08-.083.206-.025.303-.043.05-.009.005-.1.035-.13.055-.055.134-.134.22-.117.024.004.077-.082.123-.082.116 0 .23.04.349.04.022 0-.016-.079.021-.085.055-.01.16.066.148.126" fill="#557c3e"/><path d="M17.143 3.636c0 .093.051.207.025.3-.025.086-.121.117-.139.212-.021.116-.113.202-.161.309-.035.077-.14.183-.232.179a.298.298 0 01-.224-.12c-.066-.093-.086-.05-.126.024-.03.054-.176.093-.236.102-.098.014-.196.007-.257-.08-.014-.02-.097-.227.001-.182.056.025.045.14.12.176.106.05.35 0 .385-.131.008-.028.01-.165.065-.108.035.036.06.049.07.102.009.05.015.111.066.138.078.041.187-.01.257-.047.102-.054.086-.162.055-.254a.986.986 0 00-.041.041c-.02-.08.155-.025.193-.06.078-.073-.022-.181-.08-.222-.143-.1.001-.079.089-.049.124.042.145-.173.126-.247-.029-.113-.13-.165-.239-.158-.017 0-.254.008-.21-.035.044-.043.172-.073.23-.05.081.032.167.18.263.16" fill="#010101"/><path d="M11.358 4.09l.166-.04-.124.123-.042-.083M17.638 4.173c0 .036.02.075.007.11-.015.04-.114.066-.148.086-.033.018-.005.1-.052.094a.055.055 0 01-.037-.029c-.025-.03-.069-.013-.1-.013.084.17-.08.33-.248.33.04-.079.016-.202.097-.257.09-.061.107-.161.199-.225.047-.033.11-.19.181-.173.046.011.04.094.101.077" fill="#557c3e"/><path d="M12.185 4.256c0 .055-.019.131.04.165-.006-.035.023-.054.035-.083.023-.056.006-.08.053-.13.046-.05.126-.139.203-.108.162.065-.09.287.04.362-.02-.076.096-.096.146-.108.117-.026.163-.106.288-.06.085.031.205.052.196.172-.009.108-.116.145-.16.23-.053.102.131-.016.15-.025.068-.035.178-.088.246-.026.071.065.009.18-.034.242-.061.088-.025.136.068.081.058-.034.193-.058.25-.018.125.085.048.164-.013.255-.082.12.098.054.134.049.042-.006.164.013.115.081-.034.046-.14.107-.081.17.056.062.15-.042.213.016.053.048.054.152.033.215-.036.112-.175.166-.27.214.051.088.137-.012.207 0-.032.063-.084.137-.165.124.056.112.016.175-.032.279-.044.098.102.163.156.217-.039.038-.074.1-.13.113-.06.015-.093.016-.08.09.02.1.072.206-.079.204-.125-.002-.052.155-.052.226-.001.088-.197.098-.197.116 0 .072-.019.122.018.189.031.056.04.07-.016.088-.065.02-.106.11-.181.099-.034-.006-.05-.066-.094-.083-.067-.026-.099-.018-.102.056-.004.073-.041.109-.104.144-.073.041-.164.062-.23-.003-.063-.06-.012-.132.057-.153a.205.205 0 00.136-.114c.038-.075.118-.056.18-.092.06-.035.092-.117.108-.18.021-.083-.038-.1.032-.163.081-.073.248-.157.267-.275.01-.062-.005-.293-.112-.262.052-.052.12-.093.153-.16.039-.076-.029-.112-.032-.183-.005-.128.228-.175.177-.312-.018-.049-.099-.1-.064-.16.038-.064.099-.065.097-.154-.002-.123-.181-.218-.29-.233-.042-.006-.128.047-.064.084.043.025.11.001.156.004.155.01.147.218.01.251-.043.01-.106.02-.14.051-.037.037.142.082.161.097.129.099-.054.26-.164.26.03.062.16.276.047.322-.076.03-.16-.026-.234.019-.076.047-.112.16-.217.154-.1-.006-.154-.123-.257-.123.05.05.183.16.253.168.058.006.136.024.191-.004.04-.02.049-.09.1-.088.065.002.153.097.16.16a.171.171 0 01-.058.15c-.025.018-.084.044-.068-.014-.09.045-.099.216-.22.209-.061-.004-.178-.186-.225-.125-.053.067-.053.057-.133.08-.077.024-.154.062-.236.036-.148-.045-.192-.2-.343-.2.038.029.05.076.076.114.033.049.09.048.136.077.09.055.214.123.324.092.049-.014.17-.104.219-.059.029.027.078.017.1.054.025.04.041.089.05.135.012.052-.023.144-.076.165-.031.013-.057-.036-.089-.04-.047-.006-.08.035-.094.075-.032.087-.067.139-.164.095-.047-.02-.068-.05-.068-.1 0-.04-.054-.027-.042-.071-.097.049-.183.26-.318.192-.046-.023-.136-.05-.136-.115s-.03-.16.041-.201l-.082-.041c.012.057-.053.093-.045.15.01.073.05.144.089.205.088.144.21.07.332.02.091-.038.241.078.13.15-.051.032-.154.058-.21.03-.032-.015-.124-.103-.134-.03-.011.08-.103.208-.199.203-.086-.005-.125-.137-.215-.153-.129-.024-.055.215-.222.213-.065-.001-.095-.04-.13-.087-.048-.062-.118-.05-.181-.082 0 .061-.018.174-.086.197-.117.04-.17-.116-.204-.19-.062-.135-.147.01-.133.096.02.112.144.165.237.204.129.055.222-.028.348-.018.114.009.24.088.34-.006.116-.11.14-.025.272-.033.12-.007.243-.053.3-.167.059.104.197-.004.281-.002.13.001.132.052.049.13-.034.033-.016.092-.052.117-.038.027-.102 0-.145.005-.093.01-.102.121-.175.163.023-.006.06.031.034.037-.03.007-.066.003-.097.003-.09 0-.155.04-.203.119-.13.212.044.412.225.502-.097.056-.117.364.041.33-.105.06.004.166-.024.249-.017.048-.09.07-.123.11a.246.246 0 00-.05.189c.014.13.066.221-.099.256-.05.01-.228.044-.2-.06-.042.085-.051.196-.13.257-.099.078-.177.011-.245-.065-.08-.091-.105-.066-.122.04-.02.123-.18.1-.264.079-.154-.04-.133-.045-.077-.176.048-.113.08-.13.191-.184.082-.04.241-.359.07-.322.076.045-.023.187-.062.226-.027.028-.196.058-.187.104-.039-.068-.352-.141-.165-.248-.101 0-.221.09-.316.02-.107-.079-.05-.231.027-.309l-.083-.041c.03.102-.183.097-.238.096-.075-.001-.12-.033-.148-.103-.037-.094.06-.166.097-.241.062.118.24-.08.283-.13.074-.087.044-.166.062-.267.018-.096.149-.103.212-.157.046-.039.148-.158.099-.223-.025-.034-.125-.07-.076-.125.04-.044.125-.076.12-.147-.009-.118-.102-.222-.204-.273.034-.02.023-.053.041-.083.036 0 .05-.01.046-.047-.014-.1-.06-.16-.17-.16.09-.069.14-.23.075-.33-.063-.094-.184-.116-.288-.134-.045-.008-.092-.015-.135-.028-.055-.017-.015-.089-.028-.13-.026-.083-.18-.063-.232-.114-.023-.023.062-.197.032-.254-.042-.08-.188-.021-.215-.122-.023-.087.034-.207-.071-.259-.044-.021-.1-.008-.14-.03-.044-.022-.043-.1-.046-.14-.01-.108-.035-.139-.11-.211-.08-.08.051-.053.097-.046.084.014.165-.006.052-.07-.133-.077-.052-.166.07-.189.047-.008.095-.018.14 0 .037.017.079.039.056-.025-.04-.107-.244-.076-.25-.188-.004-.068.109-.158.16-.193.031-.02.087-.063.127-.057.036.005.063.032.097.042.05.016.103 0 .155 0-.065.018-.137-.081-.204-.084-.047-.001-.105-.015-.148.01-.008.004-.091.059-.055-.01.022-.04.034-.105.086-.12.042-.013.084.006.126 0 .037-.006.104-.137.13-.168.026-.031.06-.056.103-.05.022.003.093.048.112.02.025-.038-.038-.168-.034-.22.007-.093.062-.154.158-.148.033.002.14.11.135.112.034-.017-.031-.1.033-.084.015.004.05-.114.067-.134.077-.088.235-.137.301-.023.057.098.131.284.16.077.014-.114.218-.249.263-.084.019.07-.02.175.01.234.04.075.083-.09.087-.104.027-.077.177-.317.273-.181.021.03.062.333.116.306.034-.018.02-.105.026-.136.017-.09.074-.166.114-.247.08.04.144.103.207.166" fill="#557c3e"/><path d="M11.813 4.173c-.01-.034.007-.05.041-.041-.034-.01-.05.007-.041.041" fill="#557c3e"/><path d="M5.904 4.173c-.022.046-.082.076-.082.133 0 .045-.027.09-.035.134-.02.112.217.105.283.105-.069.068-.244.176-.138.286.112.117.287-.006.386-.08 0 .214-.431.265-.5.055-.014-.044-.013-.11.03-.139.046-.03-.017-.114-.034-.146-.033-.058-.094-.131-.08-.204.011-.063.1-.158.17-.144" fill="#010101"/><path d="M9.995 4.256c-.06.12-.204.149-.095.294.096.13-.084.221-.194.173-.162-.07.032-.22.083-.3.032-.05.1-.08.12-.14.006-.02-.01-.056.013-.067.025-.012.061.02.073.04M17.845 4.751c-.049.05-.146.181-.034.219.115.038.234-.05.346.041.048.04-.065.136-.062.183.006.086.16.132.205.053-.012.042.024.049.053.061.065.027.017.096.03.146.012.045.095.09.139.083.042-.007.017.055.067.04-.037.074-.177.112-.118.214.029.05.16.159.092.222-.026.025-.092-.008-.102.034a.3.3 0 00.001.123c.015.076.168.015.168.151-.024-.024-.23-.16-.21-.028.008.058.143.024.169.07-.087.05-.004.139 0 .207.007.096-.087.058-.124.123.014-.048-.056-.013-.04.042.016.06.088.11.054.177-.057.116-.236.163-.303.03-.059.033-.004.098.005.143.015.07-.06.116-.117.134-.127.039-.234-.182-.343-.236-.007.063.052.117.042.165-.021-.036-.216-.092-.207-.044.008.047.096.075.13.097.067.045.077.12.077.195l-.124-.042c0 .091.115.176.077.268-.039.094-.162-.014-.194.081-.027.08.02.191-.09.222-.114.031-.164-.03-.214-.122-.017-.03-.116-.171-.116-.065 0 .11.135.166.122.278-.012.097-.143.098-.215.092-.063-.006-.18-.11-.238-.093.038.03.047.078.081.11.046.041.136.056.194.056.104 0 .25-.074.303-.166 0 .153.157.153.216.264.079.144-.08.208-.196.173-.086-.026-.161-.127-.196.005-.007.025-.014.068-.043.077-.076.025-.093-.084-.113-.128-.015-.033-.044-.035-.069-.057-.023-.02-.02-.06-.031-.086-.039-.104-.055.03-.079.045a.282.282 0 01-.145.033c-.038-.002-.014-.126-.012-.145.004-.045.02-.116-.005-.158-.027-.043-.111-.04-.154-.058-.153-.06.16-.246.001-.337.072-.035.165-.099.165-.19 0-.104-.064-.18.01-.277.06-.078.018-.195.08-.27.067-.08.192-.076.255-.165.059-.082.008-.162-.028-.24-.043-.094.081-.107.115-.176.065-.132-.062-.356-.184-.417.093-.046.19-.132.166-.248-.02-.093-.093-.225-.207-.206.102-.103.046-.202-.041-.29.182 0 .218-.205.372-.244.106-.026.196-.091.289-.146.108-.063.213-.052.33-.023" fill="#557c3e"/><path d="M15.655 4.875c.122.163.319.358.537.248-.02.074.248.128.294.146.078.031.136-.058.21-.063.078-.005.118.1.199.083l-.037.074c-.012.022-.04.003-.057.019-.036.036-.117.073-.113.135.008.122.185.015.24.006.107-.018.124.161.09.23-.036.074-.237.039-.233.153.003.078.247.232.14.33a.521.521 0 01-.216.121c-.115.035-.134-.134-.138-.209-.01-.172-.109-.25-.255-.322 0 .049.001.097.047.126.045.028.109.043.118.106.005.037-.01.103-.057.076-.074-.042-.15-.02-.232-.02.07.139.265.07.35.19.036.05.04.098-.022.121-.08.03-.083.057-.045.132.061.12-.104.308-.133.127-.023-.146-.184.116-.067.092-.095.095-.245.16-.378.112-.133-.046-.138-.154-.164-.27-.029-.134-.089.054-.058.129.022.053.046.112.09.151.07.06.06.085.015.158-.028.046-.036.063-.093.083-.035.012-.062-.056-.081-.076-.025-.026-.099-.086-.139-.07-.032.012-.034.099-.075.125-.072.047-.214.074-.292.023-.041-.027-.03-.103-.024-.144.004-.028.044-.044.026-.076-.015-.027-.045-.04-.066-.062-.056.112-.193.215-.316.133-.043-.029-.116-.08-.132-.132-.021-.063.045-.122.02-.182-.037-.09-.104.099-.107.13-.014.13.163.243.261.289.054.026.075-.007.121-.026.027-.01.145.005.153.042.033.152.247.158.364.1.077-.038.076-.075.152-.007.043.038.104.099.167.094.05-.003.096-.037.14-.059.081-.04.103-.005.177.025.124.052.24-.056.372.01.084.04.197.023.19.143-.012.174-.47.074-.185.248.115.07.051.19-.039.251-.054.036-.122.04-.174.08-.026.02-.023.056.01.067.033.012.07-.017.098-.031.091-.048.249.014.304.097.062.092-.096.148-.172.132.045.089.182.069.204.17a.208.208 0 01-.023.145c-.042.07-.107.03-.168.02-.194-.032-.017.142.017.186.075.095-.047.24-.145.257-.095.016-.026.095-.012.167.012.065-.234.121-.283.148-.05.027-.286.23-.33.111-.013-.039-.004-.08-.01-.12-.015-.083-.075-.146-.117-.216.086-.043.145-.177.254-.165.099.01.257-.077.298-.168.04-.09.052-.244-.025-.32-.027-.026-.084-.004-.07.037.021.067.069.108.049.184-.019.074-.146.236-.24.18-.057-.033.013-.15-.073-.161-.164-.023-.052.146-.075.22-.03.09-.173.076-.242.11.015-.073-.168-.033-.037.023.12.052.11.208.16.308-.05 0-.123.003-.123.072 0 .039.126.052.151.08.077.087-.079.265-.151.137-.079.158.08.078.072.191-.005.074-.118.114-.179.113-.083 0-.136-.102-.224-.092-.044.005-.057.055-.079.085-.043.057-.127.056-.184.022-.06-.035-.173-.12-.135-.203.038-.084-.069-.08-.06.04.007.102.06.183.155.22.072.029.21.088.262-.004-.012.056.043.098.042.152 0 .067-.085.098-.125.137.011-.051-.081-.064-.082-.015-.002.06-.083.088-.082.011.002-.074-.063-.044-.1-.014-.065.051-.111.085-.192.04-.074-.042-.1-.083-.17-.017-.057.054-.137.052-.205.018-.164-.081-.153-.319-.036-.436-.134 0-.197.115-.175.238.025.147.21.202.2.344-.005.08-.016.144.025.218.019.035.055.109 0 .132-.044.02-.103.001-.145-.014-.084-.029-.096-.052-.112-.134-.007-.032-.1-.086-.108-.042a.109.109 0 01-.1.091c-.051.006-.279-.028-.287-.102-.003-.022.403-.09.33-.142-.057-.04-.136.016-.19.03-.11.028-.152-.006-.196-.096-.031-.064-.025-.083.023-.137.028-.031.04-.061-.011-.064-.108-.006-.272.043-.308-.099-.021-.083.034-.098.087-.14.046-.034-.057-.08-.09-.062-.11.057-.045.252.009.32.062.08.292.098.131.241a.148.148 0 01-.16.02c-.075-.034-.078-.12-.14-.162-.067-.045-.165.037-.243.001-.03-.013-.115-.118-.1-.151.019-.043.088-.084.08-.137-.011-.065-.088-.087-.145-.084-.041.002-.089.017-.11.055.033-.12-.221-.092-.216-.187.003-.06.042-.142.102-.165.068-.027.127.033.192.017.123-.03-.217-.18-.111-.265.042-.035.105-.016.154-.021.11-.011.02-.093-.043-.1-.12-.014-.27-.14-.153-.252.043-.041.095-.048.149-.07.042-.016-.104-.057-.115-.059-.143-.023-.247-.04-.271-.212-.022-.152.087-.284.246-.252.031.007.262.076.173-.014-.03-.03-.1-.058-.098-.108.004-.099.138-.094.202-.116.015-.005.246.178.205.071-.019-.049-.079-.075-.09-.124-.026-.103.11-.123.18-.123.194-.002.237-.182.404-.235.089-.029.19-.02.271-.073.112-.073.084-.134.068-.24-.022-.144.255-.135.223-.293-.013-.063-.05-.056.018-.094.04-.022.084-.051.104-.094.039-.08.01-.166.063-.247.036-.054.136-.159.101-.23-.015-.033-.05-.052-.064-.085-.023-.052.016-.108.023-.159.015-.11-.027-.124.07-.208.1-.087-.059-.158-.036-.259.024-.109.157-.347-.033-.385-.155-.031-.055-.037-.051-.127.003-.085-.094-.18-.18-.166.027-.055.008-.159.064-.196.045-.031.118-.019.167-.007.054.012.14.049.146.113.001.016.01.174.056.142.014-.009.058-.22.133-.132.034.04.019.082.078.116.024.014.104.048.106-.007.005-.104-.154-.197.006-.25.169-.056.155.198.248.18.072-.013-.02-.215.073-.245.148-.048.275.203.41.203-.044-.089-.06-.193.041-.248.041-.022.072-.052.114-.01.038.038.104-.001.134.051M5.326 5.04c0 .065.012.138.05.191.05.071.163.075.237.108.054.025.13.047.11.117-.02.064-.013.163-.074.204-.074.05-.227.09-.092.187.035.026.123.086.094.141-.03.057-.116.027-.102.116.006.041.05.113.014.15-.025.025-.086.019-.103.047-.015.025.068.146.07.185.002.07-.055.116-.111.144-.049.024-.11.043-.146.086-.044.055.023.096.043.143.023.053-.028.18-.052.229-.035.069-.13.037-.186.019 0 .082.039.214-.046.269-.054.034-.084.014-.108.077-.02.055-.151.021-.198.046-.057.03-.104.08-.17.091-.058.01-.141.01-.182.06-.024.03-.092.109-.091.15 0 .043.073.057.093.092 0-.159.131-.25.28-.247.083.002.161.033.227.083.036.027.067.104.109.066.048-.045.403-.374.406-.145.002.091-.156.204-.111.291.035.069.178-.083.226-.094.14-.031.029.175.003.211-.058.085-.09.17.043.121.045-.017.224-.1.22.007-.003.077-.066.136-.081.21-.02.099.068.07.116.027.04-.035-.02-.035.065-.035.046 0 .08-.003.12.018.067.036.086.04.06.125-.015.053-.066.143.018.152a.764.764 0 01.24.067c.068.033.048.054.04.116-.014.098-.285.172-.17.264.088.07.27.104.21.256-.022.058-.126.013-.125.093.002.077.07.143.139.161.086.023.198.042.173.16-.02.09-.088.097-.161.13-.238.104.111.146.054.29-.025.064-.13-.04-.181-.01-.056.032-.003.157-.026.211-.056.137-.285.116-.403.116.007 0-.045.14-.045.154 0 .048-.144-.035-.165-.03.064-.032.098-.09.137-.147.043-.064.144-.074.197-.14.037-.044.106-.121.065-.18-.04-.059.04-.097.081-.128.103-.077.205-.205.11-.333-.075-.103-.226-.123-.343-.146.089.088.217.14.288.216.082.09-.12.263-.187.276-.072.013-.148-.065-.212-.029-.042.023.046.097.067.104.04.014.127-.002.127.06 0 .059-.084.153-.143.162-.08.01-.12-.015-.143.084-.012.052-.022.12-.073.151-.061.037-.098-.118-.124-.148-.037-.041-.055.041-.054.065.004.074-.038.123-.099.164-.048.032-.177.014-.224-.014-.042-.024-.048-.058-.044-.102.005-.064-.05-.084-.088-.122 0 .045-.016.09-.007.135.01.05.085.103.12.136.078.07.234.072.317.01.028-.02.059-.076.101-.058.043.019.05.088.047.127-.007.122-.112.228-.218.275-.131.058-.205-.017-.316-.074-.134-.068-.054.067-.128.112-.094.057-.217.077-.312.01-.045-.031-.057-.073-.074-.122-.025-.072-.085-.105-.15-.138.02.068-.133.052-.166.05-.105-.01-.152-.045-.175-.149-.014-.062-.047-.193-.135-.129-.126.093-.137.036-.232-.05-.03-.026-.027-.066-.027-.101.001-.065-.022-.076-.072-.111a.188.188 0 00-.143-.043c-.057.004-.092.005-.08-.058.02-.1.054-.171.03-.277-.036-.152.092-.23.092-.371.077.077.173.165.289.165-.036.11-.03.163.046.251.076.09.124.09.227.128.166.062.388.063.388-.172-.114.149-.275.18-.44.11-.14-.06-.217-.202-.088-.31.071-.06-.027-.047-.074-.057-.052-.012-.15-.013-.177-.069-.033-.07.007-.315.099-.33.045-.008.094.01.138-.01.051-.023-.093-.098-.107-.108-.068-.046-.094-.138-.115-.213-.029-.104.015-.145.05-.237.028-.077-.018-.065-.065-.026a.212.212 0 00-.075.18c.009.064.177.417.062.406-.15-.014.018.256-.215.16-.197-.083-.04-.126.037-.218.07-.081-.14-.099-.185-.114-.082-.028-.112-.262-.041-.317.068-.053.118-.022.193-.02.087.004 0-.094-.024-.113-.108-.09-.115-.24 0-.335.147-.122.197.095.322.093.105-.002-.1-.175-.096-.215.021-.18.158-.1.27-.056.04.016.13.05.152-.012.023-.066-.073-.147-.1-.2-.074-.151.07-.273.21-.192.045.026.022.101.03.144.013.082.076-.011.084-.049.027-.142-.19-.238-.31-.197-.104.034-.189.191-.318.147-.052-.018-.076-.083-.079-.133-.001-.025-.001-.139-.052-.09-.074.07.015.177.05.245.033.067.185.028.244.028-.082-.023-.113.153-.197.156-.026.002-.032-.032-.061-.032-.068 0-.057.073-.098.103-.176.133-.4.02-.353-.208.01-.047.044-.122.024-.169a.785.785 0 01-.2.04c-.1-.011-.188-.05-.143-.168a.4.4 0 01.111-.14c.02-.018.079-.025.09-.047.005-.01-.23-.028-.25-.029-.118-.006-.113-.137-.026-.198.042-.03.353-.07.21-.131-.103-.044-.337-.12-.146-.252.07-.05.143-.01.212-.046.079-.04.021-.082-.035-.082-.095 0-.34-.034-.298-.185.023-.088.186-.195.272-.213.054-.012.22.025.207-.08-.003-.028-.218-.04-.245-.082-.076-.12-.08-.15.016-.262.097-.114.168.001.28.001.028 0 .013-.09.014-.105.001-.04.062-.065.091-.08.088-.043.135.046.18.111.014.02.135.177.125.065-.01-.11-.119-.229-.06-.337.058-.104.167-.022.238.019.108.062.097-.036.094-.127-.005-.114.017-.303.175-.292.05.004.183.147.21.126.094-.075.037-.254.216-.25.09.001.101.375.219.146.042-.082.064-.163.175-.15.127.014.019.161.11.213.07-.14.219-.319.372-.165M9.582 5.454c-.114-.023-.166.137-.2.215-.04.096-.181.287-.303.28-.047-.002-.067-.08-.12-.092-.076-.017-.128.06-.198.055-.087-.006-.056-.193-.171-.169.077-.077.073-.07.158-.012.054.036.137.033.172.095.094-.166.373-.007.428-.238.019-.08-.025-.178-.005-.246.021-.072.14-.072.197-.095 0 .042-.018.097.008.136.015.022.04.04.034.07" fill="#557c3e"/><path d="M6.028 5.454c0 .12.056.234.166.29-.115.057-.067.125-.13.21-.051.067-.17.054-.242.078 0-.095-.044-.122-.073-.203-.031-.085.095-.126.119-.183.022-.056-.027-.128 0-.178.027-.05.119-.014.16-.014M8.094 5.62c0 .18-.14.178-.277.135-.064-.02-.147-.08-.042-.123a.372.372 0 00.195-.178l.124.165M7.433 5.784c-.071.018-.147.058-.221.032-.073-.024-.073-.107-.012-.145.027-.017.104.018.116.043.034.067.037.07.117.07M7.722 5.908l-.165-.124c.047-.088.179.06.165.124M7.474 5.784h.042zM16.853 6.652c-.038.05-.13.131-.2.122-.093-.013-.01-.201-.089-.246.082.017.07-.093.124-.124-.019.089.314.163.165.248" fill="#557c3e"/><path d="M5.16 6.487c.115.065-.002.204-.058.265-.038.041-.095.071-.114.126-.026.07.048.15-.01.213a.315.315 0 01-.151.076c-.09.022-.059.03-.102.098-.037.056-.082.099-.153.106-.082.008-.19-.043-.256.029-.04.043-.029.102-.096.122-.063.019-.127-.024-.177-.057-.06-.04-.112-.075-.188-.07-.073.005-.135.01-.18-.056-.021-.03-.079-.313.017-.26.052.03-.029.17.003.214.04.056.2.112.228.016.025-.085.136.1.16.12.112.09.227-.052.183-.16-.037-.095-.09-.23-.007-.322.041-.044.04.236.044.255.028.164.196.164.308.085.053-.037.068-.08.035-.135-.028-.045-.02-.132.055-.09.046.025.038.12.116.065.03-.02.069-.036.09-.068.016-.025.018-.06.047-.076-.038-.022-.03-.077-.07-.098-.046-.023-.054-.061-.054-.109.101.05.227-.025.269-.12.02-.044.024-.109-.012-.147-.008-.008-.108-.076-.092-.09.03-.023.15.04.166.068" fill="#010101"/><path d="M16.605 6.983c-.086.065-.092.18-.24.118-.053-.022-.09-.151-.165-.113-.062.032-.047.144-.127.154-.078.01-.076-.13-.129-.16a.74.74 0 00.21-.03c.064-.018.13-.08.195-.085.021 0 .07.007.086-.015.018-.026.047-.054.082-.042.062.02.088.115.088.173M18.63 6.941c.015.054-.065.048-.083.083-.025.05-.01.135.042.165-.056.028-.107.093-.177.083-.04-.006-.101-.039-.136-.003-.062.063.028.106.02.165-.008.08-.133.063-.185.078-.06.017-.053.05-.03.094.013.024.02.044-.01.06-.034.019-.023.063-.024.096-.003.091-.073.116-.152.123-.09.007-.084.025-.064.104.034.134-.122.16-.22.157-.04-.001-.128.01-.151-.032-.034-.06-.026-.114.031-.149.074-.044.056-.117.11-.173.059-.061.157-.081.185-.17.02-.068-.006-.161.048-.216.056-.056.011-.15.011-.217-.01.05.19.086.232.08.126-.018.118-.161.223-.16.052 0 .07-.05.122-.05.06 0 .082-.023.087-.081.004-.04.001-.108.048-.126.041-.016.08.056.073.09" fill="#557c3e"/><path d="M18.34 8.016c.044.075.112-.028.146.018.04.055.122.073.14.144.023.091-.065.057-.085.12-.034.108.1.15.156.189.07.048-.065.116-.072.16-.01.071.084.108.076.177-.011.102-.097.133-.03.246.032.056.19.225.123.296-.044.048-.126.002-.169.073-.05.084.062.122.106.162.06.053.01.145-.051.17-.102.04-.106.11-.046.194.03.042.054.159-.03.157-.056-.001-.103-.044-.095.047.008.086.083.18-.025.237-.067.035-.184.015-.226.088.099.057-.036.177-.072.107-.03-.06-.012-.132-.052-.19-.01-.014-.04.02-.04-.01 0-.028-.016-.038-.042-.03.088-.068.167-.213.112-.323-.048-.094-.175-.093-.236-.173 0 .035-.01.095.026.117.058.035.102.04.142.107.07.117-.072.191-.166.216-.114.029-.19-.002-.214.14-.011.069-.045.12-.122.126-.055.005-.067-.067-.14-.044-.055.018.03.064.007.098-.025.037-.092.061-.134.065-.046.004-.116.02-.135-.038-.02-.066-.027-.102-.093-.04-.1.094-.249.168-.38.073-.094-.068-.03-.244.01-.325-.226 0-.077.346.02.419.108.079.164.001.259-.042.074-.034.154.017.224.035.088.023.169-.009.242-.056.065-.042.133-.061.2-.096.067-.036.097-.11.147-.164.095-.1.334-.024.253.127a.203.203 0 01-.18.105c-.019 0-.143-.013-.126.025.036.085.162.107.201.185-.041 0-.082-.01-.123-.005-.079.01-.035.094-.05.148-.027.093-.082.04-.139.025-.067-.017-.064.075-.098.107-.031.029-.172.039-.203.006-.02-.022-.004-.113-.053-.107-.096.014-.102.186-.213.184-.044 0-.113-.051-.146-.076-.032-.025 0-.183-.012-.227-.03-.1-.217-.167-.129-.046.074.101.094.304-.049.364-.108.046-.169-.126-.272-.126.071.144-.108.243-.222.163-.042-.03-.114-.127-.08-.18.005-.009.174-.12.072-.142-.04-.007-.11.068-.156.075a.276.276 0 01-.202-.05.16.16 0 01-.063-.18c.025-.078.14-.11.149-.196.011-.107-.083-.034-.108.006-.044.067-.123.169-.118.252.004.064.048.16.106.193.056.031.095.061.162.053.06-.008.102.002.133.057.038.07.039.184.116.227.059.033.185-.06.213-.006.036.066.013.153.04.223.025.06.14.139.206.125-.055 0-.13.035-.176-.01-.037-.037-.037-.114-.103-.114-.098 0-.112.174-.15.237-.066.114-.234.038-.303-.034-.025-.026-.054-.132-.097-.12-.05.013-.073.075-.122.087-.084.022-.248-.1-.273-.176-.02-.066-.01-.17-.094-.194-.07-.019-.143.02-.196-.047-.1-.127.025-.182.025-.305 0-.067-.065-.082-.113-.107-.073-.04.043-.138.073-.167a.097.097 0 01-.044-.088c.008-.061.121-.051.164-.054.074-.005.142-.03.187-.091.035-.049.06-.113.12-.137.064-.025.136-.002.2-.027.059-.024.097-.085.123-.14.054-.112.083-.226.2-.29.131-.07.168-.17.086-.306a.523.523 0 00-.055-.074c-.044-.05-.02-.038.015-.085.042-.059.086-.065.149-.092.127-.056.16-.19.236-.296.1-.142.044-.255.025-.408-.014-.11.117-.158.127-.265.01-.109.107-.135.118-.011.01.096.118.237.213.26.137.03.21-.14.363-.102.152.037.233-.022.288-.162.052-.135.127-.17.242-.24.086-.053.036-.164.135-.22.068-.038.2-.065.248.019M3.921 8.098c-.126 0-.191-.015-.083-.124l.083.124M3.219 8.263c.128 0 .243-.077.33-.165 0 .05-.06.13 0 .165-.238-.012-.393.246-.289.455-.155-.033-.164.186-.165.288-.002.107.09.25.206.25-.124.07-.062.176-.034.278.016.054.016.144-.028.187-.042.04-.106.01-.148.045-.112.093.082.124.115.193.034.07.056.227-.05.248-.108.02-.1.181-.198.22-.08.033-.22.062-.287-.012-.059-.066.065-.228-.016-.26-.056-.024-.105.137-.097.174-.057-.028-.108.01-.163.023-.056.013-.114-.034-.155-.066-.076-.057-.21-.18-.072-.235.064-.026-.056-.078-.104-.006-.056.085-.206.133-.283.038-.11-.14.214-.306-.033-.442-.068-.037-.2-.055-.22-.143-.034-.144.135-.202.245-.202-.072-.125-.257.001-.345-.097-.05-.056-.044-.134-.005-.194.032-.05.1-.02.13-.063.069-.101-.061-.236.11-.265.042-.007.09-.055.132-.049.01.002.072.184.102.214-.096.048-.134.143-.12.246.015.11.127.146.163.244.063.176.026.39.28.385.086-.003.14-.09.18.022.031.085.2.058.261.026.099-.052.328-.253.145-.344 0 .103-.06.207-.15.259-.07.04-.196.064-.218-.04-.01-.045.01-.234-.079-.146-.07.07-.13.203-.241.107-.062-.053-.166-.174-.092-.255.016-.018.27-.021.134-.111-.039-.026-.076-.02-.117-.005-.061.023-.09.005-.147-.022-.137-.067-.013-.242.042-.325.039.07.211.043.138-.05-.057-.071-.192-.079-.183-.196.015-.179.343 0 .417-.125-.042 0-.083.009-.124 0-.043-.01-.077-.05-.124-.042.073-.036.163-.08.203-.157.006-.011.175.027.199.023.045-.007.075-.052.12-.065.065-.02.133.015.2 0 .104-.024.183-.123.228-.214a.464.464 0 00.207.206M10.615 8.429c.09.048-.07.156-.11.18-.072.043-.19.023-.27.04-.06.013.137.18.128.244-.008.053-.068.064-.083.112-.019.06-.101.062-.15.05-.115-.03-.122-.055-.134.066-.009.096-.181.212-.25.108-.059-.09-.218-.07-.16.07.021.051.066.096.03.154-.048.073-.138.04-.2.009.03.06.08.16 0 .206.015-.07-.037-.032-.064-.006-.06.06-.088.037-.163.012-.043-.015-.128-.018-.164.012-.063.053-.043.106-.146.106.037-.037.083-.073.083-.131 0-.06.027-.094.082-.116.078-.031.186-.113.205-.2.015-.072-.015-.139.016-.218.052-.136.113-.042.213-.02.12.025.253-.135.335-.203.05-.04.124-.074.149-.138.015-.04.017-.086.037-.124.016-.031.038-.002.038-.055 0-.063.055-.079.111-.078.162 0 .23-.05.343-.163-.014.064.1.042.124.083M10.036 9.544a.35.35 0 00-.151.14c-.031.054-.029.134-.082.175-.046.035-.158.042-.206.007-.045-.033.01-.109.021-.146.02-.067.061-.079.11-.126.047-.045.042-.122.096-.163.143-.108.114.141.212.113" fill="#557c3e"/><path d="M16.068 9.833c.03.138-.22.083-.289.083.051.102.073.287-.047.352-.08.043-.26.058-.292-.054-.012-.04-.096.001-.073.048.037.077.046.14-.013.208-.08.093-.3.048-.36-.058.159-.08.273-.264.124-.413.097 0 .133.059.25.052.163-.008.238-.187.29-.319.03-.076.093-.26.206-.181.104.071.253.135.204.282" fill="#557c3e"/><path d="M17.721 9.71c.041.081.023.162-.016.24-.035.068-.116.038-.162.095-.046.059-.068.161-.147.188-.07.023-.15-.016-.204.051-.05.065-.058.097-.15.095-.078-.001-.142-.027-.183-.095-.045-.072-.107-.244.036-.244-.19.109.124.393.269.238.07-.074-.048-.198.103-.116.048.026.136-.004.173-.038.057-.052-.008-.138-.008-.208.076.133.29.013.29-.113 0-.064-.064-.136-.113-.17-.067-.044-.172.034-.218-.048.03.007.04-.019.06-.033.04-.03.074.033.112.033.067 0 .18.037.158.125" fill="#010101"/><path d="M10.367 9.627c0 .054-.036.147.029.18.062.031.102.11.179.11.059 0 .105-.007.144.044.064.085.132.115.226.162-.054.03-.045.156-.116.163-.065.007-.132-.143-.132.002-.037-.037-.082-.069-.107-.117-.014-.028.004-.139-.043-.139-.068 0-.11.092-.179.095-.038.002-.032-.049-.038-.073-.009-.039-.053-.004-.05-.064.003-.047.064-.048.087-.084.03-.045-.033-.094-.076-.083-.042.01-.031.062-.06.083a.293.293 0 01-.131.05c-.111.004-.217-.104-.182-.217.049-.158.326-.112.449-.112" fill="#557c3e"/><path d="M8.26 9.833h-.042c.02-.01.046-.113.082-.087.023.016-.045.07-.04.087" fill="#010101"/><path d="M9.54 9.999c.088.351.12.714.21 1.065.095.375.16.758.26 1.13.024.088.05.176.06.266.01.076 0 .147.029.219.056.141.097.257-.053.36-.128.087-.133-.09-.235-.104-.06-.008-.097-.063-.154-.077-.083-.019-.17.04-.24.074-.083-.45-.168-.902-.31-1.339-.134-.415-.23-.854-.476-1.222.039.01.05-.049.112-.04.095.011.172-.08.218-.15a.812.812 0 01.234-.203c.073-.048.166-.072.221-.144-.016.078.08.12.124.165" fill="#83b94d"/><path d="M10.284 10.123c.048.085.178-.017.221.07.025.05.07.2.15.178-.077.077-.12.065-.22.043-.127-.026-.103-.184-.18-.255-.052-.048-.15.016-.213 0-.066-.016-.193-.1-.089-.16a.246.246 0 00-.04-.042c.039.07.131.042.195.042.08 0 .126.074.176.124" fill="#557c3e"/><path d="M7.805 10.164c.046-.08.16-.086.207-.165-.022.043-.034.102-.083.124-.043.018-.096-.008-.124.041" fill="#010101"/><path d="M10.45 10.66c.115.05.252.083.324.197.085.133.122.292.166.442.05.17.115.333.168.501.054.175.14.35.174.53.033.176-.006.363.002.541.008.183.043.367.066.548.023.181.049.363.068.544.011.113-.005.304.106.374 0-.323-.045-.644-.045-.967 0-.314-.047-.623-.092-.933-.045-.31-.068-.625-.128-.934-.028-.148-.067-.293-.098-.44-.032-.148-.044-.3-.092-.445.118 0 .245.085.362.033.08-.035.048-.084.13-.036.045.026.11.032.161.033.11.002.158-.142.24-.194.17-.107.14.151.15.232.025.212.066.416.073.63.007.219-.002.438 0 .656.002.448.074.889.124 1.332.085-.047.061-.198.055-.277a3.192 3.192 0 01.001-.529c.032-.392.088-.785.133-1.176.026-.234.118-.526.262-.72.083-.113.155 0 .214.08.092.125.21.212.363.156.129-.047.147.16.253.197.151.054-.017.271-.063.363-.052.103-.27.042-.367.091-.15.077-.251.233-.35.365-.053.072-.31.668-.048.5.106-.068.187-.181.318-.203.145-.025.244.12.385.12-.034.104-.041.216-.096.312-.06.105-.123.208-.14.33-.01.069-.145.648.094.535.072-.033.097-.131.18-.145.047-.008.08-.01.126-.028.051-.02.051.01.096.016.114.015.089-.187.117-.243a.407.407 0 01.243-.198c-.012.044.04.033.047.072.007.051-.003.1.04.14.067.058.151-.07.189-.11.157-.166.457-.258.674-.185a.89.89 0 00-.47.313c-.13.163-.22.358-.393.483-.187.134-.272-.03-.426-.116-.148-.084-.326.025-.458.095-.17.09-.193.22-.239.393-.062.234-.112.47-.169.706-.053.22-.11.438-.159.658-.047.217-.056.444-.108.66-.019.078-.046.152-.135.161a.234.234 0 00-.18.092c-.05.064-.089.134-.145.193-.086.092-.171.111-.282.157-.08.034-.116.107-.142.185-.026.077-.053.108-.106.168-.036.042-.028.122.038.127.064.005.128-.055.172-.093.131-.113.246-.03.365.062.092.07.274.086.283.226.014.215-.03.445-.04.66-.01.184.065.455-.067.606a.618.618 0 01-.303.183c-.055.014-.112.015-.167.03-.059.018-.11.055-.171.067-.254.047-.193-.356-.23-.495-.015-.056-.033-.137-.079-.176-.065-.054-.08.142-.081.167-.002.18.065.39-.12.504-.168.104-.4.075-.583.037a.879.879 0 00-.327.032c-.124.033-.205.123-.342.115-.202-.012-.471-.136-.554-.332-.045-.108-.017-.22-.042-.33-.013-.057-.041-.11-.041-.168 0-.056.017-.13-.042-.164 0 .133.066.667-.229.522-.054-.026-.106-.013-.16-.03-.054-.016-.085-.077-.113-.12a.891.891 0 01-.12-.362c-.108-.672-.255-1.337-.354-2.01a20.94 20.94 0 01-.124-.974c-.023-.23.005-.52-.194-.683-.106-.086-.242-.135-.364-.194a.964.964 0 00-.415-.115.645.645 0 00-.342.098c-.06.04-.096.173-.188.15.02.058.012.138.066.18.064.051.15.066.22.108a.768.768 0 01.19.17c.034.042.069.143.122.157.11.028-.032.228-.074.263-.098.081-.276.166-.237.322.035.142.17.23.094.389-.071.145-.225.24-.335.354-.053.056-.106.113-.164.165-.054.048-.131.082-.167.148-.062.115-.045.262-.045.388-.07-.035-.129-.085-.198-.12-.048-.024-.047-.094-.106-.122-.12-.058-.129-.198-.125-.316.01-.275.357-.34.482-.55.085-.14.067-.265-.008-.4-.076-.136.037-.155.151-.178.344-.069.276-.485.182-.736-.034-.09-.162-.301-.078-.392a.69.69 0 01.34-.208.746.746 0 01.481.038c.145.053.326.189.483.115.104-.048.056-.18.04-.265-.031-.176-.054-.37-.142-.528-.175-.32-.264-.68-.428-1.007.11 0 .203-.016.308-.053.097-.035.159-.125.23-.195.085.128.166.262.221.407.055.143.15.274.19.421.072.266.085.577.29.783.091-.271-.052-.507-.123-.762-.086-.306-.11-.631-.178-.941-.033-.149-.1-.207-.18-.327-.037-.053-.049-.117-.085-.17-.037-.052-.1-.075-.143-.12-.095-.1-.215-.1-.337-.143-.11-.038-.165-.136-.234-.222.13 0 .243-.037.357-.098.042-.022.089-.037.123-.071.042-.044.056-.084.122-.094.273-.038.41.235.54.424.182.264.37.516.481.82.053.144.093.297.16.435.073.149.154.264.169.435.028.328.058.656.084.985.027.348.114.69.166 1.034.052.353.096.708.143 1.062.02.159.035.319.051.478.008.08 0 .16 0 .24 0 .062.052.113.042.176.086-.347-.001-.703-.043-1.049-.045-.376-.115-.749-.159-1.125-.021-.186-.034-.373-.052-.559-.014-.135-.07-.283-.042-.418.03-.144.211-.237.34-.276.106-.032.259.034.327-.085.072.213.085.439.12.659.043.26.07.523.09.786.02.25.053.498.092.746.02.13.043.261.06.393.01.086.004.18.093.225 0-.202-.07-.452.12-.582.077-.053.143-.12.22-.172.108-.071.174-.037.26.043.172.158.314.069.458-.076.076-.077.072-.068.177-.05.093.016.11-.126.046-.113.076-.038.167-.035.24-.081.073-.046.1-.09.19-.063.15.045.116-.1.107-.21-.003-.049.11-.41.007-.314-.035.033-.059.081-.11.089-.097.013-.153.106-.26.084-.125-.027-.244-.145-.381-.087-.062.026-.078.087-.084.148-.01.115-.045.13-.15.16-.088.025-.135.102-.234.11-.124.009-.201-.07-.313-.097-.172-.04-.265.322-.334.426-.054-.214-.062-.436-.114-.65-.055-.23-.065-.468-.079-.704-.025-.466-.122-.924-.171-1.388-.052-.483-.1-.97-.09-1.456.002-.11.004-.22-.005-.33-.007-.099-.045-.194-.037-.293.006-.075.062-.127.114-.048.066.1.132.199.216.283" fill="#83b94d"/><path d="M14.746 10.412c.15 0 .273.092.246.253-.012.069-.083.074-.14.079-.031.002-.071.015-.102 0-.037-.016.014-.06-.045-.043a.27.27 0 000-.248c-.034.069-.043.149-.09.211-.035.045.016.067.004.115-.027.102-.188.147-.245.046.087.04-.005-.047-.015-.057-.043-.038-.088-.073-.13-.113-.052-.048-.013-.15.021-.196.016-.022.06-.01.082-.01.053-.002.09-.044.125-.078-.031.11.247.115.29.041" fill="#557c3e"/><path d="M6.896 10.866c.024.043.224.087.273.084.132-.007.172.094.264.164a.68.68 0 00-.332.06c-.078.042-.2.127-.266.047-.039-.047-.101-.061-.142-.105-.04-.043-.061-.1-.105-.14-.091-.083-.203-.138-.312-.192a.827.827 0 00.166-.207c.111.146.295.21.454.29" fill="#83b94d"/><path d="M18.134 10.866c-.023.042-.118.08-.13.01-.01-.063.047-.133.089-.175a.075.075 0 00.03.072c.026.025.011.064.011.093M14.498 11.032l.248.041c-.073.074-.167.13-.216.226-.056.107-.093.222-.147.33a.322.322 0 01-.207.178c-.11.033-.184-.029-.29-.04-.097-.011-.145.06-.19.134a.536.536 0 01-.123.139c-.032.026-.092.002-.118.035-.044.056-.149-.015-.186-.044-.098-.077-.18-.109-.3-.049.056-.055.098-.124.166-.165.036-.022.078-.026.117-.04.039-.012.057-.051.083-.078.13-.13.317-.107.476-.17.127-.052.136-.217.214-.312.05-.062.134-.069.205-.09.092-.025.18-.063.268-.095" fill="#557c3e"/><path d="M13.92 11.073c0 .078-.103.352-.207.33.062-.124.109-.232.207-.33" fill="#83b94d"/><path d="M17.804 11.156c.02.078-.13.04-.166.04.064.008.118-.05.166-.04M8.135 11.651c-.186 0-.352.105-.48.233-.043.043-.066.11-.127.134a.32.32 0 01-.287-.045c-.06-.045-.086-.121-.15-.16a.259.259 0 00-.256-.008c-.087.043-.166.099-.251.146-.098.054-.202.031-.308.031.07-.07.154-.122.228-.186.08-.07.075-.144.11-.237.034-.091.113-.11.202-.114a.908.908 0 00.333-.086c.215-.094.424-.174.655-.085.096.038.14.107.22.167.089.068.066.118.111.21M17.597 11.445c-.041-.009-.055.041-.093.041-.053 0-.095-.039-.147-.043-.04-.003-.112-.012-.122.045-.007.044.04.08.028.125-.052.19-.326.04-.41-.044.035.162-.19.118-.255.041-.043-.051-.05-.152-.011-.207.05-.072.174-.031.244-.068.054-.029.085-.111.152-.02.061.082.175.014.235-.034.102-.079.173-.01.285-.007.065.002.106.113.094.17M9.953 13.139l.166-.041c-.068.068-.16.079-.252.086a.448.448 0 00-.27.102c-.24.184-.067-.233-.14-.271.03-.052.089-.024.133-.046.083-.066.077.005.146.005.048 0 .054.063.07.095.029.055.09.07.147.07" fill="#557c3e"/><path d="M6.648 14.461c0 .106.077.218.038.324-.014.039-.045-.053-.044.049 0 .052.012.11-.04.144-.112.075-.424.007-.452.192-.023.154.184.187.196.322.009.096-.094.155-.16.205-.106.08-.208.182-.282.293-.073-.11-.09-.223-.152-.335-.069-.125-.155-.242-.175-.387-.019-.143.054-.235.109-.359.047-.107.075-.229.185-.29.19-.106.388-.075.525-.268.026-.038.122-.189.17-.098.03.054.024.175.082.208" fill="#83b94d"/><path d="M12.185 14.709c.024-.043.072-.041.115-.041.045 0 .065-.056.091-.083v.207c-.05-.089-.127 0-.196 0-.037 0-.052.042-.052.072 0 .043-.05.048-.082.052a.3.3 0 01-.238-.072c-.027-.028-.076-.106-.134-.094.08-.046.076-.216.199-.191.109.022.181.15.297.15M11.73 14.874c.027.027.083.046.083.091 0 .043-.002.091.041.116-.101 0-.243-.035-.31.066-.057.084-.107.108-.207.102-.057-.003-.082-.01-.116-.058s-.115-.062-.17-.07c-.126-.018-.217.054-.313.125.049-.096.068-.228.146-.307.074-.075.166.02.232.056.106.055.204.019.296-.045a.543.543 0 01.318-.076M12.887 16.362c-.06.03-.127.098-.142.167-.007.033-.008.134-.065.122.09.051-.01.188-.05.24-.06.076-.207.073-.288.044-.12-.042-.2-.148-.336-.153-.038-.001-.185.022-.195-.034-.01-.055.151-.107.186-.123.102-.046.142-.123.228-.19.045-.037.118-.042.17-.07a.65.65 0 01.212-.083c.078-.01.142.054.215.04.039-.008.018.053.065.04" fill="#557c3e"/></g></svg>