<svg xmlns="http://www.w3.org/2000/svg" xmlns:xlink="http://www.w3.org/1999/xlink" width="20" height="20"><symbol id="c" viewBox="0 -12.7 8.75 12.7"><path d="M6-1.55c.1.633.317 1.15.65 1.55-.233-.7-.35-1.317-.35-1.85 0-.533.05-.883.15-1.05.133-.1.383.067.75.5s.633.9.8 1.4c-.1-.5-.267-1-.5-1.5-.233-.5-.567-.8-1-.9l.15-2.55c.467.1.883.417 1.25.95.367.567.65 1.133.85 1.7-.333-1.267-.667-2.15-1-2.65-.367-.5-.733-.716-1.1-.65L6.1-8.55l-.15-.4c-.1-.2.167-.05.8.45a6.99 6.99 0 011.1 1c-.717-.97-1.234-1.57-1.55-1.8-.4-.267-.667-.4-.8-.4-.433-.7-1.183-1.316-2.25-1.85A10.514 10.514 0 000-12.7c1.5.4 2.7 1.034 3.6 1.9L5-9.5c-.933.033-1.683.283-2.25.75a4.36 4.36 0 00-.95 1.1l-.25.55.45-.5c.367-.367.717-.617 1.05-.75.533-.267 1.267-.45 2.2-.55.167.267.35.683.55 1.25l.3 1.1c-1.167.167-2 .483-2.5.95-.533.5-.934 1-1.2 1.5.667-.8 1.4-1.316 2.2-1.55.8-.233 1.3-.333 1.5-.3.033.8.033 1.417 0 1.85v.6c-.767 0-1.367.15-1.8.45l-.95.75.55-.25c.467-.2.85-.317 1.15-.35L6-3c-.1.367-.1.85 0 1.45z" clip-rule="evenodd" fill-rule="evenodd"/></symbol><symbol id="f" viewBox="0 -17.45 11.65 17.45"><path d="M10.3-8.15c-.466-.667-.95-.967-1.45-.9L7.9-12.3c-.133-.267.233-.05 1.1.65.637.489 1.153.989 1.55 1.5-1.021-1.44-1.754-2.324-2.2-2.65-.5-.367-.833-.55-1-.55-.633-.933-1.65-1.767-3.05-2.5-1.4-.767-2.833-1.3-4.3-1.6 1.967.567 3.567 1.434 4.8 2.6l1.8 1.8c-1.2.066-2.2.417-3 1.05-.5.4-.9.9-1.2 1.5l-.35.75.6-.7c.467-.5.934-.85 1.4-1.05.7-.333 1.667-.583 2.9-.75.233.4.483 1 .75 1.8L8.1-9c-1.567.233-2.683.683-3.35 1.35-.433.4-.833.867-1.2 1.4l-.4.65C4.017-6.733 5-7.45 6.1-7.75c1.066-.333 1.75-.467 2.05-.4.033 1.066.033 1.9 0 2.5l-.05.85c-1.033 0-1.833.2-2.4.6L4.4-3.15l.8-.35c.6-.267 1.1-.433 1.5-.5.633-.1 1.05-.133 1.25-.1-.133.467-.133 1.133 0 2 .167.867.467 1.567.9 2.1-.3-.967-.45-1.817-.45-2.55 0-.7.05-1.184.15-1.45.2-.133.55.1 1.05.7s.833 1.233 1 1.9c-.1-.7-.317-1.383-.65-2.05-.3-.7-.717-1.117-1.25-1.25l.15-3.45c.6.1 1.15.533 1.65 1.3s.883 1.533 1.15 2.3c-.433-1.7-.883-2.9-1.35-3.6z" clip-rule="evenodd" fill-rule="evenodd"/></symbol><symbol id="i" viewBox="0 -20.55 13.75 20.55"><path d="M12.55-1.65a8.433 8.433 0 00-.8-2.45c-.367-.8-.867-1.283-1.5-1.45l.1-2.75c0-.467.033-.9.1-1.3.7.1 1.35.6 1.95 1.5.6.9 1.05 1.817 1.35 2.75-.5-2.033-1.033-3.45-1.6-4.25-.533-.833-1.1-1.2-1.7-1.1l-1.1-3.8c-.167-.3.267-.05 1.3.75.757.605 1.374 1.214 1.85 1.825-1.226-1.726-2.109-2.784-2.65-3.175-.6-.433-1-.65-1.2-.65-.733-1.1-1.917-2.083-3.55-2.95-1.667-.9-3.367-1.517-5.1-1.85 2.333.633 4.217 1.65 5.65 3.05l2.2 2.1c-1.467.066-2.667.483-3.6 1.25A6.258 6.258 0 002.8-12.4l-.4.85.7-.8c.566-.566 1.117-.967 1.65-1.2.867-.4 2.017-.7 3.45-.9.3.467.6 1.167.9 2.1l.45 1.7c-1.833.3-3.15.833-3.95 1.6A8.33 8.33 0 004.25-7.4l-.5.75C4.783-7.95 5.933-8.8 7.2-9.2c1.267-.367 2.066-.5 2.4-.4.033 1.267.033 2.233 0 2.9l-.05 1c-1.2 0-2.133.233-2.8.7L5.2-3.7l.9-.45c.733-.333 1.333-.533 1.8-.6.767-.1 1.267-.133 1.5-.1-.167.533-.167 1.317 0 2.35.167 1.033.517 1.867 1.05 2.5-.333-1.167-.5-2.167-.5-3 0-.867.05-1.45.15-1.75.233-.167.65.117 1.25.85.567.733.967 1.483 1.2 2.25z" clip-rule="evenodd" fill-rule="evenodd"/></symbol><symbol id="l" viewBox="0 -22.35 14.95 22.35"><path d="M11.35 0c-.367-1.233-.55-2.317-.55-3.25 0-.933.067-1.55.2-1.85.233-.2.667.1 1.3.9.633.767 1.067 1.567 1.3 2.4a9.71 9.71 0 00-.8-2.6c-.433-.9-1-1.434-1.7-1.6l.15-3c0-.5.033-.983.1-1.45.767.133 1.483.7 2.15 1.7.633.967 1.117 1.95 1.45 2.95-.567-2.2-1.15-3.75-1.75-4.65-.6-.867-1.217-1.25-1.85-1.15l-1.2-4.15c-.167-.333.3-.067 1.4.8.945.773 1.695 1.531 2.25 2.275-1.437-2.042-2.47-3.284-3.1-3.725-.633-.434-1.067-.65-1.3-.65-.8-1.2-2.1-2.284-3.9-3.25-1.8-.967-3.633-1.65-5.5-2.05 2.533.7 4.583 1.817 6.15 3.35l2.35 2.25c-1.567.1-2.867.567-3.9 1.4a6.586 6.586 0 00-1.55 1.9l-.45.95.75-.9c.633-.633 1.233-1.067 1.8-1.3.934-.433 2.184-.75 3.75-.95.333.467.667 1.217 1 2.25l.45 1.85c-1.967.333-3.4.917-4.3 1.75a15.393 15.393 0 00-1.5 1.75l-.5.85C5.183-8.633 6.433-9.55 7.8-9.95c1.4-.4 2.284-.566 2.65-.5.033 1.4.033 2.467 0 3.2l-.1 1.1c-1.267 0-2.283.25-3.05.75-.466.3-.883.633-1.25 1l-.4.4 1-.5c.733-.333 1.367-.533 1.9-.6.833-.133 1.383-.183 1.65-.15-.167.6-.167 1.45 0 2.55.2 1.1.583 2 1.15 2.7z" clip-rule="evenodd" fill-rule="evenodd"/></symbol><radialGradient id="a" cx="25.3" cy="11.05" r="9.225" gradientTransform="matrix(.5816 0 0 -.5667 20.25 43.588)" gradientUnits="userSpaceOnUse"><stop stop-color="#A9E858" offset="0"/><stop stop-color="#77A63A" offset="1"/></radialGradient><radialGradient id="b" cx="24.2" cy="10.55" r="10.3" gradientTransform="matrix(.5816 0 0 -.5668 20.25 43.016)" gradientUnits="userSpaceOnUse"><stop stop-color="#A9E858" offset=".326"/><stop stop-color="#77A63A" offset="1"/></radialGradient><radialGradient id="d" cx="58.45" cy="20.05" r="12.338" gradientTransform="matrix(.5816 0 0 -.5816 15.95 54.223)" gradientUnits="userSpaceOnUse"><stop stop-color="#A9E858" offset="0"/><stop stop-color="#77A63A" offset="1"/></radialGradient><radialGradient id="e" cx="57" cy="19.35" r="13.775" gradientTransform="matrix(.5816 0 0 -.5811 15.95 53.399)" gradientUnits="userSpaceOnUse"><stop stop-color="#A9E858" offset=".326"/><stop stop-color="#77A63A" offset="1"/></radialGradient><radialGradient id="g" cx="12.55" cy="25.4" r="15.388" gradientTransform="matrix(.5816 0 0 -.5812 15.95 60.435)" gradientUnits="userSpaceOnUse"><stop stop-color="#A9E858" offset="0"/><stop stop-color="#77A63A" offset="1"/></radialGradient><radialGradient id="h" cx="10.5" cy="27.45" r="16.25" gradientTransform="matrix(.5816 0 0 -.5812 15.95 62.82)" gradientUnits="userSpaceOnUse"><stop stop-color="#A9E858" offset=".326"/><stop stop-color="#77A63A" offset="1"/></radialGradient><radialGradient id="j" cx="42.05" cy="33.4" r="16.725" gradientTransform="matrix(.5816 0 0 -.5812 15.95 69.739)" gradientUnits="userSpaceOnUse"><stop stop-color="#A9E858" offset="0"/><stop stop-color="#77A63A" offset="1"/></radialGradient><radialGradient id="k" cx="39.85" cy="35.6" r="17.65" gradientTransform="matrix(.5816 0 0 -.5812 15.95 72.297)" gradientUnits="userSpaceOnUse"><stop stop-color="#A9E858" offset=".326"/><stop stop-color="#77A63A" offset="1"/></radialGradient><g transform="translate(-5.01 -6.963) scale(.36307)"><path d="M45.261 38.897c.271-.523.756-.854 1.454-.989.349-.058.669-.067.959-.028-.136.019-.28.048-.436.087-.271.077-.417.194-.437.349 0 .136.029.311.087.523.039.271-.029.621-.203 1.048-.233.562-.61 1.075-1.135 1.541-.581.523-1.192.833-1.832.931.602-1.474 1.116-2.629 1.543-3.462z" clip-rule="evenodd" fill="#3c571c" fill-rule="evenodd"/><path d="M44.358 40.41c.602.174 1.231.058 1.891-.35.349-.213.63-.445.844-.698-.039.427-.194.883-.466 1.367-.523.97-1.318 1.639-2.385 2.007-.931.31-2.161.427-3.693.349-1.57-.097-2.016-.223-1.337-.378.116-.02.843-.465 2.181-1.338 1.395-.814 2.384-1.134 2.965-.959z" clip-rule="evenodd" fill="#446120" fill-rule="evenodd"/><path d="M36.681 41.573c3.257.427 4.808.746 4.653.959-.232.252-.552.446-.959.582-.775.213-1.968.291-3.577.232a5.956 5.956 0 01-2.298-.494c-1.241-.484-2.365-1.328-3.374-2.53l-.233-.291.96.523c.717.35 1.289.515 1.716.495.814-.02 1.338-.02 1.571 0 .601.058 1.114.233 1.541.524z" clip-rule="evenodd" fill="#6e9c33" fill-rule="evenodd"/><path d="M30.516 36.483l1.193 2.269c.988 1.629 1.938 2.753 2.85 3.373.892.621 2.491 1.019 4.799 1.192-.698.116-1.513.146-2.443.088-1.861-.136-3.393-.659-4.595-1.57-1.008-.737-1.609-1.852-1.803-3.345v-2.007z" clip-rule="evenodd" fill="#6b9631" fill-rule="evenodd"/><path d="M43.951 33.546c.02.175-.436.301-1.366.379-.931.058-1.483-.02-1.658-.233-.155-.174-.31-.475-.465-.901l-.174-.553c.271-.097.533-.31.785-.639.116-.155.262-.369.437-.64.097-.097.252-.078.465.058.116.078.243.165.379.262.058 0 .154.087.29.262.078.097.185.252.32.465.155.175.329.106.523-.204l.116.204c.097.116.213.136.349.059l.64-.524a23.33 23.33 0 00-.349.873c-.214.618-.31.997-.292 1.132z" clip-rule="evenodd" fill="#6b9630" fill-rule="evenodd"/><path d="M34.878 42.3c-.232-.02-.504-.146-.814-.378-.621-.466-1.134-1.202-1.542-2.21a207.62 207.62 0 01-1.309-3.229c-.271-.814-.243-1.212.087-1.192.31.02.542-.077.698-.291l.349-.756c.349-.368.844-.185 1.483.553.37.427.719 2.928 1.048 7.503z" clip-rule="evenodd" fill="#5c822a" fill-rule="evenodd"/><path d="M34.064 33.372l.668-1.019c.679-.698 1.629-1.124 2.85-1.279 1.512-.213 2.821-.097 3.926.349 1.163.465 1.948 1.221 2.355 2.268.504 1.222.397 2.628-.32 4.217-.795 1.765-1.986 2.676-3.577 2.734-1.726.058-3.286-.756-4.682-2.443-1.394-1.725-1.802-3.334-1.22-4.827z" clip-rule="evenodd" fill="#89bf3f" fill-rule="evenodd"/><path d="M41.684 35.088c.601-.388 1.037-.814 1.309-1.28.291 1.59.242 3.063-.146 4.421-.232.854-.708 1.338-1.425 1.454a31.52 31.52 0 00-3.403.175c-1.318.154-2.143-.185-2.472-1.019-.116-.949-.223-1.492-.32-1.628-.349-.563-.485-1.009-.407-1.338.136-.602 1.018-.688 2.646-.262 1.61.408 3.015.233 4.218-.523z" clip-rule="evenodd" fill="#7bab38" fill-rule="evenodd"/><path d="M34.005 33.721c.078-.116.136-.31.175-.581l1.076.174c.795.214 1.425.523 1.891.931.31.271.456.494.436.669l.553 1.367c.504.969 1.066 1.6 1.687 1.89.446.214.854-.126 1.221-1.018.136 1.066 0 1.735-.407 2.007-.407.252-2.695-.756-6.863-3.024.02-.368.049-.746.087-1.135.057-.776.106-1.202.144-1.28z" clip-rule="evenodd" fill="#689131" fill-rule="evenodd"/><path d="M42.235 33.808c.175.505.165 1.058-.028 1.658a3.401 3.401 0 01-.378.756 5.122 5.122 0 000-2.035c-.117-.505-.281-.854-.495-1.047a2.1 2.1 0 00-.465-.35l-.204-.087a8.442 8.442 0 00-1.745.059c-.33.038-.708.184-1.134.436l-.523.378.349-.319c.271-.252.523-.437.756-.553.369-.175.97-.252 1.803-.232a3.317 3.317 0 00-.61-.407l-.378-.204c-.892.02-1.57.223-2.036.611l-1.076.93.203-.319c.194-.271.427-.504.698-.698.407-.329 1.076-.572 2.006-.727-.31-.135-.572-.213-.785-.232-.232-.039-.591.039-1.076.232-.582.233-.979.543-1.192.931l-.437.843c0-.154.097-.436.291-.843.252-.505.523-.814.814-.931.446-.213.863-.339 1.25-.378-.562-.078-.94-.087-1.134-.029l-.291.058.582-.146c.427-.097.766-.126 1.018-.087l.204.029.756-.146c.194 0 .349.01.465.029l-1.018.204.552.262.291.174v-.088c.078-.077.271-.155.582-.232.485-.136.999-.126 1.542.029-.679-.039-1.096-.029-1.25.029l-.611.436.553.32a.94.94 0 01.32.291l.204-.232a1.1 1.1 0 01.61-.32c.368-.077.805-.058 1.309.059-.775-.059-1.231 0-1.366.174a.742.742 0 00-.175.35v.146l.466.175c.348.19.61.539.783 1.043z" clip-rule="evenodd" fill="#a5e64c" fill-rule="evenodd"/><path d="M33.002 33.313c.059-.01.122-.02.189-.029h.029c.108-.181.185-.2.233-.058a.099.099 0 00.015.029c.278-.011.564.027.858.116.155.058.649.271 1.483.64.698.311 1.192.669 1.483 1.076.039.038.204.388.494 1.047.271.563.63 1.104 1.076 1.628.543.621 1.105 1.066 1.687 1.338.543.252.882.824 1.018 1.716.117.679.641.97 1.571.873-.485.484-1.416.882-2.792 1.192-.775.155-1.647.213-2.617.174-1.919-.077-3.315-.601-4.188-1.57-1.125-1.26-1.609-2.733-1.454-4.42.058-.795.349-1.881.873-3.258.068-.167.131-.303.188-.407-.016-.009-.03-.019-.043-.028a.511.511 0 00-.103-.059zm-.102.117c-.019.175-.068.262-.145.262-.097 0-.291.098-.582.291-.232.155-.32.165-.262.029.15-.334.49-.562 1.018-.684a.159.159 0 00-.029.102z" clip-rule="evenodd" fill="url(#a)" fill-rule="evenodd"/><path d="M35.111 34.273c.116-.175.233-.339.349-.494l-.552 1.366-.116.728.756-.204c.233-.097.611-.368 1.134-.814-.136.194-.388.466-.756.814a1.73 1.73 0 01-.814.466l-.407.029-.146 1.599.291-.028c.232-.059.456-.136.669-.232.349-.155.621-.311.814-.466l.087-.814.262-.581-.029.552c0 .233.029.427.087.582l.407-.262.523-.437c-.213.446-.717.883-1.512 1.309-.504.271-.931.466-1.28.582l-.349.087.029.814c0 .388.126.921.378 1.6h.437c.368-.02.766-.087 1.192-.203.659-.175 1.085-.359 1.279-.553l-.029-.728.146-.872.087.698c.059.349.184.571.378.669l.145-.146 1.105-.901a4.815 4.815 0 01-2.007 1.978 5.8 5.8 0 01-1.803.581l-.786.029.146.262c.136.213.33.455.582.727.388.446 1.047.747 1.978.901l-.901.029a2.19 2.19 0 01-1.105-.319c-.233-.136-.485-.437-.756-.901l-.349-.669a4.719 4.719 0 01-1.745-1.745 6.317 6.317 0 01-.523-1.513l-.087-.697.204.843c.078.311.213.572.407.785l.058-.64a2.674 2.674 0 000-.553l-.029-.174.145.203c.078.194.126.397.146.61.02.35-.029.641-.146.873l.32.407c.194.252.563.601 1.105 1.047l-.174-.523c-.077-.214-.136-.611-.174-1.192l-.029-.785c-.659-.446-1.085-.901-1.279-1.367a2.808 2.808 0 01-.204-.785v-.291l.087.495c.039.193.126.368.262.523l.087-.35c.059-.136.097-.388.116-.756v.814l-.058.494.465.494c.213.233.407.378.582.437 0-.194.029-.446.087-.756l.175-.814c-.524-.291-.853-.649-.989-1.076a4.107 4.107 0 01-.146-.698v-.203l.058.407c.058.31.184.581.378.814.291.368.543.533.756.494l.175-.844c.037-.155.173-.407.406-.756z" clip-rule="evenodd" fill="url(#b)" fill-rule="evenodd"/><path d="M37.815 36.6c.465.757.863 1.299 1.192 1.629.562.504.999.834 1.309.988-.291.737-.543 1.212-.756 1.426-.194.213-2.724-.262-7.591-1.426l.117-2.035.349.116c.329.02.756-.077 1.279-.291.504-.213 1.144-.281 1.919-.203.426.039.892.097 1.396.175.291.019.456.019.494 0 .078-.059.068-.224-.029-.495l-.262-.901z" clip-rule="evenodd" fill="#6f9c32" fill-rule="evenodd"/><path d="M46.017 39.188c-.33 1.066-1.163 1.822-2.501 2.268-2.056.718-4.43 1.193-7.125 1.426l1.687-.757c1.202-.833 2.016-2.035 2.443-3.605.349-1.299.514-2.414.495-3.345 0-.717.01-1.096.028-1.134a.955.955 0 01.466-.291c.097-.039.446-.097 1.047-.175.465-.077.814-.232 1.047-.465.136-.136.281-.407.437-.814.155-.446.339-.698.552-.756a2.737 2.737 0 00-.349.756c-.174.581-.097 1.008.233 1.279.406.33.766.814 1.075 1.454.349.64.533 1.241.553 1.804.076 1.105.047 1.89-.088 2.355z" clip-rule="evenodd" fill="#90cc3f" fill-rule="evenodd"/><path d="M46.19 39.188c-.329 1.066-1.153 1.822-2.472 2.268-2.055.718-4.439 1.193-7.154 1.426l1.687-.757c1.202-.833 2.017-2.035 2.443-3.605.349-1.299.523-2.414.523-3.345-.02-.717-.02-1.096 0-1.134a.744.744 0 01.466-.291c.116-.039.475-.097 1.076-.175.465-.077.795-.213.988-.407.136-.136.281-.388.437-.756.155-.446.291-.737.406-.873a3.229 3.229 0 00-.261.756c-.116.581-.01 1.008.319 1.279.407.33.775.814 1.105 1.454.329.64.514 1.241.552 1.804.08 1.086.041 1.871-.115 2.356z" clip-rule="evenodd" fill="#6a9431" fill-rule="evenodd"/><path d="M44.649 33.575c.349.271.669.669.96 1.192a4.75 4.75 0 01.61 1.57c-.058.155-.154.34-.29.553-.271.407-.796.543-1.571.407-.795-.155-1.027-.465-.697-.931.31-.465.445-.911.407-1.338-.059-.407-.281-.698-.669-.872-.252-.136-.35-.358-.291-.669.329-.077.571-.204.727-.378.098-.136.214-.369.35-.698.155-.446.291-.737.406-.873a3.229 3.229 0 00-.261.756c-.116.583-.01 1.01.319 1.281z" clip-rule="evenodd" fill="#658c2d" fill-rule="evenodd"/><path d="M30.952 35.611c.097-.136.165-.136.204 0 .097.252.475 1.356 1.134 3.315.368 1.047 1.105 2.025 2.21 2.937.543.446 1.057.786 1.542 1.019-.33-.098-.727-.271-1.192-.523a7.028 7.028 0 01-2.297-2.036c-.718-1.008-1.231-1.938-1.542-2.792-.292-.873-.311-1.512-.059-1.92z" clip-rule="evenodd" fill="#8cc63f" fill-rule="evenodd"/><path d="M46.424 36.92c.019.775-.049 1.425-.204 1.948-.311 1.047-.94 1.958-1.89 2.733-1.086.873-2.356 1.367-3.81 1.483-1.532.155-2.802.155-3.81 0l-1.047-.262.465.059c.407 0 .824-.039 1.251-.116 1.047-.214 1.919-.659 2.617-1.338.775-.775 1.27-1.784 1.483-3.024.291-1.92.572-2.831.844-2.734.058.02.213.078.465.175.271.097.456.126.553.087.02 0 .136-.126.349-.378.194-.232.427-.358.698-.378.543-.077.921-.185 1.135-.32.213-.116.532-.174.959-.174.485.02.757.174.814.465.058.388.049.611-.029.669-.058.039-.154 0-.29-.116-.33-.252-.524-.242-.582.029-.02.077-.01.474.029 1.192z" clip-rule="evenodd" fill="#86c236" fill-rule="evenodd"/><path d="M46.627 36.92c0 .795-.077 1.444-.232 1.948-.311 1.047-.94 1.958-1.891 2.733-1.066.873-2.326 1.367-3.78 1.483-2.462.232-4.091.146-4.886-.262l.494.059c.407 0 .824-.039 1.25-.116 1.028-.214 1.891-.659 2.588-1.338.776-.775 1.27-1.784 1.483-3.024.175-1.086.397-1.688.669-1.804.155-.077.388-.106.697-.087.602-.368.912-.553.931-.553.078-.02.263-.146.553-.378.311-.232.602-.358.873-.378.252-.039.358-.078.319-.116-.077-.098-.077-.175 0-.233.431-.281.838-.049 1.222.698-.171-.064-.278-.007-.32.175zm.291-1.367c.068.032.146.08.232.146.146.109.199-.046.16-.465.126 1.068.179 1.64.16 1.716 0 .038-.068-.146-.204-.553a6.752 6.752 0 00-.348-.844z" clip-rule="evenodd" fill="#60872c" fill-rule="evenodd"/><path d="M46.598 35.728l.029 1.192c0 .795-.077 1.444-.232 1.948-.311 1.047-.94 1.958-1.891 2.733-1.066.873-2.326 1.367-3.78 1.483l-.32.029c1.532-.232 2.772-.785 3.722-1.658.776-.697 1.183-1.396 1.222-2.094.077-1.57-.068-2.753-.437-3.548v-.087c.02-.078.126-.146.32-.203.155-.059.368-.146.64-.263.252-.097.485-.106.698-.028.271.077.358.155.262.232a4.004 4.004 0 00-.204.146z" clip-rule="evenodd" fill="#537526" fill-rule="evenodd"/><use transform="matrix(.5816 0 0 -.5816 41.2 35.6)" y="-12.7" width="8.75" height="12.7" opacity=".199" xlink:href="#c"/><path d="M32.755 33.691c-.233-.116-.476-.048-.727.204-.097.097-.155.097-.175 0-.02-.097.058-.252.233-.466.271-.349.766-.475 1.483-.378.136.039.32.106.553.204.194.097.417.155.669.174a4.478 4.478 0 011.745.553c.485.291.756.582.814.872-.039-.019-.039.088 0 .32.039.291.01.466-.087.523-.078.059-.194-.049-.349-.319-.174-.311-.31-.476-.407-.495-.136-.019-.243.02-.32.116a5.63 5.63 0 01-.174.291c-.058.116-.194.126-.407.029a1.056 1.056 0 01-.494-.437c-.039-.038-.116-.184-.233-.436a.69.69 0 00-.291-.291c-.116-.098-.291-.155-.523-.175h-.32l-.146.059c-.02.002-.301-.114-.844-.348z" clip-rule="evenodd" fill="#94d142" fill-rule="evenodd"/><path d="M45.405 42.678c-1.531.775-2.879 1.009-4.042.698-1.241-.33-1.803-.514-1.687-.553.097-.039.659-.058 1.687-.058a5.62 5.62 0 002.53-.641c.388-.193.785-.29 1.192-.29.543 0 .892-.02 1.047-.059a11.33 11.33 0 001.192-.378c-.522.466-1.162.893-1.919 1.281z" clip-rule="evenodd" fill="#39521a" fill-rule="evenodd"/><path d="M63.731 44.685c.368-.717 1.019-1.163 1.948-1.338a4.313 4.313 0 011.309-.029 6.13 6.13 0 00-.581.088c-.388.116-.592.281-.61.494-.02.175.009.427.086.756.059.368-.028.834-.261 1.396-.291.775-.785 1.483-1.483 2.123-.775.717-1.6 1.144-2.473 1.279l.728-1.716a77.68 77.68 0 011.337-3.053z" clip-rule="evenodd" fill="#3c571c" fill-rule="evenodd"/><path d="M65.069 46.284a4.233 4.233 0 001.135-.931c-.059.582-.271 1.202-.641 1.861-.698 1.338-1.765 2.259-3.199 2.763-1.24.427-2.879.581-4.915.465-2.132-.136-2.732-.31-1.803-.522.136-.02 1.105-.631 2.908-1.833 1.9-1.124 3.229-1.561 3.984-1.309.796.252 1.64.088 2.531-.494z" clip-rule="evenodd" fill="#446120" fill-rule="evenodd"/><path d="M48.114 47.68c1.027-.038 1.726-.038 2.095 0 .775.078 1.454.311 2.035.698 4.362.602 6.437 1.037 6.224 1.309-.252.35-.679.61-1.279.785-1.027.311-2.627.427-4.799.35-1.105-.059-2.123-.281-3.054-.67-1.744-.717-3.238-1.87-4.479-3.46l-.319-.437 1.279.728c.969.484 1.735.716 2.297.697z" clip-rule="evenodd" fill="#6e9c33" fill-rule="evenodd"/><path d="M43.985 41.398l1.628 3.111c1.338 2.249 2.608 3.8 3.81 4.653.737.523 2.026.95 3.868 1.279.911.155 1.755.262 2.53.32-.911.155-1.997.194-3.257.116-2.481-.175-4.537-.882-6.166-2.123-1.338-1.027-2.142-2.559-2.413-4.595z" clip-rule="evenodd" fill="#6b9631" fill-rule="evenodd"/><path d="M59.34 33.896l.523.349c.117 0 .389.34.814 1.018.194.233.427.136.698-.29l.146.29c.116.175.262.194.436.059.291-.194.582-.437.873-.727-.155.388-.311.795-.466 1.221-.291.834-.427 1.357-.407 1.57.039.253-.562.417-1.803.495-1.261.077-2.007-.029-2.239-.32-.194-.252-.388-.659-.581-1.222l-.262-.756c.367-.136.717-.427 1.047-.872.174-.233.368-.533.581-.902.136-.137.349-.108.64.087z" clip-rule="evenodd" fill="#6b9630" fill-rule="evenodd"/><path d="M49.83 49.396c-.31-.038-.669-.223-1.075-.552-.834-.621-1.522-1.619-2.065-2.996a567.784 567.784 0 01-1.745-4.449c-.368-1.124-.339-1.677.088-1.657.445.038.766-.088.96-.379l.436-1.047c.484-.504 1.154-.252 2.007.756.502.581.968 4.023 1.394 10.324z" clip-rule="evenodd" fill="#5c822a" fill-rule="evenodd"/><path d="M48.755 37.152l.872-1.396c.911-.97 2.19-1.57 3.839-1.804 2.017-.271 3.771-.097 5.264.523 1.531.641 2.578 1.668 3.141 3.083.64 1.687.484 3.625-.465 5.816-1.048 2.424-2.627 3.664-4.74 3.723-2.308.077-4.392-1.047-6.253-3.374-1.882-2.325-2.434-4.516-1.658-6.571z" clip-rule="evenodd" fill="#89bf3f" fill-rule="evenodd"/><path d="M60.707 37.763l.203 1.979c.059 1.551-.067 2.897-.378 4.042-.329 1.183-.979 1.852-1.948 2.007-1.609.02-3.121.106-4.537.262-1.764.213-2.879-.262-3.344-1.425-.136-1.28-.262-2.017-.379-2.211-.484-.756-.668-1.366-.552-1.832.193-.854 1.376-.988 3.548-.407 2.133.582 4.004.359 5.613-.669.814-.525 1.406-1.106 1.774-1.746z" clip-rule="evenodd" fill="#7bab38" fill-rule="evenodd"/><path d="M52.651 43.173l-4.275-2.269.117-1.542c.077-1.065.145-1.647.203-1.745.097-.174.174-.436.232-.784l1.426.232c1.065.271 1.909.688 2.529 1.25.407.388.61.708.61.96l.728 1.861c.659 1.318 1.396 2.172 2.21 2.56.388.174.785 0 1.193-.523.193-.271.349-.563.465-.873l.029 1.163c-.039.834-.233 1.367-.582 1.6-.328.213-1.957-.417-4.885-1.89z" clip-rule="evenodd" fill="#689131" fill-rule="evenodd"/><path d="M59.253 35.117c-.563.019-.901.106-1.018.262-.116.154-.194.31-.233.465v.204l.641.232c.465.271.813.756 1.047 1.454.252.698.232 1.454-.059 2.268a3.87 3.87 0 01-.494 1.019c.174-.989.165-1.92-.029-2.792-.155-.698-.368-1.173-.64-1.425a2.985 2.985 0 00-.611-.466l-.29-.116a11.21 11.21 0 00-2.298.059c-.446.058-.95.262-1.512.61l-.698.523.436-.465c.369-.33.708-.572 1.019-.728.504-.252 1.309-.358 2.414-.319-.194-.194-.466-.378-.814-.553l-.523-.291c-1.184.02-2.095.301-2.733.844l-1.396 1.279.262-.466c.252-.368.553-.688.901-.959.563-.446 1.464-.775 2.705-.989-.427-.193-.776-.301-1.047-.319-.33-.039-.814.067-1.454.319-.776.33-1.299.757-1.57 1.28-.194.388-.369.756-.524 1.104-.058.116-.087.136-.087.059 0-.194.136-.572.407-1.135.35-.679.717-1.114 1.105-1.309.601-.271 1.153-.445 1.657-.523-.756-.097-1.26-.106-1.512-.029l-.379.088.757-.204c.582-.136 1.037-.174 1.366-.116l.291.029.32-.087c.271-.059.494-.088.669-.088l.61.029-1.339.292.728.319.407.262v-.116c.097-.097.349-.203.756-.319.659-.194 1.348-.175 2.064.058-.911-.077-1.474-.067-1.687.029l-.814.582.756.465c.175.097.32.223.437.378l.262-.319c.232-.233.504-.378.814-.437.504-.097 1.086-.068 1.745.087a10.38 10.38 0 00-.815-.029z" clip-rule="evenodd" fill="#a5e64c" fill-rule="evenodd"/><path d="M57.421 44.976c.736.349 1.201 1.144 1.396 2.385.136.931.824 1.328 2.065 1.192-.155.155-.427.339-.814.552-.795.446-1.774.806-2.938 1.077-1.047.213-2.21.29-3.49.232-2.559-.097-4.41-.814-5.554-2.152-1.513-1.726-2.172-3.752-1.979-6.078.078-1.124.476-2.607 1.193-4.449.093-.236.175-.426.247-.567a.456.456 0 00-.044-.044 2.31 2.31 0 00-.116-.087l.174-.029.088-.015c.138-.21.234-.224.291-.043v.014c.383-.023.771.03 1.163.16.232.078.901.379 2.007.902.93.426 1.59.911 1.977 1.454.214.329.427.804.641 1.425.349.756.834 1.492 1.454 2.21.717.871 1.464 1.492 2.239 1.861zm-10.237-7.794c-.019.252-.077.378-.174.378-.116 0-.378.146-.785.437-.311.213-.427.223-.35.029.2-.451.646-.766 1.338-.945a.236.236 0 00-.029.101z" clip-rule="evenodd" fill="url(#d)" fill-rule="evenodd"/><path d="M51.924 41.021c.039-.175.107-.35.204-.523l.116-.232-.029.727c0 .311.039.582.116.814l.553-.378c.252-.194.484-.397.698-.611-.291.621-.97 1.231-2.036 1.833-.679.368-1.24.63-1.687.784l-.465.117.028 1.134c0 .504.165 1.231.495 2.182h.583a8.51 8.51 0 001.599-.291c.873-.233 1.444-.485 1.716-.757l-.029-.959.204-1.222.116.96c.077.465.232.766.466.901l.203-.204c.136-.136.64-.542 1.512-1.221-.155.29-.387.62-.697.988-.602.737-1.271 1.309-2.007 1.716a6.773 6.773 0 01-2.385.785l-1.076.059.175.349c.194.311.455.649.785 1.019.543.601 1.425 1.008 2.646 1.221l-1.192.029c-.485 0-.989-.146-1.513-.437-.31-.174-.64-.581-.988-1.222l-.437-.901c-1.027-.62-1.813-1.425-2.355-2.413a7.682 7.682 0 01-.728-2.065l-.116-.959.291 1.163c.097.427.281.785.553 1.076l.087-.873c.039-.291.049-.543.029-.756l-.058-.262.174.291c.097.252.155.533.175.843.038.485-.01.883-.146 1.192l.378.523c.271.35.775.834 1.513 1.454l-.262-.727c-.097-.311-.165-.854-.204-1.629l-.059-1.076c-.892-.601-1.454-1.221-1.687-1.861a4.741 4.741 0 01-.29-1.076v-.378l.116.641c.058.271.174.514.349.727l.146-.494.116-.989-.059 1.774.611.669c.291.329.543.523.756.581l.378-2.123c-.697-.387-1.144-.882-1.338-1.482a4.259 4.259 0 01-.203-.96v-.291l.087.553c.098.427.262.805.495 1.135.407.504.746.736 1.018.697l.262-1.192c.058-.213.242-.563.552-1.047.155-.252.312-.475.466-.669l-.32.728c-.232.543-.377.931-.436 1.163l-.175 1.018.35-.059c.291-.077.522-.154.697-.232.291-.136.785-.504 1.483-1.104-.155.252-.494.62-1.018 1.104a2.23 2.23 0 01-1.076.611l-.523.058-.232 2.211.407-.059c.329-.077.63-.185.901-.319.465-.214.834-.417 1.105-.611.019-.507.058-.895.116-1.166z" clip-rule="evenodd" fill="url(#e)" fill-rule="evenodd"/><path d="M57.101 45.121c-.368 1.027-.698 1.687-.988 1.978-.271.31-3.655-.35-10.15-1.978l.146-2.792.466.175c.446.038 1.009-.088 1.687-.379.698-.29 1.561-.388 2.589-.29.562.038 1.183.126 1.861.262.407.019.63.019.668 0 .098-.078.078-.311-.058-.698L53 40.147l.785 1.426c.602 1.027 1.135 1.764 1.6 2.21.737.717 1.308 1.163 1.716 1.338z" clip-rule="evenodd" fill="#5b8029" fill-rule="evenodd"/><path d="M64.72 45.121c-.427 1.454-1.531 2.491-3.314 3.111-1.726.602-3.829 1.105-6.312 1.513l-3.228.437 2.239-1.048c1.629-1.124 2.724-2.772 3.286-4.943.465-1.784.688-3.315.669-4.595-.02-.97-.01-1.483.029-1.542.155-.193.358-.329.61-.407.116-.038.592-.126 1.425-.262.621-.097 1.076-.3 1.367-.61.194-.213.388-.591.581-1.134.233-.582.485-.931.757-1.047l-.466 1.075c-.232.775-.136 1.348.291 1.716.543.466 1.037 1.135 1.483 2.007.445.892.688 1.726.727 2.501.117 1.473.07 2.549-.144 3.228z" clip-rule="evenodd" fill="#90cc3f" fill-rule="evenodd"/><path d="M64.981 45.121c-.445 1.454-1.55 2.491-3.315 3.111-1.725.602-3.828 1.105-6.311 1.513l-3.228.437 2.239-1.048c1.609-1.124 2.695-2.772 3.258-4.943.465-1.784.697-3.315.697-4.595-.02-.989-.01-1.503.029-1.542.155-.193.358-.329.61-.407.117-.038.592-.126 1.426-.262.62-.097 1.065-.271 1.337-.523.155-.174.34-.523.553-1.047.213-.601.397-1.008.553-1.221l-.35 1.075c-.154.775-.009 1.348.437 1.716.543.446 1.027 1.115 1.454 2.007.446.892.698 1.726.756 2.501.079 1.532.03 2.607-.145 3.228z" clip-rule="evenodd" fill="#6a9431" fill-rule="evenodd"/><path d="M64.197 39.043c.407.717.688 1.435.843 2.152l-.407.756c-.368.563-1.076.746-2.123.553-1.047-.214-1.356-.641-.931-1.28.427-.64.602-1.24.523-1.803-.077-.563-.358-.97-.843-1.222-.368-.155-.514-.455-.437-.901.446-.097.775-.271.988-.523.136-.175.291-.494.466-.96.213-.601.397-1.008.553-1.221l-.35 1.075c-.154.775-.009 1.348.437 1.716.447.388.874.94 1.281 1.658z" clip-rule="evenodd" fill="#658c2d" fill-rule="evenodd"/><path d="M44.625 40.177c.038-.058.077-.136.116-.232.02-.02.067.077.146.291.116.329.62 1.832 1.512 4.508.485 1.435 1.464 2.772 2.938 4.013.737.62 1.425 1.096 2.065 1.426-.446-.136-.979-.379-1.6-.728a9.53 9.53 0 01-3.054-2.763c-.97-1.396-1.658-2.676-2.064-3.839-.389-1.203-.408-2.094-.059-2.676z" clip-rule="evenodd" fill="#8cc63f" fill-rule="evenodd"/><path d="M64.981 44.655c-.407 1.435-1.25 2.686-2.529 3.752-1.416 1.202-3.103 1.89-5.061 2.064-2.055.175-3.752.175-5.089 0l-1.426-.349.641.028a7.154 7.154 0 001.687-.145c1.377-.291 2.54-.902 3.489-1.832 1.047-1.047 1.706-2.424 1.978-4.13.408-2.617.785-3.878 1.135-3.78.077.038.291.136.64.29.329.136.563.175.698.116.058-.019.223-.193.494-.523.252-.329.563-.514.931-.552.756-.098 1.26-.233 1.512-.407.271-.175.698-.262 1.28-.262.659.02 1.018.232 1.075.64.078.523.068.824-.028.901-.078.058-.213.01-.407-.146-.155-.136-.311-.203-.466-.203-.154 0-.252.077-.29.232-.02.116-.01.659.028 1.628.019 1.088-.078 1.981-.292 2.678z" clip-rule="evenodd" fill="#86c236" fill-rule="evenodd"/><path d="M66.262 40.322c.173.139.24-.051.203-.567.155 1.447.233 2.198.233 2.254 0 .059-.098-.193-.291-.756a8.586 8.586 0 00-.451-1.105.472.472 0 00-.159-.028c-.155 0-.253.077-.291.232-.02.116-.01.659.028 1.628.02 1.086-.077 1.979-.29 2.676-.427 1.435-1.271 2.686-2.53 3.752-1.415 1.202-3.103 1.89-5.061 2.064-2.055.175-3.752.175-5.089 0l-1.426-.349.64.028a7.327 7.327 0 001.688-.145c1.376-.291 2.529-.902 3.461-1.832 1.047-1.047 1.706-2.424 1.977-4.13.233-1.493.534-2.326.902-2.501.193-.097.504-.136.931-.116.64-.427 1.047-.669 1.221-.728.021 0 .271-.175.757-.523.427-.329.823-.514 1.192-.553.329-.038.465-.097.407-.174-.098-.098-.098-.185 0-.262.581-.389 1.129-.068 1.643.959a.817.817 0 01.305.176z" clip-rule="evenodd" fill="#60872c" fill-rule="evenodd"/><path d="M65.563 40.235l-.058.116c-.02.116-.01.659.028 1.628.02 1.086-.077 1.979-.29 2.676-.427 1.435-1.271 2.686-2.53 3.752-1.415 1.202-3.103 1.89-5.061 2.064l-.407.029c2.036-.35 3.693-1.105 4.973-2.269 1.028-.969 1.571-1.929 1.629-2.879.059-1.338-.02-2.55-.232-3.635l-.35-1.222c-.038-.039-.048-.078-.028-.116.038-.116.184-.224.436-.32a5.71 5.71 0 00.873-.349c.349-.116.669-.126.96-.029.329.097.427.204.291.319-.059.08-.137.157-.234.235z" clip-rule="evenodd" fill="#537526" fill-rule="evenodd"/><use transform="matrix(.5816 0 0 -.5816 58.35 40.1)" y="-17.45" width="11.65" height="17.45" opacity=".199" xlink:href="#f"/><path d="M52.069 37.967c.659.388 1.027.785 1.105 1.192-.058-.039-.067.106-.029.437.039.406.01.659-.087.756-.116.077-.281-.077-.494-.465-.233-.427-.417-.65-.553-.67-.175-.038-.311.011-.407.146-.116.175-.203.311-.262.407-.077.155-.242.175-.494.059a1.91 1.91 0 01-.698-.611 22.778 22.778 0 00-.32-.581 1.376 1.376 0 00-.378-.437c-.175-.116-.406-.193-.697-.232h-.407l-.204.087c-.077.02-.252-.028-.523-.146a11.352 11.352 0 00-.61-.349c-.291-.136-.611-.049-.96.262-.136.136-.213.146-.232.029-.039-.116.067-.33.32-.64.213-.291.601-.466 1.163-.523.291-.02.552-.02.785 0 .154.038.407.135.756.291.252.116.553.193.901.232.484.058.862.126 1.134.203.349.097.746.281 1.191.553z" clip-rule="evenodd" fill="#94d142" fill-rule="evenodd"/><path d="M63.906 49.891c-2.036 1.066-3.839 1.386-5.409.959-1.648-.445-2.395-.698-2.239-.756.136-.058.882-.078 2.239-.058a11.19 11.19 0 001.687-.204c.523-.136 1.105-.368 1.745-.698a3.04 3.04 0 011.57-.378c.679 0 1.134-.029 1.366-.087a16.635 16.635 0 001.629-.523c-.697.62-1.56 1.202-2.588 1.745z" clip-rule="evenodd" fill="#39521a" fill-rule="evenodd"/><path d="M40.059 48.64c.427-.854 1.018-1.648 1.774-2.385.368-.368.698-.659.989-.872a1.636 1.636 0 00-.146.175 1.544 1.544 0 00-.175.64c-.02.213.02.756.116 1.628.039.931-.077 1.735-.349 2.414-.369.911-.96 1.745-1.774 2.501-.911.854-1.871 1.357-2.879 1.513.951-2.386 1.765-4.257 2.444-5.614z" clip-rule="evenodd" fill="#3c571c" fill-rule="evenodd"/><path d="M41.804 53.06c.504-.31.921-.648 1.25-1.018-.406.505-.93 1.058-1.569 1.658-1.28 1.183-2.531 1.978-3.752 2.385-1.474.504-3.422.679-5.846.523-2.481-.136-3.189-.329-2.123-.582.174-.038 1.483-.563 3.926-1.57 2.559-.911 4.294-1.221 5.206-.931.93.311 1.9.156 2.908-.465z" clip-rule="evenodd" fill="#446120" fill-rule="evenodd"/><path d="M17.055 52.188l-.378-.494c1.745 1.144 3.15 1.696 4.217 1.657 1.183-.038 1.997-.038 2.443 0 .95.098 1.764.379 2.443.844 5.138.698 7.581 1.212 7.329 1.541-.31.427-.814.747-1.512.96-1.202.35-3.083.476-5.642.378a10.592 10.592 0 01-3.606-.785 12.36 12.36 0 01-5.294-4.101z" clip-rule="evenodd" fill="#6e9c33" fill-rule="evenodd"/><path d="M16.038 45.964l1.919 3.665c1.551 2.655 3.043 4.488 4.479 5.496.872.62 2.394 1.124 4.566 1.513 1.085.193 2.084.319 2.995.378-1.086.193-2.365.232-3.839.116-2.947-.214-5.37-1.047-7.271-2.501-1.57-1.202-2.52-3.005-2.85-5.409v-3.258z" clip-rule="evenodd" fill="#6b9631" fill-rule="evenodd"/><path d="M34.737 37.53c.155 0 .485.397.989 1.192.233.291.504.175.814-.349l.175.349c.135.214.31.242.523.088.329-.233.659-.514.988-.844l-.523 1.425c-.329.989-.484 1.6-.465 1.832.039.311-.669.514-2.123.611-1.474.077-2.356-.049-2.646-.379-.233-.31-.465-.795-.698-1.454l-.291-.901c.426-.136.833-.465 1.221-.988.213-.291.446-.649.698-1.076.136-.175.378-.146.727.087z" clip-rule="evenodd" fill="#6b9630" fill-rule="evenodd"/><path d="M18.422 43.551c.077-.523.251-.94.523-1.251.543-.581 1.318-.271 2.327.931.369.446.756 2.607 1.164 6.485.213 1.938.378 3.839.494 5.7-.368-.059-.795-.271-1.28-.64-.988-.757-1.803-1.948-2.442-3.577-1.28-3.258-1.949-5.002-2.007-5.235-.446-1.318-.417-1.968.087-1.948.504.039.882-.117 1.134-.465z" clip-rule="evenodd" fill="#5c822a" fill-rule="evenodd"/><path d="M21.679 40.962c.155-.523.495-1.075 1.018-1.657 1.066-1.144 2.569-1.842 4.508-2.094 2.404-.33 4.478-.136 6.223.581 1.803.757 3.034 1.978 3.693 3.664.776 1.959.591 4.236-.552 6.835-1.241 2.869-3.102 4.333-5.584 4.392-2.714.096-5.176-1.222-7.387-3.956-2.209-2.753-2.849-5.341-1.919-7.765z" clip-rule="evenodd" fill="#89bf3f" fill-rule="evenodd"/><path d="M35.755 41.66l.233 2.355c.077 1.822-.078 3.412-.466 4.77-.388 1.376-1.144 2.152-2.268 2.326-1.9.02-3.684.127-5.351.32-2.094.232-3.402-.33-3.926-1.687-.174-1.513-.33-2.375-.465-2.589-.562-.911-.785-1.638-.668-2.181.232-.989 1.628-1.135 4.188-.437 2.501.679 4.711.407 6.631-.814.948-.619 1.646-1.307 2.092-2.063z" clip-rule="evenodd" fill="#7bab38" fill-rule="evenodd"/><path d="M22.901 39.246l.058-.116 1.542.64c1.105.621 1.871 1.426 2.297 2.414.252.62.397 1.037.436 1.25l.873 2.211c.775 1.551 1.648 2.559 2.617 3.024.446.213.902.01 1.367-.61.252-.311.446-.65.582-1.019l.029 1.367c-.058.969-.281 1.59-.669 1.861-.407.271-2.336-.466-5.787-2.21a104.497 104.497 0 01-5.06-2.676c.252-.97.514-1.958.785-2.967.542-1.996.852-3.053.93-3.169z" clip-rule="evenodd" fill="#689131" fill-rule="evenodd"/><path d="M28.223 37.269l.407-.116c.291-.077.543-.116.756-.116.329 0 .582.02.756.059-.543.077-.94.154-1.192.232l-.407.116.844.378.494.291.029-.116c.097-.116.388-.252.873-.407.776-.214 1.59-.194 2.443.058-1.085-.077-1.754-.058-2.006.059a4.038 4.038 0 00-.611.407l-.32.262.872.553c.213.116.378.262.495.436l.32-.378a1.98 1.98 0 01.96-.494c.601-.116 1.289-.078 2.064.116-.31-.02-.63-.029-.959-.029-.659.02-1.066.116-1.222.291a1.548 1.548 0 00-.262.582v.203l.756.262c.563.35.979.931 1.25 1.745.271.795.242 1.677-.087 2.646a4.48 4.48 0 01-.582 1.222c.213-1.145.204-2.239-.029-3.286-.174-.795-.426-1.367-.756-1.717a2.415 2.415 0 00-.698-.494l-.349-.145c-.97-.078-1.88-.059-2.734.058-.523.058-1.115.291-1.774.698a8.72 8.72 0 00-.843.61c.136-.155.31-.329.523-.523.446-.388.853-.669 1.222-.843.582-.311 1.522-.446 2.821-.407-.213-.214-.523-.437-.931-.669l-.611-.32c-.349.02-.747.067-1.192.146-.892.175-1.57.456-2.036.844l-1.687 1.512c.271-.601.736-1.153 1.396-1.657.679-.523 1.735-.922 3.17-1.192-.485-.214-.892-.34-1.222-.379-.368-.038-.931.098-1.687.407-.931.388-1.551.883-1.861 1.483-.233.466-.446.901-.64 1.309-.058.136-.087.165-.087.088 0-.233.165-.679.494-1.338.407-.814.833-1.338 1.28-1.57.698-.33 1.347-.533 1.948-.611-.892-.097-1.483-.106-1.774-.028l-.436.087.901-.232c.659-.155 1.192-.204 1.6-.146z" clip-rule="evenodd" fill="#a5e64c" fill-rule="evenodd"/><path d="M18.8 39.362c-.078.136-.068.088.029-.146.174-.445.32-.736.436-.872.232-.271.611-.455 1.134-.553.485-.097.999.088 1.542.553.853.718 1.561 1.212 2.123 1.483 1.066.484 1.9 1.415 2.501 2.792.31.736.63 1.657.96 2.763a12.37 12.37 0 001.716 2.617c.853 1.008 1.735 1.735 2.646 2.182.854.426 1.386 1.366 1.6 2.82.175 1.086.999 1.552 2.472 1.396-.194.193-.523.416-.989.668-.911.505-2.055.922-3.432 1.251-1.241.252-2.607.349-4.101.291-3.024-.136-5.215-.989-6.572-2.56-1.765-2.036-2.54-4.42-2.327-7.154.097-1.376.562-3.121 1.396-5.234.504-1.105.805-1.784.901-2.036.097-.29-.039-.581-.407-.872-.291-.213-.552-.301-.785-.262a.797.797 0 00-.523.349c-.019.04-.126.215-.32.524z" clip-rule="evenodd" fill="url(#g)" fill-rule="evenodd"/><path d="M19.44 44.917v-.436l.146.756c.078.329.223.62.436.872l.146-.581.146-1.192-.087 2.123.756.785c.349.368.649.591.901.669 0-.271.048-.659.146-1.164l.262-1.337c-.814-.466-1.328-1.048-1.542-1.745a6.34 6.34 0 01-.262-1.105v-.349l.087.64c.116.523.32.97.611 1.338.485.601.882.872 1.192.814l.32-1.396c.058-.252.271-.659.64-1.222l.523-.785-.378.844c-.271.64-.436 1.096-.495 1.367a7.618 7.618 0 00-.174 1.192l.407-.059c.31-.077.572-.165.785-.262.349-.155.94-.601 1.774-1.338-.194.311-.591.757-1.192 1.338-.601.563-1.231.824-1.89.785l-.262 2.589c.484-.039.999-.185 1.541-.437.524-.252.95-.494 1.28-.728.02-.601.068-1.057.146-1.366a2.2 2.2 0 01.232-.611l.146-.29-.058.843c0 .388.048.718.146.989.174-.098.397-.252.669-.466l.814-.698c-.349.718-1.153 1.426-2.414 2.123-1.26.698-2.104 1.066-2.53 1.105l.029 1.338c0 .602.194 1.454.582 2.559.659.059 1.512-.058 2.559-.349 1.047-.271 1.726-.571 2.036-.901l-.029-1.134c0-.214.039-.515.116-.902l.116-.523.146 1.135c.097.542.281.892.553 1.047l2.006-1.658c-.174.35-.446.737-.814 1.163-.717.873-1.502 1.542-2.355 2.007a8.376 8.376 0 01-2.821.96l-1.28.059.233.407c.213.368.514.766.901 1.191.64.698 1.687 1.173 3.141 1.426l-1.427.057c-.562 0-1.144-.175-1.745-.523-.368-.213-.766-.697-1.192-1.454l-.523-1.076a7.978 7.978 0 01-1.018-.756c-.756-.659-1.337-1.356-1.745-2.094a7.417 7.417 0 01-.844-2.414l-.146-1.134.32 1.367a3.1 3.1 0 00.669 1.279l.087-1.019a2.86 2.86 0 00.029-.901l-.058-.29.204.349c.116.291.184.61.203.96.039.581-.019 1.057-.174 1.425l.465.64c.33.407.921.97 1.774 1.687l-.291-.844c-.117-.349-.213-.988-.291-1.919l-.058-1.279c-1.027-.698-1.687-1.435-1.978-2.21a6.432 6.432 0 01-.348-1.281z" clip-rule="evenodd" fill="url(#h)" fill-rule="evenodd"/><path d="M40.495 50.327c-.523 1.725-1.832 2.956-3.926 3.692-2.017.737-4.498 1.338-7.445 1.803a59.214 59.214 0 01-3.81.495c.814-.155 1.696-.563 2.646-1.222 1.919-1.318 3.208-3.267 3.868-5.846.543-2.094.814-3.887.814-5.38-.02-1.163-.01-1.773.029-1.832.174-.252.417-.427.727-.523.155-.039.708-.126 1.658-.262.736-.116 1.279-.358 1.628-.728.213-.232.446-.678.698-1.337.252-.698.533-1.105.843-1.222l-.552 1.25c-.271.931-.146 1.609.378 2.036.64.543 1.222 1.328 1.745 2.355.523 1.047.814 2.026.872 2.938.118 1.786.06 3.046-.173 3.783z" clip-rule="evenodd" fill="#90cc3f" fill-rule="evenodd"/><path d="M40.786 50.327c-.504 1.725-1.803 2.956-3.897 3.692-2.036.737-4.518 1.338-7.445 1.803a59.395 59.395 0 01-3.81.495c.814-.155 1.697-.563 2.646-1.222 1.9-1.318 3.18-3.267 3.839-5.846.543-2.094.814-3.887.814-5.38-.02-1.163-.01-1.773.029-1.832.174-.252.417-.427.727-.523.155-.039.708-.126 1.658-.262.756-.116 1.29-.329 1.6-.64.213-.213.427-.62.64-1.222.271-.717.485-1.192.64-1.425l-.407 1.25c-.175.931 0 1.609.523 2.036.64.523 1.221 1.309 1.745 2.355.524 1.047.814 2.026.873 2.938.116 1.786.058 3.046-.175 3.783z" clip-rule="evenodd" fill="#6a9431" fill-rule="evenodd"/><path d="M39.855 43.201c.485.854.814 1.697.989 2.53-.078.214-.232.514-.465.901-.427.659-1.26.863-2.501.611-1.241-.232-1.609-.728-1.105-1.483.504-.756.717-1.474.64-2.152-.078-.64-.417-1.104-1.018-1.396-.407-.194-.572-.553-.494-1.076.523-.136.901-.349 1.134-.64.155-.194.339-.563.552-1.105.271-.717.485-1.192.64-1.425l-.407 1.25c-.175.931 0 1.609.523 2.036.543.447 1.047 1.097 1.512 1.949z" clip-rule="evenodd" fill="#658c2d" fill-rule="evenodd"/><path d="M16.765 44.539c.058-.175.106-.271.145-.291.02-.02.078.098.175.35.135.388.727 2.161 1.774 5.322.582 1.706 1.745 3.285 3.49 4.739.853.718 1.658 1.271 2.414 1.658-.523-.155-1.153-.437-1.89-.844a11.604 11.604 0 01-3.577-3.286c-1.163-1.629-1.978-3.131-2.443-4.508-.467-1.395-.496-2.442-.088-3.14z" clip-rule="evenodd" fill="#8cc63f" fill-rule="evenodd"/><path d="M40.815 49.803c-.504 1.707-1.502 3.18-2.995 4.421-1.687 1.415-3.684 2.229-5.991 2.442-2.404.214-4.411.214-6.02 0l-1.658-.407c.737.116 1.658.068 2.763-.146 1.628-.329 2.995-1.047 4.101-2.151 1.221-1.241 1.997-2.869 2.326-4.886.485-3.083.94-4.557 1.367-4.421.078.02.32.116.727.291.388.155.669.204.843.146.039-.02.233-.232.582-.64.291-.368.65-.572 1.076-.611.543-.058.921-.116 1.134-.174a2.01 2.01 0 00.64-.32c.33-.213.833-.31 1.513-.291.794.02 1.23.271 1.309.757.077.64.058.998-.059 1.075-.077.059-.232 0-.466-.174-.193-.155-.377-.232-.552-.232-.194-.02-.311.067-.35.262-.019.136 0 .766.059 1.89.02 1.279-.097 2.336-.349 3.169z" clip-rule="evenodd" fill="#86c236" fill-rule="evenodd"/><path d="M41.105 49.803c-.503 1.707-1.502 3.18-2.995 4.421-1.687 1.415-3.674 2.229-5.961 2.442-2.404.214-4.411.214-6.02 0l-1.687-.407c.737.116 1.658.068 2.763-.146 1.628-.329 2.995-1.047 4.1-2.151 1.241-1.241 2.017-2.869 2.327-4.886.485-3.083.94-4.557 1.367-4.421.078.02.32.116.727.291.388.155.669.204.844.146.058-.02.252-.232.582-.64.291-.368.649-.572 1.076-.611.563-.058.94-.116 1.134-.174a2 2 0 00.64-.32c.33-.213.795-.31 1.396-.291.698.02 1.076.271 1.135.757.058.562.077.892.058.988-.02.078-.116.049-.291-.087-.193-.155-.368-.232-.522-.232-.194-.02-.32.067-.379.262-.02.136 0 .766.059 1.89.017 1.279-.1 2.336-.353 3.169z" clip-rule="evenodd" fill="#60872c" fill-rule="evenodd"/><path d="M41.396 44.743c-.02.136 0 .766.059 1.89.02 1.28-.097 2.337-.35 3.17-.503 1.707-1.502 3.18-2.995 4.421-1.687 1.415-3.674 2.229-5.961 2.442-.117.02-.281.029-.495.029 2.404-.388 4.362-1.279 5.875-2.676 1.222-1.144 1.861-2.269 1.919-3.373.078-1.59-.048-3.063-.378-4.421l-.523-1.541.698-.291c.271-.097.494-.116.669-.058.252.077.504.116.756.116.408 0 .679.039.815.116z" clip-rule="evenodd" fill="#537526" fill-rule="evenodd"/><use transform="matrix(.5816 0 0 -.5816 32.95 44.5)" y="-20.55" width="13.75" height="20.55" opacity=".199" xlink:href="#i"/><path d="M19.382 37.908c.368-.232.873-.28 1.512-.146.33.078.621.175.873.291.155.116.397.33.727.64.232.214.533.407.901.582.524.232.931.455 1.222.669.31.232.679.592 1.105 1.076.388.445.649.892.785 1.338.155.445.155.581 0 .407-.058-.059-.126.106-.204.494-.097.445-.223.698-.378.756-.155.059-.271-.165-.349-.669-.116-.563-.242-.882-.378-.96-.174-.097-.397.088-.669.553-.349.659-.533.989-.553.989-.135.136-.32.039-.552-.291a4.19 4.19 0 01-.465-1.076c-.039-.193-.058-.601-.058-1.221.019-.505-.039-.854-.175-1.048-.136-.193-.368-.358-.698-.494l-.465-.175h-.233c-.155 0-.349-.048-.582-.145a2.023 2.023 0 01-.64-.408c-.136-.135-.369-.058-.698.233a18.03 18.03 0 00-.669.553c-.193.097-.232-.136-.116-.698.117-.581.369-.997.757-1.25z" clip-rule="evenodd" fill="#94d142" fill-rule="evenodd"/><g clip-rule="evenodd" fill="#7db038" fill-rule="evenodd"><path d="M21.33 39.624c-.155 0-.349-.048-.582-.145a2.023 2.023 0 01-.64-.408c-.136-.135-.369-.058-.698.233a18.03 18.03 0 00-.669.553c-.135.058-.184-.088-.145-.437.233-.078.446-.204.64-.378l.523-.494.32-.059c.213 0 .329.087.349.262.02.194.155.388.407.582.21.178.414.274.611.29h-.116zM25.634 43.667c.097 0 .213-.155.349-.466.136-.388.291-.727.465-1.018.077.232.126.407.145.523 0 .116-.029.136-.087.059-.058-.059-.126.106-.204.494-.097.445-.223.698-.378.756-.134.059-.232-.057-.29-.348zM24.18 42.91c.155-.388.359-.649.611-.785.252-.135.388-.048.407.262-.174-.097-.397.088-.669.553-.349.659-.533.989-.553.989-.097.136-.262.067-.494-.204.194.02.33-.028.407-.146.039-.038.136-.262.291-.669z"/></g><path d="M20.08 37.821c-.078-.097.029-.106.319-.029.213.059.476.262.786.611.116.174.61.417 1.483.727.233.136.388.252.465.35.097.097.155.242.174.436.02.136.126.242.32.32.252.097.417.184.494.262.407.329.737.484.989.465.174 0 .369.262.582.785a1.894 1.894 0 00-.349-.494c-.059-.039-.213-.068-.465-.087-.233-.02-.417-.088-.553-.204a3.52 3.52 0 00-.349-.319c-.078-.059-.232-.106-.465-.146a.633.633 0 01-.494-.35 4.435 4.435 0 00-.204-.523c-.116-.29-.649-.571-1.6-.843-.116-.02-.232-.126-.349-.32-.117-.174-.243-.291-.378-.349-.213-.079-.348-.175-.406-.292z" clip-rule="evenodd" fill="#c1fa73" fill-rule="evenodd"/><path d="M57.392 58.876c1.008.33 2.064.155 3.17-.522.563-.33 1.018-.698 1.367-1.105-.446.563-1.019 1.163-1.717 1.803-1.414 1.279-2.781 2.143-4.1 2.588-1.59.543-3.693.737-6.311.582-2.695-.155-3.461-.368-2.298-.64.175-.038 1.59-.601 4.246-1.687 2.773-1.009 4.653-1.348 5.643-1.019z" clip-rule="evenodd" fill="#446120" fill-rule="evenodd"/><path d="M40.524 58.673c1.008.116 1.881.427 2.617.931 5.604.757 8.26 1.318 7.969 1.687-.35.446-.901.785-1.658 1.019-1.318.388-3.363.523-6.136.407-1.26-.02-2.559-.301-3.897-.844-2.269-.931-4.188-2.414-5.758-4.45l-.407-.552 1.628.931c1.241.62 2.229.911 2.966.872 1.319-.039 2.211-.039 2.676-.001z" clip-rule="evenodd" fill="#6e9c33" fill-rule="evenodd"/><path d="M60.591 50.966c.407-.407.766-.727 1.075-.959a1.156 1.156 0 00-.145.203 1.555 1.555 0 00-.204.698c-.019.232.029.824.146 1.774.039 1.008-.087 1.88-.378 2.617-.388.988-1.027 1.899-1.919 2.733-1.009.911-2.065 1.454-3.171 1.629 1.048-2.599 1.939-4.634 2.676-6.107.466-.91 1.105-1.773 1.92-2.588z" clip-rule="evenodd" fill="#3c571c" fill-rule="evenodd"/><path d="M33.021 54.049l1.076 2.53c1.008 1.9 2.297 3.402 3.868 4.508.95.679 2.297 1.163 4.042 1.454.893.155 1.678.232 2.356.232-.854.078-1.852.02-2.995-.175-2.289-.388-4.188-1.23-5.701-2.529-1.628-1.396-2.559-2.821-2.792-4.275z" clip-rule="evenodd" fill="#83b83c" fill-rule="evenodd"/><path d="M52.215 41.05l.669.436c.078 0 .291-.067.64-.203.35-.116.602-.077.757.116.271.311.455.649.552 1.018l.175.379c.175.213.378.242.611.087.349-.271.707-.582 1.075-.931l-.581 1.541c-.368 1.086-.533 1.755-.494 2.007.038.329-.737.543-2.327.64-1.609.116-2.568-.02-2.879-.407-.252-.31-.504-.833-.756-1.57l-.32-.988c.484-.155.931-.515 1.338-1.076.232-.311.484-.698.756-1.164.154-.196.416-.157.784.115z" clip-rule="evenodd" fill="#6b9630" fill-rule="evenodd"/><path d="M38.256 47.68c.388.485.805 2.841 1.25 7.067.213 2.094.388 4.149.524 6.165-.388-.058-.854-.291-1.396-.697-1.047-.814-1.919-2.104-2.617-3.868-.892-2.288-1.406-4.44-1.542-6.456-.136-1.939.116-2.89.756-2.851.562.039.824.146.785.32l.61-.494c.505-.194 1.048.077 1.63.814z" clip-rule="evenodd" fill="#5c822a" fill-rule="evenodd"/><path d="M40.786 53.642c-2.424-3.005-3.122-5.816-2.094-8.434l1.105-1.774c1.163-1.26 2.801-2.025 4.915-2.297 2.579-.349 4.828-.136 6.747.64 1.958.814 3.296 2.133 4.014 3.955.834 2.152.64 4.634-.582 7.445-1.357 3.103-3.383 4.701-6.078 4.798-2.947.097-5.624-1.347-8.027-4.333z" clip-rule="evenodd" fill="#89bf3f" fill-rule="evenodd"/><path d="M40.35 42.939l1.28.873a8.483 8.483 0 003.373 1.075c1.861.194 3.044.417 3.548.67v1.832c.038 1.318.174 2.229.407 2.733a3.259 3.259 0 001.687 1.687l.029 1.513c-.059 1.046-.301 1.716-.727 2.006-.427.291-2.521-.503-6.282-2.384l-5.496-2.908c.271-1.066.552-2.143.843-3.229.582-2.19.912-3.345.989-3.461.135-.232.252-.367.349-.407z" clip-rule="evenodd" fill="#689131" fill-rule="evenodd"/><path d="M52.128 42.62c-.718 0-1.153.106-1.309.319a1.597 1.597 0 00-.291.611c-.02.097-.028.174-.028.232l.813.291c.601.368 1.057.998 1.367 1.89.311.873.281 1.843-.088 2.908-.174.523-.388.96-.64 1.31.252-1.28.252-2.473 0-3.577-.193-.873-.475-1.493-.843-1.861a3.205 3.205 0 00-.756-.553l-.379-.175a13.596 13.596 0 00-2.966.088c-.582.077-1.222.339-1.92.784l-.901.641.582-.582c.445-.407.872-.718 1.279-.931.64-.311 1.667-.446 3.083-.407-.253-.252-.602-.494-1.047-.727l-.64-.35c-.389.02-.824.068-1.309.146-.97.194-1.707.504-2.211.931l-1.803 1.629.349-.582a5.84 5.84 0 011.163-1.222c.718-.562 1.861-.988 3.432-1.279-.523-.232-.96-.368-1.309-.407-.427-.038-1.037.107-1.832.437-1.009.407-1.687.94-2.036 1.6-.251.504-.484.979-.697 1.425-.059.136-.088.165-.088.087 0-.252.175-.736.524-1.454.445-.892.911-1.454 1.396-1.687.775-.368 1.482-.591 2.123-.669-.97-.116-1.619-.136-1.949-.058l-.465.116.96-.262c.736-.175 1.318-.223 1.745-.146l.378.059.407-.117c.329-.077.61-.116.843-.116l.814.029-1.716.378 1.454.728v-.146c.116-.116.437-.252.96-.407.853-.232 1.734-.214 2.646.058-1.163-.077-1.881-.048-2.152.088a5.059 5.059 0 00-.698.407l-.349.29.988.611c.214.116.389.281.524.494l.349-.407c.29-.29.64-.475 1.047-.553.64-.136 1.386-.097 2.239.117a6.139 6.139 0 00-1.043-.029z" clip-rule="evenodd" fill="#a5e64c" fill-rule="evenodd"/><path d="M50.703 56.899c.601 2.112 1.773 3.082 3.519 2.908-.213.213-.572.455-1.076.727-1.008.563-2.249 1.018-3.723 1.367-1.337.271-2.83.368-4.479.29-3.276-.136-5.661-1.057-7.154-2.763-1.919-2.21-2.763-4.798-2.53-7.765.116-1.454.63-3.354 1.541-5.7.563-1.201.882-1.938.96-2.21.116-.329-.029-.649-.437-.959-.582-.446-1.057-.408-1.425.115-.02.039-.136.224-.349.553-.078.155-.068.098.029-.174.232-.505.397-.814.494-.931.252-.311.659-.514 1.222-.611.523-.097 1.085.116 1.687.64.912.757 1.677 1.28 2.297 1.571 1.861.853 4.101 1.435 6.718 1.744-.155-.02-.136.854.059 2.618.174 1.841.514 3.063 1.018 3.664.388.465.718 1.211.989 2.239.136.583.349 1.475.64 2.677z" clip-rule="evenodd" fill="url(#j)" fill-rule="evenodd"/><path d="M41.077 45.906l-.437.931c-.291.679-.465 1.173-.523 1.483a14.27 14.27 0 00-.204 1.279l.437-.088a3.09 3.09 0 00.873-.262c.387-.174 1.027-.659 1.919-1.454-.213.35-.64.834-1.279 1.454-.659.621-1.348.901-2.065.844l-.291 2.82.493-.085a4.767 4.767 0 001.193-.379c.582-.271 1.037-.543 1.366-.813.039-.621.098-1.105.175-1.454.039-.214.116-.446.232-.698l.175-.291-.058.931c0 .407.048.756.146 1.047l.727-.466.901-.784c-.097.193-.271.436-.523.727-.543.601-1.24 1.135-2.094 1.6-1.377.756-2.298 1.153-2.763 1.192l.058 1.425c0 .659.204 1.59.611 2.792h.756c.64-.039 1.318-.155 2.036-.349 1.124-.311 1.86-.641 2.21-.989l-.059-1.251c0-.232.049-.563.146-.988l.116-.553.175 1.251c.097.581.3.959.611 1.134l.261-.262c.175-.175.805-.688 1.891-1.541-.194.368-.484.785-.873 1.25-.756.95-1.608 1.678-2.559 2.182a8.924 8.924 0 01-3.082 1.018l-1.368.087.233.437c.232.407.563.844.989 1.309.445.466 1.153.863 2.122 1.192a6.95 6.95 0 001.309.349l-1.57.059c-.62 0-1.25-.194-1.891-.581-.406-.233-.842-.757-1.308-1.571l-.553-1.163a7.872 7.872 0 01-1.105-.814c-.833-.718-1.463-1.474-1.89-2.268a9.52 9.52 0 01-.931-2.646l-.146-1.222.349 1.482c.136.563.378 1.027.727 1.396l.087-1.135a3.26 3.26 0 00.029-.959l-.058-.32.204.378c.155.33.242.688.262 1.076.019.621-.058 1.135-.232 1.542l.523.669c.349.445.989 1.065 1.92 1.86l-.32-.931c-.116-.388-.213-1.085-.291-2.093l-.059-1.396c-1.124-.756-1.851-1.552-2.181-2.385a5.296 5.296 0 01-.349-1.396v-.465l.146.814c.078.349.232.659.465.931l.146-.61.174-1.31-.087 2.298.814.872c.368.407.688.649.96.728.019-.311.077-.737.174-1.279l.291-1.454c-.892-.485-1.454-1.105-1.687-1.861-.155-.466-.243-.873-.262-1.222v-.378l.087.697c.117.543.339 1.019.669 1.426.504.659.93.959 1.279.901l.349-1.513c.058-.271.291-.717.698-1.338.196-.313.39-.594.584-.846z" clip-rule="evenodd" fill="url(#k)" fill-rule="evenodd"/><path d="M55.764 43.289c.174-.485.387-.854.639-1.105.117-.116.214-.193.291-.232l-.61 1.366c-.291.989-.155 1.726.407 2.211.698.581 1.328 1.425 1.891 2.53.563 1.144.872 2.22.93 3.228.136 1.9.078 3.276-.174 4.13-.563 1.86-1.978 3.199-4.246 4.013-2.21.776-4.915 1.426-8.114 1.949l-4.129.523c.892-.155 1.852-.602 2.879-1.338 2.074-1.435 3.47-3.548 4.188-6.34.601-2.269.892-4.217.872-5.846 0-1.279.02-1.948.059-2.007.194-.271.456-.455.785-.553.175-.038.775-.136 1.803-.29.796-.116 1.387-.378 1.774-.785.23-.252.482-.737.755-1.454z" clip-rule="evenodd" fill="#90cc3f" fill-rule="evenodd"/><path d="M55.995 43.492l.698-1.541-.465 1.366c-.175.989.02 1.726.581 2.211.698.581 1.328 1.425 1.891 2.53.563 1.144.882 2.22.96 3.228.116 1.939.049 3.315-.204 4.13-.563 1.86-1.977 3.199-4.245 4.013-2.211.776-4.915 1.426-8.114 1.949l-4.13.523c.893-.155 1.853-.602 2.88-1.338 2.074-1.435 3.479-3.548 4.217-6.34.581-2.269.862-4.217.843-5.846 0-1.279.02-1.948.059-2.007.193-.271.455-.455.785-.553.174-.038.775-.136 1.803-.29.814-.116 1.387-.35 1.716-.698.231-.212.474-.658.725-1.337z" clip-rule="evenodd" fill="#6a9431" fill-rule="evenodd"/><path d="M56.693 41.951l-.465 1.366c-.175.989.02 1.726.581 2.211.602.504 1.154 1.212 1.658 2.122a9.927 9.927 0 011.047 2.734c-.097.291-.262.62-.494.989-.466.717-1.377.939-2.734.668-1.338-.252-1.735-.785-1.192-1.6.563-.833.796-1.608.698-2.326-.097-.717-.465-1.231-1.105-1.541-.445-.233-.62-.621-.522-1.163.562-.155.969-.389 1.221-.698.194-.214.397-.621.61-1.222z" clip-rule="evenodd" fill="#658c2d" fill-rule="evenodd"/><path d="M33.777 47.215c.388-.484.63-.708.727-.669.097.059.174.407.232 1.047.194 2.889.495 5.342.902 7.357.368 1.92 1.551 3.655 3.548 5.206 1.008.775 1.968 1.357 2.879 1.745-.581-.155-1.27-.466-2.065-.931a12.213 12.213 0 01-3.896-3.549c-1.202-1.687-2.036-3.645-2.501-5.874-.466-2.151-.407-3.596.174-4.332z" clip-rule="evenodd" fill="#8cc63f" fill-rule="evenodd"/><path d="M59.863 51.402c.02 1.396-.106 2.54-.378 3.432-.542 1.842-1.629 3.441-3.257 4.799-1.823 1.531-3.984 2.413-6.485 2.646-2.617.252-4.789.252-6.514 0l-1.833-.465.814.058a9.404 9.404 0 002.152-.203c1.783-.35 3.276-1.125 4.479-2.327 1.337-1.357 2.181-3.121 2.53-5.293.523-3.354 1.018-4.963 1.483-4.827.096.039.358.154.784.349.427.155.728.204.901.146.04-.02.253-.252.641-.698.329-.388.727-.61 1.192-.669.601-.077 1.008-.146 1.221-.203.233-.059.466-.165.698-.32.35-.252.901-.368 1.658-.349.853.02 1.318.301 1.396.844.097.678.078 1.065-.058 1.163-.098.058-.271-.01-.524-.204-.213-.154-.407-.242-.581-.262-.194 0-.32.098-.378.291-.037.154-.018.851.059 2.092z" clip-rule="evenodd" fill="#86c236" fill-rule="evenodd"/><path d="M60.184 51.402c.02 1.396-.107 2.54-.378 3.432-.543 1.842-1.629 3.441-3.258 4.799-1.822 1.531-3.983 2.413-6.484 2.646-2.617.252-4.789.252-6.515 0l-1.832-.465.814.058a9.213 9.213 0 002.152-.203c1.783-.35 3.275-1.125 4.478-2.327 1.339-1.357 2.182-3.121 2.53-5.293.523-3.354 1.019-4.963 1.483-4.827.097.039.358.154.785.349.427.155.727.204.901.146.039-.02.252-.252.64-.698.33-.388.728-.61 1.192-.669.602-.077 1.009-.146 1.222-.203.232-.059.466-.165.698-.32.349-.252.853-.368 1.512-.349.757.02 1.164.301 1.222.844.059.62.078.969.059 1.047-.02.077-.126.048-.32-.088-.193-.154-.378-.242-.553-.262-.213 0-.349.098-.407.291-.038.154-.019.851.059 2.092z" clip-rule="evenodd" fill="#60872c" fill-rule="evenodd"/><path d="M60.125 49.309c-.038.155-.019.853.059 2.094.02 1.396-.107 2.54-.378 3.432-.543 1.842-1.629 3.441-3.258 4.799-1.822 1.531-3.983 2.413-6.484 2.646l-.523.058c2.617-.427 4.74-1.396 6.368-2.908 1.338-1.26 2.036-2.491 2.094-3.693.078-1.726-.058-3.324-.407-4.798l-.552-1.658.756-.319c.311-.116.543-.146.698-.088.31.078.591.117.843.117.388 0 .679.048.872.145z" clip-rule="evenodd" fill="#537526" fill-rule="evenodd"/><use transform="matrix(.5816 0 0 -.5816 51 49.1)" y="-22.35" width="14.95" height="22.35" opacity=".199" xlink:href="#l"/><path d="M40.873 43.579c.33.175.854.407 1.57.698.834.368 2.686.844 5.555 1.425-.175.039-.378.185-.61.437-.427.504-.747 1.261-.96 2.269-.136.679-.358 1.037-.669 1.076l-.407-.175c-.504-.193-.717-.591-.64-1.192l.262-.844-.553.757c-.31.445-.475.679-.494.697-.252.214-.697.35-1.338.407-.601.078-1.027-.494-1.279-1.716-.175-1.299-.311-2.025-.407-2.181-.136-.214-.465-.358-.989-.437a4.958 4.958 0 00-1.425-.029c-.369.039-.659-.203-.873-.727l-.204-.814c-.252 0-.563.194-.931.582-.233.252-.437.388-.611.407l-.174-.029c-.116-.214-.155-.514-.116-.901.058-.407.145-.718.262-.931.194-.33.514-.553.959-.669.931-.271 1.813.029 2.646.901.389.389.864.719 1.426.989z" clip-rule="evenodd" fill="#94d142" fill-rule="evenodd"/><g clip-rule="evenodd" fill="#7db038" fill-rule="evenodd"><path d="M37.471 42.766l-.087.465c-.232 0-.533.194-.901.582-.233.252-.437.388-.611.407l-.174-.029-.116-.407c.155.058.378-.029.668-.262.522-.466.93-.718 1.221-.756zM46.486 46.778c.445-.426.707-.669.784-.727.291-.233.495-.33.611-.291-.232.097-.466.311-.698.64-.349.484-.601 1.153-.756 2.007-.136.679-.358 1.037-.669 1.076l-.407-.175c-.445-.193-.668-.543-.668-1.047.077.601.367.843.872.728.193-.059.329-.359.406-.902.099-.62.272-1.057.525-1.309zM40.408 44.598c.35.193.514.407.495.64-.136-.214-.465-.358-.989-.437a4.958 4.958 0 00-1.425-.029c-.194.02-.378-.058-.553-.232.155.02.368-.01.64-.087.31-.078.582-.116.814-.116.368-.001.708.086 1.018.261zM43.927 47.884a4.04 4.04 0 01.437-.64c.252-.271.571-.523.959-.757a3.262 3.262 0 00-.203.32 5.317 5.317 0 00-.32.698l-.378.523c-.174.31-.329.533-.465.669-.232.213-.64.358-1.222.436a1.71 1.71 0 00.698-.465c.155-.213.319-.474.494-.784z"/></g><path d="M40.844 43.929c.078.058.271.232.582.523.194.193.368.311.523.349.058.02.311.02.756 0 .369 0 .64.059.814.175.136.077.291.203.466.378.174.155.329.271.465.349.136.098.339.146.61.146.271.02.437.039.495.059.17.075.33.226.479.451-.077-.111-.207-.214-.393-.306-.175-.098-.533-.146-1.076-.146-.154 0-.358-.078-.61-.232a2.078 2.078 0 01-.553-.523c-.116-.175-.358-.243-.727-.204-.582.039-.883.059-.901.059-.233-.02-.495-.165-.786-.437-.271-.311-.456-.504-.552-.582-.136-.116-.378-.242-.727-.378-.368-.136-.659-.203-.873-.203-.194 0-.388-.116-.582-.35a15.203 15.203 0 01-.407-.552c-.194-.271-.563-.379-1.105-.32-.427.155-.591.185-.495.087a.964.964 0 01.64-.349c.232-.02.456.02.668.116.388.155.679.417.873.785.117.155.223.262.32.32.078.02.242.048.494.087.546.096 1.079.33 1.602.698z" clip-rule="evenodd" fill="#c1fa73" fill-rule="evenodd"/></g></svg>