<svg xmlns="http://www.w3.org/2000/svg" xmlns:xlink="http://www.w3.org/1999/xlink" width="20" height="20" viewBox="0 0 18.75 18.75"><defs><pattern id="c" xlink:href="#a" patternTransform="matrix(.80761 0 0 1.0854 .758 946.51)"/><pattern id="a" width="10" height="10" patternTransform="scale(10)" patternUnits="userSpaceOnUse"><circle cx="2.567" cy=".81" r=".45"/><circle cx="3.048" cy="2.33" r=".45"/><circle cx="4.418" cy="2.415" r=".45"/><circle cx="1.844" cy="3.029" r=".45"/><circle cx="6.08" cy="1.363" r=".45"/><circle cx="5.819" cy="4.413" r=".45"/><circle cx="4.305" cy="4.048" r=".45"/><circle cx="5.541" cy="3.045" r=".45"/><circle cx="4.785" cy="5.527" r=".45"/><circle cx="2.667" cy="5.184" r=".45"/><circle cx="7.965" cy="1.448" r=".45"/><circle cx="7.047" cy="5.049" r=".45"/><circle cx="4.34" cy=".895" r=".45"/><circle cx="7.125" cy=".34" r=".45"/><circle cx="9.553" cy="1.049" r=".45"/><circle cx="7.006" cy="2.689" r=".45"/><circle cx="8.909" cy="2.689" r=".45"/><circle cx="9.315" cy="4.407" r=".45"/><circle cx="7.82" cy="3.87" r=".45"/><circle cx="8.27" cy="5.948" r=".45"/><circle cx="7.973" cy="7.428" r=".45"/><circle cx="9.342" cy="8.072" r=".45"/><circle cx="8.206" cy="9.315" r=".45"/><circle cx="9.682" cy="9.475" r=".45"/><circle cx="9.688" cy="6.186" r=".45"/><circle cx="3.379" cy="6.296" r=".45"/><circle cx="2.871" cy="8.204" r=".45"/><circle cx="4.59" cy="8.719" r=".45"/><circle cx="3.181" cy="9.671" r=".45"/><circle cx="5.734" cy="7.315" r=".45"/><circle cx="6.707" cy="6.513" r=".45"/><circle cx="5.73" cy="9.67" r=".45"/><circle cx="6.535" cy="8.373" r=".45"/><circle cx="4.37" cy="7.154" r=".45"/><circle cx=".622" cy="7.25" r=".45"/><circle cx=".831" cy="5.679" r=".45"/><circle cx="1.257" cy="8.519" r=".45"/><circle cx="1.989" cy="6.877" r=".45"/><circle cx=".374" cy="3.181" r=".45"/><circle cx="1.166" cy="1.664" r=".45"/><circle cx="1.151" cy=".093" r=".45"/><circle cx="1.151" cy="10.093" r=".45"/><circle cx="1.302" cy="4.451" r=".45"/><circle cx="3.047" cy="3.763" r=".45"/></pattern><radialGradient id="b" cx="44.538" cy="1013.2" r="32.058" gradientTransform="matrix(.1886 .18197 -.81335 .84295 852.24 149.95)" gradientUnits="userSpaceOnUse"><stop stop-color="#ffe0c9" offset="0"/><stop stop-color="#ffe0c8" offset=".061"/><stop stop-color="#ff6f00" offset=".274"/><stop stop-color="#ff6f00" offset=".546"/><stop stop-color="#ff6f00" offset=".713"/><stop stop-color="#c65600" offset="1"/></radialGradient></defs><g fill-rule="evenodd"><path d="M10.958 6.441l1.057-1.67-.19-.656.338-.19c-.02-.132.008-.203-.032-.433l.497.031c-.162-.225-.137-.429-.126-.634.238-.206.505-.24.76-.338-.131-.327-.08-.622-.105-.93.013-.092.025-.23.38-.196l.385.156.482-.553c.078-.033.215-.045.293.115.073.15.106.227.185.356.154.167.344.15.537.121l.19-.19.254.529a.88.88 0 00.698.232c.054.174-.05.19-.106.254l-.38.36c.039.162.158.277.296.38a.923.923 0 00.38-.57.482.482 0 01.444-.086c.01.22.056.528.106.846.149.102.293.18.402.085.187.133.102.292.084.444l-.359.19a.507.507 0 00.021.338l.296.19c.093.153.04.244-.106.297l-.507.063c-.171.197-.05.395-.042.592.04.414-.144.227-.266.28-.268-.088-.43-.03-.601.016-.438.38-.826.386-1.227.486l.085.487c-.071.014-.045.07-1.078-.339l-2.2.846-.147-.19c-.141.103-.282-.07-.423-.148-.084-.061-.142-.161-.127-.38z" fill="#2ba500" stroke="teal" stroke-width=".05927729999999999"/><path d="M62.455 981.82c-2.15-1.288-3.073-2.478-7.402-1.432-2.91.617-8.493 3.37-11.617 6.818-1.847 2.105-2.202 4.21-3.283 6.314-4.978 3.655-4.858 6.886-6.061 10.228-4.195 2.145-3.816 4.519-4.925 6.818-2.544 1.969-2.783 5.09-3.788 7.829-3.299 3.06-3.422 4.531-4.167 6.313-3.13 1.843-5.478 4.016-5.43 7.198-3.783 2.23-6.1 4.461-7.702 6.692-2.621 3.84-3.819 10.124-3.283 10.607 1.651-1.514 2.972-3.852 4.294-6.187 1.166-2.924 5.1-3.784 6.692-7.198 5.831-1.619 11.938-4.26 18.94-10.228 4.715-3.7 9.605-6.697 14.016-11.617 3.534-1.573 6.86-4.034 9.723-8.46 3.095-.112 5.91-1.91 8.333-6.06.95-3.764 3.152-7.869.011-13.205l-2.475-1.883z" fill="url(#b)" stroke="#f60" stroke-width=".354" transform="matrix(.16745 0 0 .16745 .492 -157.763)"/><path d="M1.55 16.85c.473-.488.793-.928 1.395-1.333 1.175-.296 2.361-1.578 3.425-2.262 1.06-.301 1.44-.997 2.178-1.797.852-.332 1.204-1.077 1.692-1.565 1.704-.68 1.439-1.603 1.162-2.199-.356-.055-.427-.257-.507-.423-.23-.225-.064-.45-.021-.676l.465.528.444.402.211 1.332c-.297.737-.442 1.559-1.712 1.755-.48.703-1.043 1.186-1.692 1.438-.342.508-1.318 1.189-2.262 1.86-1.113 1.273-2.153 1.36-3.214 1.798-.064.4-.523.605-.91.845l-.591 1.036-.38.402c.06-.41.094-.839.316-1.142z" fill="#ac5400"/><path d="M6.314 1042.8c2.827-2.912 4.741-5.54 8.333-7.955 7.017-1.767 14.101-9.424 20.456-13.51 6.335-1.8 8.596-5.957 13.006-10.734 5.09-1.98 7.188-6.432 10.102-9.344 10.18-4.064 8.595-9.577 6.945-13.132-2.127-.327-2.553-1.537-3.03-2.525-1.376-1.347-.383-2.694-.127-4.04l2.778 2.71 2.652 2.845 1.263 7.955c-1.774 4.402-2.64 9.308-10.228 10.48-2.866 4.199-6.226 7.081-10.102 8.586-2.041 3.033-7.876 7.1-13.511 11.112-6.65 7.599-12.855 8.117-19.193 10.733-.385 2.397-3.125 3.615-5.43 5.051l-3.535 6.187-2.273 2.4c.362-2.453.564-5.012 1.894-6.82z" fill="url(#c)" opacity=".216" transform="matrix(.16745 0 0 .16745 .492 -157.763)"/><path d="M14.513.903c-.394.021-.473.493-.723.498-.252-.1-.391-.179-.632-.045-.24.248.056.877-.097 1.153-.219.178-.416.117-.628.29-.122.196.036.495.064.668-.184-.11-.26-.134-.468-.12-.098.103.093.34.045.505-.027.093-.193.162-.368.174.075.44.385.704-.04 1.124 0 0-.535.764-.725 1.187-.022.048-.077.076-.054.143.003.105-.001.127.124.23.084.07.081.192.294.346.235.255.272.197.325.262.096.117.15.14.26.145.052-.008.071.026.143-.033l2.08-.816c.274.198.95.479 1.146.299.077-.071-.08-.268-.122-.488.552.023.92-.445 1.423-.48a.916.916 0 01.452.089c.138-.028.211-.09.247-.168.075-.162-.007-.398-.015-.579-.007-.18.061-.305.44-.238.155-.077.22-.201.215-.322-.007-.146-.12-.286-.305-.326.049-.154.06-.313.075-.346.613-.075.122-1.02-.306-.758-.037-.32.152-.951-.358-.903-.287.026-.572.425-.638.654-.079-.058-.154-.118-.152-.191.003-.099.16-.282.324-.314.155-.188.166-.318.107-.409-.123-.187-.55-.209-.66-.238-.07-.227-.15-.378-.374-.61a.798.798 0 00-.185.173c-.151.084-.35.06-.462-.061-.16-.176-.233-.492-.452-.495zm.046.245c.053.002.104.096.16.354.095.102.32.227.514.225-.062.085-.124.152-.199.171-.097.026-.217-.03-.389-.23-1.069-.385-.178 1.441-1.076 1.32-.643.077.139 1.212-.558.674-.397.284-.096.953-.582 1.236-.35.553-.683 1.12-1.167 1.577-.213.134-.08-.05-.054-.137.202-.383.71-1.149.942-1.565-.01-.22-.09-.476-.102-.598-.007-.068.049-.13.237-.197-.044-.174-.035-.264.006-.307.092-.1.295.035.466-.065-.091-.464-.107-.61-.074-.695.067-.177.459-.146.671-.306.048-.171-.079-.824-.065-.953.017-.158.172-.198.496.046.422.264.612-.557.774-.55zm1.01.432c.138.3.114.419.303.54.115.072.166.123.477.128.115.215-.29.32-.346.528-.024.088.094.31.28.42-.063.231-.536.016-.768.165-.174.112-.484.307-.408.646-.154.338-.659-.189-.27.37.188.127-.24.662-.463.698-.083.014-.291-.11-.319-.206-.154-.15-.324-.158-.477-.131-.26.045-.407.198-.576.41l-.474.669-1.155 1.067c-.37-.23.38-.62.46-.831.389-.46.683-.957 1.066-1.42.049-.263.005-.616.112-.707.084-.072.29.088.516.11.06-.245-.115-.567-.028-.744.07-.142.366-.168.662-.156.036-.283-.027-1.034.266-1.242.303.242.5.318.66.264.174-.058.305-.265.482-.578zm.081.8c-.14.221-.262.296-.397.43a5.662 5.662 0 01-.67.527c-.374.263-.797.547-1.132.86a1.299 1.299 0 00-.34.478c.236-.112.326-.219.466-.35.319-.296.734-.58 1.108-.843a5.72 5.72 0 00.693-.545c.18-.177.303-.359.272-.557zm1.397.266c.035-.002.062.006.073.024.098.155-.075.967.484.92.291.33-.52.158-.248.716-.055.403-.517-.026-.814.093-.16.065-.45.192-.442.48 0 .337-.18.308-.32.22-.105-.066-.085-.177-.237-.187.049.19.096.273.085.388a.508.508 0 01-.213.37c-.19.14-.443.221-.5.178-.247-.58-.897-.558-1.257-.214l-2.135 1.44c-.04-.021-.065-.048-.03-.072l2.082-2.013c.487-.085.823.814 1.167-.043.255 0 .299-.112.303-.236.153-.099.34-.206.47-.297.4-.279.82-.5 1.21-.637.117-.041.3-.138.408-.178-.13-.14-.323-.036-.48.03-.46.145-.794.354-1.141.62-.158.155-.322.245-.465.394-.005-.15-.026-.292.215-.269.183-.473.11-1.057.827-.86.256-.038.495-.134.47-.24a.51.51 0 00-.05-.104c.054-.03.12-.079.206-.155.049-.257.228-.361.332-.368zm-.32 1.914a.63.63 0 01.313.114c.238.1.38.033.468-.089.078.054.178.109.206.153.037.059-.176.107-.478.094-.28 0-.344.137-.338.307.008.215.129.481.072.585-.037.067-.146.067-.404-.054-.243-.038-.453.126-.636.218-.347.174-.605.433-1.033.436.012.212.112.362.044.385-.209.07-.88-.627-1.217-.26-.619.237-1.31.625-1.843.742-.033.06-.133 0-.12-.068.684-.627 1.413-.904 2.125-1.32.076-.141.198-.192.362-.226.364-.057.437.44.669.503.098.027.286.05.437-.196.425.147.558-.348.472-.553.483.147.447-.31.585-.583a.328.328 0 01.317-.188z" color="#000" fill="#045e00" style="text-indent:0;text-decoration-line:none;text-decoration-style:solid;text-decoration-color:#000;text-transform:none;white-space:normal;isolation:auto;mix-blend-mode:normal"/><path d="M9.88 6.209c-1.367.064-2.405 1.08-2.772 2.341-.815.417-1.016 1.248-1.057 1.7-.388.271-.8.712-.83 1.189-.373.07-.381 1.089-.688 1.385-.404.389-.473.512-.687.961-.552.274-.807.859-.929 1.232-.45.34-1.113.844-1.347 1.402-.19.453-.489 1.188-.384 1.726.22-.072.23-.15.476-.469.233-.301.318-.627.57-.911.282-.318.813-.446.98-1.005.31 0 2.417-.697 3.146-1.69.417-.152.718-.646 1.203-.891.406-.205.858-.645 1.116-.981.385-.131 1.277-.838 1.64-1.402.15.011.584-.093 1.195-.673.748-.709.89-1.957.31-2.85-.117-.256-.197-.19-.331-.407-.275-.407-.912-.603-1.334-.657-.093-.01-.185-.005-.277 0zm.214.321c.295.01.575.086.81.258.112.082.23.223.408.327.138.213.206.309.273.42.156.258.206.61.23.904.077.919-.62 1.665-1.428 2.01a1.825 1.825 0 00-.008-.509c-.03-.22-.128-.345-.18-.448-.053-.103-.258-.33-.506-.492.23.367.361.463.49.822.072.197.049.505-.044.734-.284.18-.327.622-.708.77a2.19 2.19 0 00-.025-.389 1.275 1.275 0 00-.117-.39c-.075-.145-.203-.248-.389-.33.079.172.138.259.219.416.068.132.137.388.138.51a1.31 1.31 0 01-.084.408c-.14.094-.24.206-.38.297-.002-.123-.084-.287-.144-.414-.068-.146-.1-.361-.22-.478-.075-.074-.35-.314-.458-.28.277.325.345.324.48.662.056.142.079.508-.004.727-.065.047-.16.19-.22.242-.59.491-1.196.888-1.802 1.357.021-.092.035-.298.027-.404-.024-.305-.23-.584-.376-.758.018.17.107.318.175.864.013.111-.029.409-.091.5-.448.254-.673.741-1.21.908-.625.364-1.379.685-1.896.863-.119.361-.6.479-.931.845-.317.351-.623 1.064-.782 1.254.072-.398.417-1.276.746-1.657.413-.48.874-.654 1.06-.851.185-.198.183-.31.36-.333.062-.008.223-.006.381.029-.036-.14-.127-.136-.26-.165a.772.772 0 00-.31.023c.267-.692.56-.7.902-.924-.075-.24.209-.592.545-.964.36-.399.395-.993.68-1.323.073-.131.185-.132.294-.108.325.073.515.21.654.33-.027-.16-.099-.38-.333-.48-.157-.068-.285-.065-.44-.05.036-.105.06-.207.106-.302.115-.233.33-.389.666-.57l.003-.012h.003c.082-.252.145-.361.39-.41.235-.046.605-.034.82-.148a2.66 2.66 0 00-.593-.074 1.386 1.386 0 00-.458.075c.165-.408.427-.695.74-.982.015-.04.022-.153.04-.192.152-.097.38-.131.658-.08.44.08.955.318.739.019a7.464 7.464 0 01-.67-.25c-.182-.08-.385-.03-.611.068.518-.978 1.513-1.91 2.641-1.875z" color="#000" fill="#482b04" style="text-indent:0;text-decoration-line:none;text-decoration-style:solid;text-decoration-color:#000;text-transform:none;white-space:normal;isolation:auto;mix-blend-mode:normal"/></g></svg>