<svg xmlns="http://www.w3.org/2000/svg" width="20" height="20" viewBox="0 0 5.292 5.292"><g transform="matrix(.1024 0 0 .1024 -.156 .028)"><path d="M12.264 22.595s-5.151 4.704-5.373 1.768c0 0 .135-1.755 1.988-1.468 0 0 .471-1.779-2.5-2.487 0 0-1.024-.252.235-1.497 0 0 1.225-2.534 1.235-4.033 0 0 1.427-2.298 3.633-2.867 0 0 1.263-.855 3.039-.7 0 0 2.011-1.993 2.102-.583 0 0-.192 1.379.517.088l1.666 1.447-.177 1.971-2.455 3.608-.823 1.596z" fill="#64a746"/><path d="M9.95 14.732c-.336-.147 3.251.998 5.129 1.995l.76.699-.045 1.08s-2.624-2.483-4.262-2.817z" fill="#a5d371"/><path d="M14.725 11.73s.414 3.357-1.287 4.775c0 0-2.197 1.792-4.982 1.673 0 0 3.1.425 5.43-1.638 0 0 2.047-3.631.839-4.81zM10.125 21.857l2.567-.71.023.421z" fill="#a5d371"/><path d="M18.773 2.566s3.298-.411 4.857 2.734c0 0 2.298.43 2.627 3.016.328 2.586-2.899 3.877-2.899 3.877s-4.532 2.15-5.91-.716c0 0-1.601-1.935.248-3.97 0 0-.08-4.39 1.077-4.941z" fill="#6bb045"/><path d="M19.77 3.978s3.21 5.344 3.702 8.037l-.748.445s-1.32-5.246-2.954-8.482z" fill="#a9c870"/><path d="M18.477 7.961s2.493 2.448 4.155 2.178c0 0 1.281-.97 1.89-3.73 0 0 .348 2.296-1.7 4.02 0 0-1.948.54-4.345-2.468z" fill="#a9cc72"/><path d="M38.252 36.92s4.069 1.502 3.754 3.007c0 0-.683 2.712-3.525 1.74 0 0-2.191-.641-2.082.78 0 0 3.03 2.17 2.062 2.996 0 0-1.771.18-2.463.699 0 0-2.329 2.092-4.566 1.604-2.237-.488-4.247-1.334-4.937-2.292 0 0-1.423-.045-2.172-.462 0 0 1.581.43 3.532-1.458 1.951-1.887 4.474-2.779 4.474-2.779l4.903-1.532z" fill="#68b143"/><path d="M30.41 41.899s5.652 1.66 4.883 2.902c0 0 .145-1.13-5.226-2.693z" fill="#a8cb6d"/><path d="M30.014 42.414s1.895 2.176 2.163 3.685l-1.21-3.8zM27.243 44.21s.084.534-.49.926c0 0 .443-.606.29-.98-.152-.375.2.055.2.055z" fill="#a8cb6d"/><path d="M13.932 35.912s-1.76.695-6.148-1.537c0 0-.572 2.616 2.902 2.948 0 0 2.46.037.883 1.714 0 0-3.844.78-2.25 1.908 1.594 1.127 2.13 1.106 2.768 2.79 0 0 2.984 3.523 8.121 1.268 0 0 3.317 1.326 1.858-.813 0 0 .918.772 2.304.724l1.51.344 1.843-1.061-2.77-1.202-3.03-.984-2.475-2.042-4.46-2.863z" fill="#74ba46"/><path d="M18.452 40.105s-1.832 1.72-2.107 2.052c-.275.332-1.256.718-1.433 1.347 0 0 1.558-3.01 2.422-3.53.864-.52 1.118.131 1.118.131z" fill="#a8d072"/><path d="M12.236 41.199s1.451-1.795 5.045-.56c0 0 2.491.39 3.001 3.922 0 0-.924-3.357-2.956-3.605 0 0-2.627-1.45-5.09.243z" fill="#a8d072"/><path d="M11.925 36.542s.201.247 1.168-.135l.1.396s-.658.074-1.268-.261z" fill="#a8cb6d"/><path d="M40.814 16.857l3.159-3.015s1.433-1.393 3.17-.44c0 0 3.307-1.185 4.173-.387 0 0 1.182 2.052-1.193 4.982 0 0 .298 2.408-2.649 2.747 0 0 .184 3.033-1.702 5.612 0 0 .806.747 1.015 1.973 0 0 4.921 2.592 5.055 5.07 0 0-1.842 4.26-7.1 3.807 0 0-1.39 1.65-3.004 1.748 0 0-2.28.375-4.225-1.164-1.946-1.54 4.866-8.069 4.866-8.069l2.491-5.042-.929-4.366z" fill="#74bc46"/><path d="M44.32 18.696s3.244-1.455 5.894-4.487c0 0-4.37 4.799-6.005 5.31z" fill="#bede89"/><path d="M46.458 14.652s-1.05 2.386-.133 3.46c0 0 1.488.97 3.083.43 0 0-.947 1.239-3.602-.378 0 0-.73-1.905.652-3.512zM45.181 23.698s.636.037 1.642-.712c1.006-.748-.884 1.22-1.487 1.306-.603.088-.155-.594-.155-.594zM40.531 31.822s3.527 1.346 8.962 1.446c0 0-8.332.034-9.799-.562zM39.688 33.777s2.223 3.344 3.74 3.736c0 0-1.57.145-4.647-3.351z" fill="#bede89"/><path d="M23.024 11.737s-.127-1.622 1.458-2.739c0 0 1.596-2.052 3.177.552 0 0 1.478-.289 1.197-2.73 0 0-.415-.968.695-1.121 0 0 1.527.794 4.772-.064 0 0 1.6-.45 4.976 2.846l1.105 2.07s2.48.827 1.44 1.527l-.724.29s2.009.48 2.636 1.605c0 0 1.477 2.731 1.137 4.519 0 0 .794.664-.031 1.353l-2.024-1.37-1.874-1.086-1.573-3.488-1.611-.741-2.87-1.054-2.272.328-2.408-.847-1.256-.58-1.397-.532-2.669.742z" fill="#7cc240"/><path d="M39.771 15.04s2.992.108 3.74-.058c.747-.165-.321.6-3.53.373zM35.45 7.806l.179 4.597-.72-.297s.076-3.849.54-4.3z" fill="#b1dc80"/><path d="M31.933 7.376s.305 2.524 3.384 4.238c0 0 2.815.375 4.812-.75 0 0-.872 1.343-4.803 1.052 0 0-3.192-1.62-3.393-4.54z" fill="#b1dc80"/><path d="M13.24 36.176s-3.992 1.12-5.523-1.957c0 0-4.311-2.485-4.847-4.802 0 0-.195-1.702 4.148-4.23 0 0 .396-2.307 2.627-2.574l2.184-.441.765 3.565.823 3.225-.371 2.662z" fill="#69b145"/><path d="M8.225 24.08s2.28.262 3.721 1.502l-.123.749s-2.072-1.88-3.598-2.25zM6.134 29.81s5.063-1.972 6.84-1.816l.358.77s-2.222.071-3.2.162c0 0-3.059.756-3.998.884zM12.139 30.585s-1.273 1.605-2.522 2.293c0 0 1.254-.128 3.042-1.939z" fill="#abc870"/><path d="M21.558 12.833l2.1-.586 6.574-.27 2.695.569s3.025.95 3.208.984c.183.034 3.443 1.477 3.443 1.477l2.727 3.435-2.608 13.728-4.298 7.156-7.333 1.598s-8.269-1.64-8.46-1.64c-.192 0-5.136-5.92-5.136-5.92l-1.237-5.145.129-4.533 1.605-4.087 1.884-1.856z" fill="#dad4ba" stroke="#000" stroke-width=".265"/><path d="M13.365 28.65s2.338-.42 1.23-1.958l-.81-.813.475-.812s.72-.54.113-1.91l-.025-.413s1.707-.252 1.628-1.65c0 0 .367-1.433.715-1.414 0 0-.089-.78-.89-.954 0 0 .775-.15 1.12.84 0 0 1.003.515 1.586-.553 0 0 .575.01.898-.448.323-.457.422-.984.422-.984s.906.243.906-.959c0 0 .007-1.077.854-.871 0 0 .97-.299.746-1.719-.222-1.42.038-1.383.038-1.383s-.115.883 1.67.49l.657-.369s.855.875 2.099.141c0 0 1.034.29 2.269.235 1.234-.055 1.554-.708 1.554-.708s-.114 1.513 2.15.736c0 0 .751 1.622 2.951.923 0 0 1.464 1.354 2.723 1.255 0 0 1.044 1.75 2.05 1.65 0 0 .183.897 1.371.751 0 0 2.154-.68-1.44-3.461 0 0 .267-1.88-1.738-1.024 0 0-1.824-3.102-5.868-1.157 0 0-.792-1.338-2.495-.745 0 0-.432-1.953-2.85-1.195 0 0-1.66-1.789-2.89.779 0 0-2.877-.1-2.251 1.282 0 0-1.447-.884-2.603.5 0 0-1.73-.032-2.189 1.179 0 0-1.457.65-1.338 2.643 0 0-1.67.571-.708 1.955 0 0-1.946-1.205-3.124 1.455 0 0 .378.64-.625 1.634 0 0-.906 2.858-.21 4.586 0 0 .773 2.156 1.83 2.466z" fill="#ebebc9"/><ellipse cx="13.575" cy="27.739" rx=".161" ry=".173" fill="#cfd0a6" paint-order="stroke markers fill"/><ellipse cx="11.888" cy="25.517" rx=".158" ry=".172" fill="#cfd0a6" paint-order="stroke markers fill"/><ellipse cx="12.601" cy="24.055" rx=".182" ry=".189" fill="#cfd0a6" paint-order="stroke markers fill"/><ellipse cx="12.912" cy="21.012" rx=".154" ry=".192" fill="#cfd0a6" paint-order="stroke markers fill"/><ellipse cx="14.829" cy="20.348" rx=".164" ry=".131" fill="#cfd0a6" paint-order="stroke markers fill"/><ellipse cx="14.554" cy="18.861" rx=".223" ry=".202" fill="#cfd0a6" paint-order="stroke markers fill"/><ellipse cx="17.316" cy="18.237" rx=".255" ry=".181" fill="#cfd0a6" paint-order="stroke markers fill"/><ellipse cx="16.082" cy="17.266" rx=".079" ry=".137" fill="#cfd0a6" paint-order="stroke markers fill"/><ellipse cx="17.873" cy="16.332" rx=".142" ry=".186" fill="#cfd0a6" paint-order="stroke markers fill"/><ellipse cx="19.367" cy="14.981" rx=".195" ry=".226" fill="#cfd0a6" paint-order="stroke markers fill"/><ellipse cx="17.443" cy="15.06" rx=".221" ry=".163" fill="#cfd0a6" paint-order="stroke markers fill"/><ellipse cx="20.617" cy="12.681" rx=".148" ry=".152" fill="#cfd0a6" paint-order="stroke markers fill"/><ellipse cx="23.399" cy="12.355" rx=".199" ry=".192" fill="#cfd0a6" paint-order="stroke markers fill"/><ellipse cx="26.089" cy="10.954" rx=".131" ry=".197" fill="#cfd0a6" paint-order="stroke markers fill"/><ellipse cx="25.917" cy="12.375" rx=".279" ry=".145" fill="#cfd0a6" paint-order="stroke markers fill"/><ellipse cx="27.786" cy="12.207" rx=".187" ry=".137" fill="#cfd0a6" paint-order="stroke markers fill"/><ellipse cx="28.656" cy="10.831" rx=".173" ry=".197" fill="#cfd0a6" paint-order="stroke markers fill"/><ellipse cx="29.086" cy="11.703" rx=".202" ry=".216" fill="#cfd0a6" paint-order="stroke markers fill"/><ellipse cx="31.677" cy="12.509" rx=".133" ry=".164" fill="#cfd0a6" paint-order="stroke markers fill"/><ellipse cx="33.828" cy="12.58" rx=".19" ry=".164" fill="#cfd0a6" paint-order="stroke markers fill"/><ellipse cx="34.649" cy="13.423" rx=".199" ry=".102" fill="#cfd0a6" paint-order="stroke markers fill"/><ellipse cx="35.732" cy="12.153" rx=".136" ry=".226" fill="#cfd0a6" paint-order="stroke markers fill"/><ellipse cx="37.601" cy="12.921" rx=".298" ry=".164" fill="#cfd0a6" paint-order="stroke markers fill"/><ellipse cx="37.434" cy="14.26" rx=".252" ry=".117" fill="#cfd0a6" paint-order="stroke markers fill"/><ellipse cx="39.601" cy="14.415" rx=".165" ry=".211" fill="#cfd0a6" paint-order="stroke markers fill"/><ellipse cx="41.552" cy="16.391" rx=".207" ry=".19" fill="#cfd0a6" paint-order="stroke markers fill"/><path d="M12.011 29.47s1.282-2.247 3.656.102c0 0 .755.927-.06 2.429 0 0-.265.555 1.214 1.287 0 0 1.57.654.982 2.537 0 0-1.82 1.415 1.922 1.15 0 0 1.533.43 1.951 2.055 0 0 .723-.608 2.309-.21 0 0 1.102-1.328 2.092-1.15 0 0 1.562.783 2.33.705.769-.08 1.92-.253 2.101.516l.934.457 2.119-1.253s.209-2.453 1.77-2.619c1.563-.166 2.391-.245 2.212-1.865 0 0-.383-1.812 1.799-1.983 0 0-1.514-1.628-.386-2.786 1.128-1.159.686-1.627.686-1.627s-1.461-.246-.5-1.68c0 0 .37-.747-.322-1.29 0 0-.644-.752.648-2.46 0 0-.172-2.65.83-3.297 0 0 1.232-1.92 3.68.192 0 0 1.053.16 1.681 3.647 0 0 1.328 1.882-.32 3.521 0 0 1.033 2.69-1.017 3.982 0 0-2.447 1.687-3.744 2.116 0 0 .632 4.047-1.477 5.332 0 0-.005 3.985-2.127 3.559 0 0-3.638 3.068-4.798.33 0 0-1.439 2.36-5.432 3.115 0 0-2.172-.062-3.16-1.164 0 0-3.283.399-3.244-2.062 0 0-1.233.829-2.166-.642 0 0-2.827-.086-2.355-1.201 0 0-2.742-.079-2.589-2.434 0 0-2.665-.272-.932-4.036 0 0-1.475-2.125-.287-3.273z" fill="#fffee0"/><ellipse cx="14.415" cy="31.09" rx=".17" ry=".164" fill="#d9d3af" paint-order="stroke markers fill"/><ellipse cx="13.168" cy="33.09" rx=".172" ry=".142" fill="#d9d3af" paint-order="stroke markers fill"/><ellipse cx="16.265" cy="34.297" rx=".16" ry=".176" fill="#d9d3af" paint-order="stroke markers fill"/><ellipse cx="14.408" cy="34.877" rx=".17" ry=".131" fill="#d9d3af" paint-order="stroke markers fill"/><ellipse cx="15.969" cy="37.637" rx=".215" ry=".149" fill="#d9d3af" paint-order="stroke markers fill"/><ellipse cx="18.499" cy="37.88" rx=".247" ry=".195" fill="#d9d3af" paint-order="stroke markers fill"/><ellipse cx="19.982" cy="39.506" rx=".187" ry=".203" fill="#d9d3af" paint-order="stroke markers fill"/><ellipse cx="24.676" cy="39.817" rx=".17" ry=".164" fill="#d9d3af" paint-order="stroke markers fill"/><ellipse cx="22.714" cy="41.211" rx=".084" ry=".125" fill="#d9d3af" paint-order="stroke markers fill"/><ellipse cx="26.11" cy="41.379" rx=".166" ry=".157" fill="#d9d3af" paint-order="stroke markers fill"/><ellipse cx="27.289" cy="39.465" rx=".147" ry=".163" fill="#d9d3af" paint-order="stroke markers fill"/><ellipse cx="26.418" cy="42.759" rx=".211" ry=".135" fill="#d9d3af" paint-order="stroke markers fill"/><ellipse cx="29.699" cy="41.223" rx=".17" ry=".178" fill="#d9d3af" paint-order="stroke markers fill"/><ellipse cx="33.228" cy="39.993" rx=".186" ry=".123" fill="#d9d3af" paint-order="stroke markers fill"/><ellipse cx="33.822" cy="41.714" rx=".142" ry=".074" fill="#d9d3af" paint-order="stroke markers fill"/><ellipse cx="35.034" cy="40.409" rx=".199" ry=".188" fill="#d9d3af" paint-order="stroke markers fill"/><ellipse cx="34.766" cy="38.818" rx=".134" ry=".154" fill="#d9d3af" paint-order="stroke markers fill"/><circle cx="36.547" cy="37.535" fill="#d9d3af" paint-order="stroke markers fill" r=".157"/><ellipse cx="35.114" cy="36.15" rx=".175" ry=".184" fill="#d9d3af" paint-order="stroke markers fill"/><ellipse cx="37.534" cy="39.58" rx=".13" ry=".124" fill="#d9d3af" paint-order="stroke markers fill"/><ellipse cx="38.178" cy="36.368" rx=".144" ry=".189" fill="#d9d3af" paint-order="stroke markers fill"/><ellipse cx="39.552" cy="35.505" rx=".134" ry=".148" fill="#d9d3af" paint-order="stroke markers fill"/><ellipse cx="39.021" cy="32.856" rx=".18" ry=".176" fill="#d9d3af" paint-order="stroke markers fill"/><ellipse cx="41.01" cy="30.438" rx=".18" ry=".199" fill="#d9d3af" paint-order="stroke markers fill"/><ellipse cx="42.534" cy="29.091" rx=".22" ry=".206" fill="#d9d3af" paint-order="stroke markers fill"/><ellipse cx="40.652" cy="27.449" rx=".201" ry=".184" fill="#d9d3af" paint-order="stroke markers fill"/><ellipse cx="43.049" cy="26.436" rx=".132" ry=".15" fill="#d9d3af" paint-order="stroke markers fill"/><ellipse cx="41.593" cy="24.883" rx=".27" ry=".175" fill="#d9d3af" paint-order="stroke markers fill"/><ellipse cx="43.398" cy="23.668" rx=".129" ry=".208" fill="#d9d3af" paint-order="stroke markers fill"/><ellipse cx="41.571" cy="22.684" rx=".178" ry=".199" fill="#d9d3af" paint-order="stroke markers fill"/><ellipse cx="42.71" cy="20.111" rx=".117" ry=".173" fill="#d9d3af" paint-order="stroke markers fill"/><ellipse cx="44.332" cy="21.03" rx=".188" ry=".198" fill="#d9d3af" paint-order="stroke markers fill"/><path d="M24.5 14.149s.748-.336 1.613-.092c0 0 1.617-.958 1.977.473 0 0 1.927-1.479 3.218-.38 0 0 1.165 1.786.193 3 0 0 1.02 1.247.078 2.046 0 0-.998.106-.298 1.166 0 0 .129 1.981-2.665 1.144 0 0-.248 1.687-1.28 1.712 0 0-1.314.483-1.73-.117 0 0-2.053.446-2.307-1.262 0 0-2.04-.106-1.776-2.014 0 0 .06-1.51-.143-1.857 0 0-.182-.463 1.09-.235 0 0-.25-1.283.368-1.642.617-.358.733-.908 1.228-.992 0 0 .11-.7.434-.95z" fill="#f3f4ca"/><ellipse cx="24.502" cy="15.895" rx=".224" ry=".145" fill="#d1d2a8" paint-order="stroke markers fill"/><ellipse cx="28.96" cy="15.507" rx=".192" ry=".169" fill="#d1d2a8" paint-order="stroke markers fill"/><ellipse cx="30.046" cy="17.551" rx=".204" ry=".179" fill="#d1d2a8" paint-order="stroke markers fill"/><ellipse cx="27.245" cy="18.366" rx=".251" ry=".141" fill="#d1d2a8" paint-order="stroke markers fill"/><ellipse cx="24.903" cy="18.124" rx=".197" ry=".169" fill="#d1d2a8" paint-order="stroke markers fill"/><ellipse cx="22.956" cy="19.404" rx=".226" ry=".104" fill="#d1d2a8" paint-order="stroke markers fill"/><ellipse cx="24.199" cy="20.558" rx=".183" ry=".153" fill="#d1d2a8" paint-order="stroke markers fill"/><ellipse cx="26.722" cy="20.57" rx=".183" ry=".138" fill="#d1d2a8" paint-order="stroke markers fill"/><ellipse cx="30.118" cy="20.481" rx=".205" ry=".226" fill="#d1d2a8" paint-order="stroke markers fill"/><path d="M18.262 20.724s1.096-1.245 2.603.1c0 0 1.453.356.537 1.543 0 0 2.451.202 1.338 1.948 0 0-.33 2.202-1.936 1.345 0 0-1.014.704-2.013.417 0 0-1.242 1.906-2.744.35 0 0-1.459-.593-.658-1.5 0 0-.406-1.87.296-2.21 0 0 .836-3.012 2.577-1.993z" fill="#f3f4ca"/><ellipse cx="19.9" cy="21.418" rx=".241" ry=".162" fill="#d1d2a8" paint-order="stroke markers fill"/><ellipse cx="17.045" cy="22.02" rx=".252" ry=".148" fill="#d1d2a8" paint-order="stroke markers fill"/><ellipse cx="18.617" cy="23.198" rx=".147" ry=".113" fill="#d1d2a8" paint-order="stroke markers fill"/><ellipse cx="20.483" cy="24.925" rx=".236" ry=".156" fill="#d1d2a8" paint-order="stroke markers fill"/><ellipse cx="16.68" cy="25.071" rx=".235" ry=".201" fill="#d1d2a8" paint-order="stroke markers fill"/><path d="M33.808 15.039s1.145-.747 2.32-.175c0 0 2.679.028 2.345 2.037 0 0 1.659 1.102.638 2.37 0 0 .446 1.74-1.364 1.127 0 0-.729 1.828-1.855 1.083 0 0-2.175.705-1.586-.821 0 0-1.31-1.356-.9-2.229 0 0-1.856.15-1.162-1.819 0 0 .115-1.974 1.564-1.573z" fill="#f3f4ca"/><ellipse cx="35.914" cy="15.976" rx=".223" ry=".203" fill="#d1d2a8" paint-order="stroke markers fill"/><ellipse cx="33.655" cy="16.979" rx=".185" ry=".17" fill="#d1d2a8" paint-order="stroke markers fill"/><ellipse cx="37.069" cy="16.64" rx=".145" ry=".092" fill="#d1d2a8" paint-order="stroke markers fill"/><ellipse cx="37.952" cy="18.379" rx=".142" ry=".132" fill="#d1d2a8" paint-order="stroke markers fill"/><ellipse cx="35.698" cy="18.727" rx=".083" ry=".167" fill="#d1d2a8" paint-order="stroke markers fill"/><ellipse cx="34.005" cy="18.567" rx=".169" ry=".19" fill="#d1d2a8" paint-order="stroke markers fill"/><ellipse cx="35.329" cy="20.623" rx=".166" ry=".107" fill="#d1d2a8" paint-order="stroke markers fill"/><path d="M16.987 28.399s.678-1.49 1.705-.666c0 0 .414-2.277 2.885-1.422 0 0 2.423-.534 2.767.554 0 0 1.92.933 1.255 2.512 0 0 1.38.257.423 2.067 0 0 .613 1.545-.489 2.372 0 0 .51 1.847-1.315 2.231 0 0-1.092 2.89-3.936.624 0 0-.937-.836-.785-2.08 0 0-1.933-.22-2.028-2.279 0 0-2.498-.48-1.002-2.469 0 0 .833-.537.52-1.444zM27.537 23.894s-1.561.123-1.774 1.472c0 0-.756 1.83.517 2.81 0 0 .364-.16.75 1.156 0 0 .807.518 1.601-.049 0 0 .278 1.413 1.491-.509 0 0 1.813.008.553-2.199 0 0 .847-.173-.4-1.32 0 0 .39-1.153-.786-1.092 0 0-.372-1.065-1.952-.27zM32.637 23.051s-.374-1.018-2.116.262c0 0-.637 1.4 1.298 2.208 0 0-1.436.731.516 1.954 0 0-.43 1.569.726 2.182 1.155.614 1.86.392 2.514-.644 0 0-.264 1.69 1.449.335 0 0 .99.82 1.44-.937 0 0 1.298-1.252-.29-2.099 0 0 .944-2.574-1.123-3.535 0 0-1.48-2.012-2.78-.253 0 0-1.233-1.946-1.634.527zM29.25 31.333s-1.889-.05-2.101 2.304c0 0-1.977.705-.073 3.066 0 0 .807 1.691 2.97.892 0 0 2.022 1.385 3.037-1.04 0 0 1.823-1.011 1.757-1.924 0 0 2.441-.892 1.651-2.66 0 0-.827-1.86-3.366-.483 0 0-.238-1.476-1.78-.957 0 0-1.495-.736-2.094.802z" fill="#f3f4ca"/><ellipse cx="36.431" cy="23.074" rx=".151" ry=".146" fill="#d1d2a8" paint-order="stroke markers fill"/><ellipse cx="32.313" cy="23.58" rx=".231" ry=".131" fill="#d1d2a8" paint-order="stroke markers fill"/><ellipse cx="32.89" cy="25.214" rx=".178" ry=".157" fill="#d1d2a8" paint-order="stroke markers fill"/><ellipse cx="34.782" cy="25.436" rx=".121" ry=".146" fill="#d1d2a8" paint-order="stroke markers fill"/><ellipse cx="37.253" cy="25.578" rx=".227" ry=".185" fill="#d1d2a8" paint-order="stroke markers fill"/><ellipse cx="37.299" cy="27.505" rx=".227" ry=".134" fill="#d1d2a8" paint-order="stroke markers fill"/><ellipse cx="34.259" cy="27.641" rx=".204" ry=".173" fill="#d1d2a8" paint-order="stroke markers fill"/><ellipse cx="33.596" cy="29.224" rx=".213" ry=".248" fill="#d1d2a8" paint-order="stroke markers fill"/><ellipse cx="28.509" cy="24.719" rx=".185" ry=".118" fill="#d1d2a8" paint-order="stroke markers fill"/><ellipse cx="26.774" cy="25.611" rx=".315" ry=".314" fill="#d1d2a8" paint-order="stroke markers fill"/><ellipse cx="28.035" cy="26.605" rx=".314" ry=".201" fill="#d1d2a8" paint-order="stroke markers fill"/><ellipse cx="29.93" cy="27.588" rx=".109" ry=".168" fill="#d1d2a8" paint-order="stroke markers fill"/><ellipse cx="28.88" cy="28.409" rx=".23" ry=".16" fill="#d1d2a8" paint-order="stroke markers fill"/><ellipse cx="27.586" cy="28.529" rx=".178" ry=".172" fill="#d1d2a8" paint-order="stroke markers fill"/><ellipse cx="23.432" cy="27.047" rx=".162" ry=".19" fill="#d1d2a8" paint-order="stroke markers fill"/><ellipse cx="20.676" cy="28.041" rx=".27" ry=".168" fill="#d1d2a8" paint-order="stroke markers fill"/><ellipse cx="19.032" cy="29.471" rx=".189" ry=".23" fill="#d1d2a8" paint-order="stroke markers fill"/><ellipse cx="19.386" cy="31.168" rx=".149" ry=".134" fill="#d1d2a8" paint-order="stroke markers fill"/><ellipse cx="21.316" cy="31.54" rx=".195" ry=".17" fill="#d1d2a8" paint-order="stroke markers fill"/><ellipse cx="24.07" cy="30.982" rx=".181" ry=".13" fill="#d1d2a8" paint-order="stroke markers fill"/><ellipse cx="23.829" cy="33.485" rx=".223" ry=".221" fill="#d1d2a8" paint-order="stroke markers fill"/><ellipse cx="21.151" cy="33.634" rx=".253" ry=".179" fill="#d1d2a8" paint-order="stroke markers fill"/><ellipse cx="21.956" cy="35.789" rx=".339" ry=".246" fill="#d1d2a8" paint-order="stroke markers fill"/><ellipse cx="31.425" cy="31.588" rx=".274" ry=".241" fill="#d1d2a8" paint-order="stroke markers fill"/><ellipse cx="28.111" cy="33.615" rx=".199" ry=".17" fill="#d1d2a8" paint-order="stroke markers fill"/><circle cx="30.04" cy="33.844" r=".122" fill="#d1d2a8" paint-order="stroke markers fill"/><ellipse cx="31.482" cy="33.191" rx=".048" ry=".057" fill="#d1d2a8" paint-order="stroke markers fill"/><ellipse cx="35.395" cy="32.55" rx=".138" ry=".215" fill="#d1d2a8" paint-order="stroke markers fill"/><ellipse cx="33.308" cy="34.3" rx=".139" ry=".196" fill="#d1d2a8" paint-order="stroke markers fill"/><ellipse cx="32.216" cy="35.569" rx=".156" ry=".069" fill="#d1d2a8" paint-order="stroke markers fill"/><ellipse cx="31.622" cy="33.238" rx=".241" ry=".143" fill="#d1d2a8" paint-order="stroke markers fill"/><ellipse cx="29.575" cy="35.609" rx=".179" ry=".159" fill="#d1d2a8" paint-order="stroke markers fill"/><ellipse cx="32.157" cy="35.637" rx=".237" ry=".146" fill="#d1d2a8" paint-order="stroke markers fill"/><ellipse cx="31.712" cy="37.073" rx=".205" ry=".103" fill="#d1d2a8" paint-order="stroke markers fill"/></g></svg>