<svg xmlns="http://www.w3.org/2000/svg" xmlns:xlink="http://www.w3.org/1999/xlink" width="20" height="20"><defs><radialGradient xlink:href="#a" id="j" gradientUnits="userSpaceOnUse" gradientTransform="scale(1 -1) rotate(-48.75 .865 -.392)" cx="19.497" cy="-.392" r="30.409"/><radialGradient xlink:href="#a" id="k" gradientUnits="userSpaceOnUse" gradientTransform="scale(1 -1) rotate(-48.75 .865 -.392)" cx="19.497" cy="-.392" r="30.409"/><radialGradient xlink:href="#a" id="l" gradientUnits="userSpaceOnUse" gradientTransform="scale(1 -1) rotate(-48.75 .865 -.392)" cx="19.497" cy="-.392" r="30.409"/><radialGradient xlink:href="#a" id="m" gradientUnits="userSpaceOnUse" gradientTransform="scale(1 -1) rotate(-48.75 .865 -.392)" cx="19.497" cy="-.392" r="30.409"/></defs><symbol id="o" viewBox="0 -28.562 26.031 28.562"><path d="M22.7-3.3c2.566-2.534 3.65-6.2 3.25-11-.467-5.233-2.783-9.133-6.95-11.7-3.567-2.2-7.183-2.983-10.85-2.35C5.117-27.817 2.4-26.4 0-24.1c2.3-.833 4.5-1.267 6.6-1.3 2.467-.067 4.25.45 5.35 1.55 2.333 2.333 4.95 4.45 7.85 6.35 1.034.667 1.733 2.133 2.1 4.4.367 2.4.25 4.8-.35 7.2-.667 2.633-1.8 4.6-3.4 5.9 1.6-.733 3.117-1.833 4.55-3.3z" clip-rule="evenodd" fill-rule="evenodd"/></symbol><linearGradient id="b" x1="-13.2" x2="-8.699" y1="-8.312" y2="-8.312" gradientTransform="rotate(-139.052 0 0)" gradientUnits="userSpaceOnUse"><stop stop-color="#FFD073" offset="0"/><stop stop-color="#E07C3A" offset="1"/></linearGradient><linearGradient id="c" x1="4.997" x2="18.034" y1="10.418" y2="10.418" gradientTransform="rotate(21.251 0 0)" gradientUnits="userSpaceOnUse"><stop stop-color="#FFD073" offset="0"/><stop stop-color="#E07C3A" offset="1"/></linearGradient><linearGradient id="d" x1="9.058" x2="13.472" y1="9.744" y2="9.744" gradientTransform="rotate(-4.548 -.003 0)" gradientUnits="userSpaceOnUse"><stop stop-color="#FFD073" offset="0"/><stop stop-color="#E07C3A" offset="1"/></linearGradient><linearGradient id="e" x1="3.066" x2="10.866" y1="13.794" y2="13.794" gradientTransform="rotate(-4.585 -.002 -.002)" gradientUnits="userSpaceOnUse"><stop stop-color="#FFD073" offset="0"/><stop stop-color="#E07C3A" offset="1"/></linearGradient><linearGradient id="f" x1="-19.773" x2="-15.724" y1="4.694" y2="4.694" gradientTransform="rotate(-136.253 0 0)" gradientUnits="userSpaceOnUse"><stop stop-color="#FFD073" offset="0"/><stop stop-color="#E07C3A" offset="1"/></linearGradient><linearGradient id="g" x1="10.498" x2="15.489" y1="11.899" y2="11.899" gradientTransform="rotate(-4.585 0 0)" gradientUnits="userSpaceOnUse"><stop stop-color="#FFD073" offset="0"/><stop stop-color="#E07C3A" offset="1"/></linearGradient><linearGradient id="h" x1="6.918" x2="14.823" y1="6.383" y2="6.383" gradientTransform="rotate(8.19 .002 -.001)" gradientUnits="userSpaceOnUse"><stop stop-color="#FFD073" offset="0"/><stop stop-color="#E07C3A" offset="1"/></linearGradient><radialGradient id="i" cx="18" cy="21.9" r="23.738" gradientUnits="userSpaceOnUse"><stop stop-color="#FFD073" offset="0"/><stop stop-color="#C7882A" offset="1"/></radialGradient><radialGradient id="a" cx="19.497" cy="-.392" r="30.409" gradientTransform="scale(1 -1) rotate(-48.75 .865 -.392)" gradientUnits="userSpaceOnUse"><stop stop-color="#E3A84B" offset="0"/><stop stop-color="#BF743F" offset="1"/></radialGradient><radialGradient id="n" cx="19.497" cy="-.387" r="30.399" gradientTransform="scale(1 -1) rotate(-48.734 .853 -.387)" gradientUnits="userSpaceOnUse"><stop stop-color="#E3A84B" offset="0"/><stop stop-color="#BF743F" offset="1"/></radialGradient><linearGradient id="p" x1="-21.556" x2="-16.34" y1="-5.834" y2="-5.834" gradientTransform="scale(-1) rotate(32.471 -.001 0)" gradientUnits="userSpaceOnUse"><stop stop-color="#FFD073" offset="0"/><stop stop-color="#E07C3A" offset="1"/></linearGradient><linearGradient id="q" x1="5.544" x2="12.968" y1="15.135" y2="15.135" gradientTransform="rotate(-4.635 .002 .003)" gradientUnits="userSpaceOnUse"><stop stop-color="#FFD073" offset="0"/><stop stop-color="#E07C3A" offset="1"/></linearGradient><linearGradient id="r" x1="-51.676" x2="-45.779" y1="-19.997" y2="-19.997" gradientTransform="scale(-1) rotate(24.281 .002 0)" gradientUnits="userSpaceOnUse"><stop stop-color="#FFB94F" offset="0"/><stop stop-color="#917130" offset="1"/></linearGradient><linearGradient id="s" x1="-53.074" x2="-47.265" y1="10.393" y2="10.393" gradientTransform="scale(-1) rotate(58.91 0 0)" gradientUnits="userSpaceOnUse"><stop stop-color="#FFB94F" offset="0"/><stop stop-color="#A68137" offset="1"/></linearGradient><g transform="matrix(.44814 0 0 .44814 1.102 .563)"><path d="M2.45 11.8l1.475-.05c-.763.05-1.355.3-1.775.75-.433.433-.55.867-.35 1.3.267.5 1.2 1.067 2.8 1.7-.367 0-1.317-.25-2.85-.75-.933-.3-1.5-.733-1.7-1.3L0 12.7c.567-.433 1.383-.733 2.45-.9z" clip-rule="evenodd" fill="url(#b)" fill-rule="evenodd"/><path d="M11.35 13.75c.1 3.033.133 4.417.1 4.15-1.733-3.133-3.467-4.983-5.2-5.55-1.1-.333-2.467-.367-4.1-.1-.833.1-1.55.25-2.15.45.067-.2.3-.4.7-.6.733-.4 1.867-.65 3.4-.75 1.533-.067 3 .217 4.4.85.8.367 1.75.883 2.85 1.55z" clip-rule="evenodd" fill="url(#c)" fill-rule="evenodd"/><path d="M10.4 4.25c.167-.033.25.067.25.3-.033.233.033.383.2.45.167.033.35-.083.55-.35.3-.4 1.033-.9 2.2-1.5l-.95 2.4c-.467 1.067-.717 2.1-.75 3.1-.033.833.067 1.85.3 3.05.167.867.417 1.35.75 1.45.867.233 1.367.4 1.5.5.566.367.35.55-.65.55-.933 0-1.683-.333-2.25-1-.6-.733-1.117-2.184-1.55-4.35-.433-2.1-.517-3.4-.25-3.9.233-.433.45-.667.65-.7z" clip-rule="evenodd" fill="url(#d)" fill-rule="evenodd"/><path d="M10.05 11.45c.667.466 1.167.917 1.5 1.35.167.267.317.55.45.85.133.267-.15.967-.85 2.1.167-.867-.233-1.7-1.2-2.5-1.1-.9-2.417-1.15-3.95-.75-.667.2-1.267.65-1.8 1.35.033-.467.2-.983.5-1.55.466-1 .983-1.583 1.55-1.75 1.333-.233 2.6.067 3.8.9z" clip-rule="evenodd" fill="url(#e)" fill-rule="evenodd"/><path d="M12.9 8.05c.233-.566.733-.95 1.5-1.15.633-.2 1.2-.233 1.7-.1.5.1.683.85.55 2.25a3.36 3.36 0 00-1.2-1.5c-.3-.2-.85-.117-1.65.25-.633.267-.933.35-.9.25z" clip-rule="evenodd" fill="url(#f)" fill-rule="evenodd"/><path d="M11.9 14.4c-.5-1.767-.6-3.35-.3-4.75.333-1.633 1.2-2.566 2.6-2.8.8-.2 1.433-.217 1.9-.05-.2-.066-.467-.033-.8.1-.633.2-1.25.733-1.85 1.6-.7 1.033-1.067 2.15-1.1 3.35-.033 1.133.233 1.967.8 2.5.733.7.317.717-1.25.05z" clip-rule="evenodd" fill="url(#g)" fill-rule="evenodd"/><path d="M7.45 0c-.2 2-.15 3.5.15 4.5.2.633.633 1.65 1.3 3.05.7 1.867 1.883 3.867 3.55 6l.25 2.2c-.4.1-.733-.2-1-.9-.034-.1-.684-.8-1.95-2.1-1.233-1.3-2.167-2.717-2.8-4.25-.667-1.567-.783-3.45-.35-5.65.233-1.1.517-2.05.85-2.85z" clip-rule="evenodd" fill="url(#h)" fill-rule="evenodd"/><path d="M28.65 12.2c2.433.533 4.816 1.933 7.149 4.2 2.667 2.6 3.767 6.35 3.3 11.25-.466 5.366-2.866 9.383-7.199 12.05-3.767 2.267-7.567 3.05-11.4 2.35-3.2-.6-6.05-2.116-8.55-4.55-2.034-1.967-3.217-4.384-3.55-7.25-.333-2.434-.033-5.017.9-7.75l2.05-6.4c-.2-1.667-.067-2.7.4-3.1.267-.233.533-.283.8-.15l.95.3c1.167.1 3.033-.083 5.6-.55 4.067-.733 7.25-.867 9.55-.4z" clip-rule="evenodd" fill="#997032" fill-rule="evenodd"/><path d="M27.85 12.25c2.367.5 4.667 1.867 6.9 4.1 2.566 2.533 3.65 6.2 3.25 11-.467 5.233-2.783 9.134-6.95 11.7-3.633 2.233-7.3 3-11 2.3-3.1-.566-5.85-2.05-8.25-4.449C9.833 34.967 8.683 32.6 8.35 29.8c-.3-2.333-.017-4.85.85-7.55l2-6.2c-.2-1.633-.067-2.667.4-3.1.233-.2.483-.233.75-.1l.9.3c1.133.1 2.933-.083 5.4-.55 3.9-.733 6.967-.85 9.2-.35z" clip-rule="evenodd" fill="url(#i)" fill-rule="evenodd"/><path d="M25.3 18.4c.1-.3.167-.533.2-.7.067-.2.2-.267.4-.2.1 0 .333.067.7.2.3.066.5.066.6 0 .033 0 .117-.1.25-.3.133-.167.583-.316 1.35-.45.4-.067.634-.167.7-.3l-.15.35c-.1.2-.233.267-.399.2l-.9.4.15.5c.066.233.017.35-.15.35l-1.1-.3c-.434-.1-.633-.05-.6.15 0 .133.083.4.25.8.1.333.05.617-.15.85-.2.2-.483.283-.85.25-.367-.034-.65.033-.85.2-.167.133-.383.4-.65.8-.333.466.1 1.333 1.3 2.6-.667-.233-1.417-.649-2.25-1.25-.533-.366-.967-.467-1.3-.3l-.4.4.45.55c.333.399.783 1.283 1.35 2.649L23 25.35c-.067-.199-.533-.533-1.4-1l-1.25-.65.5.7c.333.466.683 1.267 1.05 2.399-.533-.267-.983-.684-1.35-1.25-.233-.333-.6-.6-1.1-.8l-.65-.249.3 1c.167.467.333 1.116.5 1.95-.4-.9-.867-1.55-1.4-1.95-.333-.233-.7-.4-1.1-.5l-.5-.1.2.85c.1.366.117 1.083.05 2.15l-.3-.551-1.2-1.55.1 1.7c.033.6.267 1.316.7 2.15l-1.1-1.351c-.267-.333-.466-.816-.6-1.45L14.3 26l.4 3.8c.181 1.422.306 2.196.375 2.325l-.975-.975c-.4-.4-.783-.95-1.15-1.65l-.45-.9.05 1.75c.067.667.517 1.584 1.35 2.75l-.95-1c-.4-.399-.8-.933-1.2-1.6l-.5-.9.05.4c.034.3.217.884.55 1.75l-.7-1.35c-.3-.567-.5-1.167-.6-1.801L10.4 25.7l.15 1.45c.133.399.35.633.65.699l.35-1.699c.1-.567.383-1.15.85-1.75.1-.134.15-.15.15-.051 0 .301.034.567.1.801.167.466.333.716.5.75-.033-.7 0-1.284.1-1.75.067-.301.2-.634.4-1l.3-.5.3.699c.2.434.433.534.7.301.133-.5.183-.934.15-1.301l.05-1.7.3.7c.267.5.55.917.85 1.25.5.534.767.601.8.2l-.25-.75.05-1.35.4.9c.133.333.284.383.45.15l-.45-1.4c-.066-.2-.117-.5-.15-.9V18.9l1.3 1.85c.4.6.716.717.95.35-.066-.267-.217-.633-.45-1.1l-1-1.5 1.9.8c.833.367 1.217.517 1.15.45l-.1-.15-1.1-1 1.55.4c.433.167.7.3.8.4.1.067.2.184.3.35.167.267.2-.067.1-1-.033-.133.133-.25.5-.35a3.4 3.4 0 01.55-.05l.5.25c.367.167.633.233.8.2.2 0 .333-.133.4-.4z" clip-rule="evenodd" fill="#ffd9a0" fill-rule="evenodd"/><path d="M9.4 21.65l1.8-5.6c-.133.6-.467 1.983-1 4.15-.467 2.233-.65 4.267-.55 6.1.133 2.233.7 4.4 1.7 6.5 1.1 2.267 2.517 4.033 4.25 5.3 1.8 1.367 4.316 2.25 7.55 2.65.734.092 1.392.158 1.975.2-3.806.057-7.131-.794-9.975-2.55-4.867-3.034-6.783-8.617-5.75-16.75z" clip-rule="evenodd" fill="url(#j)" fill-rule="evenodd"/><path d="M12.15 12.8c.1.7.167 2.833.2 6.4.066 3.233.283 5.7.65 7.399.7 3.2 1.583 5.517 2.65 6.95 1.667 2.3 4.5 4.084 8.5 5.351 1.967.633 4.417.583 7.35-.15l-.25.2c-4.333 1.267-8.967.383-13.9-2.65-1.934-1.2-3.467-3.383-4.6-6.55-.867-2.467-1.283-4.65-1.25-6.55.067-2.1.117-3.784.15-5.05.067-2.333.033-4.066-.1-5.2.167-.1.367-.15.6-.15z" clip-rule="evenodd" fill="url(#k)" fill-rule="evenodd"/><path d="M14.65 21.8c-1.367-4.667-2.3-7.65-2.8-8.95.167-.067.3-.067.4 0 1.9 6.833 4.1 12.133 6.6 15.9 1.6 2.4 4.167 4.533 7.7 6.4 1.133.6 3.184 1.5 6.15 2.699l-.15.151c-2.533-1-4.233-1.717-5.1-2.15-2.633-1.3-5-2.85-7.1-4.649-2.2-1.868-4.1-5.001-5.7-9.401z" clip-rule="evenodd" fill="url(#l)" fill-rule="evenodd"/><path d="M14.55 13.15c.567.467 1.367.95 2.4 1.45 4.2 1.967 6.533 3.1 7 3.4 3.7 2.233 6.434 4.934 8.2 8.1 1 1.834 1.699 3.767 2.1 5.801.3 1.666.35 3.1.15 4.3l-.25.3c.366-3.033-.15-6.017-1.551-8.95C29.934 21.783 24.433 17.6 16.1 15c-.867-.267-1.633-.883-2.3-1.85z" clip-rule="evenodd" fill="url(#m)" fill-rule="evenodd"/><path d="M27.65 14.45c2.7.966 4.917 2.466 6.65 4.5 1.566 1.833 2.45 3.783 2.65 5.85.3 2.934-.15 6.184-1.351 9.75l-.5.75c.367-.633.7-1.733 1-3.3a35.77 35.77 0 00.601-5.55c.233-5.067-2.983-8.95-9.65-11.65-1.433-.6-2.95-1.1-4.55-1.5-1.9-.5-3.35-.7-4.35-.6l.8-.15c3.233.367 6.133 1 8.7 1.9z" clip-rule="evenodd" fill="url(#n)" fill-rule="evenodd"/><use transform="matrix(1 0 0 -1 12.05 13.05)" y="-28.562" width="26.031" height="28.562" opacity=".07" xlink:href="#o"/><path d="M7.45 14.2c.267-.367.5-.65.7-.85.4-.367.85-.6 1.35-.7.767-.133 2.2.033 4.3.5l-1.15.75c-.667.233-1.133.317-1.4.25-.133-.033-.2.1-.2.4.034.167.067.317.1.45-.233-.767-.7-1.183-1.4-1.25-.433-.033-.95.033-1.55.2z" clip-rule="evenodd" fill="url(#p)" fill-rule="evenodd"/><path d="M9.6 13c-1.2.1-1.9.8-2.1 2.1a4.574 4.574 0 000 1.9c-.233-.167-.417-.433-.55-.8-.3-.733-.217-1.617.25-2.65.5-1.066 1.316-1.583 2.45-1.55.667.033 1.633.317 2.9.85l1.55.45h-.95c-.433-.1-.783-.183-1.05-.25-.533-.1-1.367-.117-2.5-.05z" clip-rule="evenodd" fill="url(#q)" fill-rule="evenodd"/><path d="M31.55 37.05c.233-.066.483-.116.75-.149-.566.033-.783-.134-.649-.5.1-.2.333-.4.699-.601l.5-.2.25-.7c.101-.267.434-.551 1-.851.2-.1.334-.1.4 0 .233.267.384.417.45.45.233.167.333.184.3.05-.033-.333-.017-.566.05-.7l.5-.8c.066-.066.117-.05.15.05.033.233.066.384.1.45.033.134.101.167.2.101.066-.067.167-.2.3-.4.266-.333.45-.417.55-.25.034.066-.05.417-.25 1.05-.166.533-.15.75.05.65.3-.167.399-.084.3.25-.134.3-.334.533-.601.7-.233.133-.383.283-.449.449L36 36.6c-.167.467-.55.784-1.15.95-.166.033-.6.4-1.3 1.101-.467.5-1.033.783-1.7.85-.267.033-.283-.066-.05-.3l.4-.351c-.533.233-.967.317-1.3.25-.2-.033-.167-.183.1-.449l.45-.4c-.467.2-.816.217-1.05.05-.167-.133 0-.283.5-.45.228-.057.453-.115.675-.175-.422.099-.664.04-.726-.175-.033-.168.201-.317.701-.451z" clip-rule="evenodd" fill="#997032" fill-rule="evenodd"/><path d="M37.9 35.5c-.134-.033-.267.017-.4.15l-.2.199.2-.05c.167 0 .283.033.35.101.134.1.45.083.95-.051-.066.101-.316.217-.75.351-.3.1-.616.149-.95.149h-.4l.5.25c.399.134.767.2 1.1.2.492-.03.801-.147.925-.35-.275.507-.783.856-1.524 1.05a3.314 3.314 0 01-1.4.1l-.55-.149.9.75c.267.166.517.217.75.149-.101.101-.434.167-1 .2-.367.033-.7-.033-1-.2L35 38.1l.2.95c0 .367-.134.5-.4.4.101-.066.101-.2 0-.4-.033-.133-.133-.267-.3-.399l-.25-.15.1.35.15 1.45-1.05-1.05-.601 1.4V39.9l-.05-.2c0-.267-.083-.667-.25-1.2-.133-.434-.1-.85.101-1.25.1-.233.333-.566.699-1 .5-.6 1.217-.983 2.15-1.15.667-.066 1.616.017 2.85.25-.099.2-.249.25-.449.15z" clip-rule="evenodd" fill="url(#r)" fill-rule="evenodd"/><path d="M33 36.45c.866-.834 1.634-1.283 2.3-1.351.533-.1 1.134-.116 1.8-.05l-.45.051a.486.486 0 00-.351.15l-.1.15.3.149c.2.101.417.084.65-.05l-.4.25c-.267.167-.634.3-1.1.4L36 36.6c.137.205.287.313.45.325l-.1.025-1.6-.101.05.2.05.5c.067.3 0 .5-.199.601 0-.101-.101-.25-.301-.45l-.65-.3-.101 1c0 .5-.066 1.066-.199 1.699l-.1-.799-.3-1.1-.1.55c0 .233-.167.634-.5 1.2l.1-.4c.033-.166.017-.434-.05-.8-.101-.566-.15-.866-.15-.9-.033-.433.2-.9.7-1.4z" clip-rule="evenodd" fill="url(#s)" fill-rule="evenodd"/></g></svg>