<svg xmlns="http://www.w3.org/2000/svg" overflow="visible" width="20" height="20"><path fill-rule="evenodd" clip-rule="evenodd" fill="#4cb52b" d="M11.707 5.918l-.134.102-.133.115-.04.03-.037.031-.04.03-.037.031-.079.06-.077.059-.07.047-.072.046-.075.041-.075.042-.06-.018-.033-.006-.036-.004-.089-.016-.086-.014-.09-.015-.088-.016-.182-.03-.178-.016-.201-.01.033.018.036.022.033.024.034.027.03.028.03.034.027.033.03.04.021.037.022.04.018.041.016.046.01.043.007.048.006.049.002.051-.002.024.002.024.004.022.008.02.018.03.012.015.016.014.013.007.018.008.02.006.024.004h.049l.028-.002.031-.002.044-.01.045-.002h.044l.045.006.04.008.041.014.04.018.041.022.034.021.035.026.032.026.031.031.028.03.028.034.024.035.023.04.02.037.018.04.014.04.013.043.01.043.008.046.004.045.002.05-.002.029.002.028.004.023.008.024.006.02.01.018.012.015.013.014.014.01.018.008.018.004.022.004h.021l.024-.002.026-.006.03-.006.027-.01.032-.006.069-.004-.004-.15-.002-.075v-.073l-.004-.095-.006-.09-.01-.094-.01-.09-.01-.075-.006-.072-.002-.07.002-.072-.008-.1.006-.093.018-.09.012-.043.018-.04.026-.049.041-.041.07-.063.07-.06.143-.114.069-.06.073-.053.075-.051.08-.048.157-.093.158-.086.085-.044.09-.036.092-.027.095-.018.183-.022.093-.006.097.002.19.004.191.008h.044l.045.006.044.006.045.01.087.024.041.013.044.018.168.063.176.056.02.004.021.004h.02l.02.002.015-.004.008-.002h.01l.016-.006.018-.004.012-.01.014-.008.01-.012.011-.012.008-.015.01-.016v-.006l.002-.004.004-.008.008-.018-.026-.016-.024-.013-.049-.028-.051-.032-.026-.015-.024-.014-.085-.046-.087-.041-.088-.038-.091-.03-.093-.03-.091-.025-.093-.023-.093-.018-.099-.018-.094-.014-.095-.008-.093-.002-.097.002-.097.006-.1.01-.101.018-.101.018-.095.023-.09.024-.086.028-.043.012-.042.015-.083.036-.083.04-.083.047-.148.087z"/><path fill-rule="evenodd" clip-rule="evenodd" fill="#275b15" d="M14.358 5.945l-.01.012-.013.008-.012.01-.018.004-.016.006h-.01l-.008.002-.015.004-.02-.002h-.02l-.022-.004-.02-.004L14 5.925l-.168-.063-.044-.018-.041-.013-.087-.024-.045-.01-.044-.006-.045-.006h-.044l-.191-.008-.19-.004-.097-.002-.093.006-.183.022-.095.018-.091.027-.091.036-.085.044-.158.086-.156.093-.081.048-.075.051-.073.053-.07.06-.142.114-.07.06-.07.063-.041.041-.026.05-.018.04-.012.043-.018.089-.006.092.008.101.006-.093.014-.03.022-.029.026-.038.03-.037.106-.144.12-.139.062-.065.031-.031.036-.028.07-.053.038-.026.042-.022.168-.093.176-.087.079-.041.08-.038.165-.065.083-.027.089-.022.089-.016.094-.008.093-.006h.099l.099.006.104.012.101.014.097.022.093.021.09.03.179.065.088.038.091.041.04.016.041.016.04.014.02.005.021.008.08.02.078.018.016-.008.016-.006.014-.008.016-.006.023-.016.01-.007.012-.006v-.004l.002-.002.004-.004.008-.008.014-.016.006-.02V6.1l.002-.004.004-.008-.002-.011v-.01l-.006-.02-.01-.024-.006-.012-.004-.005L14.554 6l-.006-.008-.004-.006-.01-.012-.021-.024-.026-.027-.016-.014-.014-.012-.055-.032-.008.018-.004.008-.002.004v.006l-.01.016-.008.015z"/><path fill-rule="evenodd" clip-rule="evenodd" d="M16.808 11.098l-.106-.146-.11-.143-.058-.069-.06-.063-.063-.06-.034-.027-.031-.024-.063-.043-.064-.036-.067-.031-.035-.014-.034-.01-.051.061-.052.06-.051.057-.051.055-.052.05-.045.057-.042.059-.035.065-.018.036-.008.017-.004.02-.008.036-.002.04.002.035.008.035.012.036.018.037.03.06.029.063.026.063.021.065.016.073.004.04.002.042-.002.073.006.075.01.07.016.076.016.071.013.073.012.073.01.075.01.15.006.155.004.112.01-.004.012-.002.023-.006.02-.008.02-.01.016-.013.015-.016v-.006h.002l.004-.004.008-.008.014-.02.053-.108.062-.107.047-.081.054-.075.059-.07.065-.062.063-.056.07-.05.068-.045.077-.04.05-.025.053-.018.109-.03.063-.013.067-.01.137-.016.322-.025.33-.018.07-.006.072-.008.07-.01.037-.006.037-.004.142-.027.143-.036.13-.045.13-.05.127-.055.126-.061.093-.052.091-.053.043-.03.046-.027.089-.06.083-.067.077-.061.085-.067.089-.055.002-.024v-.018l.002-.004.002-.043-.004-.044-.006-.043-.06-.01-.053-.002-.051.002-.046.008-.047.012-.042.017-.04.022-.033.03-.04.03-.037.03-.075.058-.079.052-.079.049-.083.041-.041.02-.04.022-.043.018-.042.02-.085.039-.174.067-.173.061-.091.022-.091.02-.048.006-.023.002-.022.004-.048.004-.045.004h-.097l-.095.002-.191.004-.097-.004-.093-.006-.093-.014-.089-.018-.047-.014-.043-.018-.044-.021-.037-.022-.04-.03-.034-.03-.033-.037-.03-.037zm-.895-.006l.006-.05.004-.021.008-.016.018-.028.01-.01.014-.006.025-.01.014-.001.018.004.037.011.042.022.061.042.028.021.03.026.049.053.021.028.022.032.018.03.016.03.027.064.016.065.006.032.004.036-.002.011-.004.004-.004.006-.008.002-.008.004-.021.004-.038-.002-.035-.004-.034-.006-.032-.01-.033-.013-.032-.016-.03-.02-.027-.022-.004-.004-.002-.002-.006-.004-.008-.005-.006-.004-.01-.008-.006-.004-.004-.002-.011-.01-.01-.008-.034-.018-.016-.01-.012-.01-.021-.025-.01-.014-.006-.012-.014-.034-.006-.017-.002-.018-.002-.042v-.021l.004-.02z" fill="#4cb52b"/><path fill-rule="evenodd" clip-rule="evenodd" fill="#275b15" d="M15.949 10.977l-.018.028-.008.016-.004.021-.006.05-.004.02v.021l.002.042.002.018.006.017.014.034.006.012.01.014.022.025.011.01.016.01.034.018.01.008.012.01.003.002.006.004.01.007.006.004.008.006.006.004.002.002.004.004.028.022.03.02.03.015.034.014.032.01.034.006.035.004.038.002.021-.004.008-.004.008-.002.004-.006.004-.004.002-.012-.004-.035-.006-.032-.016-.065-.027-.063-.016-.032-.018-.03-.022-.031-.021-.028-.05-.053-.03-.026-.027-.021-.061-.042-.042-.022-.037-.011-.018-.004-.014.002-.025.01-.014.005z"/><path fill-rule="evenodd" clip-rule="evenodd" fill="#275b15" d="M15.714 10.695l-.02.027-.018.028-.012.012-.004.002-.002.004-.004.008-.02.023-.023.018-.022.016-.008.002-.006.004-.011.008-.008.002-.006.004-.012.008-.016.004-.008.002-.006.004-.03.007-.031.006-.032.006-.04.006-.033.016-.03.024-.025.031-.018.022-.014.024-.017.043-.006.02-.002.022.006.04.013.035.012.016.016.017.016.014.022.016.021.014.028.016.075.035.036.016.017.008.02.01.07.031.015.006.018.008.035.016-.002.071-.003.071-.01.067-.01.068-.018.055-.01.028-.008.03-.01.029-.004.031.002.028.002.014.006.016.01.02.014.021.018.02.01.01.013.012.038.03.032.033.023.036.02.041.01.042.006.045-.002.047-.008.054-.016.047-.004.004h-.002v.006l-.004.012-.01.024-.013.02-.008.01-.006.011-.034.04-.024.021-.015.026-.012.026-.002.027.002.028.01.03.014.031.021.034.01.012.016.012.016.007.021.008.054.014.053.022.052.03.043.037.036.042.013.023.016.028.008.022.01.023.014.048.008.043.004.048-.004.043-.004.022-.002.024-.012.043-.008.022-.008.023-.016.022-.015.018.035-.016.008-.006.01-.004.02-.008.033-.02.036-.021.031-.026.032-.027.014-.016.016-.014.031-.032.12-.142.058-.071.06-.07.025-.039.028-.037.053-.08.047-.082.022-.044.024-.041.02-.046.023-.041.054-.08.057-.074.032-.036.035-.031.071-.068.077-.055.081-.05.085-.039.33-.144.085-.036.089-.027.09-.02.096-.01.09-.01.022-.004.024-.002.047-.006.091-.017.091-.022.184-.053.186-.05.09-.026.095-.03.091-.033.095-.033.04-.022.02-.012.003-.004.002-.002h.004l.012-.004.04-.025.04-.024.035-.03.037-.027.034-.032.035-.032.064-.069.06-.071.029-.038.03-.035.054-.073.02-.036.008-.018.01-.015.014-.036.004-.018.006-.015-.09.055-.084.067-.077.061-.083.067-.09.06-.045.027-.043.03-.09.053-.094.052-.126.061-.127.055-.13.05-.13.045-.143.036-.142.027-.037.004-.036.006-.071.01-.071.008-.071.006-.33.018-.322.025-.137.016-.067.01-.063.014-.109.03-.053.017-.05.026-.076.04-.07.045-.069.05-.063.055-.065.063-.06.069-.053.075-.047.081-.061.107-.054.108-.014.02-.008.008-.003.004h-.002v.006l-.016.016-.016.014-.02.01-.02.007-.023.006-.012.002-.01.004-.004-.112-.006-.154-.01-.15-.01-.076-.011-.073-.014-.073-.016-.071-.016-.075-.01-.071-.006-.075.002-.073-.002-.042-.004-.04-.015-.072-.022-.066-.026-.063-.03-.063-.03-.06-.017-.037-.012-.035-.008-.036-.002-.036.002-.04.008-.035.004-.02.008-.017.018-.036.035-.065.042-.06.045-.057.052-.049.051-.055.051-.058.052-.059.051-.061-.051-.014-.042-.008-.035.002-.077.061-.036.032-.03.036-.055.073z"/><path fill-rule="evenodd" clip-rule="evenodd" fill="#95001b" d="M15.405 10.132l.036.033.032.034.031.037.028.04.028.043.02.04.017.041.014.042.012.043.008.044.006.045.002.048.002.047-.006.13.02-.023.003-.008.002-.004.004-.002.012-.012.018-.028.02-.027.043-.081.055-.073.03-.036.036-.032.077-.06-.056-.07-.063-.063-.035-.032-.038-.03-.079-.055-.09-.055-.1-.05-.053-.023-.055-.024-.115-.041-.122-.04-.12-.031.058.037.064.04.065.037.071.04.041.021.04.028z"/><path fill-rule="evenodd" clip-rule="evenodd" fill="#ce0026" d="M14.809 9.853l-.11-.014-.107-.01-.111-.006h-.11l-.111.004-.107.01-.11.012-.111.018-.111.022-.11.03-.058.013-.055.018-.11.037-.111.042-.111.05-.23.1-.227.103-.23.099-.23.098-.233.095-.231.095-.233.093-.06.022-.057.023-.114.048-.47.176-.238.085-.118.041-.117.043-.12.04-.119.041-.237.081-.24.078-.24.079-.136.025-.135.026-.132.022-.13.017-.133.014-.128.01-.129.006-.126.002-.02.008-.016.008H8.34l-2.055.022-2.059.02-.041-.003-.036.002-.031.002-.026.008-.024.008-.018.012-.013.012-.006.018-.006.015.002.022.006.022.01.026.013.025.02.03.024.031.03.036.181.109.188.106.188.105.193.103.235.116.119.058.122.059.12.055.125.056.251.108.18.071.184.07.184.067.185.065.186.061.188.06.187.055.19.053.19.047.191.046.192.043.196.042.193.037.196.034.197.032.2.03.389.047.194.023.096.012.1.014.386.045.388.048.09-.026.095-.016.095-.011.095-.002.186-.006h.19l.343-.004.34-.006.075-.006.08-.006.074-.012.08-.014.161-.035.168-.026.146-.022.147-.023.079-.016.04-.01.04-.008.159-.04.09-.023.093-.014.093-.008h.095l.083-.002.083-.002.083-.006.02-.004.004-.002h.017l.044-.004.166-.027.168-.02.09-.01.046-.008.048-.006.09-.016.091-.017.09-.022.09-.014.09-.008.096-.002.09-.008.044-.008.048-.01.043-.013.043-.016.044-.018.043-.02.08-.05.078-.049.038-.027.04-.026.017-.016.02-.014.04-.027.035-.032.018-.016.02-.013.033-.032.036-.03.065-.063.065-.063-.053-.022-.054-.014-.021-.008-.016-.007-.016-.012-.01-.012-.021-.034-.014-.031-.01-.03-.002-.028.002-.027.012-.026.015-.026.024-.021.034-.04.006-.012.008-.01.013-.02.01-.023.004-.012v-.006h.002l.004-.004.016-.047.008-.054.002-.047-.006-.045-.01-.042-.02-.041-.023-.036-.032-.034-.038-.03-.013-.011-.01-.01-.018-.02-.014-.021-.01-.02-.077-.002-.037-.002-.034-.002-.065-.012-.061-.014-.178-.053-.176-.05-.089-.021-.087-.016-.09-.012-.09-.006-.181-.01h-.182l-.34.004h-.292l-.34.006h-.087l-.085.006-.174.018h-.014v.002l-.012.004h-.013v.002l-.012.004-.028.002-.028.002-.053-.002-.051.002-.05.006-.047.01-.09.021-.092.026-.182.061-.08.03-.076.033-.073.038-.069.043-.083.05-.083.045-.087.04-.087.033-.087.026-.043.012-.012.002-.01.004-.02.008-.173.043-.095.018-.048.006-.045.008-.05.004-.047.006-.095.007-.314.01-.162.004-.158.002h-.12l-.115.006-.178.006-.178.004H8.366l-.193.002-.194.008-.09.002H7.8l-.045-.004-.044-.002-.087-.006-.136-.024-.132-.027-.097-.024-.095-.018-.194-.025-.073-.012-.07-.02-.036-.014-.036-.016-.067-.035.17.016.176.013.087.006.089.01.177.022.095.008.095.006.097.002.099-.002h1.091l.177-.004.182-.006.361-.02.042-.004.043-.004.087-.012.083-.017.087-.02.178-.06.178-.063.16-.063.164-.055.156-.058.164-.055.063-.022.067-.017.067-.014.07-.01.082-.014.083-.018.04-.013.041-.012.083-.03.176-.071.182-.061.09-.028.094-.022.095-.016.098-.007.186-.01.188-.006h.085l.087.004.083.006.084.01.095.007.095.006.095.002h.097l.099-.002.1.002.218.006h.353l.186-.006.186-.01.083-.004.083.002.083.006.085.012.09.016.093.026.091.03.095.037.044.016.047.017.05.014.053.016.053.01.057.012.06.008.063.01.01-.068.01-.067.003-.07.002-.072-.035-.016-.018-.008-.016-.006-.069-.031-.02-.01-.017-.008-.036-.016-.075-.035-.028-.016-.021-.014-.022-.016-.016-.014-.016-.017-.012-.016-.013-.036-.006-.04.002-.021.006-.02.017-.043.014-.024.018-.022.026-.031.03-.024.033-.016.04-.006.031-.006.032-.006.03-.007.005-.004.008-.002.016-.004.012-.008.006-.004.008-.002.011-.008.006-.004.008-.002.022-.016.024-.018.006-.13-.002-.047-.002-.048-.006-.045-.008-.044-.012-.043-.014-.042-.018-.041-.02-.04-.027-.043-.028-.04-.031-.037-.032-.034-.036-.033-.037-.03-.04-.028-.041-.021-.071-.04-.065-.037-.064-.04-.059-.037-.11-.026-.056-.012z"/><path fill-rule="evenodd" clip-rule="evenodd" fill="#df777b" d="M15.392 11.633l-.054-.016-.05-.014-.046-.017-.044-.016-.095-.038-.09-.03-.094-.025-.09-.016-.085-.012-.083-.006-.083-.002-.083.004-.186.01-.186.006h-.353l-.218-.006-.1-.002-.1.002h-.096l-.095-.002-.095-.006-.095-.007-.084-.01-.083-.006-.087-.004h-.085l-.188.006-.186.01-.098.007-.095.016-.093.022-.091.028-.182.06-.176.072-.083.03-.041.012-.04.013-.083.018-.083.014-.069.01-.067.014-.067.017-.063.022-.164.055-.156.058-.164.055-.16.063-.178.064-.178.059-.087.02-.083.017-.087.012-.043.004-.042.004-.361.02-.182.006-.178.004H7.774l-.1.002-.096-.002-.095-.006-.095-.008-.177-.022-.09-.01-.086-.006-.176-.013-.17-.016.067.035.036.016.035.014.071.02.073.012.194.025.095.018.097.024.132.027.136.024.087.006.044.002.045.004h.087l.091-.002.194-.008.193-.002H9.66l.178-.004.178-.006.115-.006h.12l.158-.002.162-.004.314-.01.095-.007.047-.006.05-.004.045-.008.048-.006.095-.018.173-.043.02-.008.01-.004.012-.002.043-.012.087-.026.087-.033.087-.04.083-.045.083-.05.07-.043.072-.038.075-.033.081-.03.182-.061.091-.026.09-.022.048-.01.05-.005.051-.002.053.002.028-.002.028-.002.012-.004v-.002H12.894l.012-.004v-.002h.014l.174-.018.085-.006h.087l.34-.006h.292l.34-.004h.182l.181.01.09.006.09.012.087.016.089.021.176.05.178.053.06.014.066.012.034.002.037.002.077.002-.006-.016-.002-.014-.002-.028.004-.031.01-.03.008-.03.01-.027.018-.055-.063-.01-.06-.008-.057-.012z"/><path fill-rule="evenodd" clip-rule="evenodd" fill="#95001b" d="M15.251 13.245l-.043.02-.044.018-.043.016-.043.013-.048.01-.043.008-.091.008-.095.002-.09.008-.092.014-.089.022-.09.017-.091.016-.048.006-.045.008-.091.01-.168.02-.166.027-.044.004h-.017l-.004.002-.02.004-.083.006-.083.002-.083.002h-.095l-.093.008-.093.014-.09.023-.158.04-.042.008-.04.01-.078.016-.147.023-.146.022-.168.026-.162.035-.079.014-.075.012-.079.006-.075.006-.34.006-.344.004h-.19l-.185.006-.095.002-.095.011-.094.016-.091.026.322.035.324.036.16.016.162.018.16.015.162.018.087.006.089.008.171.012.083.004h.02l.022.002.043.004.168.008.16.004h.077l.08.002h.304l.07-.004.036-.002h.038l.14-.008.067-.006.07-.004.031-.004.016-.002h.018l.067-.004.126-.016.125-.016.12-.02.117-.02.122-.027.123-.027.06-.016.029-.008.031-.006.123-.028.116-.031.119-.032.028-.01.03-.008.059-.016.027-.01.03-.007.06-.016.054-.02.028-.01.03-.008.055-.02.028-.01.03-.007.11-.04.11-.037.107-.044.026-.012.028-.01.055-.02.105-.043.106-.043h.034l.014-.004.016-.006.015-.018.016-.022.008-.023.008-.022.012-.043.002-.024.004-.022.004-.043-.004-.048-.008-.043-.014-.048-.01-.023-.008-.022-.016-.028-.013-.023-.036-.042-.043-.037-.052-.03-.065.063-.065.063-.036.03-.033.032-.02.013-.018.016-.035.032-.04.027-.02.014-.018.016-.039.026-.038.027-.079.05z"/><path fill-rule="evenodd" clip-rule="evenodd" fill="#c60026" d="M7.92 6.846l-.144.117-.072.06-.067.068-.069.067-.065.073-.065.075-.062.081-.197.204-.188.21-.184.21-.173.216-.17.215-.162.222-.158.221-.149.227-.114.15-.032.036-.016.018-.013.02-.06.075-.126.146-.067.07-.067.074-.072.07-.07.07-.15.139-.08.067-.04.033-.037.036-.08.067-.023.016-.02.018-.039.035-.304.202-.156.098-.08.05-.076.051-.081.048-.08.049-.16.099-.323.193-.044.022-.041.024-.083.047-.168.095-.34.186-.174.089-.174.09-.178.09-.175.09-.133.071-.124.076-.125.075-.118.079-.231.16-.113.083-.105.085-.104.085-.101.087-.192.18-.093.09-.085.093-.085.095-.079.099-.017.015-.014.018-.012.016-.008.018-.012.031-.004.014v.028l.004.014.004.012.008.013.02.024.014.01.017.012.17-.01.083-.006.085-.004.081-.008.083-.006.162-.014.018-.004.02-.001.04-.004.078-.008.154-.018.15-.02.074-.012.075-.01.142-.025.034-.008.035-.006.071-.012.067-.016.034-.008.036-.006.067-.015.033-.008.036-.006.063-.018.065-.016.064-.018.065-.015.124-.036.06-.02.013-.006.016-.004.032-.008.172-.045.17-.037.167-.038.168-.03.164-.03.162-.021.16-.02.158-.014.153-.116.156-.1.085-.048.088-.04.09-.031.092-.024-.193-.103-.188-.105-.188-.106-.181-.109-.03-.036-.024-.031-.02-.03-.013-.025-.01-.026-.006-.022-.002-.022.006-.015.006-.018.013-.012.018-.012.024-.008.026-.008.031-.002.036-.002.041.002 2.059-.02.099-.013.047-.008.024-.004.012-.002h.014l.094-.02.046-.012.047-.01.02-.007.01-.004.012-.002.043-.012.087-.028.087-.03.087-.033.079-.038.04-.021.02-.012.003-.004.002-.002h.004l.012-.004.008-.008.004-.004.002-.002h.004l.02-.012.039-.024.038-.027.04-.028.07-.061.075-.053.156-.101.15-.103.036-.028.008-.007.004-.004.002-.002h.004l.02-.012.075-.056.272-.22.07-.058.073-.052.152-.096.077-.052.037-.027.04-.026.035-.03.038-.027.075-.06.061-.055.067-.051.068-.052.07-.047.076-.055.075-.058.07-.059.037-.032.017-.015.02-.014.07-.067.03-.036.017-.018.017-.016.014-.02.016-.017.03-.036.027-.04.014-.019.016-.018.055-.08.065-.074.07-.067.079-.061.015-.016.008-.008.004-.004.002-.002h.004l.036-.027.07-.056.068-.057.07-.055.066-.06.032-.031.016-.016.008-.008.004-.004.002-.002h.004l.063-.063v-.004l.002-.002.004-.004.008-.008.015-.016.032-.031.125-.14.128-.133.065-.07.061-.064.056-.064.05-.057-.052-.031-.048-.032.012-.113-.016.01-.015.014-.03.038-.055.063-.03.031-.032.036-.07.07-.076.072-.16.139-.043.031-.042.032-.043.027-.042.028-.11.065-.101.073-.024.016-.024.014-.041.024-.042.012-.033.007.018-.043.023-.042.026-.043.032-.041.053-.083.06-.077.059-.078.063-.07.061-.076.014-.02.016-.017.031-.036.058-.075.057-.075.055-.077.061-.07.032-.033.036-.03.073-.057.065-.055.065-.055.06-.06.027-.03.03-.027-.006-.071-.01-.067-.016-.026-.014-.022-.03-.037-.017-.018-.016-.014-.036-.02-.04-.015-.02-.006-.02-.002h-.044l-.046.01-.057.02-.025.013-.022.018-.024.018-.02.022-.017.023-.014.03-.046.073-.051-.071-.051-.07-.042-.05-.041-.046-.014.028-.016.027-.02.028-.022.031-.025.03-.028.032-.03.031-.031.034-.038.032-.035.03-.04.027-.02.012h-.003l-.002.002-.004.004-.008.008-.012.003h-.004l-.002.002-.004.004-.02.012-.012.004h-.004l-.002.002-.004.004-.02.012-.043.02-.021.008-.02.01-.087.03-.085.033-.083.04-.08.045-.076.047-.073.053-.036.028-.031.032-.062.067-.069.073-.069.077-.065.063-.061.067-.12.143-.066.067-.067.065-.036.03-.033.031-.072.058-.069.053-.063.061-.061.061L8.104 9l-.111.132-.1.138-.058.075-.06.075-.06.072-.064.073-.061.065-.057.069-.054.07-.05.072-.029.036-.016.018-.013.02-.032.033-.032.033-.035.03-.036.032-.037.027-.036.028-.085.055-.043.026-.042.028-.055.03-.053.037-.052.041-.047.046-.036.027h-.004l-.002.002-.004.004-.008.008-.015.016-.036.026-.034.027-.02.01-.017.012-.036.024-.04.022-.019.01-.018.011-.085.04-.08.043-.159.093-.043.024-.022.012-.02.014-.083.047-.087.045-.086.044-.091.033-.09.036-.181.065-.176.06-.174.067-.087.031-.087.034-.023.006-.022.008-.043.016-.087.03-.085.025-.083.031-.083.034-.083.042.027-.04.032-.036.07-.065.035-.031.04-.028.084-.051.077-.044.083-.031.085-.024.089-.014.01-.004.012-.002.023-.004.048-.008.045-.012.048-.01.043-.015.022-.008.024-.006.043-.018.046-.016.086-.041.042-.024.043-.022.083-.05.04-.025.041-.023.149-.101.154-.095.079-.05.037-.027.04-.026.075-.055.035-.03.038-.027.142-.12.073-.058.077-.054.149-.104.15-.107.298-.221.018-.016.02-.014.039-.027.075-.058.036-.031.017-.016.02-.014.036-.032.018-.015.02-.014.033-.036.032-.033.027-.038.026-.036.022-.039.02-.04.015-.041.016-.04.03-.088.02-.044.023-.04.024-.04.027-.038.066-.074.124-.138.061-.071.03-.036.032-.033.112-.132.119-.125.057-.061.065-.056.067-.049.073-.043.166-.101.083-.05.085-.045.08-.047.039-.024.02-.012.004-.004.002-.002h.004l.011-.004.162-.093.04-.027.041-.028.018-.016.02-.014.04-.027.035-.034.038-.031.035-.036.008-.01.01-.008.02-.016.063-.075.057-.069.052-.069.045-.063.012-.03.008-.026.002-.025-.002-.024.02-.041.021-.04.036-.079.008-.028.006-.025.004-.024.002-.022-.002-.023-.002-.02-.012-.038-.024-.033-.032-.03-.043-.026-.024-.01-.025-.007-.058-.02-.05-.02-.092-.037-.055.055-.016.012-.008.006-.006.008-.032.027-.035.024-.02.012H9.43l-.002.002-.004.004-.008.008-.079.047-.172.087-.166.087-.08.045-.038.024-.034.028-.06.057-.029.03-.023.033.023-.033.028-.03.061-.057.034-.028.037-.024.081-.045.166-.087.172-.087.08-.047.007-.008.004-.004.002-.002h.004l.02-.012.035-.024.032-.027.006-.008.008-.006.016-.012.055-.055-.051-.02-.042-.036-.04-.025-.037-.02-.035-.008-.026-.006-.022-.004-.037-.014-.018-.01-.014-.008-.024-.02-.09-.005h-.09l-.09.006-.087.01-.091.013-.087.02-.091.024-.087.03-.085.031-.08.038-.082.037-.077.044-.079.043-.075.05z"/><path fill-rule="evenodd" clip-rule="evenodd" fill="#df777b" d="M7.817 9.002l-.024.04-.02.043-.03.088-.015.04-.016.041-.02.04-.021.04-.026.035-.027.038-.032.033-.034.036-.02.014-.017.015-.036.032-.02.014-.017.016-.036.031-.075.058-.04.027-.02.014-.017.016-.298.221-.15.107-.149.104-.077.054-.073.057-.142.12-.038.028-.035.03-.075.055-.04.026-.037.028-.08.049-.153.095-.149.1-.041.024-.04.026-.083.05-.043.021-.042.024-.086.041-.046.016-.043.018-.024.006-.022.008-.043.015-.048.01-.045.012-.048.008-.023.004-.012.002-.01.004-.089.014-.085.024-.083.031-.077.044-.085.051-.04.028-.035.031-.069.065-.032.036-.027.04.083-.042.083-.034.083-.031.085-.026.087-.03.043-.015.022-.008.023-.006.087-.034.087-.031.174-.067.176-.06.182-.065.089-.036.09-.033.087-.044.087-.045.083-.047.02-.014.022-.012.043-.024.158-.093.081-.043.085-.04.018-.012.02-.01.04-.021.035-.024.018-.012.02-.01.033-.027.036-.026.015-.016.008-.008.004-.004.002-.002h.004l.036-.027.047-.046.052-.041.053-.038.055-.03.042-.027.043-.026.085-.055.036-.028.037-.027.036-.032.035-.03.032-.033.032-.034.013-.02.016-.017.03-.036.05-.073.053-.069.057-.07.061-.064.063-.073.062-.072.059-.075.057-.075.1-.138L8.105 9l.057-.068.061-.06.063-.062.07-.053.07-.058.034-.031.036-.03.067-.065.065-.067.12-.143.062-.067.065-.063.07-.077.068-.073.062-.067.031-.032.036-.028.073-.053.077-.047.079-.046.083-.04.085-.033.087-.03.02-.01.021-.007.044-.02.02-.012.003-.004.002-.002h.004l.012-.004.02-.012.004-.004.002-.002h.004l.012-.003.008-.008.004-.004.002-.002h.003l.02-.012.04-.028.035-.03.038-.031.031-.034.03-.031.028-.032.025-.03.022-.031.02-.028.016-.027.014-.028-.06-.053-.061-.046-.067-.041-.036-.02-.033-.016.002.024-.002.025-.008.026-.012.03-.045.063-.052.07-.057.068-.063.075-.02.016-.01.008-.008.01-.035.036-.038.031-.036.034-.04.027-.019.014-.018.016-.041.028-.04.027-.162.093-.011.004h-.004l-.002.002-.004.004-.02.012-.04.024-.079.047-.085.045-.083.05-.166.1-.073.044-.067.05-.065.055-.057.061-.119.125-.112.132-.032.033-.03.036-.06.071-.125.138-.066.074-.027.037z"/><path fill-rule="evenodd" clip-rule="evenodd" fill="#275b15" d="M10.76 7.338l.019.018.03.037.013.022.016.026.01.067.006.071v.103l-.004.053-.006.055-.022.127-.014.13-.012.113.048.032.051.031.065.034.07.031.04.018.044.022.085.05.077.053.038.03.04.033.001-.012.004-.01.008-.024.004-.025.008-.03.012-.089.01-.087v-.041l.002-.004.004-.044.002-.087v-.077l-.07.004-.031.006-.028.01-.03.006-.025.006-.024.002h-.021l-.022-.004-.018-.004-.018-.008-.014-.01-.013-.014-.012-.015-.01-.018-.006-.02-.008-.024-.004-.023-.002-.028.002-.03-.002-.049-.004-.045-.008-.046-.01-.043-.013-.044-.014-.04-.018-.039-.02-.037-.023-.04-.024-.035-.028-.034-.028-.03-.031-.031-.032-.026-.035-.026-.034-.021-.041-.022-.04-.018-.041-.014-.04-.008-.045-.006h-.044l-.045.002-.044.01-.031.002-.028.002h-.05l-.023-.004-.02-.006-.018-.008-.013-.007-.016-.014-.012-.014-.018-.032-.008-.02-.004-.021-.002-.024.002-.024-.002-.051-.006-.05-.008-.047-.01-.043-.015-.046-.018-.041-.022-.04-.021-.037-.03-.04-.028-.033-.03-.034-.029-.028-.034-.027-.033-.024-.036-.022-.033-.017-.09-.006H9.26l.024.02.014.007.018.01.037.014.022.004.026.006.035.008.038.02.04.025.04.036.052.02.093.037.05.02.057.02.025.007.024.01.043.026.032.03.024.033.012.038.002.02.002.023-.002.022-.004.024-.006.025-.008.028-.036.08-.022.039-.02.041.034.016.036.02.067.041.061.046.06.053.041.045.042.052.05.069.052.071.046-.073.014-.03.017-.023.02-.022.024-.018.022-.018.025-.014.057-.02.046-.01h.043l.02.003.022.006.04.015.035.02z"/><path fill-rule="evenodd" clip-rule="evenodd" fill="#95001b" d="M9.552 9.584l-.03.036-.016.018-.014.02-.017.015-.016.018-.032.036-.069.067-.02.014-.017.015-.036.032-.071.06-.075.057-.075.055-.071.047-.068.052-.067.051-.061.055-.075.06-.038.027-.035.03-.04.026-.037.027-.077.052-.152.096-.074.052-.069.057-.272.221-.075.056-.02.012h-.004l-.002.002-.004.004-.008.007-.035.028-.15.103-.157.1-.075.054-.07.061-.04.028-.038.027-.04.024-.02.012h-.003l-.002.002-.004.004-.008.008-.012.004h-.004l-.002.002-.004.004-.02.012-.039.021-.079.038-.087.033-.087.03-.087.028-.043.012-.012.002-.01.004-.02.007-.047.01-.046.012-.094.02h-.014l-.012.002-.024.004-.047.008-.1.014 2.056-.022.134-.016.026-.016.031-.018.034-.021.037-.022.075-.053.076-.056.075-.06.077-.062.144-.129.15-.122.14-.12.146-.123.072-.065.069-.067.067-.07.067-.07.123-.145.128-.138.13-.14.133-.137.126-.142.061-.071.064-.07.128-.146.134-.142.062-.07.059-.072.055-.073.056-.073.051-.081.051-.08.05-.082.023-.042.026-.04.042-.082.007-.022.01-.02.02-.04.03-.082.025-.083-.04-.034-.037-.03-.077-.053-.085-.05-.043-.02-.042-.019-.069-.031-.065-.034-.05.057-.055.064-.06.065-.066.069-.128.132-.125.14-.032.032-.015.016-.008.008-.004.004-.002.002v.004l-.063.063h-.004l-.002.002-.004.004-.008.008-.016.016-.032.031-.067.06-.069.055-.067.057-.071.056-.036.027h-.004l-.002.002-.004.004-.008.008-.015.016-.08.061-.069.067-.065.073-.055.081-.016.018-.014.02zM10.154 8.638l.042-.028.043-.027.042-.032.043-.031.16-.139.075-.073.071-.069.032-.036.03-.031.055-.063.03-.038.015-.014.016-.01.014-.13.022-.127.006-.055.004-.053v-.103l-.03.028-.028.03-.059.059-.065.055-.065.055-.073.058-.036.03-.032.033-.06.069-.056.077-.057.075-.058.075-.031.036-.016.018-.014.02-.061.074-.063.071-.06.078-.059.077-.053.083-.032.041-.026.043-.023.042-.018.043.033-.007.042-.012.041-.024.024-.014.024-.016.1-.073zM4.757 12.72l.106.002.103.002.105.006.099.006.1.01.1.01.1.013.095.014.097.018.094.018.095.021-.25-.108-.125-.056-.12-.055-.123-.06-.119-.057-.235-.116-.093.024-.089.031-.088.04-.085.047-.156.1-.153.117.11-.011.11-.006.108-.006.11-.002z"/><path stroke-miterlimit="10" stroke="#030904" stroke-linecap="square" fill="none" d="M9.605 6.572l.093.037.05.02.057.02.025.007.024.01.043.026.032.03.024.033.012.038.002.02.002.023-.002.022-.004.024-.006.025-.008.028-.036.08-.022.039-.02.041.034.016.036.02.067.041.061.046.06.053.041.045.042.052.05.069.052.071.046-.073.014-.03.017-.023.02-.022.024-.018.022-.018.025-.014.057-.02.046-.01h.043l.02.003.022.006.04.015.035.02.016.014.018.018.03.037.013.022.016.026.01.067.006.071v.103l-.004.053-.006.055-.022.127-.014.13-.012.113.048.032.051.031.065.034.07.031.04.018.044.022.085.05.077.053.038.03.04.033M15.955 10.412l.035-.002.042.008.051.014.034.01.035.014.067.031.064.036.063.043.032.024.033.028.063.059.06.063.059.07.109.142.106.146.03.037.033.038.034.03.04.03.037.02.044.023.043.017.047.014.09.018.092.014.093.006.097.004.191-.004.095-.002h.097l.046-.004.047-.004.022-.004.023-.002.048-.006.09-.02.092-.022.173-.06.174-.068.085-.04.042-.02.043-.017.04-.022.041-.02.083-.041.08-.05.078-.05.075-.058.038-.032.04-.03.033-.029.04-.022.04-.017.048-.012.046-.008.051-.002.053.002.06.01.006.043.004.044-.002.043-.002.004V10.847l-.002.024-.006.015-.004.018-.014.036-.01.015-.008.018-.02.036-.055.073-.03.035-.027.038-.061.071-.064.07-.035.03-.034.033-.037.027-.036.03-.04.024-.039.025-.012.004h-.004l-.002.002-.004.004-.02.012-.039.022-.095.033-.09.034-.095.03-.091.025-.186.05-.184.053-.09.022-.092.017-.047.006-.024.002-.021.004-.091.01-.095.01-.091.02-.089.027-.085.036-.33.144-.085.04-.08.05-.078.054-.07.068-.036.031-.032.036-.057.075-.054.079-.023.041-.02.046-.024.041-.022.044-.047.083-.053.079-.028.037-.026.04-.059.069-.057.071-.12.142-.032.032-.016.014-.014.016-.032.027-.031.026-.036.022-.033.02-.02.007-.01.004-.008.006-.035.016M15.955 10.412l-.056-.069-.063-.063-.035-.032-.038-.03-.079-.055-.09-.055-.1-.05-.053-.023-.055-.024-.115-.041-.122-.04-.12-.031-.111-.026-.056-.012-.053-.008-.11-.014-.107-.01-.111-.006h-.11l-.111.004-.107.01-.11.012-.111.018-.111.022-.11.03-.058.013-.055.018-.11.037-.111.042-.111.05-.23.1-.227.103-.23.099-.23.098-.233.095-.231.095-.233.093-.06.022-.057.023-.114.048-.47.176-.238.085-.118.041-.117.043-.12.04-.119.041-.237.081-.24.078-.24.079-.136.025-.135.026-.132.022-.13.017-.133.014-.128.01-.129.006-.126.002" stroke-width=".03951"/><path stroke-miterlimit="10" stroke="#030904" stroke-linecap="square" fill="none" d="M15.97 13.348l.016-.018.016-.022.008-.023.008-.022.012-.043.002-.024.004-.022.004-.043-.004-.048-.008-.043-.014-.048-.01-.023-.008-.022-.016-.028-.013-.023-.036-.042-.043-.037-.052-.03-.053-.022-.054-.014-.021-.008-.016-.007-.016-.012-.01-.012-.021-.034-.014-.031-.01-.03-.002-.028.002-.027.012-.026.015-.026.024-.021.034-.04.006-.012.008-.01.013-.02.01-.023.004-.012v-.006h.002l.004-.004.016-.047.008-.054.002-.047-.006-.045-.01-.042-.02-.041-.023-.036-.032-.034-.038-.03-.013-.011-.01-.01-.018-.02-.014-.021-.01-.02-.006-.016-.002-.014-.002-.028.004-.031.01-.03.008-.03.01-.027.018-.055.01-.068.01-.067.003-.07.002-.072-.035-.016-.018-.008-.016-.006-.069-.031-.02-.01-.017-.008-.036-.016-.075-.035-.028-.016-.021-.014-.022-.016-.016-.014-.016-.017-.012-.016-.013-.036-.006-.04.002-.021.006-.02.017-.043.014-.024.018-.022.026-.031.03-.024.033-.016.04-.006.031-.006.032-.006.03-.007.005-.004.008-.002.016-.004.012-.008.006-.004.008-.002.011-.008.006-.004.008-.002.022-.016.024-.018.02-.023.003-.008.002-.004.004-.002.012-.012.018-.028.02-.027.043-.081.055-.073.03-.036.036-.032.077-.06" stroke-width=".03951"/><path stroke-miterlimit="10" stroke="#030904" stroke-linecap="square" fill="none" d="M5.851 12.84l.18.071.184.07.184.067.185.065.186.061.188.06.187.055.19.053.19.047.191.046.192.043.196.042.193.037.196.034.197.032.2.03.389.047.194.023.096.012.1.014.386.045.388.048.322.035.324.036.16.016.162.018.16.015.162.018.087.006.089.008.171.012.083.004h.02l.022.002.043.004.168.008.16.004h.077l.08.002h.304l.07-.004.036-.002h.038l.14-.008.067-.006.07-.004.031-.004.016-.002h.018l.067-.004.126-.016.125-.016.12-.02.117-.02.122-.027.123-.027.06-.016.029-.008.031-.006.123-.028.116-.031.119-.032.028-.01.03-.008.059-.016.027-.01.03-.007.06-.016.054-.02.028-.01.03-.008.055-.02.028-.01.03-.007.11-.04.11-.037.107-.044.026-.012.028-.01.055-.02.105-.043.106-.043h.034l.014-.004.016-.006M5.851 12.84l-.095-.021-.094-.018-.097-.018-.095-.014-.1-.014-.1-.01-.1-.01-.1-.005-.104-.006-.103-.002-.106-.002-.105.002-.109.002-.108.006-.11.006-.11.011-.158.014-.16.02-.162.022-.164.03-.168.029-.167.038-.17.037-.172.045-.032.008-.016.004-.014.006-.059.02-.124.036-.065.015-.064.018-.065.016-.063.018-.036.006-.033.008-.067.015-.036.006-.034.008-.067.016-.07.012-.036.006-.034.008-.142.025-.075.01-.073.012-.15.02-.155.018-.079.008-.04.004-.019.001-.018.004-.162.014-.083.006-.08.008-.086.004-.083.006-.17.01-.017-.012-.014-.01-.02-.024-.008-.013-.004-.012-.004-.014v-.028l.004-.014.012-.031.008-.018.012-.016.014-.018.017-.015.08-.1.084-.094.085-.093.093-.09.192-.18.1-.087.105-.085.105-.085.113-.083.23-.16.12-.08.124-.074.124-.076.133-.07.175-.092.178-.088.174-.091.174-.09.34-.185.168-.095.083-.047.041-.024.044-.022.324-.193.16-.099.079-.05.08-.047.078-.051.079-.05.156-.098.304-.202.04-.035.02-.018.021-.016.081-.067.038-.036.04-.033.078-.067.15-.139.071-.07.072-.07.067-.073.067-.071.126-.146.06-.076.013-.02.016-.017.032-.036.114-.15.149-.227.158-.221.162-.222.17-.215.173-.215.184-.212.188-.209.197-.204.062-.08.065-.076.065-.073.07-.067.066-.067.072-.061.144-.117.148-.105.075-.049.079-.043.077-.044.081-.037.081-.038.085-.032.087-.03.09-.023.088-.02.09-.014.088-.01.09-.005h.09l.09.006M11.353 8.494l.002-.012.004-.01.008-.024.004-.025.008-.03.012-.089.01-.087v-.041l.002-.004.004-.044.002-.087v-.077l-.004-.15-.002-.075v-.073l-.004-.095-.006-.09-.01-.094-.01-.09-.01-.075-.006-.072-.002-.07.002-.072.006-.093.014-.03.022-.029.026-.038.03-.037.106-.144.12-.139.062-.065.031-.031.036-.028.07-.053.038-.026.042-.022.168-.093.176-.087.079-.041.08-.038.165-.065.083-.027.089-.022.089-.016.094-.008.093-.006h.099l.099.006.104.012.101.014.097.022.093.021.09.03.179.065.088.038.091.041.04.016.041.016.04.014.02.005.021.008.08.02.078.018.016-.008.016-.006.014-.008.016-.006.023-.016.01-.007.012-.006v-.004l.002-.002.004-.004.008-.008.014-.016.006-.02V6.1l.002-.004.004-.008-.002-.011v-.01l-.006-.02-.01-.024-.006-.012-.004-.005L14.554 6l-.006-.008-.004-.006-.01-.012-.021-.024-.026-.027-.016-.014-.014-.012-.055-.032-.026-.016-.024-.013-.049-.028-.051-.032-.026-.015-.024-.014-.085-.046-.087-.041-.088-.038-.091-.03-.093-.03-.091-.025-.093-.023-.093-.018-.099-.018-.094-.014-.095-.008-.093-.002-.097.002-.097.006-.1.01-.101.018-.101.018-.095.023-.09.024-.086.028-.043.012-.042.015-.083.036-.083.04-.083.047-.148.087-.144.097-.134.102-.133.115-.04.03-.037.031-.04.03-.037.031-.079.06-.077.059-.07.047-.072.046-.075.041-.075.042-.06-.018-.033-.006-.036-.004-.089-.016-.086-.014-.09-.015-.088-.016-.182-.03-.178-.016-.201-.01-.09-.005H9.26" stroke-width=".03951"/><path stroke-miterlimit="10" stroke="#030904" stroke-linecap="square" fill="none" d="M9.26 6.402l.023.02.014.007.018.01.037.014.022.004.026.006.035.008.038.02.04.025.04.036.052.02M8.734 7.168l.023-.033.028-.03.061-.057.034-.028.037-.024.081-.045.166-.087.172-.087.08-.047.007-.008.004-.004.002-.002h.004l.02-.012.035-.024.032-.027.006-.008.008-.006.016-.012.055-.055M8.473 11.641l.026-.016.031-.018.034-.021.037-.022.075-.053.076-.056.075-.06.077-.062.144-.129.15-.122.14-.12.146-.123.072-.065.069-.067.067-.07.067-.07.123-.145.128-.138.13-.14.133-.137.126-.142.061-.071.064-.07.128-.146.134-.142.062-.07.059-.072.055-.073.056-.073.051-.081.051-.08.05-.082.023-.042.026-.04.042-.082.007-.022.01-.02.02-.04.03-.082.025-.083M5.851 12.84l-.25-.108-.125-.056-.12-.055-.123-.06-.119-.057-.235-.116-.193-.103-.188-.105-.188-.106-.181-.109-.03-.036-.024-.031-.02-.03-.013-.025-.01-.026-.006-.022-.002-.022.006-.015.006-.018.013-.012.018-.012.024-.008.026-.008.031-.002.036-.002.041.002 2.059-.02 2.055-.021M8.473 11.641l-.02.008-.016.008H8.34M8.473 11.641l-.134.016" stroke-width=".03951"/></svg>