<svg xmlns="http://www.w3.org/2000/svg" xmlns:xlink="http://www.w3.org/1999/xlink" width="20" height="20"><defs><linearGradient id="b"><stop stop-color="#ccff5a" offset="0"/><stop stop-color="#82ae1f" offset="1"/></linearGradient><linearGradient id="a"><stop stop-color="#fffeb8" offset="0"/><stop stop-color="#c2dc7c" offset="1"/></linearGradient><linearGradient id="c"><stop stop-color="#ad0659" offset="0"/><stop stop-color="#813030" offset="1"/></linearGradient><linearGradient id="i" x1="208.93" x2="348.77" gradientUnits="userSpaceOnUse"><stop stop-color="#760022" offset="0"/><stop stop-color="#fff75c" stop-opacity="0" offset="1"/></linearGradient><linearGradient id="e" x1="122.56" x2="139.1" y1="118.92" y2="117.93" gradientUnits="userSpaceOnUse" xlink:href="#a"/><linearGradient id="f" x1="90.412" x2="128.81" y1="106.89" y2="149.22" gradientUnits="userSpaceOnUse" xlink:href="#a"/><linearGradient id="g" x1="103.44" x2="120.64" y1="107.67" y2="103.21" gradientUnits="userSpaceOnUse" xlink:href="#b"/><linearGradient id="k" x1="150.54" x2="153.13" y1="126.51" y2="142.54" gradientUnits="userSpaceOnUse" xlink:href="#c"/><radialGradient id="d" cx="197.04" cy="299.8" r="70.245" gradientTransform="matrix(2.1876 -.02227 .0092 .90361 -243.23 5.757)" gradientUnits="userSpaceOnUse"><stop stop-color="#d4b0b9" offset="0"/><stop stop-color="#fff" stop-opacity="0" offset="1"/></radialGradient><radialGradient id="l" cx="133.8" cy="184.45" r="68.02" gradientTransform="matrix(.52123 .19955 -.23373 .61053 109.59 44.592)" gradientUnits="userSpaceOnUse"><stop stop-color="#fba7dd" stop-opacity=".804" offset="0"/><stop stop-color="#e80096" stop-opacity="0" offset="1"/></radialGradient><radialGradient id="m" cx="193.81" cy="202.21" r="68.02" gradientTransform="matrix(.80973 -.15975 .16657 .84429 1.698 60.389)" gradientUnits="userSpaceOnUse"><stop stop-color="#a50038" offset="0"/><stop stop-color="#be003b" stop-opacity=".541" offset=".43"/><stop stop-color="#f5799a" stop-opacity="0" offset="1"/></radialGradient><radialGradient id="h" cx="101.98" cy="123.4" r="43.775" gradientTransform="matrix(1.33 .72673 -.46295 .84726 26.322 -49.89)" gradientUnits="userSpaceOnUse" xlink:href="#b"/><radialGradient id="j" cx="186.89" cy="192.07" r="68.02" gradientTransform="matrix(1.2183 -.06849 .06899 1.2272 -51.928 -33.661)" gradientUnits="userSpaceOnUse" xlink:href="#c"/></defs><g fill-rule="evenodd"><path d="M171.44 266.86c-3.121 5.072 27.892 9.416 60.198 9.171 3.329-.025 6.76 14.182 10.057 13.973 1.144-.072 7.12 4.653 5.367.485-1.872-4.451-7.995-18.865-3.016-17.554 3.866 1.017 45.408-6.31 54.164-16.77 17.819-21.288 11.746-32.13-15.846-37.635-33.403-6.664-59.981 3.618-87.154 8.715-21.582 13.205-27.508 26.41-23.769 39.616z" fill="url(#d)" transform="translate(-2.837 -2.907) scale(.06516)"/><path d="M128.5 151.45L99.581 73.803c2.74-2.974 4.5-7.054 12.281-4.358 14.476 24.361 23.594 49.488 33.673 74.477" fill="url(#e)" transform="translate(-2.837 -2.907) scale(.06516)"/><path d="M127.17 156.26L76.066 97.233l8.32-5.546 51.103 56.65" fill="url(#f)" transform="translate(-2.837 -2.907) scale(.06516)"/><path d="M125.98 157.45s-11.29-15.153-20.204-36.843c-8.914-21.69-15.45-49.916-15.45-49.916 2.28-2.486 2.49-6.351 10.3-5.15 6.762 20.876 12.826 42.567 23.373 59.027l21.392 17.035" fill="url(#g)" transform="translate(-2.837 -2.907) scale(.06516)"/><path d="M120.83 159.43l-.396-7.13s-14.56-7.528-31.692-20.6c-17.133-13.074-36.843-31.693-36.843-31.693 1-3.441 2.108-6.817 6.338-8.32 0 0 23.274 21.195 43.577 34.467 20.303 13.272 37.635 18.619 37.635 18.619" fill="url(#h)" transform="translate(-2.837 -2.907) scale(.06516)"/><path d="M208.93 259.45c22.806 31.043 37.892 32.748 55.066 42.389 21.463 9.138 41.93 12.303 62.196 14.262l7.527 1.188 7.923-5.15 7.13.397-7.297-3.79-8.486 5.432-32.943-5.604-31.692-9.112s-5.645-2.575-11.885-5.942-15.091-7.199-23.373-18.223c-6.199-8.25-8.32-26.146-8.32-26.146" fill="url(#i)" transform="translate(-2.837 -2.907) scale(.06516)"/><path d="M116.07 162.99c10.399-12.539 21.606-24.592 42.389-30.9 44.067-5.246 58.344 14.162 72.497 33.673 7.348 17.735 14.329 35.504 10.3 54.273-.631 14.095-9.702 25.377-22.977 35.258 0 0-20.897 10.795-34.069 13.865-13.172 3.07-18.619-1.585-18.619-1.585-13.271-8.417-27.143-14.733-38.427-30.108-15.718-19.33-31.461-38.65-11.092-74.477z" fill="url(#j)" transform="translate(-2.837 -2.907) scale(.06516)"/><path d="M141.82 143.58l5.15-18.223 5.15-1.585c-2.435 8.363 1.151 12.21 7.13 14.262" fill="url(#k)" transform="translate(-2.837 -2.907) scale(.06516)"/><path d="M116.28 164.27c10.399-12.539 21.606-24.592 42.389-30.9 44.067-5.246 58.344 14.162 72.497 33.673 7.348 17.735 14.329 35.504 10.3 54.273-.631 14.095-9.702 25.377-22.977 35.258 0 0-20.897 10.795-34.069 13.865-13.172 3.07-18.619-1.585-18.619-1.585-13.271-8.417-27.143-14.733-38.427-30.108-15.718-19.33-31.461-38.65-11.092-74.477z" fill="url(#l)" transform="translate(-2.837 -2.907) scale(.06516)"/><path d="M113.33 162.43c10.399-12.539 21.606-24.592 42.389-30.9 44.067-5.246 58.344 14.162 72.497 33.673 7.348 17.735 14.329 35.504 10.3 54.273-.631 14.095-9.702 25.377-22.977 35.258 0 0-20.897 10.795-34.069 13.865-13.172 3.07-18.619-1.585-18.619-1.585-13.271-8.417-27.143-14.733-38.427-30.108-15.718-19.33-31.461-38.65-11.092-74.477z" fill="url(#m)" transform="translate(-2.837 -2.907) scale(.06516)"/></g></svg>