<svg xmlns="http://www.w3.org/2000/svg" xmlns:xlink="http://www.w3.org/1999/xlink" width="20" height="20"><defs><filter id="h" color-interpolation-filters="sRGB"><feGaussianBlur stdDeviation="1.167"/></filter><filter id="s" x="-.165" y="-.159" width="1.329" height="1.318" color-interpolation-filters="sRGB"><feGaussianBlur stdDeviation="2.025"/></filter><filter id="n" x="-.165" y="-.159" width="1.329" height="1.318" color-interpolation-filters="sRGB"><feGaussianBlur stdDeviation="2.025"/></filter><filter id="r" x="-.165" y="-.159" width="1.329" height="1.318" color-interpolation-filters="sRGB"><feGaussianBlur stdDeviation="2.025"/></filter><filter id="p" x="-.165" y="-.159" width="1.329" height="1.318" color-interpolation-filters="sRGB"><feGaussianBlur stdDeviation="2.025"/></filter><filter id="o" x="-.165" y="-.159" width="1.329" height="1.318" color-interpolation-filters="sRGB"><feGaussianBlur stdDeviation="2.025"/></filter><filter id="q" x="-.165" y="-.159" width="1.329" height="1.318" color-interpolation-filters="sRGB"><feGaussianBlur stdDeviation="2.025"/></filter><filter id="t" x="-.289" y="-.286" width="1.577" height="1.572" color-interpolation-filters="sRGB"><feGaussianBlur stdDeviation="3.605"/></filter><filter id="B" color-interpolation-filters="sRGB"><feGaussianBlur stdDeviation=".073"/></filter><filter id="x" x="-.162" y="-.11" width="1.325" height="1.219" color-interpolation-filters="sRGB"><feGaussianBlur stdDeviation="1.707"/></filter><filter id="g" x="-.109" y="-.124" width="1.217" height="1.248" color-interpolation-filters="sRGB"><feGaussianBlur stdDeviation="6.065"/></filter><filter id="z" x="-.162" y="-.11" width="1.325" height="1.219" color-interpolation-filters="sRGB"><feGaussianBlur stdDeviation="1.707"/></filter><filter id="M" x="-.652" y="-.596" width="2.304" height="2.193" color-interpolation-filters="sRGB"><feGaussianBlur stdDeviation="7.801"/></filter><filter id="f" x="-.125" y="-.181" width="1.25" height="1.363" color-interpolation-filters="sRGB"><feGaussianBlur stdDeviation="10.527"/></filter><filter id="y" x="-.162" y="-.11" width="1.325" height="1.219" color-interpolation-filters="sRGB"><feGaussianBlur stdDeviation="1.707"/></filter><filter id="u" x="-.289" y="-.286" width="1.577" height="1.572" color-interpolation-filters="sRGB"><feGaussianBlur stdDeviation="3.605"/></filter><filter id="w" color-interpolation-filters="sRGB"><feGaussianBlur stdDeviation="2.468"/></filter><filter id="F" x="-.094" y="-.129" width="1.188" height="1.258" color-interpolation-filters="sRGB"><feGaussianBlur stdDeviation=".711"/></filter><filter id="j" color-interpolation-filters="sRGB"><feGaussianBlur stdDeviation="1.068"/></filter><filter id="m" x="-.165" y="-.159" width="1.329" height="1.318" color-interpolation-filters="sRGB"><feGaussianBlur stdDeviation="2.025"/></filter><filter id="i" color-interpolation-filters="sRGB"><feGaussianBlur stdDeviation="1.171"/></filter><filter id="l" x="-.165" y="-.159" width="1.329" height="1.318" color-interpolation-filters="sRGB"><feGaussianBlur stdDeviation="2.025"/></filter><filter id="k" color-interpolation-filters="sRGB"><feGaussianBlur stdDeviation="1.171"/></filter><linearGradient id="K" x1="440.876" x2="453.591" y1="443.491" y2="470.267" xlink:href="#a" gradientTransform="scale(1.13305 .88257)" gradientUnits="userSpaceOnUse"/><linearGradient id="J" x1="247.903" x2="282.237" y1="742.636" y2="742.636" xlink:href="#b" gradientTransform="scale(1.74969 .57153)" gradientUnits="userSpaceOnUse"/><linearGradient id="I" x1="413.054" x2="436.227" y1="377.092" y2="470.446" gradientTransform="scale(1.08381 .92267)" gradientUnits="userSpaceOnUse"><stop stop-color="#244a22" offset="0"/><stop stop-color="#142f0f" stop-opacity=".937" offset="1"/></linearGradient><linearGradient id="H" x1="1200.424" x2="1264.911" y1="136.534" y2="172.102" gradientTransform="scale(.42733 2.34009)" gradientUnits="userSpaceOnUse"><stop stop-color="#244a22" offset="0"/><stop stop-color="#142f0f" stop-opacity=".937" offset="1"/></linearGradient><linearGradient id="L" x1="255.451" x2="296.612" y1="708.045" y2="708.045" gradientTransform="scale(1.66921 .59908)" gradientUnits="userSpaceOnUse"><stop stop-color="#244a22" offset="0"/><stop stop-color="#142f0f" stop-opacity=".937" offset="1"/></linearGradient><linearGradient id="v" x1="159.033" x2="159.033" y2="371.649" gradientTransform="scale(1.1951 .83675)" y1="139.901" gradientUnits="userSpaceOnUse"><stop stop-color="#e29239" offset="0"/><stop stop-color="#e29239" stop-opacity=".017" offset="1"/></linearGradient><linearGradient id="b"><stop stop-color="#244a22" offset="0"/><stop stop-color="#14190f" stop-opacity=".937" offset="1"/></linearGradient><linearGradient id="a"><stop stop-color="#9baf72" offset="0"/><stop stop-color="#224815" offset="1"/></linearGradient><linearGradient id="D" x1="1303.647" x2="1276.197" y1="142.519" y2="143.632" xlink:href="#a" gradientTransform="scale(.38857 2.57355)" gradientUnits="userSpaceOnUse"/><linearGradient id="d" x1="273.897" x2="304.375" y1="439.739" y2="244.064" gradientTransform="scale(1.01879 .98156)" gradientUnits="userSpaceOnUse"><stop stop-color="#830c1b" offset="0"/><stop stop-color="#bc2609" stop-opacity=".004" offset="1"/></linearGradient><linearGradient id="c" x2="192.164" y1="405.942" y2="351.901" gradientTransform="scale(1.01879 .98156)" x1="78.222" gradientUnits="userSpaceOnUse"><stop stop-color="#ddaddf" offset="0"/><stop stop-color="#bc2609" stop-opacity=".004" offset="1"/></linearGradient><linearGradient id="C" x1="786.901" x2="746.646" y1="263.006" y2="263.006" gradientTransform="scale(.65652 1.52318)" gradientUnits="userSpaceOnUse"><stop stop-color="#244a22" offset="0"/><stop stop-color="#5f9911" offset="1"/></linearGradient><linearGradient id="A" y2="254.907" xlink:href="#b" gradientTransform="scale(.6333 1.57902)" x1="749.265" y1="214.873" x2="800.02" gradientUnits="userSpaceOnUse"/><linearGradient id="e" x1="469.571" x2="375.025" y1="365.684" y2="328.897" gradientTransform="scale(1.01879 .98156)" gradientUnits="userSpaceOnUse"><stop stop-color="#ddaddf" offset="0"/><stop stop-color="#bc2609" stop-opacity=".004" offset="1"/></linearGradient><radialGradient id="E" cx="321.23" cy="469.5" r="9.241" gradientTransform="matrix(2.9198 -.3316 .27561 1.7724 -746.09 -256.13)" gradientUnits="userSpaceOnUse"><stop stop-color="#338000" offset="0"/><stop stop-color="#338000" stop-opacity="0" offset="1"/></radialGradient><radialGradient id="G" cx="321.23" cy="469.5" r="9.241" gradientTransform="matrix(3.9006 .54104 -.26254 1.8928 -808.48 -592.95)" gradientUnits="userSpaceOnUse"><stop stop-color="#9db174" offset="0"/><stop stop-color="#9db174" stop-opacity="0" offset="1"/></radialGradient></defs><path d="M8.141 2.779c2.324-.838 4.618-.303 6.608.921 1.364.987 2.29 1.982 2.924 4.045.366 1.614.535 3.38-.68 5.527-1.306 2.345-3.042 3.47-4.326 3.964-2.858.824-5.51.817-7.49-.64-1.96-1.444-2.903-3.32-3.163-5.086-.255-1.733.157-3.308 1.442-5.207C4.944 4.417 5.919 3.745 8.14 2.779z" fill="#bc2609"/><path d="M234.17 57.602c57.891-20.879 115.07-7.541 164.66 22.953 33.989 24.599 57.057 49.381 72.852 100.79 9.132 40.219 13.342 84.25-16.965 137.72-32.519 58.452-75.782 86.488-107.78 98.798-71.225 20.519-137.29 20.359-186.62-15.968-48.852-35.972-72.362-82.711-78.839-126.74-6.352-43.183 3.916-82.413 35.927-129.74 37.088-47.004 61.383-63.75 116.76-87.821z" fill="url(#c)" transform="translate(-1.256 .467) scale(.04013)"/><path d="M234.17 57.602c57.891-20.879 115.07-7.541 164.66 22.953 33.989 24.599 57.057 49.381 72.852 100.79 9.132 40.219 13.342 84.25-16.965 137.72-32.519 58.452-75.782 86.488-107.78 98.798-71.225 20.519-137.29 20.359-186.62-15.968-48.852-35.972-72.362-82.711-78.839-126.74-6.352-43.183 3.916-82.413 35.927-129.74 37.088-47.004 61.383-63.75 116.76-87.821z" fill="url(#d)" transform="translate(-1.256 .467) scale(.04013)"/><path d="M234.17 57.602c57.891-20.879 115.07-7.541 164.66 22.953 33.989 24.599 57.057 49.381 72.851 100.79 9.132 40.219 13.342 84.25-16.965 137.72-32.519 58.452-75.782 86.488-107.78 98.798-71.225 20.519-137.29 20.359-186.62-15.968-48.852-35.972-72.362-82.711-78.839-126.74-6.352-43.183 3.916-82.413 35.927-129.74 37.088-47.004 61.383-63.75 116.76-87.821z" fill="url(#e)" transform="translate(-1.256 .467) scale(.04013)"/><path d="M413.23 185.23c0 63.626-64.262 115.2-143.53 115.2-79.272 0-143.53-51.579-143.53-115.2 0-63.626 64.262-115.2 143.53-115.2 77.264 0 140.66 49.09 143.44 111.06" fill="#c3150e" filter="url(#f)" transform="translate(-1.256 .467) scale(.04013)"/><g transform="matrix(.05607 0 0 .05643 -3.717 -15.923)" filter="url(#g)" opacity=".927"><g fill="#fff"><g filter="url(#h)"><path d="M268.37 354.51c2.521 7.385-1.964 16.297-10.018 19.906-8.054 3.61-16.627.55-19.148-6.835-2.521-7.385 1.964-16.297 10.018-19.906 7.85-3.518 16.236-.708 18.974 6.359" filter="url(#i)" opacity=".931"/><path d="M219.29 434.11c2.28 5.548-1.777 12.244-9.063 14.956-7.286 2.712-15.04.413-17.322-5.136-2.28-5.548 1.777-12.244 9.063-14.956 7.101-2.643 14.688-.531 17.165 4.778" filter="url(#j)" opacity=".968"/><path d="M162.53 405.5c2.422 5.345-1.887 11.796-9.626 14.408-7.738 2.612-15.976.397-18.398-4.947-2.422-5.345 1.887-11.796 9.626-14.408 7.543-2.547 15.601-.512 18.231 4.602" filter="url(#k)" opacity=".931"/><path d="M162.28 386.39c1.897 4.394-1.478 9.698-7.54 11.846-6.06 2.148-12.512.327-14.41-4.068-1.897-4.394 1.479-9.697 7.54-11.846 5.908-2.093 12.219-.42 14.28 3.784" filter="url(#l)" opacity=".931"/><path d="M169.09 375.53c1.897 4.394-1.478 9.698-7.54 11.846-6.06 2.148-12.512.327-14.41-4.068-1.897-4.394 1.479-9.697 7.54-11.846 5.908-2.093 12.219-.42 14.28 3.784" filter="url(#m)" opacity=".931"/><path d="M178.68 365.43c1.678 3.54-1.307 7.811-6.668 9.541-5.361 1.73-11.067.264-12.745-3.276-1.678-3.54 1.307-7.811 6.668-9.541 5.225-1.687 10.807-.34 12.63 3.048" filter="url(#n)" opacity=".931"/><path d="M191.56 357.09c1.678 3.54-1.307 7.811-6.668 9.541-5.361 1.73-11.067.264-12.745-3.276-1.678-3.54 1.307-7.811 6.668-9.541 5.225-1.687 10.807-.34 12.63 3.048" filter="url(#o)" opacity=".931"/><path d="M204.7 347.5c1.678 3.54-1.307 7.811-6.668 9.541-5.361 1.73-11.067.264-12.745-3.276-1.678-3.54 1.307-7.811 6.668-9.541 5.225-1.687 10.807-.34 12.63 3.048" filter="url(#p)" opacity=".931"/><path d="M236.01 338.41c1.678 3.54-1.307 7.811-6.668 9.541-5.361 1.73-11.067.264-12.745-3.276-1.678-3.54 1.307-7.811 6.668-9.541 5.225-1.687 10.807-.34 12.63 3.048" filter="url(#q)" opacity=".931"/><path d="M246.13 428.47c-.691 3.856-5.604 5.597-10.972 3.89-5.368-1.708-9.16-6.218-8.468-10.073.691-3.856 5.604-5.598 10.972-3.89 5.232 1.664 8.992 6.005 8.507 9.82" filter="url(#r)" opacity=".931"/><path d="M257.95 408.84c1.228 2.663-2.223 4.992-7.707 5.203-5.484.211-10.925-1.776-12.153-4.439-1.228-2.663 2.223-4.992 7.707-5.203 5.345-.206 10.679 1.68 12.066 4.266" filter="url(#s)" opacity=".931"/></g><path d="M189.54 441.44c1.678 3.54-1.307 7.811-6.668 9.541-5.361 1.73-11.067.264-12.745-3.276-1.678-3.54 1.307-7.811 6.668-9.541 5.225-1.687 10.807-.34 12.63 3.048" filter="url(#t)" opacity=".931"/><path d="M164.29 431.34c1.678 3.54-1.307 7.811-6.668 9.541-5.361 1.73-11.067.264-12.745-3.276-1.678-3.54 1.307-7.811 6.668-9.541 5.225-1.687 10.807-.34 12.63 3.048" filter="url(#u)" opacity=".931"/></g></g><path d="M141.95 222.63l16.936-12.702 11.291-5.645 22.581-14.113 15.525-2.823 56.454-29.638 14.284-3.735-17.107-1.91 4.405-10.877 4.063-8.882-11.291-5.645h-4.234l-7.057 1.411-31.049 4.234-7.056 19.76-28.227 23.992-39.517 46.574z" fill="url(#v)" filter="url(#w)" transform="translate(-1.256 .467) scale(.04013)"/><g fill="#600000"><path d="M220.51 196.22c-14.356-4.562-47.702 17.395-71.582 28.706 18.808-14.197 38.689-37.961 61.823-43.208l9.759 14.502z" filter="url(#x)" opacity=".628" transform="translate(-1.256 .467) scale(.04013)"/><path d="M231.22 186.28c9.552 1.454 20.824 21.669 30.377 33.862-5.75-12.339-8.891-29.911-20.06-38.77l-10.317 4.908z" filter="url(#y)" opacity=".628" transform="translate(-1.256 .467) scale(.04013)"/><path d="M251.32 178.33c10.553-7.072 39.39 11.06 59.455 19.359-16.506-12.152-35.116-34.292-53.795-36.27l-5.66 16.911z" filter="url(#z)" opacity=".628" transform="translate(-1.256 .467) scale(.04013)"/></g><path d="M7.036 1.287c.175 1.497.484 3.411.69 4.104l.547.111c.173-1.109.454-2.241.778-3.124l.292-.502C8.99 3.381 8.65 4.88 8.742 6.162c.414-.614 1.118-1.905 1.562-2.816-.215.835-.955 2.277-1.282 2.976-.085.52.062.55 0 .92l-.28.321-.36.32-.521.201-.28-.04-.222-.054-.22-.026-.04-.16c-.027-.032-.16-.112-1.04 0l-1.082.44-1.121.56-.56.201-.321.12-.32.4-.04.361v-.44l.32-.48c.21-.126.057-.01 1.401-.842l1.322-.64c.369-.146.768-.25 1.161-.161-1.194-1.194-2.801-2.285-3.748-3.534 1.293 1.12 2.274 1.475 4.27 3.094L7.064 5.64c-.073-.628-.208-1.41-.205-2.563l.176-1.79z" fill="#3d6c38" stroke="#112b00" stroke-width=".016821"/><path d="M477.19 389.54l24.286 23.214 2.5-30-6.786-36.786 5.357 38.929-6.071-3.929-3.571.715 4.643 22.857-20.357-15z" fill="url(#A)" filter="url(#B)" transform="translate(-20.537 -15.72) scale(.05607)"/><path d="M500.76 421.32l-2.5-40.357 16.071-1.071 1.786 33.929-15.357 7.5z" fill="url(#C)" transform="translate(-20.537 -15.72) scale(.05607)"/><path d="M491.83 310.55c-.897 20.21-2.893 43.48 1.071 69.387 3.057.725 4.538.089 8.352 1.654-5.722-16.443-7.215-47.55-9.423-71.041z" fill="url(#D)" transform="translate(-20.537 -15.72) scale(.05607)"/><path d="M8.358 5.57c.02.187-.177.362-.441.39-.265.03-.496-.099-.517-.286-.021-.187.176-.362.44-.39.262-.029.492.096.517.28" fill="#9db174"/><path d="M8.302 5.565c.02.166-.16.322-.4.348-.24.025-.45-.09-.469-.256-.02-.167.16-.323.4-.348.237-.025.446.086.469.25" fill="#89945a"/><path d="M521.79 386.74c.335 2.326-2.079 4.577-5.39 5.028-3.313.451-6.27-1.069-6.605-3.395-.335-2.326 2.079-4.577 5.391-5.028 3.228-.44 6.136.994 6.578 3.244" fill="url(#E)" filter="url(#F)" transform="matrix(.053 0 0 .05188 -19.54 -14.501)"/><path d="M519.45 387.07c.213 1.234-1.337 2.426-3.46 2.663-2.125.237-4.02-.571-4.232-1.805-.213-1.234 1.336-2.426 3.46-2.663 1.935-.216 3.712.437 4.151 1.524" fill="url(#G)" transform="matrix(.053 0 0 .05188 -19.54 -14.501)"/><path d="M532.27 314.64c-7.119 33.565-22.721 73.095-9.929 92.663-4.185-7.564-7.407-16.028-6.95-27.933 4.95-27.935 11.007-45.468 16.879-64.731z" fill="url(#H)" transform="translate(-20.537 -15.72) scale(.05607)"/><path d="M428.09 354.89c25.933 24.274 46.265 31.211 70.276 59.827-6.814-2.227-5.635-5.39-17.532-14.821-4.645-3.253-40.054-31.37-52.743-45.005z" fill="url(#I)" transform="translate(-20.537 -15.72) scale(.05607)"/><path d="M433.97 434.18c20.976-8.498 44.393-21.871 59.643-18.929-5.76-.783-11.944-.98-19.752 1.072-17.631 6.618-28.171 12.147-39.891 17.857z" fill="url(#J)" transform="translate(-20.537 -15.72) scale(.05607)"/><path d="M547.9 345.43c-8.328 16.293-16.07 32.977-25.714 48.393-.561 3.61-.234 2.906-1.25 3.786l-.179 2.643 2.143 7.5-2.857-12.857-2.5-7.5-1.786-3.93-.714-6.785-1.428 6.429-.358 6.785-1.071 7.858-4.643 8.214-2.857 8.571-1.429 4.643c-.207-6.374-6.832-7.562-12.143-7.857l-3.571 1.429-.357 2.5-.357.714-6.429.357c-2.826-.35-10.11 1.974-16.25 4.464l-11.964 5.179-24.643 13.214 29.107-13.393 13.393-5.536c7.381-1.81 14.762-4.009 22.143-2.143l8.215 3.572 5-.715c6.726.24 10.704-5.019 15.713-8.214l.715-11.07 4.464-11.43c8.78-14.94 14.516-29.88 21.607-44.82z" fill="url(#K)" transform="translate(-20.537 -15.72) scale(.05607)"/><path d="M426.65 436.42c23.991-10.679 50.772-27.484 68.214-23.787-6.587-.984-13.66-1.23-22.59 1.346-20.165 8.318-32.22 15.265-45.624 22.44z" fill="url(#L)" transform="translate(-20.537 -15.72) scale(.05607)"/><path d="M347.32 223.49c5.25 14.973-4.09 33.044-20.858 40.363-16.769 7.319-34.618 1.113-39.867-13.86-5.25-14.973 4.09-33.044 20.858-40.363 16.344-7.133 33.805-1.434 39.506 12.894" fill="#fff" filter="url(#M)" opacity=".893" transform="translate(-1.256 .467) scale(.04013)"/></svg>