<svg xmlns="http://www.w3.org/2000/svg" width="500" height="50" viewBox="0 0 132.292 13.229"><g style="opacity:1"><path style="fill:#c9c9c9;fill-opacity:1;stroke:none;stroke-width:.264583px;stroke-linecap:butt;stroke-linejoin:miter;stroke-opacity:1" d="M0 8.731s5.602-3.64 11.431 1.885c0 0 6.145 4.203 17.526-.242 10.956-4.28 11.198-5.64 23.658-1.287 12.461 4.353 14.155-2.35 14.155-2.35S68.606.19 77.33 4.527c0 0 5.878 4.014 13.003 2.668 8.662-1.761 12.066 2.483 17.442.39 11.356-5.723 15.616 2.514 15.616 2.514 1.905 2.922 8.902-1.368 8.902-1.368V.794H0z"/><path style="fill:#007a41;fill-opacity:1;stroke:none;stroke-width:.264561px;stroke-linecap:butt;stroke-linejoin:miter;stroke-opacity:1" d="M0 7.937s6.03-2.904 11.656 2.281c0 0 5.211 4.35 16.59-.096 10.955-4.28 11.903-5.954 24.362-1.601 12.459 4.353 13.79-2.416 13.79-2.416s2.472-6.437 11.193-2.1c0 0 5.602 3.742 12.727 2.396 8.66-1.761 11.939 2.833 17.314.74 11.373-5.948 15.99 1.82 15.99 1.82 1.94 2.763 8.67-1.024 8.67-1.024L132.27 0H0z"/></g></svg>