<svg xmlns="http://www.w3.org/2000/svg" width="125" height="75" viewBox="0 0 33.073 19.844"><defs><linearGradient id="l" x1="112.5" x2="109.76" y1="147.59" y2="185.67" gradientUnits="userSpaceOnUse" gradientTransform="matrix(.07563 0 0 .09124 5.4 -8.396)"><stop stop-color="#009649" offset="0"/><stop stop-color="#099948" offset=".034"/><stop stop-color="#4CB040" offset=".295"/><stop stop-color="#81C13A" offset=".532"/><stop stop-color="#A7CE36" offset=".735"/><stop stop-color="#BED633" offset=".898"/><stop stop-color="#C7D932" offset="1"/></linearGradient><linearGradient id="x" x1="110.39" x2="108.58" y1="142.11" y2="167.32" gradientUnits="userSpaceOnUse" gradientTransform="matrix(.07563 0 0 .09124 5.4 -8.396)"><stop stop-color="#097F40" offset="0"/><stop stop-color="#008144" offset="1"/></linearGradient><linearGradient id="b" x1="74.115" x2="102.59" y1="144.64" y2="282.11" gradientUnits="userSpaceOnUse" gradientTransform="matrix(.07563 0 0 .09124 5.4 -8.396)"><stop stop-color="#CD392B" offset=".219"/><stop stop-color="#B3282E" offset=".82"/></linearGradient><linearGradient id="c" x1="77.064" x2="83.221" y1="146.67" y2="176.38" gradientUnits="userSpaceOnUse" gradientTransform="matrix(.07563 0 0 .09124 5.4 -8.396)"><stop stop-color="#B7252E" offset=".219"/><stop stop-color="#B3282E" offset=".82"/></linearGradient><linearGradient id="d" x1="125.22" x2="132.54" y1="129.84" y2="165.18" gradientUnits="userSpaceOnUse" gradientTransform="matrix(.07563 0 0 .09124 5.4 -8.396)"><stop stop-color="#CD392B" offset=".219"/><stop stop-color="#B3282E" offset=".82"/></linearGradient><linearGradient id="e" x1="122.76" x2="128.75" y1="131.79" y2="160.72" gradientUnits="userSpaceOnUse" gradientTransform="matrix(.07563 0 0 .09124 5.4 -8.396)"><stop stop-color="#B7252E" offset=".219"/><stop stop-color="#B3282E" offset=".82"/></linearGradient><linearGradient id="f" x1="152.26" x2="176.97" y1="143.65" y2="262.93" gradientUnits="userSpaceOnUse" gradientTransform="matrix(.07563 0 0 .09124 5.4 -8.396)"><stop stop-color="#E0352C" offset=".219"/><stop stop-color="#B3282E" offset=".82"/></linearGradient><linearGradient id="g" x1="148.31" x2="171.04" y1="151.53" y2="261.21" gradientUnits="userSpaceOnUse" gradientTransform="matrix(.07563 0 0 .09124 5.4 -8.396)"><stop stop-color="#B7252E" offset=".219"/><stop stop-color="#B3282E" offset=".82"/></linearGradient><linearGradient id="h" x1="69.939" x2="94.58" y1="161.97" y2="280.91" gradientUnits="userSpaceOnUse" gradientTransform="matrix(.07563 0 0 .09124 5.4 -8.396)"><stop stop-color="#EA2D2E" offset=".219"/><stop stop-color="#B3282E" offset=".82"/></linearGradient><linearGradient id="i" x1="76.05" x2="96.583" y1="178.61" y2="277.72" gradientUnits="userSpaceOnUse" gradientTransform="matrix(.07563 0 0 .09124 5.4 -8.396)"><stop stop-color="#B7252E" offset=".219"/><stop stop-color="#B3282E" offset=".82"/></linearGradient><linearGradient id="j" x1="115.71" x2="139.93" y1="172.65" y2="289.55" gradientUnits="userSpaceOnUse" gradientTransform="matrix(.07563 0 0 .09124 5.4 -8.396)"><stop stop-color="#EA2D2E" offset=".219"/><stop stop-color="#B3282E" offset=".899"/></linearGradient><linearGradient id="k" x1="112.84" x2="109.89" y1="147.43" y2="188.52" gradientUnits="userSpaceOnUse" gradientTransform="matrix(.07563 0 0 .09124 5.4 -8.396)"><stop stop-color="#009649" offset="0"/><stop stop-color="#058040" offset=".32"/><stop stop-color="#096936" offset=".738"/><stop stop-color="#0B6032" offset="1"/></linearGradient><linearGradient id="w" x1="91.295" x2="110.96" y1="147.25" y2="130.69" gradientUnits="userSpaceOnUse" gradientTransform="matrix(.07563 0 0 .09124 5.4 -8.396)"><stop stop-color="#fff" offset="0"/><stop stop-color="#F9FBE9" offset=".139"/><stop stop-color="#EAF0B1" offset=".429"/><stop stop-color="#D1E057" offset=".841"/><stop stop-color="#C7D932" offset="1"/></linearGradient><linearGradient id="m" x1="117.02" x2="84.775" y1="175.75" y2="141.6" gradientUnits="userSpaceOnUse" gradientTransform="matrix(.07563 0 0 .09124 5.4 -8.396)"><stop stop-color="#fff" offset="0"/><stop stop-color="#FEFEFB" offset=".135"/><stop stop-color="#FAFCEE" offset=".275"/><stop stop-color="#F5F8DA" offset=".417"/><stop stop-color="#EDF3BD" offset=".56"/><stop stop-color="#E3EC97" offset=".705"/><stop stop-color="#D6E36A" offset=".85"/><stop stop-color="#C8D934" offset=".994"/><stop stop-color="#C7D932" offset="1"/></linearGradient><linearGradient id="n" x1="113.05" x2="109.04" y1="171.13" y2="143.31" gradientUnits="userSpaceOnUse" gradientTransform="matrix(.07563 0 0 .09124 5.4 -8.396)"><stop stop-color="#007E41" offset="0"/><stop stop-color="#0D8541" offset=".172"/><stop stop-color="#2F9742" offset=".489"/><stop stop-color="#66B444" offset=".914"/><stop stop-color="#72BA44" offset="1"/></linearGradient><linearGradient id="o" x1="112.6" x2="110.06" y1="169.29" y2="151.69" gradientUnits="userSpaceOnUse" gradientTransform="matrix(.07563 0 0 .09124 5.4 -8.396)"><stop stop-color="#fff" offset=".011"/><stop stop-color="#CFE7BF" offset=".271"/><stop stop-color="#A7D48A" offset=".516"/><stop stop-color="#8AC664" offset=".726"/><stop stop-color="#78BD4D" offset=".895"/><stop stop-color="#72BA44" offset="1"/></linearGradient><linearGradient id="p" x1="100.77" x2="97.851" y1="130.2" y2="170.83" gradientUnits="userSpaceOnUse" gradientTransform="matrix(.07563 0 0 .09124 5.4 -8.396)"><stop stop-color="#009649" offset="0"/><stop stop-color="#099948" offset=".034"/><stop stop-color="#4CB040" offset=".295"/><stop stop-color="#81C13A" offset=".532"/><stop stop-color="#A7CE36" offset=".735"/><stop stop-color="#BED633" offset=".898"/><stop stop-color="#C7D932" offset="1"/></linearGradient><linearGradient id="q" x1="111.07" x2="106.53" y1="163.47" y2="132.02" gradientUnits="userSpaceOnUse" gradientTransform="matrix(.07563 0 0 .09124 5.4 -8.396)"><stop stop-color="#007E41" offset="0"/><stop stop-color="#0D8541" offset=".172"/><stop stop-color="#2F9742" offset=".489"/><stop stop-color="#66B444" offset=".914"/><stop stop-color="#72BA44" offset="1"/></linearGradient><linearGradient id="r" x1="89.406" x2="87.797" y1="140.24" y2="162.63" gradientTransform="matrix(.07452 -.0007 -.00058 .09087 5.711 -8.187)" gradientUnits="userSpaceOnUse"><stop stop-color="#F8E47E" offset="0"/><stop stop-color="#8AB44C" offset=".839"/><stop stop-color="#74AA42" offset="1"/></linearGradient><linearGradient id="s" x1="93.16" x2="92.085" y1="145.82" y2="160.77" gradientUnits="userSpaceOnUse" gradientTransform="matrix(.07563 0 0 .09124 5.4 -8.396)"><stop stop-color="#F8E47E" offset="0"/><stop stop-color="#FEFBEC" offset=".858"/><stop stop-color="#fff" offset="1"/></linearGradient><linearGradient id="t" x1="132.02" x2="142.02" y1="168.96" y2="217.2" gradientUnits="userSpaceOnUse" gradientTransform="matrix(.07563 0 0 .09124 5.4 -8.396)"><stop stop-color="#EA2D2E" offset=".219"/><stop stop-color="#B3282E" offset=".899"/></linearGradient><linearGradient id="u" x1="101.49" x2="141.79" y1="180.03" y2="223.46" gradientUnits="userSpaceOnUse" gradientTransform="matrix(.07563 0 0 .09124 5.4 -8.396)"><stop stop-color="#fff" offset="0"/><stop stop-color="#FEF6F5" offset=".137"/><stop stop-color="#FBDED9" offset=".372"/><stop stop-color="#F6B7AD" offset=".676"/><stop stop-color="#F08978" offset=".989"/></linearGradient><linearGradient id="v" x1="132.43" x2="155.23" y1="225.63" y2="250.21" gradientTransform="matrix(.05488 .0406 -.04572 .08997 19.709 -18.666)" gradientUnits="userSpaceOnUse"><stop stop-color="#fff" offset="0"/><stop stop-color="#FEF6F5" offset=".137"/><stop stop-color="#FBDED9" offset=".372"/><stop stop-color="#F6B7AD" offset=".676"/><stop stop-color="#F08978" offset=".989"/></linearGradient><pattern id="a" width="10" height="10" patternTransform="scale(10)" patternUnits="userSpaceOnUse"><circle cx="2.567" cy=".81" r=".45"/><circle cx="3.048" cy="2.33" r=".45"/><circle cx="4.418" cy="2.415" r=".45"/><circle cx="1.844" cy="3.029" r=".45"/><circle cx="6.08" cy="1.363" r=".45"/><circle cx="5.819" cy="4.413" r=".45"/><circle cx="4.305" cy="4.048" r=".45"/><circle cx="5.541" cy="3.045" r=".45"/><circle cx="4.785" cy="5.527" r=".45"/><circle cx="2.667" cy="5.184" r=".45"/><circle cx="7.965" cy="1.448" r=".45"/><circle cx="7.047" cy="5.049" r=".45"/><circle cx="4.34" cy=".895" r=".45"/><circle cx="7.125" cy=".34" r=".45"/><circle cx="9.553" cy="1.049" r=".45"/><circle cx="7.006" cy="2.689" r=".45"/><circle cx="8.909" cy="2.689" r=".45"/><circle cx="9.315" cy="4.407" r=".45"/><circle cx="7.82" cy="3.87" r=".45"/><circle cx="8.27" cy="5.948" r=".45"/><circle cx="7.973" cy="7.428" r=".45"/><circle cx="9.342" cy="8.072" r=".45"/><circle cx="8.206" cy="9.315" r=".45"/><circle cx="9.682" cy="9.475" r=".45"/><circle cx="9.688" cy="6.186" r=".45"/><circle cx="3.379" cy="6.296" r=".45"/><circle cx="2.871" cy="8.204" r=".45"/><circle cx="4.59" cy="8.719" r=".45"/><circle cx="3.181" cy="9.671" r=".45"/><circle cx="5.734" cy="7.315" r=".45"/><circle cx="6.707" cy="6.513" r=".45"/><circle cx="5.73" cy="9.67" r=".45"/><circle cx="6.535" cy="8.373" r=".45"/><circle cx="4.37" cy="7.154" r=".45"/><circle cx=".622" cy="7.25" r=".45"/><circle cx=".831" cy="5.679" r=".45"/><circle cx="1.257" cy="8.519" r=".45"/><circle cx="1.989" cy="6.877" r=".45"/><circle cx=".374" cy="3.181" r=".45"/><circle cx="1.166" cy="1.664" r=".45"/><circle cx="1.151" cy=".093" r=".45"/><circle cx="1.151" cy="10.093" r=".45"/><circle cx="1.302" cy="4.451" r=".45"/><circle cx="3.047" cy="3.763" r=".45"/></pattern><filter id="y" x="0" width="1" y="0" height="1" color-interpolation-filters="sRGB"><feGaussianBlur/></filter></defs><ellipse style="opacity:.818069;fill:#c9c9c9;stroke-width:.597722;stroke-linecap:round;stroke-linejoin:round;paint-order:stroke markers fill;fill-opacity:1" cx="51.185" cy="38.138" rx="14.727" ry="4.513" transform="matrix(1 0 -.8898 .45635 0 0)"/><path d="M2.968 4.112c.147-.244.342-.492.594-.566.245-.062.471.06.667.19.564.377.966.984 1.368 1.566.258.378.51.765.818 1.09.89.926 1.638 2.014 2.465 3.01 2.048 2.178 2.169 2.337 1.687 1.949-.09-.048-.145-.145-.22-.218-.296-.275-.559-.594-.857-.866-.471-.411-.858-.928-1.25-1.437-.162-.198-.297-.423-.465-.616C7.41 7.798 7.08 7.34 6.72 6.92c-.385-.425-.7-.924-1.048-1.389-.376-.51-.755-1.028-1.22-1.436-.196-.162-.412-.33-.668-.334a.488.488 0 0 0-.119.006c-.058.03-.115.067-.168.11l-.112.118c-.039.04-.077.085-.114.128-.037.043-.076.084-.109.127-.04.057-.088.108-.11.178.012.147.096.259.159.375-.122.15-.234.312-.38.425-.13.12-.282.235-.365.41-.037.08.007.157.038.22.124.21.293.374.434.563-.173-.11-.343-.226-.52-.328a.363.363 0 0 0-.407.015c-.349.236-.563.688-.629 1.13a.366.366 0 0 0 .16.362c.41.314.915.413 1.355.663.31.167.625.32.938.48.202.106.415.2.602.336-1.081-.232-2.18-.484-3.13-1.108-.032.303-.07.606-.1.912-.014.171-.012.342.006.509-.154-.016-.317-.043-.474.027-.07.031-.1.124-.128.197-.011.055-.019.117-.024.176-.01.11-.015.22-.014.33-.002.06 0 .116 0 .177.004.076.006.15.007.228.002.064.007.13.012.196.002.047.005.096.01.146l.016.175.011.103c.004.048.008.098.017.146.012.067.013.173.095.167.87.16 1.778.091 2.672.088a8.261 8.261 0 0 1 1.825.162c.444.08.891.155 1.332.257.726.16 1.451.336 2.165.545.186.053.373.11.562.155.398.238.293.34.07.238-1.635-.343-3.198-1.002-4.867-1.201-.94-.119-1.903.058-2.85.025-.31-.011-.639.059-.934-.06-.238-.094-.38-.37-.403-.661A5.082 5.082 0 0 1 .367 9.76c.042-.207.091-.438.233-.592.162-.076.33.002.49.024.027-.441.034-.88.094-1.32.196-.073.375.037.536.13.205.132.425.219.646.316.253.11.52.213.801.206-.505-.188-1.013-.369-1.49-.628-.174-.102-.365-.202-.467-.406a.676.676 0 0 1 .012-.559c.13-.31.378-.513.59-.74a.968.968 0 0 1 .607-.3.6.6 0 0 1 .033-.39c.129-.29.369-.48.592-.67-.087-.215-.197-.478-.076-.72z" fill="#000100" stroke="#000100" stroke-width=".013"/><path d="M3.048 4.432c.02-.072.069-.122.11-.178.3.391.651.723.967 1.097.582.641 1.152 1.294 1.66 2.017.211.3.37.647.61.914-.128-.221-.25-.446-.366-.681a6.603 6.603 0 0 0-.688-1.058c-.451-.614-.953-1.17-1.45-1.73-.211-.229-.407-.472-.625-.692.038-.042.077-.083.115-.127.22.256.485.452.718.697.4.392.779.81 1.156 1.233.226.281.442.575.627.9.255.394.467.832.764 1.19-.255-.434-.465-.9-.719-1.332-.375-.711-.896-1.288-1.426-1.831-.317-.348-.666-.655-1.008-.97.055-.04.11-.077.167-.11.13.174.316.262.47.404.577.503 1.081 1.105 1.542 1.753.594.784 1.154 1.614 1.835 2.296-.354-.485-.729-.952-1.064-1.461a29.387 29.387 0 0 0-1.33-1.845 9.512 9.512 0 0 0-.876-.896c-.134-.12-.3-.187-.458-.257.257.005.472.17.668.334.46.409.841.924 1.22 1.435.348.465.664.964 1.048 1.39.363.42.693.877 1.055 1.295a.866 1.04 14.502 0 0 .13.36c.184.317.428.578.644.865.264.348.526.704.813 1.028-.127.006-.228-.08-.338-.13-.06-.036-.127-.074-.188-.113a7.118 8.54 14.502 0 1-.984-.998c.174.452.523.755.859 1.029.1.09.203.178.3.27.087.144.19.275.311.383-.029.009-.057.021-.086.033l.019.025a2.863 3.435 14.502 0 0-.25-.133 4.585 5.502 14.502 0 1-.46-.369c-.214-.196-.413-.42-.652-.575.237.297.5.558.753.833.079.081.157.164.232.254.07.12.15.233.24.333l-.095.033c-.096-.075-.193-.151-.293-.224-.149-.134-.285-.278-.43-.41.145.282.346.512.553.733.163.207.336.407.472.641a1.936 2.323 14.502 0 1 .222.589l.017.07c-.064-.025-.13-.045-.186-.084-.008-.075-.01-.158-.054-.214-.306-.42-.579-.871-.894-1.281a3.293 3.293 0 0 1-.212-.302c-.11-.174-.256-.298-.397-.435-.43-.418-.917-.768-1.271-1.285-.354-.502-.673-1.037-1.019-1.55-.36-.535-.735-1.06-1.148-1.545-.385-.405-.806-.76-1.151-1.216-.191.205-.38.413-.594.587.46.414.973.755 1.408 1.204.55.554 1.044 1.181 1.55 1.791.389.515.812 1 1.153 1.56-.012 0-.039-.01-.051-.01-.374-.405-.675-.902-1.096-1.245A26.753 32.102 14.502 0 1 3.588 6.83c.193.276.398.542.63.777.412.473.865.898 1.327 1.302.326.287.58.665.856 1.014-.135-.027-.292-.009-.4-.118a29.525 35.428 14.502 0 1-1.354-1.342c-.377-.4-.77-.778-1.104-1.226-.206-.268-.404-.548-.61-.816-.142-.189-.308-.356-.433-.56-.034-.064-.08-.14-.04-.222.083-.176.236-.29.366-.41.148-.116.26-.278.38-.426-.062-.113-.143-.227-.157-.373zm-1.67 2.81c.065-.442.28-.894.628-1.13a.363.363 0 0 1 .407-.015l.032.082a.418.502 14.502 0 0-.614.17c.151.13.304.253.472.357.277.167.54.36.806.552.117.09.231.183.36.256l.012.01.037.073c-.223-.064-.435-.17-.644-.275-.335-.18-.66-.417-1.042-.464.098.088.206.162.312.237.321.227.634.47.951.708.159.12.322.233.46.38-.224-.07-.41-.236-.626-.324-.312-.164-.638-.294-.958-.436-.193-.077-.388-.158-.593-.18zM1.2 8.885c.03-.306.069-.61.1-.913.95.618 2.049.877 3.13 1.108.294.117.558.306.832.476.15.096.307.18.447.295-.452-.04-.89-.144-1.334-.229-.578-.12-1.158-.231-1.731-.367-.487-.105-.962-.25-1.444-.37z" fill="#539a34" stroke="#539a34" stroke-width=".013"/><path d="M1.829 6.346a.418.502 14.502 0 1 .615-.17c.243.54.668.905 1.022 1.333a3.594 3.594 0 0 1-.36-.256 12.794 15.352 14.502 0 0-.807-.552 4.46 5.352 14.502 0 1-.47-.354zm-.292 1.258a.366.366 0 0 1-.16-.362c.206.025.399.106.592.178.32.143.646.273.958.437.22.086.404.25.627.323-.141-.144-.302-.26-.46-.378-.316-.237-.629-.48-.952-.71-.108-.072-.216-.146-.312-.236.382.047.707.283 1.043.464.21.102.42.21.643.274l-.037-.072c.466.443.918.909 1.398 1.333.122.107.266.192.346.347.038.11-.002.243.04.354-.27-.17-.537-.356-.832-.476-.191-.136-.4-.228-.604-.336-.312-.16-.624-.314-.936-.48-.44-.249-.945-.35-1.354-.66z" fill="#2f8a0f" stroke="#2f8a0f" stroke-width=".013"/><path d="m3.158 4.254.108-.128c.216.217.413.463.624.69.497.563 1 1.118 1.45 1.733.254.327.496.673.689 1.057.116.232.235.457.365.681-.237-.27-.396-.619-.609-.914-.508-.723-1.08-1.379-1.66-2.017-.315-.378-.667-.71-.967-1.102z" fill="#318911" stroke="#318911" stroke-width=".013"/><path d="M3.382 4c.035-.04.073-.08.113-.117.34.317.688.624 1.008.97.527.547 1.05 1.12 1.426 1.831.255.434.463.904.719 1.333-.296-.356-.51-.791-.764-1.191a6.307 7.569 14.502 0 0-.628-.9 29.662 35.592 14.502 0 0-1.155-1.232C3.87 4.45 3.605 4.255 3.382 4zm.838 3.61a6.38 7.655 14.502 0 1-.63-.778c.64.67 1.308 1.304 2.009 1.891.421.344.721.84 1.096 1.246l-.29-.041c-.28-.347-.53-.726-.856-1.015A13.72 13.72 0 0 1 4.22 7.61z" fill="#308910" stroke="#308910" stroke-width=".013"/><path d="M3.662 3.773a.561.674 14.502 0 1 .119-.005c.16.067.326.134.459.256.31.273.599.578.874.896.464.593.908 1.209 1.33 1.845.334.507.71.974 1.065 1.462-.682-.683-1.243-1.51-1.835-2.296-.459-.646-.967-1.249-1.542-1.755-.154-.14-.34-.23-.47-.403z" fill="#308911" stroke="#308911" stroke-width=".013"/><path d="M2.633 5.421c.213-.174.403-.382.594-.587.344.455.766.81 1.15 1.217.412.482.785 1.01 1.15 1.545.345.512.663 1.048 1.018 1.55.354.516.844.863 1.272 1.284.14.137.285.265.396.435a.113.136 14.502 0 1-.036.012c-.43-.047-.835-.188-1.241-.321a13.33 15.994 14.502 0 0-1.337-.391c-1.087-.239-2.213-.286-3.3-.529-.358-.095-.715-.2-1.085-.25a2.574 2.574 0 0 1-.007-.509c.48.123.956.266 1.441.366.573.135 1.154.249 1.73.368.443.084.884.19 1.334.228-.14-.115-.296-.2-.447-.295-.041-.111.001-.246-.039-.354-.08-.157-.224-.24-.345-.347-.483-.422-.935-.888-1.399-1.333L3.47 7.5c-.353-.429-.78-.792-1.021-1.333-.007-.021-.024-.06-.032-.082.178.101.347.217.52.328.207.266.407.545.61.816.334.448.727.826 1.104 1.224.443.462.89.917 1.355 1.342.108.11.266.09.4.118.097.014.193.033.29.042.014.002.039.008.052.008-.344-.563-.765-1.044-1.154-1.559-.506-.61-1-1.237-1.55-1.791-.438-.437-.95-.778-1.411-1.19z" fill="#136812" stroke="#136812" stroke-width=".013"/><path d="M.607 9.615c.027-.074.057-.167.128-.196.154-.07.32-.044.474-.028.368.047.727.155 1.085.25 1.09.24 2.213.29 3.3.528.457.096.898.24 1.337.391.407.133.813.276 1.241.322.019.096.046.186.078.273-.746-.081-1.437-.404-2.172-.541.434.29.933.436 1.421.584.211.068.427.111.63.2-.314.047-.618-.039-.93-.031.437.14.9.237 1.281.52-.366-.007-.715-.12-1.068-.197.271.194.611.21.9.364-.223.026-.44-.017-.659-.046-.36-.034-.716-.104-1.07-.162-.253-.042-.503-.085-.756-.113-.196-.02-.393-.053-.593-.029a8.113 8.113 0 0 0-1.825-.161c-.895.003-1.802.072-2.678-.091-.082.004-.08-.104-.095-.167.282.072.584.048.874.062.221.017.446-.011.67.008.177.013.36-.018.54-.012.505.015 1.013-.025 1.514.02.717.029 1.431.128 2.117.326.232.049.461.12.697.161-.129-.11-.3-.112-.449-.168-.333-.116-.676-.196-1.012-.296-.614-.142-1.245-.18-1.874-.216-.373-.021-.75.023-1.12-.017.239-.065.478-.068.715-.108.459-.039.923-.09 1.379-.073.466.004.914.133 1.383.125a8.56 8.56 0 0 0-1.003-.186c-.2-.048-.41-.033-.605-.092.196-.039.395-.024.59-.02.183.003.36.056.543.046a2.036 2.443 14.502 0 0-.408-.1c-.616-.098-1.25-.036-1.876.003a10.59 12.707 14.502 0 1-1.439.006 10.021 12.025 14.502 0 1-1.301-.24 7.525 7.525 0 0 1-.007-.229c.359.108.728.186 1.104.222.825.089 1.664.007 2.497-.007.237-.023.47-.002.705.01.25.017.5.033.746.078.152.022.3.077.457.075-.184-.11-.393-.133-.597-.186a8.017 9.62 14.502 0 0-1.425-.12c-.961-.02-1.943.082-2.882-.117-.205-.033-.399-.122-.606-.13 0-.111.006-.224.015-.331.371.151.748.288 1.14.379.258.083.533.106.804.105.49.021.99-.062 1.483-.07.12-.001.238 0 .358-.017-.281-.068-.58-.06-.871-.052-.505-.017-1.02.029-1.512-.087-.464-.095-.917-.262-1.373-.422z" fill="#539a33" stroke="#539a33" stroke-width=".013"/><path d="M.583 9.79c.005-.058.015-.116.024-.175.456.16.91.327 1.378.43.492.114 1.008.07 1.512.087.292-.01.59-.016.871.052a3.363 4.035 14.502 0 1-.357.015c-.494.009-.99.09-1.483.07a3.192 3.83 14.502 0 1-.805-.104 8.733 10.48 14.502 0 1-1.14-.374z" fill="#318811" stroke="#318811" stroke-width=".013"/><path d="M.567 10.295a3.434 3.434 0 0 1 0-.176c.209.012.4.099.605.131.943.197 1.92.096 2.882.117.482-.013.958.038 1.425.12.202.05.414.076.598.185-.158.002-.304-.055-.457-.075a6.023 7.228 14.502 0 0-.746-.077c-.235-.012-.47-.03-.706-.01-.833.013-1.672.096-2.497.007a6.6 7.92 14.502 0 1-1.104-.222z" fill="#308811" stroke="#308811" stroke-width=".013"/><path d="m.588 10.717-.012-.195a8.59 8.59 0 0 0 1.302.24 9.11 9.11 0 0 0 1.438-.006c.626-.04 1.262-.104 1.876-.002.14.017.277.042.409.097-.183.012-.36-.042-.543-.046-.198 0-.394-.017-.59.022.196.06.406.043.605.091.337.046.673.1 1.003.186-.467.01-.918-.12-1.384-.125-.457-.02-.917.033-1.378.073-.24.043-.482.043-.716.108.371.041.748-.004 1.12.017.632.034 1.263.072 1.875.217.339.096.68.181 1.011.295.15.057.32.056.45.169-.236-.042-.465-.112-.698-.161a8.802 8.802 0 0 0-2.116-.325c-.502-.046-1.013-.007-1.515-.021-.179-.008-.362.025-.54.011-.22-.02-.446.007-.67-.006-.29-.019-.592.008-.874-.063-.008-.05-.012-.1-.016-.148.16 0 .321.019.484-.01-.162-.047-.334-.04-.495-.093-.007-.059-.012-.118-.016-.174.534.073 1.067.21 1.617.13-.168-.045-.344-.043-.517-.066-.373-.056-.747-.106-1.11-.215z" fill="#30890f" stroke="#30890f" stroke-width=".013"/><path d="M.588 10.717c.361.106.737.159 1.11.21.174.023.349.021.517.066-.55.08-1.083-.057-1.617-.13-.003-.05-.005-.097-.01-.146z" fill="#519f35" stroke="#519f35" stroke-width=".013"/><path d="m.624 11.143-.012-.104c.161.053.332.046.495.093-.16.027-.321.009-.484.01z" fill="#429325" stroke="#429325" stroke-width=".013"/><path d="M7.902 8.583a.921 1.106 14.502 0 1-.13-.362c.166.195.305.419.465.617.393.507.78 1.024 1.25 1.436.298.273.562.592.857.866.054.073.1.157.14.24a1.356 1.628 14.503 0 1-.223.487c-.206.31-.46.568-.72.818a2.388 2.388 0 0 0-.222-.587c-.136-.235-.309-.435-.472-.642-.077-.12-.15-.238-.228-.354l.11.03c.096.076.194.152.294.225.169.128.343.251.523.365-.22-.25-.44-.498-.67-.73a6.166 7.399 14.502 0 0-.23-.256c-.006-.044-.008-.085-.012-.13a.62.744 14.502 0 0 .37.238c.086.037.167.08.25.132a.963.963 0 0 0 .27.12 2.417 2.9 14.503 0 0-.514-.561c-.098-.093-.202-.178-.3-.27-.035-.057-.065-.115-.1-.172a.627.752 14.502 0 0 .225.141c.063.036.127.077.187.115.24.188.481.375.733.54-.125-.149-.265-.272-.394-.411-.287-.325-.549-.68-.814-1.029-.22-.288-.46-.55-.644-.867z" fill="#b6fc22" stroke="#b6fc22" stroke-width=".013"/><path d="M6.08 10.61c.733.142 1.424.464 2.172.543.136.314.329.582.545.821.115.133.253.241.347.4.061.087.128.177.153.292-.189-.045-.376-.102-.562-.155a34.593 34.593 0 0 0-2.165-.545c.002-.039.01-.078.015-.117.354.058.71.127 1.07.162.22.028.436.071.659.046-.29-.154-.629-.171-.9-.365.35.08.7.192 1.068.197-.382-.282-.844-.379-1.28-.52.31-.01.614.078.928.032-.2-.092-.42-.132-.63-.2-.49-.15-.986-.3-1.42-.59z" fill="#b5fc24" stroke="#b5fc24" stroke-width=".013"/><path d="M5.238 11.709c.2-.024.397.009.592.03.253.027.506.069.756.112a1.523 1.827 14.502 0 0-.015.117c-.44-.101-.887-.177-1.333-.259z" fill="#baf930" stroke="#baf930" stroke-width=".013"/><path d="M7.847 9.236c.292.38.634.695.985.999a.676.812 14.502 0 1-.226-.141c.034.056.065.114.1.17-.337-.273-.684-.574-.86-1.028z" fill="#b3fc31" stroke="#b3fc31" stroke-width=".013"/><path d="M7.889 9.9c.24.158.439.379.652.577.147.135.302.255.46.37a.62.744 14.502 0 1-.37-.239c.002.042.007.086.011.13-.254-.278-.515-.54-.753-.837z" fill="#b3fb30" stroke="#b3fb30" stroke-width=".013"/><path d="M8.297 10.715c.147.135.284.281.43.41l-.11-.03c.08.116.152.235.229.354-.201-.22-.404-.45-.549-.734z" fill="#affa3e" stroke="#affa3e" stroke-width=".013"/><path d="m8.175 10.88.035-.012c.066.105.139.207.213.3.313.414.588.863.893 1.283.045.054.048.14.054.214-.088-.085-.153-.194-.228-.289-.094-.159-.232-.267-.348-.398a2.923 3.507 14.502 0 1-.544-.823 1.595 1.595 0 0 1-.075-.275z" fill="#2f8a0c" stroke="#2f8a0c" stroke-width=".013"/><path d="M9.02 10.346c.11.05.212.134.339.13.13.139.271.264.394.41-.253-.163-.493-.352-.733-.54z" fill="#6ab017" stroke="#6ab017" stroke-width=".013"/><path d="M9.01 10.535c.194.155.374.34.514.56a1.171 1.405 14.502 0 1-.27-.119l-.019-.025c.029-.012.057-.024.087-.033a1.566 1.88 14.502 0 1-.312-.383z" fill="#589b21" stroke="#589b21" stroke-width=".013"/><path d="M8.874 10.99c.232.23.454.478.67.729a8.831 10.597 14.502 0 1-.523-.365l.095-.032c-.091-.1-.172-.211-.241-.333z" fill="#579d1f" stroke="#579d1f" stroke-width=".013"/><path d="M7.142 10.974c-.713-.06-2.04-.322-1.81-1.554l-1.035-.479c.652 1.47-.609 3.21-.904 4.611-.177.844-.22 1.64-.014 2.482.17.692.825 1.318 1.377 1.528a2.3 2.3 0 0 0 .483.136l-.005.048c.117.052.238.01.361-.004 1.754-.555 2.692-1.435 3.26-2.903.075-.2.113-.412.161-.623.083-.366.09-.852.033-1.225-.074-.48-.292-1.076-.621-1.382a2.625 2.625 0 0 0-.662-.472c-.194-.097-.457-.05-.624-.163" fill="#661a00" style="stroke-width:.727642"/><path d="M7.142 10.974c-.713-.06-2.04-.322-1.81-1.554l-1.035-.479c.652 1.47-.609 3.21-.904 4.611-.177.844-.22 1.64-.014 2.482.17.692.825 1.318 1.377 1.528a2.3 2.3 0 0 0 .483.136l-.005.048c.117.052.238.01.361-.004 1.142-.18 2.314-.955 2.92-2.101.23-.403.266-.603.34-.802.075-.2.113-.412.161-.623.083-.366.09-.852.033-1.225-.074-.48-.292-1.076-.621-1.382-.415-.384-.764-.528-1.28-.616" fill="none" stroke="#661a00" stroke-linecap="square" stroke-miterlimit="10" stroke-width=".061"/><path d="m4.296 8.942 1.037.478c-.175.935.617 1.294 1.212 1.501.32.111.721.098 1.055.17.315.067.609.274.836.54 1.047 1.218.701 3.331-.255 4.474-.946 1.132-2.398 2.122-3.713 1.295-.593-.373-1.104-1.03-1.194-1.854-.094-.856.006-1.656.25-2.463.369-1.223 1.354-2.83.772-4.141" fill="#f2efdb" style="stroke-width:.727642"/><path d="M3.438 14.806c.445-.288.99-.241 1.484-.259.523-.018 1.074.008 1.588-.123.546-.138 1.068-.294 1.499-.75.325-.344.685-.728.942-1.147.475 1.622-.286 3.317-1.445 4.19-.3.226-.591.493-.924.645a3.225 3.225 0 0 1-1.112.316c-.71.075-1.336-.476-1.74-1.12-.305-.485-.488-1.18-.292-1.752" fill="#b8b8b8" style="stroke-width:.727642"/><path d="M3.345 13.903c.446-.614 1.137-.834 1.777-1.032.688-.214 1.382-.406 2.053-.692.303-.129.602-.273.871-.489.162-.129.195-.238.343-.09.126.125.252.29.335.459.066.133.478.969.302 1.086-.287.191-.562.409-.85.597A10.908 10.908 0 0 1 5.137 15.1c-.535.15-1.077.141-1.62.112-.112-.006-.156.018-.211-.071-.05-.08-.059-.272-.064-.368a2.32 2.32 0 0 1 .102-.87" fill="#e6cf95" style="stroke-width:.727642"/><path d="M6.377 11.23c.22-.037.498.098.715.145.224.05.482.154.686.272.496.285.863.576.954 1.276.174 1.352-.322 2.431-1.08 3.379.2-.94.122-1.803-.096-2.726-.108-.458-.305-.875-.505-1.28a3.738 4.51 0 0 0-.284-.505c-.105-.159-.25-.478-.39-.561" fill="#fff" style="stroke-width:.727642"/><path d="M7.202 16.585c.233-.496.174-1.365.1-1.906-.086-.628-.245-1.307-.53-1.848a8.057 9.72 0 0 0-1.027-1.583c-.409-.508-.687-.897-.716-1.63-.362.59-.015 1.376.064 2.004.099.78.172 1.571.307 2.343.133.765.243 1.543.606 2.205.148.27.375.57.579.783.138.144.21.145.354.01.067-.063.26-.343.263-.378" fill="#fff" style="stroke-width:.727642"/><path d="M6.102 17.193c-.336-.385-.602-.763-.781-1.294a4.922 5.938 0 0 1-.33-1.692c-.046-.587-.11-1.172-.162-1.76-.046-.519-.07-1.102-.186-1.605a9.095 10.972 0 0 0-.578 3.938c.002.305.032.63.108.923.077.295.17.779.375.988l.367.375c.094.097.328.118.447.158.125.043.257.013.385.005l.28-.018c.06-.003.092.019.075-.019m-1.93-.466c-.19-.61-.373-1.237-.419-1.894-.05-.726.013-1.4.143-2.108-.277.695-.473 1.308-.445 2.097.013.351.11.689.235 1.004.095.245.33.832.486.901" fill="#fff" style="stroke-width:.727642"/><path d="M4.556 11.132c.088-.306.065-.651.088-.97.022-.306.044-.739-.094-1.006.098.335.16.677.158 1.033-.002.235-.021.823-.152.943" fill="#802600" style="stroke-width:.727642"/><path d="m4.748 9.116.26 1.018c.127-.055.12-.083.188.023.066.102.12.219.18.326.131.23.282.421.448.615-.228-.27-.387-.682-.557-1.006a5.088 6.138 0 0 1-.25-.514c-.071-.169-.095-.43-.269-.462" fill="#b39940" style="stroke-width:.727642"/><path d="M8.037 11.49c-.383-.244-.768-.41-1.217-.44a2.323 2.802 0 0 1-.63-.131c-.202-.087-.348-.253-.533-.36.316.182.695.492 1.096.575.236.048.468.075.7.155.163.057.467.215.584.2" fill="#fff" style="stroke-width:.727642"/><path d="M7.135 16.683c.235-.355.255-1.08.236-1.513a5.668 5.668 0 0 0-.092-.86c-.04-.201-.08-.552-.2-.687-.051.212.057.623-.16.759-.226.141-.421-.219-.507-.413-.083-.187-.293-.76-.517-.721-.295.05-.24.617-.213.87.074.69.114 1.427.388 2.053.122.282.282.596.511.771.1.077.257.152.362.041.059-.063.215-.24.192-.3m-1.033.51c-.392-.614-.77-1.165-.956-1.928-.089-.364-.077-.778-.229-1.109-.172-.376-.561-.146-.672.185-.211.621-.03 1.566.283 2.117.184.325.374.58.689.709.12.05.92.115.885.025m1.55-.89c.622-.572 1.024-1.593 1.133-2.5.025-.2-.002-1.28-.288-1.197-.29.084-.195.953-.393 1.134-.046-.18-.329-.644-.507-.428-.145.176.004.785.035 1 .054.365.081.728.124 1.094.027.223-.015.698-.103.897" fill="#e6e6e6" style="stroke-width:.727642"/><path d="M7.892 15.947c.195-.252.316-.702.406-1.024.105-.375.225-.827.197-1.227-.028-.42-.076-.82-.248-1.194-.12-.262-.393-.77-.684-.742.598.348.796 1.225.858 1.946.035.398-.078.833-.158 1.214-.048.222-.256 1.002-.371 1.027" fill="#b8b8b8" style="stroke-width:.727642"/><path d="M7.999 15.073c.088-.218.024-.598.005-.83a5.407 5.407 0 0 0-.138-.869c-.168-.67-.445-1.175-.839-1.684.141.223.341.397.482.632.181.301.3.605.403.955.087.298.112.618.132.93.012.195.05.803-.045.866m-.675.886c.005.252-.088.912-.322 1.012-.364.155-.578-.216-.81-.507.169.18.427.394.668.29.256-.108.45-.474.463-.795m-2.754.69.501.002c.144.001.27.186.407.233.143.049.223.034.337.109.105.069.2.158.31.213l-.331-.462c-.08-.11-.277.125-.37.056-.148-.112-.233-.218-.405-.194-.142.018-.31.073-.449.043" fill="#b8b8b8" style="stroke-width:.727642"/><path d="M5.679 17.441c-.16.053-.52-.121-.652-.232a2.502 2.502 0 0 1-.59-.688c-.312-.541-.402-1.206-.42-1.854-.018-.644.004-1.234.134-1.855.052-.246.015-.507.043-.767.034-.311.16-.587.283-.856-.401.293-.31 1.137-.42 1.594-.158.657-.21 1.385-.192 2.065.015.598.133 1.343.48 1.8.296.385.898.91 1.334.794" fill="#b39940" style="stroke-width:.727642"/><path fill="#301027" fill-rule="evenodd" d="m17.684 6.967-1.182 1.55s.255.954.403 1.343c.068.178.18.403.262.572.159.324.378.752.56 1.059a7.92 9.633 0 0 0 .432.653c.272.374.653.852.959 1.187.335.367.808.823 1.18 1.137.352.3.844.666 1.225.908a13.27 13.27 0 0 0 1.832.966c.558.228 1.323.462 1.905.572.616.115 1.45.181 2.073.16.615-.02 1.438-.118 2.037-.293.467-.135 1.087-.375 1.506-.66.305-.206.67-.566.918-.864a3.628 4.413 0 0 0 .505-.76 3.296 4.009 0 0 0 .307-.863 3.186 3.875 0 0 0 .111-.864 3.283 3.992 0 0 0-.065-.83c-.034-.2-.119-.455-.17-.65z" style="stroke-width:.99727"/><path fill="none" stroke="#301027" stroke-linecap="round" stroke-linejoin="round" d="M16.502 8.517s0 0 0 0l1.182-1.551s0 0 0 0l14.798 4.326s0 0 0 0c.05.194.136.448.17.649a3.283 3.992 0 0 1 .065.83c-.006.263-.05.612-.11.864-.064.27-.188.622-.308.864a4.38 4.38 0 0 1-.505.759c-.248.298-.613.66-.918.865-.42.284-1.039.524-1.506.66-.599.174-1.422.273-2.037.293-.624.02-1.457-.045-2.073-.162a10.934 10.934 0 0 1-1.905-.572 14.355 17.459 0 0 1-1.832-.965 12.23 12.23 0 0 1-1.226-.908 14.15 14.15 0 0 1-1.179-1.137 15.057 15.057 0 0 1-.959-1.188 8.997 8.997 0 0 1-.432-.652 16.502 16.502 0 0 1-.56-1.06c-.083-.168-.194-.393-.262-.571-.148-.389-.403-1.342-.403-1.342" stroke-width=".025"/><path fill="#581248" fill-rule="evenodd" d="M18.007 5.788c-.165.227-.257.632-.367.902 0 0 .047.408.075.582.025.163.063.38.099.539a5.209 6.335 0 0 0 .196.698c.1.282.253.647.39.904a6.914 8.41 0 0 0 .59.917c.185.253.449.574.66.797.227.242.55.536.8.74.354.286.848.626 1.226.861.24.148.565.33.816.45.577.28 1.36.612 1.962.8.422.131.995.263 1.429.322.689.092 1.619.12 2.31.077a7.234 8.799 0 0 0 .953-.143c.41-.102.954-.275 1.336-.479a4.995 6.075 0 0 0 .995-.721 3.784 4.603 0 0 0 .584-.734 3.233 3.932 0 0 0 .297-.605c.043-.11.087-.264.12-.378l.012-.04s-.068-.201-.104-.282a4.412 4.412 0 0 0-.236-.464 3.594 4.37 0 0 0-.472-.602 3.64 3.64 0 0 0-.537-.426 5.36 5.36 0 0 0-.849-.42c-.316-.123-.752-.23-1.079-.308a17.95 17.95 0 0 0-1.122-.216c-.412-.069-.965-.128-1.377-.19-.435-.067-1.02-.133-1.447-.244a8.376 10.188 0 0 1-1.13-.401 5.209 6.335 0 0 1-.688-.4c-.322-.232-.718-.605-1.01-.888-.166-.162-.377-.394-.535-.568-.131-.145-.31-.334-.43-.491-.025-.032-.054-.077-.076-.11-.235.017-.55.05-.787.055-.375.01-.876-.04-1.252-.026-.258.011-.615-.022-.859.086a1.367 1.367 0 0 0-.493.407m3.39-.521z" style="stroke-width:.99727"/><path fill="none" stroke="#581248" stroke-linecap="round" stroke-linejoin="round" d="M17.64 6.691s0 0 0 0c.11-.27.202-.676.367-.902a1.363 1.657 0 0 1 .493-.407c.244-.108.6-.075.86-.086.375-.015.877.037 1.25.027.238-.007.553-.039.788-.055 0 0 0 0 0 0 .022.033.051.077.076.109.12.157.298.346.43.491.158.174.369.406.535.568.292.284.688.656 1.01.887a5.209 6.335 0 0 0 .688.4c.33.155.785.31 1.13.402.428.112 1.012.176 1.447.242.412.064.965.123 1.377.191.337.056.787.137 1.121.216.328.078.764.186 1.08.31.262.101.606.263.85.42.17.11.387.277.536.425a3.594 4.37 0 0 1 .335.404c.043.057.1.135.137.197.08.132.174.32.236.465a4.142 5.037 0 0 1 .104.282s0 0 0 0l-.011.04c-.034.114-.078.268-.121.377a4.047 4.047 0 0 1-.297.605 4.312 4.312 0 0 1-.583.735 4.922 4.922 0 0 1-.996.721c-.382.205-.927.377-1.336.479a7.234 8.799 0 0 1-.953.143c-.692.044-1.621.015-2.31-.077a9.484 9.484 0 0 1-1.429-.323c-.601-.187-1.385-.519-1.962-.798a9.882 9.882 0 0 1-.816-.451 13.283 13.283 0 0 1-1.225-.861 9.15 9.15 0 0 1-.802-.74 9.106 9.106 0 0 1-.66-.797 8.487 8.487 0 0 1-.589-.917 7.414 7.414 0 0 1-.39-.904 5.209 6.335 0 0 1-.196-.698 8.915 8.915 0 0 1-.1-.54c-.027-.173-.074-.58-.074-.58" stroke-width=".025"/><path fill="#8f4a67" fill-rule="evenodd" stroke="#8f4a67" stroke-linecap="round" stroke-linejoin="round" d="M21.601 7.259c.07.234.183.538.29.752a7.178 8.73 0 0 0 1.112 1.66 8.513 10.354 0 0 0 1.795 1.492c.498.301 1.211.58 1.756.723a8.72 10.605 0 0 0 1.82.22c.352-.01.825-.065 1.161-.19.206-.076.47-.23.651-.373a1.548 1.883 0 0 0 .272-.272c.082-.11.185-.27.228-.407a.71.864 0 0 0 .042-.321.384.467 0 0 0-.034-.166.579.704 0 0 0-.13-.183 1.296 1.296 0 0 0-.277-.209 2.05 2.05 0 0 0-.413-.155c-.204-.057-.483-.092-.69-.124-.21-.032-.49-.06-.701-.086-.415-.05-.97-.106-1.384-.165-.396-.055-.925-.116-1.315-.216a10.567 12.853 0 0 1-1.323-.464 10.689 13 0 0 1-1.277-.701 8.66 8.66 0 0 1-.809-.627 6.677 6.677 0 0 1-.533-.515c-.11-.123-.237-.315-.344-.443l-.086-.1s0 0 0 0c0 .002.114.617.19.87z" stroke-width=".025"/><path fill="#34102a" fill-rule="evenodd" stroke="#34102a" stroke-linecap="round" stroke-linejoin="round" d="M19.132 8.143c-.126 0-.174.074-.174.136 0 .063.048.137.174.137.127 0 .175-.074.175-.137 0-.063-.048-.136-.175-.136zm9.288 5.375c-.244 0-.332.137-.332.255s.09.255.332.255c.244 0 .332-.137.332-.255s-.088-.255-.332-.255zm-.642-.33c-.133 0-.18.073-.18.136 0 .063.047.136.181.136.132 0 .18-.073.18-.136 0-.063-.048-.136-.18-.136z" stroke-width=".025"/><path fill="#588d3d" fill-rule="evenodd" d="m17.61.161.464.557s-.116.223-.159.323c-.027.063-.058.152-.081.218-.045.135-.113.316-.145.459-.02.094-.036.224-.042.32a2.84 2.84 0 0 0-.008.465c.018.177.077.409.135.573a3.187 3.876 0 0 0 .368.742c.036.055.093.121.132.173 0 0 .282-.07.405-.085a3.478 4.23 0 0 1 .988.06c.185.051.425.157.597.257a3.319 4.036 0 0 1 .434.319c.126.108.282.275.4.397.094.098.213.234.304.334 0 0-.179.084-.258.11a3.774 3.774 0 0 1-.635.143 5.091 5.091 0 0 1-.96.021c-.167-.014-.387-.07-.552-.101l1.496 1.913s-.316-.003-.45-.011a6.856 6.856 0 0 1-.846-.096 4.507 4.507 0 0 1-.764-.223c-.145-.062-.33-.173-.47-.255-.07-.043-.162-.106-.231-.152 0 0-.027.263-.05.371-.033.151-.067.367-.148.487a.708.708 0 0 1-.258.195.633.633 0 0 1-.275.075.387.47 0 0 1-.174-.06c-.088-.07-.163-.226-.214-.338-.055-.121-.1-.3-.13-.433a1.997 1.997 0 0 1-.059-.427 1.272 1.547 0 0 1 .08-.398 2.76 3.357 0 0 1 .217-.566 2.936 3.571 0 0 1 .293-.472c.103-.143.263-.308.376-.44 0 0-.172-.192-.233-.286a2.833 3.446 0 0 1-.53-1.463 1.594 1.939 0 0 1 .01-.572c.058-.36.24-.807.383-1.13.066-.15.176-.335.256-.474.096-.163.234-.37.335-.53z" style="stroke-width:.99727"/><path fill="none" stroke="#588d3d" stroke-linecap="round" stroke-linejoin="round" d="M18.074.718s0 0 0 0L17.611.16s0 0 0 0c-.1.16-.24.367-.335.53-.081.139-.19.324-.256.473-.143.324-.325.771-.383 1.131-.028.168-.03.403-.01.572a2.833 3.446 0 0 0 .53 1.463c.061.094.233.287.233.287s0 0 0 0c-.113.132-.273.296-.376.437a3.498 3.498 0 0 0-.293.475c-.08.16-.167.388-.217.565a1.842 1.842 0 0 0-.08.398c-.003.13.033.301.06.427a1.725 2.098 0 0 0 .13.433c.05.112.125.268.213.338a.387.47 0 0 0 .174.06.743.904 0 0 0 .275-.075.702.702 0 0 0 .258-.195c.081-.12.115-.336.147-.486a3.596 4.374 0 0 0 .05-.372s0 0 0 0c.07.046.162.11.233.152a4.537 5.518 0 0 0 .47.255 5.242 6.376 0 0 0 .763.223 8.501 10.34 0 0 0 1.295.107s0 0 0 0l-1.495-1.913s0 0 0 0c.165.03.385.087.551.101a6.17 7.504 0 0 0 .96-.022 4.418 5.374 0 0 0 .636-.142 4.06 4.938 0 0 0 .258-.11s0 0 0 0c-.09-.1-.21-.236-.305-.334-.117-.123-.273-.29-.4-.398a3.319 4.036 0 0 0-.433-.32 2.89 2.89 0 0 0-.597-.255 3.318 4.035 0 0 0-1.393.025s0 0 0 0c-.04-.052-.096-.117-.132-.173a4.096 4.096 0 0 1-.367-.742 2.74 2.74 0 0 1-.136-.572 1.934 2.353 0 0 1 .008-.465 1.788 2.174 0 0 1 .042-.321c.032-.143.1-.324.145-.459.023-.066.054-.154.081-.218a5.276 6.418 0 0 1 .16-.323" stroke-width=".025"/><path fill="#9fc939" fill-rule="evenodd" d="M18.066.706 17.61.158s-.005.14.003.198a.667.812 0 0 0 .06.278.332.404 0 0 0 .136.163.298.363 0 0 0 .155-.003.35.425 0 0 0 .096-.052l.018-.019z" style="stroke-width:.99727"/><path fill="none" stroke="#9fc939" stroke-linecap="round" stroke-linejoin="round" d="M17.61.158s0 0 0 0l.456.548.013.017s0 0 0 0l-.019.02a.321.321 0 0 1-.096.05.298.363 0 0 1-.155.004.332.404 0 0 1-.136-.162.667.812 0 0 1-.06-.279c-.008-.058-.004-.198-.004-.198" stroke-width=".025"/><path fill="#9fc939" fill-rule="evenodd" d="M18.623 4.281c-.046.019-.105.053-.15.075l.635.22.619.217c.173.061.405.145.578.205.145.05.335.115.48.162l.254.083c-.122-.123-.277-.297-.405-.409a4.556 4.556 0 0 0-.507-.378 2.161 2.161 0 0 0-.37-.196 2.263 2.753 0 0 0-.84-.071c-.09.015-.208.057-.294.092m2.416.962z" style="stroke-width:.99727"/><path fill="none" stroke="#9fc939" stroke-linecap="round" stroke-linejoin="round" d="M18.472 4.356s0 0 0 0c.046-.022.105-.055.151-.075a1.863 2.266 0 0 1 .294-.092 2.263 2.753 0 0 1 .84.071 2.333 2.838 0 0 1 .37.196c.158.1.362.252.507.378.128.113.283.286.405.407 0 0 0 0 0 0l-.254-.081a40.243 40.243 0 0 1-.48-.162c-.173-.06-.405-.144-.578-.205l-.619-.217-.636-.22" stroke-width=".025"/><path d="M13.642 5.144s-1.03-2.044-3.058-.51c0 0-2.937 2.189-.637 6.645 0 0 1.302 3.942 3.542 4.27l.153-10.406z" fill="url(#b)" style="fill:url(#b);stroke-width:.0830671"/><path d="M11.898 4.702s.394.758-1.416 1.115c0 0-.747.143-.886.641l3.482.523.02-2.09-1.2-.189z" fill="url(#c)" style="fill:url(#c);stroke-width:.0830671"/><path d="M13.034 4.707s1.15-2.813 4.055-.292l-.3 1.277-2.847.913-.908-1.898z" fill="url(#d)" style="fill:url(#d);stroke-width:.0830671"/><path d="M13.826 3.73s.289 1.479 2.243.88l.078-.026c2.028-.665-.746 1.258-.746 1.258l-2.42-.19.04-1.426.804-.496z" fill="url(#e)" style="fill:url(#e);stroke-width:.0830671"/><path d="M15.064 6.02s.817-2.408 2.813-1.606c0 0 2.33.767 1.12 4.891 0 0-.968 4.383-2.18 5.295l-1.753-8.58z" fill="url(#f)" style="fill:url(#f);stroke-width:.0830671"/><path d="M18.265 10.666c.211-1.011.193-1.996.193-1.996.335-2.053-1.717-2.414-1.717-2.414-1.297-.232-1.176-.993-1.176-.993l-.278.74 1.647 8.418a.38.38 0 0 0 .128-.073l-.01.038c.638-.508 1.495-3.412 1.495-3.412-.193.199-.265-.004-.282-.307z" fill="url(#g)" style="fill:url(#g);stroke-width:.0830671"/><path d="M12.611 6.715S9.07 4.306 8.676 8.395c0 0 .212 7.776 4.54 7.192l.062-8.616-.667-.255z" fill="url(#h)" style="fill:url(#h);stroke-width:.0830671"/><path d="M12.366 7.267s-2.956-.048-1.944 3.932c0 0 .796 3.08 2.144 4.417 0 0 .818-.028 1.035-.145l-1.235-8.204z" fill="url(#i)" style="fill:url(#i);stroke-width:.0830671"/><path d="M14.244 7.334a.16.16 0 0 0 .014-.016c.73-1.002 2.258-.822 2.258-.822 2.814.474 1.27 4.892 1.27 4.892-.243.401-.605 2.556-.605 2.556-.393 2.483-1.817 2.774-1.817 2.774-1.3.403-2.268-.839-2.268-.839-3.208-4.6-1.997-6.974-1.997-6.974.725-2.374 3.145-1.496 3.145-1.496v-.075z" fill="url(#j)" style="fill:url(#j);stroke-width:.0830671"/><path d="M12.183 7.564s1.175-.285 2.273.161c0 0 .554-1.036 1.318-1.137 0 0-.21-1.049-.13-1.409 0 0-1.107-.216-1.916-.13 0 0-.854.618-1.766.705 0 0 .265.892.22 1.81z" fill="url(#k)" opacity=".63" style="fill:url(#k);stroke-width:.0830671"/><path d="M12.24 7.39s1.122-.264 2.169.147c0 0 .528-.956 1.255-1.05 0 0-.198-.97-.12-1.3 0 0-1.057-.2-1.828-.12 0 0-.817.57-1.686.649 0-.002.252.824.208 1.673z" fill="url(#l)" style="fill:url(#l);stroke-width:.0830671"/><path d="M12.976 6.727a1.09 1.09 0 0 1-.656-.317c.035.254.06.554.046.857 0 0 1.05-.25 2.028.137 0 0 .263-.474.668-.766-.696-.232-1.39.18-2.086.089z" fill="url(#m)" opacity=".59" style="fill:url(#m);stroke-width:.0830671"/><path d="M14.854 5.958c.063.442-.347.897-.916 1.012-.568.116-1.08-.147-1.141-.59-.063-.443.348-.896.915-1.013.57-.116 1.08.15 1.142.592z" fill="url(#n)" style="fill:url(#n);stroke-width:.0830671"/><path d="M14.687 6.038a.54.652 0 0 0-.036-.13c-.047.29-.281.424-.464.498-.44.235-.784-.127-1.156-.399a.613.613 0 0 0-.084.388c.052.373.485.597.965.498.48-.1.828-.482.775-.856z" fill="url(#o)" opacity=".58" style="fill:url(#o);stroke-width:.0830671"/><path d="M11.376 4.543s.644-2.509 2.668-.176c0 0 .48.687.425 1.376 0 0-.258.732-1.068.31l-.277-.243-1.747-1.267z" fill="url(#p)" style="fill:url(#p);stroke-width:.0830671"/><path d="M13.162 5.736s-.128-1.465.276-1.259c0 0 .848.457.866 1.488 0 0-.185.412-.755.182 0 0-.368-.204-.404-.274l.017-.137z" fill="url(#q)" style="fill:url(#q);stroke-width:.0830671"/><path d="M13.143 5.762c-.128.293-.633.277-1.128-.037-.494-.315-.79-.805-.665-1.1.127-.291.632-.274 1.128.038.495.315.792.805.665 1.098z" fill="url(#r)" style="fill:url(#r);stroke-width:.0830671"/><path d="M12.664 4.902c.063.123.111.25.06.373-.228.272-.656.149-.962.191a1.715 2.07 0 0 0 .267.207c.439.28.888.295 1.001.034.093-.21-.066-.54-.366-.804z" fill="url(#s)" opacity=".74" style="fill:url(#s);stroke-width:.0830671"/><path d="M14.486 7.87s.868.655 1.162 3.074c0 0 1.857-2.152.443-4.266 0 0-1.017.02-1.605 1.192z" fill="url(#t)" style="fill:url(#t);stroke-width:.0830671"/><path d="M12.714 8.837s1.479.167 2.578 1.742c0 0-.275-2.445-1.581-2.902 0 0-.79-.332-1.306.25 0 0-.654.539.31.91z" fill="url(#u)" opacity=".54" style="fill:url(#u);stroke-width:.0830671"/><path d="M17.552 8.607c-.29.57-.65.33-1.14-.03-.487-.363-.92-.71-.63-1.28.291-.57.921-.74 1.41-.38.49.364.651 1.12.36 1.69z" fill="url(#v)" opacity=".54" style="fill:url(#v);stroke-width:.0830671"/><path d="M12.116 4.308s.457.114.73.463c0 0 .129-1.196 1.036-.317 0 0-.99-1.544-1.766-.146z" fill="url(#w)" opacity=".51" style="fill:url(#w);stroke-width:.0830671"/><path d="M13.31 4.49s.923.461.899 1.573c0 0-.017.12-.343.149 0 0 .105-.886-.677-1.418 0 0-.01-.205.121-.304z" fill="url(#x)" style="fill:url(#x);stroke-width:.0830671"/><path d="M.375 4.804s.334.238.957-.103c0 0 .145.122.344-.167 0 0 .23.034.15-.131l.032-.02.03.033.13-.002s.034 0 .028-.064c0 0-.021-.01.076-.075l.034-.038.103-.041s.018-.01.034.016l.121.002s.038-.01.04-.077l.118-.11.017-.038.088-.067.041.003.09-.05.107-.098s.028-.03.011-.069l.046-.052s.062.042.108-.045c0 0 .001-.028.053-.05 0 0 .154-.016.123-.219l.049-.071s.05.059.133-.063c0 0 .087-.108.024-.199l.045-.08s-.002.067.096.018c0 0 .149-.13.082-.249l.002-.018s.028.03.073.025c.062-.005.149-.06.153-.222 0 0-.02-.07.132-.11 0 0 .084-.018.06-.118 0 0-.062-.133.073-.192 0 0 .056.002.083-.094.008-.025-.033-.06.036-.123 0 0 .145-.022.2-.145 0 0 .039-.209.093-.265 0 0 .105-.143-.076-.096l.026-.146s.03-.105.003-.257c0 0-.072-.162-.129-.216C4.29.604 4.27.57 4.192.506L4.067.42S4.043.362 4.01.403c0 0-.187-.085-.423-.005l-.113.034s-.026-.06-.102.008l-.067.039S3.112.514 3.022.6c0 0-.08.072-.075.11l-.086.056s-.11-.016-.125.057c0 0-.054.135-.189.123 0 0-.13-.02-.125.118 0 0 .017.13-.127.103 0 0-.122.034-.14.128 0 0-.04.063.025.075l-.017.018h-.08s-.183.064-.152.153c.025.05.072-.004-.027.093 0 0-.09-.028-.145.031-.056.06-.116.113-.072.192l-.053.059s-.131-.032-.197.065l-.027.09-.075.064s-.033.038.01.078l-.043.057s-.032-.045-.084.015l-.13.157s-.048.05.015.062l-.076.102s-.022-.034-.069.016l-.095.103s-.107-.005-.076.099c0 0-.008.054.03.076l-.13.177-.044.024s-.105-.018-.06.135c0 0 .029.027-.02.076 0 0-.14-.047-.106.103 0 0 .051.04-.11.125 0 0-.158.1-.074.24.02.032.065.014.098.024l-.008.073s-.163-.05-.146.094c0 0 .088.073.03.137 0 0-.155.188.06.323 0 0-.005.311.068.372z" fill="#78ab42" style="filter:url(#y)" transform="matrix(2.78018 1.9609 -1.6254 3.35403 13.524 .193)"/><path d="M.516 3.707s.064-.249.133-.027c0 0-.037.18-.133.027zm.126-.255s.202.003.178-.243c0 0-.013-.064.107-.088 0 0 .112-.012.056-.178 0 0-.032-.118.132-.148 0 0 .08-.005.074-.162 0 0 .024-.03.185-.067 0 0 .144-.11.153-.21 0 0 .218-.196.055-.183 0 0-.203-.021-.177.161 0 0-.036.046-.109.072l-.122.127s-.07.03-.068.131l-.078.063s-.087.036-.093.125c0 0-.035.076-.076.063 0 0-.052.118-.035.17 0 0-.028.073-.091.068 0 0 .004.112-.083.136 0 0-.03.043-.02.079.012.036.012.084.012.084z" fill="#8bbf3f" style="filter:url(#y)" transform="scale(3.22046 3.88518) rotate(30.312 2.008 7.776)"/><path d="M1.517 2.21s.131-.027-.034.13c0 0-.03.057-.017.085 0 0-.08.117-.163.131 0 0-.131.037-.074-.02 0 0 .073-.129.141-.135 0 0 .113-.029.074-.117 0 0-.015-.082.073-.074z" fill="#99cc50" style="filter:url(#y)" transform="scale(3.22046 3.88518) rotate(30.312 2.008 7.776)"/><path d="M.892 2.996s.146-.122.035.076c0 0-.077.068-.035-.076zm-.152.241s.097-.004 0 .105c-.098.11-.036-.08 0-.105z" fill="#9acc51" style="filter:url(#y)" transform="scale(3.22046 3.88518) rotate(30.312 2.008 7.776)"/><path d="m1.673 2.055-.044.055-.045-.005.046-.074s-.006-.122.073-.128c0 0 .06-.081.107-.055 0 0 .095.069.027.168 0 0-.139 0-.164.039zm.274-.166s.223.07.245-.21c0 0-.018-.052.144-.078 0 0 .076 0 .067-.216 0 0-.009-.055.148-.086 0 0 .092-.03.078-.134 0 0 .048-.066.225-.049 0 0 .135-.085.148-.17L3.12.843s.093-.147-.115-.06l-.042.043L2.9.834s.035.09-.135.126l-.093.071s-.117.044-.13.117c0 0-.016.095-.126.108l-.14.095s-.054.037-.06.135c0 0 .018.083-.099.094 0 0-.204.142-.17.309z" fill="#8fc73f" style="filter:url(#y)" transform="scale(3.22046 3.88518) rotate(30.312 2.008 7.776)"/><path d="M3.424.653s.144-.059.319-.272c0 0 .256-.07.547.223 0 0-.179.178-.244.228 0 0-.298.207-.327.29l-.18.252-.145.197s-.237.328-.316.374c0 0-.54.396-.604.456-.064.06-.46.505-.46.505l-.18.209-.279.327-.3.354-.368.424-.292.33-.144.115S.367 4.33.509 4.1l.187-.35.17-.368s.153-.395.256-.47l.189-.23.33-.363s.239-.31.35-.328c.11-.017.356-.268.385-.356.028-.09.127-.356.312-.384 0 0 .213-.043.301-.17 0 0 .154-.21.196-.292 0 0 .137-.136.24-.135z" fill="#8bc13f" style="filter:url(#y)" transform="scale(3.22046 3.88518) rotate(30.312 2.008 7.776)"/><path d="M3.55.857s-.218.219-.263.312c-.044.094-.163.268-.277.55 0 0-.102.176-.278.27 0 0-.348.114-.475.346 0 0-.131.28-.37.35 0 0-.238.024-.28.316 0 0 .006.084-.22.297 0 0-.294.255-.336.347 0 0-.26.334-.32.45l-.182.342s.1-.336.126-.402c0 0 .121-.306.283-.426 0 0 .191-.197.217-.35 0 0 .036-.294.232-.429l.375-.337.442-.415s.286-.262.343-.369c0 0 .138-.25.236-.297.097-.046.555-.434.747-.555z" fill="#7ab042" style="filter:url(#y)" transform="scale(3.22046 3.88518) rotate(30.312 2.008 7.776)"/><path d="M3.118 1.222s-.175.042.002.098c0 0 .151-.089-.002-.098z" fill="#8ec63f" style="filter:url(#y)" transform="scale(3.22046 3.88518) rotate(30.312 2.008 7.776)"/><path d="M2.922 1.54s.039-.068-.016-.13c0 0 .139-.045.114.107 0 0-.06.143-.156.132 0 0-.143-.11.058-.108zm-.252.288s.037-.087.005-.133c0 0 .165-.092.089.133 0 0-.157.219-.194.063 0 0-.026-.078.1-.063z" fill="#8fc73f" style="filter:url(#y)" transform="scale(3.22046 3.88518) rotate(30.312 2.008 7.776)"/><path d="M2.42 1.97s.14-.106.14.025c0 0-.113.09-.14-.024z" fill="#8bbf3f" style="filter:url(#y)" transform="scale(3.22046 3.88518) rotate(30.312 2.008 7.776)"/><path d="M2.237 2.109s.08-.122.143.006c0 0-.1.119-.143-.006z" fill="#8fc73f" style="filter:url(#y)" transform="scale(3.22046 3.88518) rotate(30.312 2.008 7.776)"/><path d="M2.051 2.347s.096-.148.132.002c0 0-.054.078-.132-.002z" fill="#8ec63f" style="filter:url(#y)" transform="scale(3.22046 3.88518) rotate(30.312 2.008 7.776)"/><path d="M1.87 2.461s.126-.129.153.065c0 0 .01.113-.175.082 0 0-.203.168-.14-.001zm-.363.357s.16.029.014.166c0 0-.191-.014-.014-.166zm-.152.21s.13.096-.012.166c0 0-.15-.06.012-.166z" fill="#8fc73f" style="filter:url(#y)" transform="scale(3.22046 3.88518) rotate(30.312 2.008 7.776)"/><path d="M1.06 4.092s.074-.037.145.075c0 0 .086.15-.107.154 0 0-.195-.004-.038-.23z" fill="#8dc43f" style="filter:url(#y)" transform="scale(3.22046 3.88518) rotate(30.312 2.008 7.776)"/><path d="M3.363.78s.21-.167.322-.176c0 0 .259-.084.049.114 0 0-.189.044-.277.125l-.23.16s-.3.186-.39.287c0 0-.209.16-.248.245-.04.084-.216.284-.216.284s-.186.207-.279.26l-.36.339s-.27.2-.356.317c-.086.118-.177.177-.215.25 0 0-.098.2-.154.35-.055.149-.044.22-.155.286l-.094.085.05-.129.12-.274s.148-.321.186-.333c0 0 .15-.198.211-.268l.282-.3.233-.192.267-.213s.232-.166.267-.307.194-.268.247-.32c.053-.05.246-.118.388-.261.143-.144.352-.328.352-.328zm.334.036s.153-.253.234-.07c0 0 .071.05-.147.2 0 0-.272.288-.317.398-.045.11-.318.512-.395.566 0 0-.542.426-.59.44 0 0-.842.82-.925.985-.083.164-.367.447-.367.447l-.474.577-.078.078s.237-.488.327-.55c.09-.064.175-.317.33-.402.153-.085.133-.193.267-.275 0 0 .133-.184.142-.307 0 0 .009-.139.259-.203 0 0 .21-.146.328-.345.117-.199.488-.328.488-.328s.357-.27.41-.455c.053-.187.054-.228.151-.303 0 0 .296-.422.357-.453z" fill="#9acc51" style="filter:url(#y)" transform="scale(3.22046 3.88518) rotate(30.312 2.008 7.776)"/><path d="M1.533 3.687s.019-.248.14-.078c0 0 .17.135-.004.171-.175.037-.136-.093-.136-.093zm.155-.285s.082-.142.171.05c0 0 .028.061.08.077 0 0 .038.05-.127.094 0 0-.08-.002-.135-.077 0 0-.08-.062.011-.144z" fill="#8dc43f" style="filter:url(#y)" transform="scale(3.22046 3.88518) rotate(30.312 2.008 7.776)"/><path d="M1.736 3.395s.056.02.07.083c0 0 .095.041.044.075-.052.033-.123.012-.17-.066 0 0-.02-.06.056-.092z" fill="#9acc51" style="filter:url(#y)" transform="scale(3.22046 3.88518) rotate(30.312 2.008 7.776)"/><path d="M1.936 3.398s.171-.06.214-.21c0 0-.03-.064.088-.035 0 0 .228-.193-.125-.158l-.174.151s-.336.215-.003.252z" fill="#8dc43f" style="filter:url(#y)" transform="scale(3.22046 3.88518) rotate(30.312 2.008 7.776)"/><path d="M2.105 3.058s.155-.073.04.058l-.081.112s-.09.15-.163.127c-.074-.023-.071-.064.019-.141 0 0 .142-.153.185-.156z" fill="#9acc51" style="filter:url(#y)" transform="scale(3.22046 3.88518) rotate(30.312 2.008 7.776)"/><path d="M2.508 2.645s.285-.16.167.058c0 0-.072.01-.058.075 0 0 .089.112-.102.104 0 0-.23-.116-.007-.237z" fill="#8dc43f" style="filter:url(#y)" transform="scale(3.22046 3.88518) rotate(30.312 2.008 7.776)"/><path d="M2.798 2.517s-.21-.03-.044-.176c0 0 .092-.107.134.039 0 0 .05.104-.09.137zm.085-.269s.053-.123.147.077c0 0-.088.114-.147-.077zm.268-.197s.332-.238.139.125c0 0-.331.254-.15-.124z" fill="#8dc53f" style="filter:url(#y)" transform="scale(3.22046 3.88518) rotate(30.312 2.008 7.776)"/><path d="M3.511 1.996s.032-.035.109-.01c0 0 .162-.001.195-.017 0 0 .08.034-.033.134 0 0-.23.049-.27-.107z" fill="none" style="filter:url(#y)" transform="scale(3.22046 3.88518) rotate(30.312 2.008 7.776)"/><path d="M3.468 1.741s-.01-.201.134-.096c0 0 .064.159-.134.096z" fill="#8dc53f" style="filter:url(#y)" transform="scale(3.22046 3.88518) rotate(30.312 2.008 7.776)"/><path d="M3.744 1.485s.244-.048.064.109c0 0-.059.014-.026.194 0 0-.057.136-.119-.003 0 0-.09-.274.081-.3z" fill="#8fc73f" style="filter:url(#y)" transform="scale(3.22046 3.88518) rotate(30.312 2.008 7.776)"/><path d="M3.683 1.3s.135.028.286-.08c0 0 .112.013.039.13-.073.117-.33.08-.325-.05zm.153-.231s.12-.145.161.064c0 0-.02.122-.197.081 0 0-.104-.063.036-.145z" fill="#8dc53f" style="filter:url(#y)" transform="scale(3.22046 3.88518) rotate(30.312 2.008 7.776)"/><path d="M4.414.721s.184.216.085.312c0 0-.047.006-.04.178 0 0 .009.1-.096.156 0 0-.04.09-.016.151 0 0-.136.164-.261.255 0 0-.225.206-.199-.074 0 0 .063-.207.171-.297 0 0 .05-.092.044-.214 0 0 .032-.108.105-.12 0 0 .065.004.068-.209 0 0 .111-.22.14-.138z" fill="#8bbf3f" style="filter:url(#y)" transform="scale(3.22046 3.88518) rotate(30.312 2.008 7.776)"/><path d="M4.4.88s.139-.089.072.096c0 0-.074.069-.08.17-.005.102-.003.122-.116.208 0 0 .015.232-.135.297 0 0-.234.19-.186.02 0 0 .104-.163.147-.177 0 0 .093-.21.083-.251 0 0 .002-.156.1-.177 0 0 .111-.08.114-.187z" fill="#9acc51" style="filter:url(#y)" transform="scale(3.22046 3.88518) rotate(30.312 2.008 7.776)"/><path d="m4.192.506.184-.085s.147-.02.297.024c0 0 .182.038.28-.075 0 0 .123-.076.188.004 0 0-.274.126-.33.136-.055.01-.258.039-.322.082 0 0-.059.02-.075.13z" fill="#689f41" style="filter:url(#y)" transform="scale(3.22046 3.88518) rotate(30.312 2.008 7.776)"/><path d="M3.542 2.382s.147-.177.21.003c0 0 .05.134-.105.219 0 0-.085.06-.094-.084 0 0-.032-.127-.011-.138zM2.45 3.665s.269-.23.225-.03c0 0-.152.16-.232.16 0 0-.07-.03.007-.13zm-.245.229s.192-.211.161-.02c0 0-.1.066-.111.113 0 0-.01.118-.17.05 0 0-.102-.105.12-.143z" fill="#8fc73f" style="filter:url(#y)" transform="scale(3.22046 3.88518) rotate(30.312 2.008 7.776)"/><path d="M.5 4.845s.003-.185.277-.286c.275-.1.527-.287.53-.422 0 0 .192-.22.307-.236.115-.016.322-.236.342-.268.02-.032.01-.27.154-.268 0 0 .142.046.242-.195 0 0 .143-.209.22-.003 0 0 .129.065.106-.17 0 0-.004-.191.1-.252.106-.061.276-.259.276-.259l.17-.178s.111-.132.242-.144c0 0-.098-.076-.01-.24 0 0-.112.048-.168-.04 0 0-.08-.092.015-.142 0 0 .103-.056.19.12 0 0 .073-.084.146.063 0 0 .125-.011.123-.032-.001-.02.235.002.08.308 0 0-.066.157-.184.007 0 0-.08-.06-.122 0 0 0 .083.12-.143.284 0 0-.109.117-.123.172 0 0 .174-.08.17.089 0 0-.055.244-.185.184 0 0-.01-.155-.042-.151 0 0-.115.139-.11.15 0 0 .11-.047.113-.013 0 0 .07.162-.1.196 0 0-.14.022-.099-.07l-.114.124s.14-.075.18-.045c0 0 .035.178-.13.199 0 0-.09.002-.125.068 0 0-.116.025-.091-.022 0 0-.101.14-.192.157 0 0-.158.056-.24.145 0 0-.164.098-.283.28 0 0-.081.169-.24.235l-.115.062s.077-.019-.01.071c0 0-.087.064-.115.159 0 0-.042.061-.165-.006 0 0 .042-.107-.102.034 0 0-.212.166-.293.193 0 0-.313.175-.483.142z" fill="#8fc73f" style="filter:url(#y)" transform="scale(3.22046 3.88518) rotate(30.312 2.008 7.776)"/><path d="M3.341 2.327s.257-.144.02.087c0 0-.07.067-.125.167 0 0-.138.268-.215.336 0 0-.18.279-.218.304-.037.025-.157.217-.338.279 0 0-.334.138-.417.27 0 0-.12.263-.301.354 0 0-.515.17-.64.374 0 0-.339.268-.506.26 0 0-.11.016.364-.25 0 0 .49-.316.512-.426 0 0 .292-.257.422-.31 0 0 .197-.142.162-.282 0 0 .014-.099.219-.08 0 0 .138-.078.105-.159 0 0-.022-.109.21.018 0 0 .183-.147.137-.27-.046-.123.233-.349.233-.349z" fill="#9acc51" style="filter:url(#y)" transform="scale(3.22046 3.88518) rotate(30.312 2.008 7.776)"/><path d="M3.672 1.043s.767-.497.662.11c0 0-.645.564-.95.678 0 0-.598.375-.803.686-.206.311-.84 1.3-.946 1.51 0 0-1.014.863-.49.004l.7-1.231s.5-.884 1.008-1.066c0 0 .516-.577.818-.69z" fill="#add572" fill-opacity=".593" style="filter:url(#y)" transform="scale(3.22046 3.88518) rotate(30.312 2.008 7.776)"/><path d="M3.62 1.986s-.12-.069-.109.01c0 0-.03.107.12.107 0 0 .31.08-.011-.117z" fill="#9acc51" style="filter:url(#y)" transform="scale(3.22046 3.88518) rotate(30.312 2.008 7.776)"/><path fill-rule="evenodd" clip-rule="evenodd" fill="#4cb52b" d="m23.216 11.919.086.079.085.089.026.023.024.024.025.023.024.024.05.047.05.045.045.037.046.035.049.032.048.033.038-.014.021-.005.023-.003.058-.012.055-.011.058-.012.056-.012.117-.023.114-.013.13-.008-.022.014-.023.017-.021.019-.022.021-.02.022-.019.026-.017.026-.02.03-.013.03-.014.03-.011.032-.01.035-.007.034-.005.037-.004.038v.077l-.003.017-.006.015-.011.023-.008.012-.01.01-.008.006-.012.006-.013.005-.015.003h-.032l-.018-.001-.02-.002-.028-.008-.029-.001h-.028l-.029.004-.025.007-.027.01-.025.014-.027.017-.021.017-.023.02-.02.02-.02.024-.018.023-.018.027-.016.027-.014.03-.013.03-.012.03-.009.031-.008.033-.007.034-.005.035-.002.035-.002.039.002.022-.002.022-.002.018-.005.019-.004.015-.007.014-.007.012-.009.01-.009.008-.011.006-.012.003-.014.003h-.013l-.016-.001-.016-.005-.02-.004-.017-.008-.02-.005-.045-.003.003-.116.001-.058v-.056l.003-.074.004-.07.006-.072.006-.07.007-.058.004-.056.001-.054-.001-.056.005-.077-.004-.072-.012-.07-.007-.033-.012-.031-.017-.038-.026-.032-.045-.049-.045-.046-.092-.088-.044-.047-.047-.041-.048-.04-.051-.037-.101-.072-.101-.066-.055-.034-.058-.028-.059-.021-.06-.014-.118-.017-.06-.005-.062.002-.122.003-.123.006h-.028l-.029.005-.028.004-.029.008-.056.019-.026.01-.028.014-.108.048-.113.044-.013.003-.013.003h-.013l-.013.001-.01-.003-.005-.001h-.006l-.01-.005-.012-.003-.008-.008-.009-.006-.006-.009-.007-.01-.005-.01-.007-.013v-.005l-.001-.003-.003-.006-.005-.014.017-.013.015-.01.032-.021.033-.025.016-.012.016-.01.054-.036.056-.032.057-.03.058-.023.06-.023.058-.02.06-.017.06-.014.063-.014.06-.01.061-.007.06-.001.062.001.062.005.065.007.064.014.065.014.061.018.058.019.055.021.028.01.027.011.053.028.053.031.054.036.095.068z" style="stroke-width:.704981"/><path fill-rule="evenodd" clip-rule="evenodd" fill="#275b15" d="m21.514 11.94.007.009.008.006.008.008.011.003.01.005h.007l.005.001.01.003.012-.001h.013l.014-.003.013-.004.112-.043.108-.049.028-.014.026-.01.056-.018.03-.008.027-.005.03-.004h.027l.123-.006.122-.003.062-.002.06.005.117.017.061.014.059.02.058.028.055.034.101.067.1.072.052.037.048.04.047.04.045.047.091.088.045.047.045.049.027.031.016.04.012.03.007.033.012.07.004.07-.005.079-.004-.072-.01-.023-.013-.023-.017-.03-.02-.028-.067-.111-.077-.108-.04-.05-.02-.024-.023-.022-.045-.041-.024-.02-.027-.017-.108-.072-.113-.068-.05-.031-.052-.03-.106-.05-.053-.021-.057-.017-.058-.013-.06-.006-.06-.004h-.063l-.064.004-.066.01-.065.01-.062.017-.06.017-.058.023-.115.05-.056.03-.059.031-.025.013-.027.012-.025.011-.013.004-.014.006-.051.016-.05.014-.01-.007-.01-.004-.01-.006-.01-.005-.015-.012-.006-.006-.008-.004v-.003l-.001-.002-.003-.003-.005-.006-.009-.013-.004-.015v-.007l-.003-.006v-.017l.005-.015.006-.019.004-.009.003-.004.002-.004.003-.007.003-.004.006-.01.014-.018.017-.021.01-.01.009-.01.035-.025.005.014.003.006.001.003v.005l.007.012.005.012z" style="stroke-width:.704981"/><path fill-rule="evenodd" clip-rule="evenodd" d="m19.942 15.93.068-.113.07-.111.038-.053.038-.05.04-.046.022-.02.02-.02.04-.032.042-.028.043-.024.022-.011.022-.008.033.047.033.047.033.044.033.043.033.038.029.044.027.046.022.05.012.028.005.013.003.016.005.028.001.03-.001.028-.005.027-.008.028-.012.029-.019.046-.018.049-.017.049-.014.05-.01.056-.002.031-.002.033.002.056-.004.058-.007.055-.01.059-.01.055-.009.056-.007.057-.007.058-.006.116-.004.12-.003.087-.006-.004-.008-.001-.014-.005-.013-.006-.013-.008-.01-.01-.01-.012v-.005h-.001l-.003-.003-.005-.006-.009-.015-.034-.084-.04-.083-.03-.063-.035-.058-.038-.054-.041-.048-.04-.043-.046-.039-.043-.035-.05-.03-.032-.02-.034-.014-.07-.023-.04-.01-.043-.008-.088-.012-.207-.02-.212-.014-.045-.004-.046-.007-.045-.007-.023-.005-.024-.003-.091-.02-.092-.029-.084-.035-.083-.038-.081-.043-.081-.047-.06-.04-.058-.041-.028-.024-.03-.02-.057-.047-.053-.052-.05-.047-.054-.052-.057-.043-.001-.018v-.014l-.002-.003-.001-.034.003-.034.004-.033.038-.008.034-.001.033.001.03.007.03.009.026.013.026.017.021.023.026.024.024.023.048.045.05.04.051.038.054.032.026.015.026.017.027.014.027.016.055.03.111.052.111.047.059.017.058.015.031.005.015.002.014.003.03.003.03.003h.062l.06.001.123.003.063-.003.06-.004.059-.011.057-.014.03-.01.028-.015.028-.016.024-.017.026-.023.021-.024.022-.028zm.574-.005-.004-.039-.002-.016-.005-.012-.012-.022-.006-.008-.01-.004-.015-.008h-.01l-.01.002-.025.009-.027.017-.039.033-.018.016-.019.02-.031.04-.014.023-.014.024-.012.024-.01.023-.017.05-.01.05-.004.025-.003.027.001.009.003.003.003.005.005.001.005.003.013.003.025-.001.022-.003.022-.005.02-.008.022-.01.02-.012.02-.016.017-.017.002-.003.002-.001.004-.003.005-.004.004-.003.006-.006.004-.004.002-.001.008-.008.006-.006.022-.014.01-.008.008-.007.013-.02.007-.01.004-.01.009-.026.003-.013.002-.014.001-.033v-.016z" fill="#4cb52b" style="stroke-width:.704981"/><path fill-rule="evenodd" clip-rule="evenodd" fill="#275b15" d="m20.493 15.836.012.022.005.012.002.016.004.04.003.015v.016l-.001.032-.002.014-.004.014-.009.026-.003.01-.007.01-.014.02-.007.007-.01.008-.022.014-.007.006-.007.008-.002.001-.004.003-.007.006-.003.003-.006.004-.003.003-.002.002-.002.003-.018.017-.02.015-.019.012-.022.01-.02.009-.022.004-.022.003-.025.002-.013-.003-.005-.003-.006-.002-.002-.004-.003-.004-.001-.009.003-.027.003-.025.01-.05.018-.049.01-.025.012-.023.014-.024.014-.022.032-.04.019-.02.017-.017.04-.032.026-.018.024-.008.012-.003.009.001.016.008.009.004z" style="stroke-width:.704981"/><path fill-rule="evenodd" clip-rule="evenodd" fill="#275b15" d="m20.644 15.618.013.02.011.022.008.01.003.001.001.003.003.006.012.018.015.014.014.013.005.001.004.003.007.006.006.002.003.003.008.006.01.003.005.002.004.003.02.005.02.005.02.004.026.005.02.012.02.019.016.024.012.017.009.019.01.033.005.015v.017l-.003.031-.008.028-.008.012-.01.013-.01.01-.015.013-.013.011-.018.013-.048.027-.023.012-.011.006-.013.008-.045.024-.01.005-.011.006-.023.012.002.055.002.055.006.052.006.053.012.042.006.022.005.023.007.023.002.024v.021l-.002.011-.004.012-.007.016-.009.016-.011.016-.006.007-.009.01-.024.023-.02.025-.015.028-.013.032-.007.033-.004.034.002.037.005.042.01.036.003.003h.001v.005l.003.01.006.018.008.015.005.008.004.008.022.031.016.017.01.02.007.02.001.02-.001.022-.007.024-.009.024-.013.026-.006.01-.01.009-.011.005-.013.006-.035.011-.034.017-.034.023-.027.029-.023.032-.009.018-.01.022-.005.017-.006.018-.01.037-.004.033-.003.037.003.034.002.017.001.018.008.034.005.017.005.017.01.018.01.013-.022-.012-.005-.005-.007-.003-.013-.006-.02-.015-.024-.017-.02-.02-.02-.02-.01-.013-.01-.01-.02-.026-.076-.11-.038-.055-.038-.054-.016-.03-.018-.029-.034-.062-.03-.063-.015-.034-.015-.032-.013-.036-.015-.031-.034-.062-.037-.058-.02-.027-.023-.024-.045-.053-.05-.043-.052-.038-.054-.03-.212-.112-.055-.028-.057-.02-.058-.016-.061-.008-.058-.008-.014-.003-.016-.001-.03-.005-.058-.013-.059-.017-.118-.041-.119-.039-.058-.02-.06-.023-.06-.026-.06-.025-.026-.017-.013-.01-.002-.003v-.001h-.003l-.008-.003-.026-.02-.025-.018-.023-.024-.024-.02-.022-.025-.022-.025-.041-.053-.039-.055-.018-.03-.02-.027-.034-.056-.013-.028-.005-.014-.006-.012-.01-.028-.002-.014-.004-.011.058.042.054.052.05.047.052.052.058.047.03.02.027.024.057.04.06.041.082.047.081.043.084.039.083.035.092.027.091.021.024.003.023.005.045.008.046.006.046.005.211.013.207.02.088.012.043.008.04.01.07.024.034.013.032.02.05.031.044.035.044.039.04.042.043.05.038.053.034.058.03.062.04.083.034.084.01.015.004.007.002.003h.001v.004l.01.013.011.01.013.008.013.006.014.004.008.002.007.003.002-.087.004-.12.006-.115.007-.06.007-.056.009-.056.01-.055.01-.058.007-.055.004-.058-.002-.057.002-.032.002-.031.01-.056.014-.051.017-.049.019-.049.02-.046.01-.029.008-.027.005-.028.001-.028-.001-.03-.005-.028-.003-.015-.005-.013-.011-.028-.023-.05-.027-.047-.029-.044-.033-.038-.033-.043-.033-.045-.033-.045-.033-.048.033-.01.027-.007.023.002.049.047.023.025.02.028.035.056z" style="stroke-width:.704981"/><path fill-rule="evenodd" clip-rule="evenodd" fill="#95001b" d="m20.842 15.182-.023.025-.02.027-.02.028-.018.031-.018.034-.013.03-.01.032-.01.033-.008.033-.005.034-.004.035v.037l-.002.037.004.1-.013-.018-.002-.006-.001-.003-.003-.001-.008-.01-.011-.021-.013-.021-.028-.063-.035-.057-.02-.027-.022-.025-.05-.047.036-.054.04-.049.023-.024.024-.024.051-.042.058-.043.064-.039.034-.017.035-.019.074-.032.079-.03.077-.025-.038.029-.04.031-.042.029-.046.03-.026.017-.026.022z" style="stroke-width:.704981"/><path fill-rule="evenodd" clip-rule="evenodd" fill="#ce0026" d="m21.225 14.966.07-.011.07-.008.07-.004h.071l.071.003.069.007.07.01.072.014.071.017.07.023.038.01.035.014.07.029.072.032.071.039.148.077.146.08.147.077.148.076.15.073.148.074.15.072.038.017.036.017.073.038.302.136.153.066.076.032.075.033.077.03.076.033.152.062.154.06.154.062.088.02.086.02.085.016.083.014.086.01.082.008.083.005.08.001.013.006.01.007h.063l1.319.017 1.322.015.026-.002.023.001.02.002.017.006.015.006.012.01.008.009.004.014.004.011-.002.017-.004.017-.006.02-.008.02-.013.023-.016.024-.019.028-.116.084-.12.082-.121.082-.124.08-.151.09-.076.044-.079.046-.077.043-.08.043-.161.084-.116.054-.118.055-.118.052-.119.05-.119.047-.12.047-.12.042-.123.041-.122.037-.122.035-.123.034-.126.032-.124.029-.126.026-.126.025-.129.023-.25.036-.124.018-.061.01-.065.01-.247.035-.25.037-.057-.02-.061-.012-.061-.009-.061-.001-.12-.005h-.121l-.22-.003-.219-.004-.048-.005-.051-.005-.048-.009-.051-.01-.104-.028-.107-.02-.094-.017-.094-.018-.051-.012-.026-.008-.025-.006-.103-.031-.057-.018-.06-.01-.06-.007h-.06l-.054-.001-.053-.002-.053-.005-.013-.003-.003-.001h-.01l-.029-.003-.107-.021-.107-.016-.058-.007-.03-.007-.03-.004-.058-.013-.059-.013-.057-.017-.058-.01-.058-.007-.062-.001-.057-.006-.029-.007-.03-.007-.028-.01-.028-.013-.028-.014-.027-.015-.052-.039-.05-.038-.024-.02-.026-.021-.01-.012-.014-.011-.025-.021-.023-.025-.011-.012-.013-.01-.021-.025-.024-.023-.041-.05-.042-.048.034-.017.035-.01.013-.007.01-.005.01-.01.007-.009.014-.026.009-.024.006-.024.001-.021-.001-.021-.008-.02-.01-.02-.015-.017-.022-.03-.003-.01-.006-.008-.008-.015-.006-.018-.003-.01v-.004h-.001l-.003-.003-.01-.036-.005-.042-.001-.037.004-.034.006-.033.013-.032.015-.028.02-.026.024-.023.009-.009.006-.007.012-.016.009-.016.006-.016.05-.001.023-.002.022-.001.042-.01.039-.01.114-.041.113-.039.057-.016.056-.013.058-.009.058-.004.116-.008h.117l.218.003h.187l.219.005h.055l.055.004.112.014h.009v.002l.007.003h.009v.001l.007.003.018.002.018.001.034-.001.033.001.032.005.03.008.058.016.06.02.116.047.051.023.049.026.047.03.044.033.053.038.054.035.056.031.055.026.056.02.028.01h.008l.006.004.013.006.11.033.062.014.03.005.03.006.032.003.03.005.06.005.202.008.104.003.102.001h.077l.073.005.115.005.114.003h.831l.124.001.125.006.057.002h.057l.03-.003.028-.002.055-.004.088-.019.084-.02.063-.02.06-.013.125-.02.047-.009.045-.015.023-.011.023-.013.043-.027-.109.013-.113.01-.056.004-.057.008-.113.017-.061.006-.061.005-.063.001-.063-.001h-.7l-.114-.003-.117-.005-.232-.015-.027-.003-.027-.004-.056-.009-.053-.013-.056-.016-.114-.046-.115-.049-.102-.049-.106-.042-.1-.045-.105-.043-.04-.017-.043-.013-.043-.01-.045-.008-.053-.011-.053-.014-.026-.01-.026-.01-.053-.023-.113-.055-.117-.047-.058-.022-.06-.017-.061-.012-.063-.005-.12-.008-.12-.005h-.055l-.056.003-.053.005-.054.008-.06.005-.062.005-.06.001h-.063l-.064-.001-.064.001-.14.005h-.226l-.12-.005-.119-.008-.053-.003-.054.002-.053.004-.054.01-.058.012-.06.02-.058.024-.061.028-.029.013-.03.013-.032.01-.034.013-.034.008-.036.009-.039.006-.04.008-.007-.053-.006-.052-.002-.054-.001-.056.022-.012.012-.006.01-.005.044-.024.013-.008.011-.006.023-.012.048-.027.018-.013.014-.01.014-.013.01-.01.01-.014.008-.012.008-.028.004-.031-.001-.016-.004-.016-.01-.033-.01-.019-.011-.017-.017-.024-.02-.018-.02-.013-.026-.004-.02-.005-.02-.005-.02-.005-.003-.003-.005-.002-.01-.003-.008-.006-.004-.003-.005-.001-.007-.007-.004-.003-.005-.001-.014-.013-.016-.014-.004-.1.002-.037v-.037l.005-.035.005-.034.008-.033.009-.033.011-.031.013-.031.017-.034.018-.03.02-.03.02-.025.024-.026.024-.023.025-.022.027-.016.045-.031.042-.029.04-.03.039-.03.07-.02.036-.009z" style="stroke-width:.704981"/><path fill-rule="evenodd" clip-rule="evenodd" fill="#df777b" d="m20.85 16.344.035-.012.032-.011.03-.013.028-.013.061-.03.058-.022.06-.02.058-.012.055-.01.053-.004.053-.002.053.004.12.007.12.005h.226l.14-.005.064-.001.064.001h.062l.06-.001.062-.005.06-.005.054-.008.054-.005.056-.003h.054l.12.005.12.008.063.005.061.012.06.017.058.022.117.047.113.055.053.024.027.009.025.01.053.014.054.01.044.008.043.011.043.013.04.017.106.043.1.045.105.043.103.048.114.05.114.046.056.015.053.013.056.01.028.003.027.003.232.015.116.005.115.003h.7l.063.001.062-.001.061-.005.061-.006.114-.017.057-.008.056-.004.113-.01.109-.013-.043.027-.023.013-.023.01-.046.016-.046.01-.125.019-.06.014-.063.018-.085.021-.087.019-.056.004-.028.002-.03.003h-.055l-.058-.001-.125-.007-.124-.001h-.83l-.115-.003-.114-.005-.074-.004h-.077l-.101-.002-.104-.003-.202-.008-.06-.005-.03-.005-.033-.003-.029-.006-.03-.005-.061-.014-.111-.033-.013-.006-.007-.003-.007-.002-.028-.009-.056-.02-.056-.026-.056-.03-.053-.035-.053-.04-.045-.033-.046-.029-.048-.025-.052-.024-.117-.047-.059-.02-.057-.017-.031-.008-.032-.004-.033-.001-.034.001-.018-.001-.018-.002-.008-.003v-.001h-.008l-.008-.003v-.002h-.009l-.111-.014-.055-.004h-.056l-.218-.005h-.187l-.219-.003h-.116l-.117.008-.057.004-.058.01-.056.012-.057.016-.113.039-.114.04-.039.012-.042.009-.022.002-.024.001-.05.002.005-.013.001-.01.001-.022-.002-.024-.007-.024-.005-.023-.006-.02-.012-.043.04-.008.04-.006.036-.01z" style="stroke-width:.704981"/><path fill-rule="evenodd" clip-rule="evenodd" fill="#95001b" d="m20.941 17.592.028.016.028.014.028.012.027.01.031.008.028.006.058.006.061.002.058.006.059.01.057.018.058.013.058.012.03.005.03.006.058.008.108.015.107.021.028.003h.01l.003.002.013.003.053.005.054.001.053.002h.061l.06.006.06.01.057.018.102.031.026.007.026.007.05.013.095.017.093.018.108.02.104.027.05.01.049.01.05.005.049.004.218.005.22.003h.123l.119.004.06.002.061.008.06.013.06.02-.207.027-.208.028-.103.012-.104.014-.103.012-.104.014-.056.004-.057.007-.11.009-.053.003h-.013l-.014.001-.027.004-.108.006-.103.003h-.05l-.05.001h-.196l-.045-.003-.023-.001h-.024l-.09-.006-.043-.005-.045-.003-.02-.003-.01-.002h-.012l-.043-.003-.08-.012-.08-.013-.078-.015-.075-.016-.078-.02-.08-.021-.038-.013-.018-.006-.02-.005-.08-.021-.074-.024-.076-.025-.018-.008-.02-.006-.037-.012-.017-.008-.02-.005-.038-.013-.035-.015-.018-.008-.02-.006-.034-.016-.018-.007-.02-.006-.07-.03-.07-.03-.07-.033-.016-.01-.018-.007-.035-.016-.068-.033-.068-.034h-.022l-.009-.003-.01-.004-.01-.014-.01-.017-.005-.018-.005-.017-.008-.033-.001-.019-.003-.017-.002-.033.002-.037.005-.034.01-.037.006-.018.005-.017.01-.021.009-.018.023-.033.027-.028.034-.024.041.05.042.048.023.023.021.025.013.01.012.012.022.025.026.021.013.01.011.013.025.02.025.021.05.039z" style="stroke-width:.704981"/><path fill-rule="evenodd" clip-rule="evenodd" fill="#c60026" d="m25.647 12.637.092.09.046.047.043.053.044.052.042.056.042.059.04.062.126.158.12.163.119.162.111.168.11.166.103.172.101.171.096.176.073.116.02.028.011.014.008.015.039.059.08.113.044.054.043.057.046.054.045.054.096.108.052.052.025.026.024.027.051.052.015.013.013.014.025.027.195.156.1.076.052.039.048.04.052.036.052.038.102.077.208.15.028.016.026.019.053.036.108.074.219.144.111.069.112.07.114.07.112.069.086.055.08.059.08.058.075.061.149.124.072.064.068.066.066.066.065.067.123.14.06.07.055.071.054.074.05.077.012.011.009.014.008.012.005.014.007.024.003.011v.022l-.003.01-.002.01-.005.01-.013.019-.01.007-.01.01-.11-.008-.053-.005-.054-.003-.052-.006-.053-.004-.104-.011-.012-.003-.013-.001-.025-.003-.05-.006-.1-.014-.096-.016-.047-.01-.048-.007-.091-.02-.022-.005-.023-.005-.045-.01-.043-.012-.022-.006-.023-.005-.043-.011-.021-.006-.023-.005-.04-.014-.043-.012-.04-.014-.042-.012-.08-.028-.038-.015-.009-.005-.01-.003-.02-.006-.111-.035-.11-.029-.106-.029-.108-.023-.105-.023-.104-.017-.103-.015-.101-.011-.099-.09-.1-.077-.054-.038-.057-.03-.058-.024-.059-.02.124-.079.12-.081.122-.082.116-.085.019-.027.015-.024.013-.024.009-.02.006-.02.004-.016.001-.017-.004-.012-.004-.014-.008-.01-.012-.008-.015-.007-.017-.006-.02-.001-.023-.002-.026.002-1.321-.016-.064-.01-.03-.006-.016-.003-.007-.002h-.01l-.06-.015-.03-.01-.03-.007-.012-.006-.007-.003-.007-.001-.028-.01-.056-.021-.056-.023-.055-.026-.051-.03-.026-.016-.013-.009-.001-.003-.002-.001h-.002l-.008-.004-.005-.006-.003-.003-.001-.001h-.003l-.013-.01-.025-.018-.024-.021-.026-.022-.045-.047-.048-.041-.1-.078-.096-.08-.023-.022-.005-.005-.003-.003-.001-.002h-.003l-.013-.01-.048-.042-.174-.17-.045-.046-.047-.04-.098-.074-.05-.04-.023-.021-.026-.02-.022-.024-.024-.02-.049-.047-.039-.043-.043-.04-.043-.04-.045-.036-.05-.043-.047-.044-.045-.046-.024-.025-.01-.012-.014-.01-.045-.052-.019-.028-.01-.014-.012-.012-.009-.016-.01-.013-.02-.028-.016-.03-.01-.016-.01-.014-.035-.062-.042-.057-.045-.052-.05-.047-.01-.012-.005-.007-.003-.003-.001-.001h-.003l-.023-.021-.045-.043-.043-.045-.045-.042-.043-.047-.02-.024-.01-.012-.006-.006-.002-.003-.001-.002h-.003l-.04-.049v-.003l-.002-.001-.002-.003-.005-.006-.01-.013-.02-.024-.08-.108-.083-.103-.042-.054-.039-.05-.036-.05-.032-.044.033-.024.031-.024-.007-.088.01.008.01.01.019.03.035.049.02.024.02.028.045.054.049.056.102.107.028.024.027.025.027.02.027.023.071.05.065.056.015.013.016.01.026.02.027.009.021.005-.012-.033-.014-.033-.017-.033-.02-.032-.035-.064-.038-.06-.038-.06-.04-.054-.04-.06-.008-.015-.01-.013-.02-.028-.038-.058-.036-.058-.036-.06-.039-.054-.02-.025-.024-.024-.046-.044-.042-.042-.042-.043-.038-.046-.018-.024-.019-.02.004-.055.006-.052.01-.02.01-.017.019-.03.01-.013.011-.01.023-.016.026-.012.013-.005.012-.001h.029l.03.008.036.015.016.01.014.014.015.014.013.017.011.018.01.023.029.057.032-.055.033-.055.027-.038.026-.036.01.022.01.02.013.022.014.024.016.024.018.024.019.024.02.027.024.025.023.023.025.02.013.01h.002l.001.001.003.004.005.006.008.002h.002l.002.002.002.003.013.009.008.003h.002l.002.002.002.003.013.009.028.015.013.007.013.007.056.024.055.025.053.031.051.035.049.036.047.041.023.022.02.025.04.052.044.056.044.06.042.049.039.052.077.11.042.052.043.05.024.024.02.024.047.045.044.04.04.048.04.047.036.053.072.102.064.107.037.058.039.058.038.056.041.056.04.05.036.054.035.054.032.056.018.028.01.014.009.015.02.026.02.025.023.024.023.024.024.021.023.022.055.043.027.02.027.021.036.024.034.028.033.032.03.036.023.02h.003l.001.002.003.003.005.006.01.013.023.02.022.02.012.008.011.01.023.018.026.017.012.008.012.009.054.03.052.034.102.072.027.018.015.01.012.01.054.037.055.035.056.034.058.025.058.028.116.05.113.047.112.052.055.024.056.026.015.005.014.006.028.012.056.024.054.02.053.023.054.026.053.033-.017-.031-.02-.028-.046-.05-.022-.024-.026-.022-.054-.04-.05-.034-.053-.024-.054-.018-.057-.01-.007-.004-.007-.002-.015-.003-.03-.006-.03-.01-.03-.007-.028-.011-.014-.007-.016-.004-.027-.014-.03-.013-.055-.031-.027-.019-.028-.017-.053-.039-.025-.019-.027-.018-.095-.078-.1-.074-.05-.038-.024-.021-.025-.02-.049-.043-.022-.023-.024-.021-.092-.093-.046-.045-.05-.042-.095-.08-.097-.083-.191-.171-.012-.013-.012-.01-.025-.021-.049-.045-.023-.024-.01-.013-.013-.01-.024-.025-.011-.012-.013-.01-.021-.029-.02-.025-.018-.03-.017-.027-.014-.03-.013-.032-.01-.031-.01-.031-.019-.069-.013-.034-.014-.03-.016-.032-.017-.029-.042-.057-.08-.107-.04-.055-.018-.028-.021-.026-.072-.102-.076-.097-.037-.047-.042-.043-.043-.038-.046-.033-.107-.079-.053-.038-.055-.035-.051-.037-.025-.018-.013-.01-.003-.002-.001-.002h-.003l-.007-.003-.104-.072-.025-.021-.027-.022-.011-.012-.013-.01-.026-.022-.022-.026-.025-.024-.022-.028-.005-.008-.007-.006-.012-.012-.04-.058-.037-.054-.034-.053-.029-.049-.007-.023-.005-.02-.002-.02.002-.018-.013-.032-.014-.031-.023-.061-.005-.022-.004-.02-.002-.018-.002-.017.002-.018v-.015l.009-.03.015-.025.02-.023.028-.02.015-.008.017-.006.037-.015.032-.016.059-.028.035.042.01.01.006.004.003.006.021.021.022.019.013.01h.004l.002.004.005.006.05.036.111.068.107.067.051.035.025.019.021.021.039.044.019.024.014.025-.014-.025-.018-.024-.04-.044-.021-.021-.024-.019-.052-.035-.107-.067-.11-.068-.051-.036-.005-.006-.003-.003v-.002h-.003l-.013-.01-.023-.018-.02-.02-.004-.007-.005-.004-.01-.01-.036-.042.033-.016.027-.028.026-.019.023-.015.023-.007.016-.004.015-.003.023-.011.012-.008.009-.006.015-.016.058-.003h.058l.058.004.055.008.059.01.056.015.058.019.056.023.054.024.052.03.052.028.05.034.05.034.049.038z" style="stroke-width:.704981"/><path fill-rule="evenodd" clip-rule="evenodd" fill="#df777b" d="m25.713 14.307.015.03.013.034.02.068.009.031.01.032.013.03.013.032.017.027.017.03.02.025.023.028.013.01.01.012.024.025.012.01.011.013.023.024.049.045.025.021.013.01.011.013.191.171.097.083.095.08.05.043.046.044.092.093.024.021.022.024.049.042.025.02.024.022.051.038.099.074.095.077.027.019.025.02.053.038.028.017.027.018.055.032.03.012.027.014.016.005.014.006.027.012.031.007.03.01.03.006.015.003.007.002.007.003.057.01.055.019.053.024.05.034.054.04.025.021.023.024.044.05.02.028.018.031-.053-.032-.053-.026-.054-.024-.054-.02-.056-.024-.028-.011-.014-.007-.015-.004-.055-.027-.056-.024-.112-.051-.113-.047-.117-.05-.057-.028-.058-.026-.055-.034-.056-.035-.054-.036-.012-.01-.015-.01-.027-.019-.102-.072-.052-.033-.054-.03-.012-.01-.013-.008-.025-.016-.023-.019-.011-.009-.013-.008-.021-.02-.023-.02-.01-.013-.005-.006-.003-.003v-.002h-.004l-.023-.02-.03-.037-.033-.031-.034-.03-.036-.023-.026-.02-.028-.02-.055-.044-.023-.021-.023-.021-.024-.025-.022-.023-.02-.026-.021-.026-.008-.016-.01-.013-.02-.028-.032-.056-.034-.054-.037-.054-.039-.05-.04-.056-.04-.056-.038-.058-.037-.058-.064-.107-.072-.102-.037-.052-.039-.047-.04-.048-.045-.04-.045-.046-.022-.024-.023-.023-.043-.05-.042-.052-.077-.111-.04-.052-.041-.049-.045-.06-.044-.056-.04-.052-.02-.024-.023-.022-.047-.041-.05-.037-.05-.035-.053-.031-.055-.026-.055-.023-.013-.008-.014-.005-.028-.016-.013-.009-.002-.003-.001-.001h-.003l-.007-.004-.013-.009-.003-.003-.001-.001h-.003l-.007-.003-.006-.006-.002-.003-.001-.002h-.002l-.013-.009-.026-.022-.022-.023-.025-.024-.02-.026-.019-.024-.018-.025-.016-.023-.014-.024-.013-.022-.01-.02-.01-.022.04-.041.039-.036.043-.032.023-.015.02-.013v.039l.006.02.008.023.029.048.033.055.036.052.04.058.014.013.006.006.005.008.023.028.024.024.023.026.026.02.012.012.012.012.026.022.026.02.104.073.007.003h.002l.002.001.002.003.013.01.026.018.05.037.055.034.053.04.107.077.047.034.043.038.041.043.037.047.076.097.072.102.02.026.02.028.039.055.08.106.042.058.017.028z" style="stroke-width:.704981"/><path fill-rule="evenodd" clip-rule="evenodd" fill="#275b15" d="m23.824 13.018-.012.014-.02.029-.008.017-.01.02-.007.052-.004.055v.08l.003.04.004.043.014.099.009.1.008.088-.031.025-.033.024-.042.026-.044.024-.026.014-.028.017-.055.039-.05.04-.024.024-.025.025-.001-.009-.003-.008-.005-.018-.002-.02-.005-.023-.008-.069-.007-.067v-.035l-.003-.034-.002-.067v-.06l.045.003.02.005.018.007.02.005.015.005.016.001h.013l.014-.003.012-.003.011-.006.01-.008.008-.01.007-.012.007-.014.004-.016.005-.018.002-.018.002-.022-.002-.023.002-.038.002-.035.005-.036.007-.033.008-.034.01-.03.01-.031.014-.029.014-.03.016-.028.018-.026.018-.023.02-.024.02-.02.023-.02.021-.017.027-.017.025-.014.027-.01.025-.007.03-.004h.027l.03.001.028.008.02.001.017.002h.033l.014-.003.013-.005.012-.006.008-.006.01-.01.008-.011.011-.025.006-.016.002-.016.001-.018v-.059l.004-.038.005-.037.007-.033.01-.035.011-.032.014-.031.014-.029.019-.03.018-.026.02-.027.018-.021.022-.021.02-.019.024-.017.021-.013.058-.005h.285l-.015.016-.009.005-.012.008-.023.01-.014.004-.017.004-.023.007-.024.015-.026.02-.025.027-.034.016-.06.029-.031.015-.037.016-.016.005-.015.008-.028.02-.02.023-.016.026-.008.029-.001.015-.001.018.001.017.003.019.003.02.006.02.023.063.014.03.013.032-.022.012-.023.016-.043.031-.04.036-.038.041-.026.035-.027.04-.032.054-.034.055-.03-.057-.008-.023-.011-.018-.013-.017-.015-.014-.014-.014-.017-.01-.036-.016-.03-.008h-.027l-.013.002-.014.005-.026.012-.022.015z" style="stroke-width:.704981"/><path fill-rule="evenodd" clip-rule="evenodd" fill="#95001b" d="m24.6 14.757.018.028.01.014.01.016.01.011.01.014.021.028.045.052.012.01.011.013.023.024.046.047.048.044.048.042.046.037.044.04.043.04.039.042.048.047.024.02.023.024.025.02.024.02.05.041.097.074.048.04.044.045.174.171.049.043.012.01h.003l.001.001.003.003.005.006.022.021.097.08.1.078.049.041.045.048.025.021.025.021.025.019.013.009h.002l.001.002.003.003.005.006.008.003h.002l.002.001.002.004.013.009.025.016.05.03.057.025.056.023.055.022.028.01h.008l.006.004.013.005.03.008.03.01.06.015h.009l.008.001.015.003.03.007.064.01-1.32-.017-.085-.012-.017-.012-.02-.014-.022-.017-.023-.017-.049-.04-.048-.044-.048-.047-.05-.048-.092-.1-.097-.094-.09-.093-.093-.095-.046-.05-.045-.052-.043-.054-.043-.055-.079-.112-.082-.107-.083-.108-.086-.106-.08-.11-.04-.055-.04-.054-.083-.113-.086-.11-.04-.055-.038-.055-.035-.057-.036-.056-.033-.063-.032-.062-.032-.064-.015-.032-.017-.031-.027-.064-.004-.017-.007-.015-.012-.031-.02-.064-.016-.064.026-.026.024-.023.05-.041.054-.04.027-.015.027-.014.044-.024.042-.027.032.044.036.05.038.05.042.054.083.102.08.108.02.025.01.013.005.006.003.003.001.001v.003l.04.05h.004l.003.004.005.006.01.012.02.024.044.047.044.042.043.045.046.043.023.02h.002l.002.002.002.004.005.006.01.012.051.047.045.052.041.057.036.062.01.014.009.016zm-.387-.732-.027-.022-.028-.02-.027-.025-.027-.024-.103-.108-.048-.057-.046-.053-.02-.028-.02-.024-.035-.049-.02-.03-.009-.01-.01-.008-.01-.1-.013-.099-.004-.042-.003-.041v-.08l.02.022.018.023.037.046.042.042.042.043.047.045.023.023.02.025.039.054.036.06.036.058.038.058.02.028.01.013.009.016.039.057.04.055.039.06.038.06.034.065.02.031.017.034.015.032.011.033-.02-.005-.028-.01-.026-.018-.016-.01-.015-.013-.064-.057zm3.464 3.16-.068.002-.066.002-.068.004-.063.005-.065.008-.064.007-.064.01-.06.011-.063.014-.06.014-.061.016.16-.083.08-.044.077-.042.08-.047.076-.044.15-.09.06.019.057.024.057.03.054.037.1.078.099.09-.071-.008-.07-.005-.07-.004-.07-.002z" style="stroke-width:.704981"/><path stroke-miterlimit="10" stroke="#030904" stroke-linecap="square" fill="none" d="m24.565 12.425-.06.029-.032.015-.036.016-.016.005-.016.008-.027.02-.02.023-.016.026-.008.03-.001.015-.002.018.002.017.002.018.004.02.005.021.023.062.015.03.012.032-.021.012-.024.016-.043.032-.039.035-.038.041-.027.035-.027.04-.032.054-.033.055-.03-.057-.009-.023-.01-.018-.013-.017-.016-.014-.014-.014-.016-.01-.036-.016-.03-.008h-.028l-.012.003-.015.004-.025.012-.023.015-.01.011-.011.014-.02.029-.008.017-.01.02-.007.052-.004.055v.08l.003.04.004.043.014.099.009.1.008.088-.031.024-.033.024-.042.027-.044.024-.026.014-.028.017-.055.039-.05.04-.024.024-.025.025m-2.954 1.485-.022-.001-.027.006-.033.011-.022.008-.022.01-.043.025-.041.027-.04.034-.021.018-.021.022-.04.046-.04.048-.037.055-.07.11-.068.113-.02.028-.02.03-.022.023-.026.023-.024.016-.028.018-.028.013-.03.01-.058.014-.059.011-.06.005-.062.003-.122-.003-.061-.002h-.062l-.03-.003-.03-.003-.014-.003-.015-.001-.03-.005-.058-.015-.06-.018-.11-.046-.112-.053-.055-.03-.027-.016-.027-.013-.026-.017-.026-.016-.054-.032-.051-.038-.05-.039-.048-.045-.025-.025-.025-.023-.021-.022-.026-.017-.026-.014-.03-.009-.03-.006-.033-.002-.034.002-.038.008-.004.033-.003.034.001.033.002.003v.014l.001.019.004.012.003.014.009.027.006.012.005.014.013.028.035.056.02.027.017.03.039.055.041.054.022.023.022.026.024.02.023.024.026.019.025.019.008.003h.002l.001.001.003.004.013.009.025.017.06.025.059.027.06.023.059.02.12.038.118.041.057.017.06.013.03.005.015.001.013.004.059.007.06.008.06.015.056.021.055.028.212.112.054.03.052.04.05.041.045.053.023.024.02.028.037.058.034.061.015.032.013.035.015.032.015.034.03.064.034.062.018.028.016.031.038.054.037.055.077.11.02.024.01.011.01.013.02.02.02.02.023.018.021.015.013.006.007.003.005.004.022.013m.01-2.274.036-.053.04-.049.023-.025.025-.023.05-.043.058-.042.064-.039.034-.018.036-.018.074-.032.078-.031.077-.024.071-.02.036-.01.034-.006.07-.01.07-.008.07-.005h.071l.071.003.07.008.07.01.071.013.071.017.07.024.038.01.035.014.071.028.071.033.071.038.148.078.146.08.147.076.148.076.15.074.148.073.15.072.038.017.037.018.073.037.301.137.153.065.076.032.075.033.077.031.076.032.152.063.155.06.154.061.087.02.086.02.085.017.084.013.085.011.082.008.083.004.08.002" stroke-width=".028"/><path stroke-miterlimit="10" stroke="#030904" stroke-linecap="square" fill="none" d="m20.48 17.672-.01-.014-.01-.017-.006-.018-.005-.017-.008-.033-.001-.019-.003-.017-.002-.033.002-.037.005-.033.01-.038.006-.017.005-.017.01-.022.009-.018.023-.032.027-.03.034-.022.034-.017.034-.011.014-.006.01-.006.01-.01.007-.008.013-.027.01-.024.006-.023V17.064l-.008-.02-.01-.02-.015-.017-.022-.031-.004-.01-.005-.007-.008-.016-.007-.017-.002-.01v-.004h-.002l-.002-.003-.01-.037-.006-.042v-.036l.003-.035.006-.032.013-.032.015-.028.02-.026.025-.024.008-.008.007-.008.011-.015.01-.016.006-.016.004-.012v-.011l.002-.022-.002-.024-.007-.023-.005-.023-.006-.021-.012-.043-.006-.053-.007-.051-.002-.055v-.055l.022-.013.011-.006.01-.005.045-.024.013-.007.01-.006.024-.013.048-.027.018-.012.013-.011.014-.013.01-.01.01-.014.009-.012.008-.028.004-.03-.002-.017-.003-.016-.011-.033-.01-.018-.011-.017-.017-.024-.019-.019-.021-.012-.026-.005-.02-.005-.02-.004-.02-.006-.003-.003-.005-.001-.01-.003-.008-.007-.004-.003-.005-.001-.007-.006-.004-.003-.005-.002-.014-.012-.015-.014-.013-.018-.002-.006-.001-.003-.003-.002-.008-.01-.011-.02-.013-.022-.028-.062-.035-.057-.02-.028-.022-.025-.05-.046" stroke-width=".028"/><path stroke-miterlimit="10" stroke="#030904" stroke-linecap="square" fill="none" d="m26.975 17.279-.116.055-.118.054-.118.052-.119.05-.12.047-.12.047-.12.042-.122.041-.122.037-.123.035-.123.034-.126.032-.123.029-.126.026-.127.025-.128.023-.25.037-.124.017-.062.01-.064.01-.248.035-.249.038-.207.027-.207.028-.103.012-.104.014-.103.011-.104.014-.056.005-.057.006-.11.01-.053.003h-.013l-.014.001-.027.003-.108.006-.103.003h-.05l-.05.002h-.196l-.045-.003-.023-.002h-.024l-.09-.006-.043-.004-.045-.004-.02-.003-.01-.001h-.012l-.043-.003-.08-.013-.08-.012-.078-.015-.075-.016-.078-.02-.08-.022-.038-.012-.018-.006-.02-.005-.08-.022-.074-.024-.076-.024-.018-.008-.02-.006-.037-.013-.017-.007-.02-.006-.038-.012-.035-.016-.018-.007-.02-.007-.034-.015-.018-.008-.02-.005-.07-.031-.07-.029-.07-.034-.016-.01-.018-.007-.035-.015-.068-.034-.068-.033h-.022l-.009-.003-.01-.005m6.496-.393.06-.016.06-.014.063-.014.061-.011.064-.01.064-.009.065-.007.064-.004.067-.005.066-.001.068-.002.067.002.07.001.07.005.07.004.07.009.102.01.103.016.104.017.105.024.108.022.107.03.109.028.11.035.021.006.01.003.01.005.037.015.08.028.041.012.041.014.042.012.04.014.024.005.02.006.044.011.023.005.022.006.043.013.045.009.023.005.022.006.09.02.049.007.047.01.096.015.1.014.05.006.026.003h.012l.012.004.104.01.053.005.051.006.056.003.053.005.109.008.01-.01.01-.007.013-.019.005-.01.002-.01.003-.01v-.022l-.003-.01-.007-.025-.005-.013-.008-.013-.01-.014-.01-.011-.051-.078-.054-.073-.055-.072-.06-.07-.123-.139-.064-.067-.067-.066-.068-.066-.072-.064-.148-.124-.077-.062-.08-.057-.08-.059-.084-.054-.113-.071-.114-.069-.112-.07-.111-.07-.219-.143-.107-.074-.054-.036-.026-.019-.028-.017-.208-.149-.103-.077-.05-.038-.052-.037-.05-.04-.05-.038-.1-.076-.196-.156-.026-.027-.013-.014-.013-.013-.052-.052-.024-.027-.026-.026-.05-.052-.096-.108-.046-.054-.046-.054-.043-.056-.043-.055-.081-.113-.039-.06-.008-.015-.01-.013-.02-.028-.074-.116-.095-.176-.102-.17-.104-.173-.109-.166-.111-.167-.118-.164-.12-.162-.127-.158-.04-.062-.042-.059-.041-.056-.045-.052-.043-.052-.046-.047-.092-.09-.095-.082-.048-.038-.051-.033-.05-.034-.052-.029-.052-.03-.054-.024-.056-.023-.058-.018-.056-.016-.058-.01-.057-.008-.057-.004h-.058l-.058.005m-1.344 1.62-.001-.01-.003-.008-.005-.018-.002-.02-.006-.023-.007-.069-.007-.067v-.035l-.004-.034v-.127l.002-.116.001-.058v-.057l.003-.073.004-.07.006-.073.006-.07.007-.058.004-.055.001-.054-.001-.056-.004-.072-.01-.023-.013-.023-.017-.03-.02-.028-.067-.111-.077-.108-.04-.05-.02-.024-.023-.022-.045-.041-.024-.02-.027-.017-.108-.072-.113-.068-.051-.031-.051-.03-.106-.05-.053-.021-.058-.017-.057-.013-.06-.006-.06-.004h-.063l-.064.004-.067.01-.064.01-.063.017-.06.017-.057.023-.115.05-.056.03-.059.031-.026.013-.026.012-.026.011-.012.004-.014.006-.051.016-.05.014-.01-.007-.01-.004-.01-.006-.01-.005-.015-.012-.006-.006-.008-.004v-.004l-.001-.001-.003-.003-.005-.006-.009-.013-.004-.015v-.004l-.001-.003-.003-.006.002-.009v-.008l.003-.015.007-.019.004-.009.002-.004.002-.004.004-.007.002-.004.007-.01.013-.018.017-.021.01-.01.009-.01.035-.025.017-.012.015-.01.032-.022.033-.025.016-.012.016-.01.054-.036.056-.032.057-.03.058-.022.06-.024.058-.019.06-.018.06-.014.063-.014.06-.01.061-.007.06-.001.062.001.062.005.065.008.064.014.065.013.061.018.058.019.055.022.028.009.027.011.053.028.053.031.054.037.095.067.092.075.086.08.085.088.026.023.024.024.026.024.023.024.051.046.05.046.044.036.047.036.048.032.048.032.038-.014.022-.004.023-.004.057-.012.055-.01.058-.012.056-.013.117-.023.114-.012.13-.008.057-.004h.286" stroke-width=".028"/><path stroke-miterlimit="10" stroke="#030904" stroke-linecap="square" fill="none" d="m24.786 12.294-.014.015-.01.005-.01.008-.025.011-.014.003-.016.005-.023.006-.024.015-.026.02-.026.028-.033.015m.56.462-.016-.026-.018-.023-.039-.044-.022-.022-.023-.019-.052-.034-.107-.068-.11-.067-.052-.037-.004-.006-.003-.003-.001-.001h-.003l-.012-.01-.023-.018-.02-.021-.004-.006-.005-.005-.01-.01-.036-.042m.727 3.925-.017-.012-.02-.014-.022-.016-.024-.017-.048-.041-.049-.044-.048-.046-.05-.048-.092-.1-.096-.095-.09-.093-.093-.095-.047-.05-.044-.052-.043-.054-.043-.054-.079-.113-.082-.107-.083-.108-.086-.106-.08-.11-.04-.055-.04-.054-.083-.113-.086-.11-.04-.054-.038-.056-.035-.057-.036-.056-.033-.063-.032-.062-.033-.063-.014-.033-.017-.03-.027-.064-.004-.017-.007-.016-.013-.03-.019-.064-.016-.065m3.531 3.366.16-.084.081-.043.077-.043.08-.046.075-.045.151-.09.124-.08.12-.08.122-.082.116-.085.019-.028.015-.024.013-.023.008-.02.007-.02.004-.017.001-.017-.004-.011-.004-.014-.008-.01-.012-.009-.015-.006-.017-.006-.02-.002-.023-.001-.026.001-1.322-.015-1.319-.016m-.086-.013.013.006.01.007h.063m-.086-.013.086.013" stroke-width=".028"/></svg>