<svg xmlns="http://www.w3.org/2000/svg" width="100" height="100" viewBox="0 0 26.458 26.458"><path style="fill:#c9c9c9;stroke:none;stroke-width:.222847px;stroke-linecap:butt;stroke-linejoin:miter;stroke-opacity:1;fill-opacity:1" d="M10.077 54.832s1.148.912 2.617-.494c0 0 .982-.71 1.88 1.457.897 2.168 4.034 1.199 4.034 1.199s2.087-.666 2.106-3.229c0 0 .104-.785 1.589.345 1.485 1.13 3.882-.747 3.447-1.698-.434-.952-.073-2.63.8-2.228.873.4 1.674-1.006.789-2.068-.886-1.061-.311-2.195.744-2.212 1.055-.017 1.923-.802.5-1.696 0 0-.922-.19.318-1.24 0 0 1.3-1.945-.461-2.822-1.762-.876-3.328-.877-2.675-4.354.654-3.477-3.314-3.757-4.132-3.366-.819.391-2.749 1.856-5.141-1.049 0 0-2.413-2.187-4.886 1.712 0 0-1.094 2.831-5.045 2.608 0 0-2.671.229-1.235 3.611 0 0 .43 2.257-1.481 3.138-1.912.88-.635 5.526 1.4 5.296 2.036-.23.348 1.688.348 1.688S4.37 51.1 7.94 51.11c0 0 2.769.55 2.102 2.395 0 0-.554.965.034 1.327z" transform="matrix(.99 0 0 .99 -2.734 -30.329)"/><path style="fill:none;stroke:#e1e1e1;stroke-width:.264583;stroke-linecap:round;stroke-linejoin:round;stroke-miterlimit:4;stroke-dasharray:none;stroke-opacity:1;opacity:.4" d="M5.404 37.766s.184-2.023 2.227-1.619M8.245 36.135s.93-.097 1.788-.807M12.467 32.81s.584-1.165 1.54-1.406M14.77 31.274s1.118-.033 2.11 1.55c0 0 1.315 1.332 2.763.885M21.885 32.858s3.49-.746 3.202 2.477" transform="matrix(.99 0 0 .99 -2.734 -30.329)"/><path style="fill:none;stroke:#929292;stroke-width:.264583;stroke-linecap:round;stroke-linejoin:round;stroke-miterlimit:4;stroke-dasharray:none;stroke-opacity:1;opacity:.4" d="M28.336 40.621s1.488.888-.21 2.483M27.558 45.536s-2.042.464-.555 3.241M26.235 49.699s-1.686.166-.996 2.522M24.386 53.447s-.721 1.151-2.71-.296M20.242 54.193s-1.508 4.713-5.123 1.432" transform="matrix(.99 0 0 .99 -2.734 -30.329)"/><path style="fill:none;stroke:#e1e1e1;stroke-width:.264583;stroke-linecap:round;stroke-linejoin:round;stroke-miterlimit:4;stroke-dasharray:none;stroke-opacity:1;opacity:.4" d="M6.165 49.494s1.144-1.222.108-2.154M4.46 46.818s-1.88-2.242-.535-3.88" transform="matrix(.99 0 0 .99 -2.734 -30.329)"/></svg>