<svg xmlns="http://www.w3.org/2000/svg" width="100" height="150"><g style="display:inline"><path style="display:inline;fill:#e8d1b0;fill-opacity:1;stroke:none;stroke-width:.734773px;stroke-linecap:butt;stroke-linejoin:miter;stroke-opacity:1" d="M25.892 23.09s-5.651-10.92 3.116-14.213C37.776 5.585 55.73-3.537 57.67 9.934c0 0-25.384 2.523-31.777 13.156z"/><path style="display:inline;fill:#deb887;fill-opacity:1;stroke:none;stroke-width:.734773px;stroke-linecap:butt;stroke-linejoin:miter;stroke-opacity:1" d="M28.943 51.633S2.885 45.874 21.37 23.908c0 0 26.345-24.902 54.75-9.553 0 0 23.886 13.783-12.827 35.997z"/><path style="display:inline;fill:#007a41;fill-opacity:1;stroke:none;stroke-width:.734773px;stroke-linecap:butt;stroke-linejoin:miter;stroke-opacity:1" d="m16.592 68.849 8.815-25.235s6.656-13.7 23.173-17.403c16.517-3.703 18.254 7.162 18.961 13.424l-4.669 39.19L34.6 122.361s-17.065 4.199-29.473-13.24c-13.38-18.802 6.587-39.6 11.465-40.272z"/><path style="display:inline;fill:#002916;fill-opacity:1;stroke:none;stroke-width:.734773px;stroke-linecap:butt;stroke-linejoin:miter;stroke-opacity:1" d="M23.12 73.993S36.21 55.858 35.336 45.9c0 0 .627-12.34-.065-13.646 0 0 10.849-9.126 23.587-6.301 0 0 2.488.751 4.353 2.357 0 0 1 21.865-2.325 29.249-1.682 3.735-4.17 17.303-4.17 17.303z"/><path style="display:inline;fill:#fab39d;fill-opacity:1;stroke:none;stroke-width:.734773px;stroke-linecap:butt;stroke-linejoin:miter;stroke-opacity:1" d="m40.885 60.483-1.31 11.028 10.75.998-.01-4.021s-.415-4.09 1.636-5.955z"/><path style="display:inline;fill:#cd9f8e;fill-opacity:1;stroke:none;stroke-width:.729098px;stroke-linecap:butt;stroke-linejoin:miter;stroke-opacity:1" d="M40.427 60.336s.61 7.123 9.886 6.359c0 0 1.054-3.329.217-5.142-.531-.813-6.345-1.663-10.103-1.217z"/><path style="display:inline;fill:#f6b3a0;fill-opacity:1;stroke:none;stroke-width:.734773px;stroke-linecap:butt;stroke-linejoin:miter;stroke-opacity:1" d="M35.924 43.697s-5.35-7.687-4.262 2.845c0 0 .786 3.87 3.986 3.47 0 0-.08 9.767 8.935 14.525 0 0 9.345 3.43 15.898-9.337 0 0 5.155-10.802 2.82-22.89 0 0-9.735 2.28-12.801-.162 0 0 3.27-2.137 2.67-4.7 0 0-12.069 4.822-14.63 4.997 0 0 1.134 8.341-2.616 11.252z"/><ellipse style="display:inline;fill:#1e1e1e;fill-opacity:1;stroke:none;stroke-width:.969277;stroke-linecap:round;stroke-linejoin:round;stroke-opacity:1;paint-order:stroke markers fill" cx="48.045" cy="37.147" rx="1.476" ry="3.345" transform="rotate(4.265) skewX(-.009)"/><ellipse style="display:inline;fill:#1e1e1e;fill-opacity:1;stroke:none;stroke-width:.969277;stroke-linecap:round;stroke-linejoin:round;stroke-opacity:1;paint-order:stroke markers fill" cx="61.955" cy="36.763" rx="1.476" ry="3.345" transform="rotate(4.265) skewX(-.009)"/><ellipse style="display:inline;fill:#f19a8c;fill-opacity:1;stroke:none;stroke-width:.734773;stroke-linecap:round;stroke-linejoin:round;stroke-opacity:1;paint-order:stroke markers fill" cx="42.562" cy="47.693" rx="1.962" ry="2.11"/><ellipse style="display:inline;fill:#f19a8c;fill-opacity:1;stroke:none;stroke-width:.734773;stroke-linecap:round;stroke-linejoin:round;stroke-opacity:1;paint-order:stroke markers fill" cx="58.102" cy="48.933" rx="1.962" ry="2.11"/><path style="display:inline;fill:#905750;fill-opacity:1;stroke:none;stroke-width:.734773px;stroke-linecap:butt;stroke-linejoin:miter;stroke-opacity:1" d="M50.212 48.624s3.506-2.141 2.854-.194c0 0-.293.974-2.854.194z"/><path style="display:inline;fill:#bb7067;fill-opacity:1;stroke:none;stroke-width:.734773px;stroke-linecap:butt;stroke-linejoin:miter;stroke-opacity:1" d="M43.335 53.41s3.208.97 6.436 1.002c3.229.032 5.263-.532 5.263-.532s-.512 3.385-5.67 4.742c0 0-4.483-.196-6.03-5.212z"/><path style="display:inline;fill:#fff1e7;fill-opacity:1;stroke:none;stroke-width:.712703px;stroke-linecap:butt;stroke-linejoin:miter;stroke-opacity:1" d="M43.457 53.855s3.777 2.746 9.608 1.122c0 0 4.669-1.723-.273-1.414-3.033.19-3.122.589-6.051-.126 0 0-3.941-.64-3.284.418z"/><path style="display:inline;fill:#fff1e7;fill-opacity:1;stroke:none;stroke-width:.734773px;stroke-linecap:butt;stroke-linejoin:miter;stroke-opacity:1" d="M44.697 56.152s3.474 5.32 7.968 1.218c0 0 1.437-1.355-.935-.346 0 0-1.868 1.186-4.004.177 0 0-2.94-1.74-3.029-1.049z"/><path style="display:inline;fill:#97abe8;fill-opacity:1;stroke:none;stroke-width:.734773px;stroke-linecap:butt;stroke-linejoin:miter;stroke-opacity:1" d="m61.293 104.176 4.367 14.56s3.792 9.698 12.341 4.65L97.234 97.81l-6.103-4.949s-15.034 16.498-17.538 19.979l-3.722-13.358zM60.258 71.954l3.83 5.164-1.515 15.053-18.577-.607-15.58 16.954-17.586 9.56 11.274-43.442s1.191-6.527 17.427-3.682c0 0 19.99-.21 20.727 1z"/><path style="display:inline;fill:#007a41;fill-opacity:1;stroke:none;stroke-width:.734773px;stroke-linecap:butt;stroke-linejoin:miter;stroke-opacity:1" d="m27.134 93.527-2.475 12.222 6.138-4.015z"/><path style="display:inline;fill:#005c72;fill-opacity:1;stroke:none;stroke-width:.734773px;stroke-linecap:butt;stroke-linejoin:miter;stroke-opacity:1" d="M35.254 70.377s3.602 20.348 3.64 24.968c.04 4.62-4.261 18.299-4.261 18.299s-.568 19.122-3.372 24.854c-2.804 5.731 35.18 4.074 35.18 4.074s-2.168-30.968-1.54-34.56c0 0 5.77-4.238 5.014-7.96-.755-3.721-8.979-21.796-8.979-21.796l-3.91-6.971-3.755-.2s6.22 17.616 6.968 20.568l-15.893-.677-4.694-20.139z"/><path style="display:inline;fill:#96a9e7;fill-opacity:1;stroke:none;stroke-width:.734773px;stroke-linecap:butt;stroke-linejoin:miter;stroke-opacity:1" d="M20.003 109.07s-16.838 9.714-5.956 15.2c0 0 2.82 2.227 20.603-12.176l14.483-14.99L44.6 90.92l-13.984 10.607z"/><path style="display:inline;fill:#e0b1b0;fill-opacity:1;stroke:none;stroke-width:.734773px;stroke-linecap:butt;stroke-linejoin:miter;stroke-opacity:1" d="m44.259 91.072 4.835 6.146s6.289-4.694 5.605-9.598c0 0-.512-3.31-3.252-4.605 0 0 9.125-8.886 3.403-5.302-5.72 3.585-9.16 4.866-9.13 5.315.12 1.77.357 4.139-1.461 8.044z"/><path style="fill:#999;fill-opacity:1;stroke:none;stroke-width:.734773px;stroke-linecap:butt;stroke-linejoin:miter;stroke-opacity:1" d="m62.678 72.237-7.842 29.91 36.814.032 7.935-30.284z"/><path style="fill:none;fill-opacity:1;stroke:#1e1e1f;stroke-width:.734773;stroke-linecap:round;stroke-linejoin:round;stroke-miterlimit:4;stroke-dasharray:none;stroke-opacity:1" d="m66.653 74.814 11.146-.136M79.596 74.717l6.529-.071M87.36 74.63l2.182-.01"/><ellipse style="fill:#fff;fill-opacity:1;stroke:none;stroke-width:.621116;stroke-linecap:round;stroke-linejoin:round;stroke-miterlimit:4;stroke-dasharray:none;stroke-opacity:1;paint-order:stroke markers fill" cx="77.549" cy="87.055" rx="3.881" ry="3.743"/><path style="fill:#ebbcb7;fill-opacity:1;stroke:none;stroke-width:.734773px;stroke-linecap:butt;stroke-linejoin:miter;stroke-opacity:1" d="m97.2 98.13-3.766-3.054s1.266-2.324-.463-5.265c-1.856-3.156-3.147-11.768-.166-9.763 2.98 2.005 6.199 4.455 6 8.669-.197 4.214.568 4.475-1.604 9.414z"/></g></svg>