<svg xmlns="http://www.w3.org/2000/svg" width="20" height="20"><switch><g transform="matrix(.1908 0 0 .1908 21.478 28.067)"><linearGradient id="a" x1="180.91" x2="169.66" y1="192.09" y2="73.736" gradientUnits="userSpaceOnUse"><stop stop-color="#009649" offset="0"/><stop stop-color="#24A247" offset=".168"/><stop stop-color="#58B444" offset=".442"/><stop stop-color="#7EC042" offset=".68"/><stop stop-color="#95C840" offset=".87"/><stop stop-color="#9ECB40" offset=".989"/></linearGradient><linearGradient id="b" x1="173.08" x2="170.75" y1="99.055" y2="74.553" gradientUnits="userSpaceOnUse"><stop stop-color="#009649" offset="0"/><stop stop-color="#21A149" offset=".4"/><stop stop-color="#38A949" offset=".762"/><stop stop-color="#41AC49" offset=".989"/></linearGradient><linearGradient id="c" x1="223.23" x2="220.2" y1="91.056" y2="59.175" gradientUnits="userSpaceOnUse"><stop stop-color="#009649" offset="0"/><stop stop-color="#24A247" offset=".168"/><stop stop-color="#58B444" offset=".442"/><stop stop-color="#7EC042" offset=".68"/><stop stop-color="#95C840" offset=".87"/><stop stop-color="#9ECB40" offset=".989"/></linearGradient><linearGradient id="d" x1="220.38" x2="218.17" y1="84.877" y2="61.617" gradientUnits="userSpaceOnUse"><stop stop-color="#009649" offset="0"/><stop stop-color="#21A149" offset=".4"/><stop stop-color="#38A949" offset=".762"/><stop stop-color="#41AC49" offset=".989"/></linearGradient><linearGradient id="e" x1="258.21" x2="248.25" y1="178.71" y2="73.922" gradientUnits="userSpaceOnUse"><stop stop-color="#009649" offset="0"/><stop stop-color="#24A247" offset=".168"/><stop stop-color="#58B444" offset=".442"/><stop stop-color="#7EC042" offset=".68"/><stop stop-color="#95C840" offset=".87"/><stop stop-color="#9ECB40" offset=".989"/></linearGradient><linearGradient id="f" x1="253.3" x2="244.31" y1="177.54" y2="83.023" gradientUnits="userSpaceOnUse"><stop stop-color="#009649" offset="0"/><stop stop-color="#21A149" offset=".4"/><stop stop-color="#38A949" offset=".762"/><stop stop-color="#41AC49" offset=".989"/></linearGradient><linearGradient id="g" x1="174.87" x2="165.32" y1="193.09" y2="92.695" gradientUnits="userSpaceOnUse"><stop stop-color="#009649" offset="0"/><stop stop-color="#24A247" offset=".168"/><stop stop-color="#58B444" offset=".442"/><stop stop-color="#7EC042" offset=".68"/><stop stop-color="#95C840" offset=".87"/><stop stop-color="#9ECB40" offset=".989"/></linearGradient><linearGradient id="h" x1="182.04" x2="173.94" y1="192.44" y2="107.18" gradientUnits="userSpaceOnUse"><stop stop-color="#009649" offset="0"/><stop stop-color="#21A149" offset=".4"/><stop stop-color="#38A949" offset=".762"/><stop stop-color="#41AC49" offset=".989"/></linearGradient><linearGradient id="i" x1="221.35" x2="212.09" y1="211.86" y2="99.56" gradientUnits="userSpaceOnUse"><stop stop-color="#009649" offset="0"/><stop stop-color="#0A9948" offset=".112"/><stop stop-color="#26A345" offset=".304"/><stop stop-color="#52B241" offset=".552"/><stop stop-color="#8FC63B" offset=".845"/><stop stop-color="#B0D138" offset=".989"/></linearGradient><linearGradient id="j" x1="206.17" x2="203.18" y1="76.104" y2="117.74" gradientUnits="userSpaceOnUse"><stop stop-color="#009649" offset="0"/><stop stop-color="#058040" offset=".32"/><stop stop-color="#096936" offset=".738"/><stop stop-color="#0B6032" offset="1"/></linearGradient><linearGradient id="k" x1="205.85" x2="203.08" y1="76.253" y2="114.85" gradientUnits="userSpaceOnUse"><stop stop-color="#009649" offset="0"/><stop stop-color="#099948" offset=".034"/><stop stop-color="#4CB040" offset=".295"/><stop stop-color="#81C13A" offset=".532"/><stop stop-color="#A7CE36" offset=".735"/><stop stop-color="#BED633" offset=".898"/><stop stop-color="#C7D932" offset="1"/></linearGradient><linearGradient id="l" x1="210.39" x2="177.75" y1="104.76" y2="70.2" gradientUnits="userSpaceOnUse"><stop stop-color="#fff" offset="0"/><stop stop-color="#FEFEFB" offset=".135"/><stop stop-color="#FAFCEE" offset=".275"/><stop stop-color="#F5F8DA" offset=".417"/><stop stop-color="#EDF3BD" offset=".56"/><stop stop-color="#E3EC97" offset=".705"/><stop stop-color="#D6E36A" offset=".85"/><stop stop-color="#C8D934" offset=".994"/><stop stop-color="#C7D932" offset="1"/></linearGradient><linearGradient id="m" x1="206.41" x2="202.34" y1="100.1" y2="71.921" gradientUnits="userSpaceOnUse"><stop stop-color="#007E41" offset="0"/><stop stop-color="#0D8541" offset=".172"/><stop stop-color="#2F9742" offset=".489"/><stop stop-color="#66B444" offset=".914"/><stop stop-color="#72BA44" offset="1"/></linearGradient><linearGradient id="n" x1="205.95" x2="203.37" y1="98.242" y2="80.367" gradientUnits="userSpaceOnUse"><stop stop-color="#fff" offset=".011"/><stop stop-color="#CFE7BF" offset=".271"/><stop stop-color="#A7D48A" offset=".516"/><stop stop-color="#8AC664" offset=".726"/><stop stop-color="#78BD4D" offset=".895"/><stop stop-color="#72BA44" offset="1"/></linearGradient><linearGradient id="o" x1="193.98" x2="191.02" y1="58.642" y2="99.819" gradientUnits="userSpaceOnUse"><stop stop-color="#009649" offset="0"/><stop stop-color="#099948" offset=".034"/><stop stop-color="#4CB040" offset=".295"/><stop stop-color="#81C13A" offset=".532"/><stop stop-color="#A7CE36" offset=".735"/><stop stop-color="#BED633" offset=".898"/><stop stop-color="#C7D932" offset="1"/></linearGradient><linearGradient id="p" x1="204.39" x2="199.79" y1="92.344" y2="60.491" gradientUnits="userSpaceOnUse"><stop stop-color="#007E41" offset="0"/><stop stop-color="#0D8541" offset=".172"/><stop stop-color="#2F9742" offset=".489"/><stop stop-color="#66B444" offset=".914"/><stop stop-color="#72BA44" offset="1"/></linearGradient><linearGradient id="q" x1="183.3" x2="181.67" y1="69.269" y2="91.948" gradientTransform="matrix(.9854 -.0077 -.0077 .996 4.109 2.293)" gradientUnits="userSpaceOnUse"><stop stop-color="#F8E47E" offset="0"/><stop stop-color="#8AB44C" offset=".839"/><stop stop-color="#74AA42" offset="1"/></linearGradient><linearGradient id="r" x1="186.26" x2="185.17" y1="74.466" y2="89.602" gradientUnits="userSpaceOnUse"><stop stop-color="#F8E47E" offset="0"/><stop stop-color="#FEFBEC" offset=".858"/><stop stop-color="#fff" offset="1"/></linearGradient><linearGradient id="s" x1="227.08" x2="228.14" y1="150.15" y2="96.678" gradientUnits="userSpaceOnUse"><stop stop-color="#009649" offset="0"/><stop stop-color="#0A9948" offset=".112"/><stop stop-color="#26A345" offset=".304"/><stop stop-color="#52B241" offset=".552"/><stop stop-color="#8FC63B" offset=".845"/><stop stop-color="#B0D138" offset=".989"/></linearGradient><linearGradient id="t" x1="194.69" x2="235.51" y1="109.09" y2="153.1" gradientUnits="userSpaceOnUse"><stop stop-color="#fff" offset="0"/><stop stop-color="#FBFDF5" offset=".102"/><stop stop-color="#F0F6D9" offset=".277"/><stop stop-color="#DEECAD" offset=".503"/><stop stop-color="#C6DE70" offset=".769"/><stop stop-color="#B0D138" offset=".989"/></linearGradient><linearGradient id="u" x1="182.75" x2="205.83" y1="130.87" y2="155.75" gradientTransform="matrix(.7257 .445 -.6046 .9861 189.19 -112.56)" gradientUnits="userSpaceOnUse"><stop stop-color="#fff" offset="0"/><stop stop-color="#FBFDF5" offset=".102"/><stop stop-color="#F0F6D9" offset=".277"/><stop stop-color="#DEECAD" offset=".503"/><stop stop-color="#C6DE70" offset=".769"/><stop stop-color="#B0D138" offset=".989"/></linearGradient><linearGradient id="v" x1="184.37" x2="204.28" y1="75.925" y2="59.154" gradientUnits="userSpaceOnUse"><stop stop-color="#fff" offset="0"/><stop stop-color="#F9FBE9" offset=".139"/><stop stop-color="#EAF0B1" offset=".429"/><stop stop-color="#D1E057" offset=".841"/><stop stop-color="#C7D932" offset="1"/></linearGradient><linearGradient id="w" x1="203.7" x2="201.86" y1="70.701" y2="96.219" gradientUnits="userSpaceOnUse"><stop stop-color="#097F40" offset="0"/><stop stop-color="#008144" offset="1"/></linearGradient><linearGradient id="x" x1="74.115" x2="102.59" y1="144.64" y2="282.11" gradientUnits="userSpaceOnUse"><stop stop-color="#CD392B" offset=".219"/><stop stop-color="#B3282E" offset=".82"/></linearGradient><linearGradient id="y" x1="77.064" x2="83.221" y1="146.67" y2="176.38" gradientUnits="userSpaceOnUse"><stop stop-color="#B7252E" offset=".219"/><stop stop-color="#B3282E" offset=".82"/></linearGradient><linearGradient id="z" x1="125.22" x2="132.54" y1="129.84" y2="165.18" gradientUnits="userSpaceOnUse"><stop stop-color="#CD392B" offset=".219"/><stop stop-color="#B3282E" offset=".82"/></linearGradient><linearGradient id="A" x1="122.76" x2="128.75" y1="131.79" y2="160.72" gradientUnits="userSpaceOnUse"><stop stop-color="#B7252E" offset=".219"/><stop stop-color="#B3282E" offset=".82"/></linearGradient><linearGradient id="B" x1="152.26" x2="176.97" y1="143.65" y2="262.93" gradientUnits="userSpaceOnUse"><stop stop-color="#E0352C" offset=".219"/><stop stop-color="#B3282E" offset=".82"/></linearGradient><linearGradient id="C" x1="148.31" x2="171.04" y1="151.53" y2="261.21" gradientUnits="userSpaceOnUse"><stop stop-color="#B7252E" offset=".219"/><stop stop-color="#B3282E" offset=".82"/></linearGradient><linearGradient id="D" x1="69.939" x2="94.58" y1="161.97" y2="280.91" gradientUnits="userSpaceOnUse"><stop stop-color="#EA2D2E" offset=".219"/><stop stop-color="#B3282E" offset=".82"/></linearGradient><linearGradient id="E" x1="76.05" x2="96.583" y1="178.61" y2="277.72" gradientUnits="userSpaceOnUse"><stop stop-color="#B7252E" offset=".219"/><stop stop-color="#B3282E" offset=".82"/></linearGradient><linearGradient id="F" x1="115.71" x2="139.93" y1="172.65" y2="289.55" gradientUnits="userSpaceOnUse"><stop stop-color="#EA2D2E" offset=".219"/><stop stop-color="#B3282E" offset=".899"/></linearGradient><linearGradient id="G" x1="112.84" x2="109.89" y1="147.43" y2="188.52" gradientUnits="userSpaceOnUse"><stop stop-color="#009649" offset="0"/><stop stop-color="#058040" offset=".32"/><stop stop-color="#096936" offset=".738"/><stop stop-color="#0B6032" offset="1"/></linearGradient><linearGradient id="H" x1="112.5" x2="109.76" y1="147.59" y2="185.67" gradientUnits="userSpaceOnUse"><stop stop-color="#009649" offset="0"/><stop stop-color="#099948" offset=".034"/><stop stop-color="#4CB040" offset=".295"/><stop stop-color="#81C13A" offset=".532"/><stop stop-color="#A7CE36" offset=".735"/><stop stop-color="#BED633" offset=".898"/><stop stop-color="#C7D932" offset="1"/></linearGradient><linearGradient id="I" x1="117.02" x2="84.775" y1="175.75" y2="141.6" gradientUnits="userSpaceOnUse"><stop stop-color="#fff" offset="0"/><stop stop-color="#FEFEFB" offset=".135"/><stop stop-color="#FAFCEE" offset=".275"/><stop stop-color="#F5F8DA" offset=".417"/><stop stop-color="#EDF3BD" offset=".56"/><stop stop-color="#E3EC97" offset=".705"/><stop stop-color="#D6E36A" offset=".85"/><stop stop-color="#C8D934" offset=".994"/><stop stop-color="#C7D932" offset="1"/></linearGradient><linearGradient id="J" x1="113.05" x2="109.04" y1="171.13" y2="143.31" gradientUnits="userSpaceOnUse"><stop stop-color="#007E41" offset="0"/><stop stop-color="#0D8541" offset=".172"/><stop stop-color="#2F9742" offset=".489"/><stop stop-color="#66B444" offset=".914"/><stop stop-color="#72BA44" offset="1"/></linearGradient><linearGradient id="K" x1="112.6" x2="110.06" y1="169.29" y2="151.69" gradientUnits="userSpaceOnUse"><stop stop-color="#fff" offset=".011"/><stop stop-color="#CFE7BF" offset=".271"/><stop stop-color="#A7D48A" offset=".516"/><stop stop-color="#8AC664" offset=".726"/><stop stop-color="#78BD4D" offset=".895"/><stop stop-color="#72BA44" offset="1"/></linearGradient><linearGradient id="L" x1="100.77" x2="97.851" y1="130.2" y2="170.83" gradientUnits="userSpaceOnUse"><stop stop-color="#009649" offset="0"/><stop stop-color="#099948" offset=".034"/><stop stop-color="#4CB040" offset=".295"/><stop stop-color="#81C13A" offset=".532"/><stop stop-color="#A7CE36" offset=".735"/><stop stop-color="#BED633" offset=".898"/><stop stop-color="#C7D932" offset="1"/></linearGradient><linearGradient id="M" x1="111.07" x2="106.53" y1="163.47" y2="132.02" gradientUnits="userSpaceOnUse"><stop stop-color="#007E41" offset="0"/><stop stop-color="#0D8541" offset=".172"/><stop stop-color="#2F9742" offset=".489"/><stop stop-color="#66B444" offset=".914"/><stop stop-color="#72BA44" offset="1"/></linearGradient><linearGradient id="N" x1="89.406" x2="87.797" y1="140.24" y2="162.63" gradientTransform="matrix(.9854 -.0077 -.0077 .996 4.109 2.293)" gradientUnits="userSpaceOnUse"><stop stop-color="#F8E47E" offset="0"/><stop stop-color="#8AB44C" offset=".839"/><stop stop-color="#74AA42" offset="1"/></linearGradient><linearGradient id="O" x1="93.16" x2="92.085" y1="145.82" y2="160.77" gradientUnits="userSpaceOnUse"><stop stop-color="#F8E47E" offset="0"/><stop stop-color="#FEFBEC" offset=".858"/><stop stop-color="#fff" offset="1"/></linearGradient><linearGradient id="P" x1="132.02" x2="142.02" y1="168.96" y2="217.2" gradientUnits="userSpaceOnUse"><stop stop-color="#EA2D2E" offset=".219"/><stop stop-color="#B3282E" offset=".899"/></linearGradient><linearGradient id="Q" x1="101.49" x2="141.79" y1="180.03" y2="223.46" gradientUnits="userSpaceOnUse"><stop stop-color="#fff" offset="0"/><stop stop-color="#FEF6F5" offset=".137"/><stop stop-color="#FBDED9" offset=".372"/><stop stop-color="#F6B7AD" offset=".676"/><stop stop-color="#F08978" offset=".989"/></linearGradient><linearGradient id="R" x1="132.43" x2="155.23" y1="225.63" y2="250.21" gradientTransform="matrix(.7257 .445 -.6046 .9861 189.19 -112.56)" gradientUnits="userSpaceOnUse"><stop stop-color="#fff" offset="0"/><stop stop-color="#FEF6F5" offset=".137"/><stop stop-color="#FBDED9" offset=".372"/><stop stop-color="#F6B7AD" offset=".676"/><stop stop-color="#F08978" offset=".989"/></linearGradient><linearGradient id="S" x1="91.295" x2="110.96" y1="147.25" y2="130.69" gradientUnits="userSpaceOnUse"><stop stop-color="#fff" offset="0"/><stop stop-color="#F9FBE9" offset=".139"/><stop stop-color="#EAF0B1" offset=".429"/><stop stop-color="#D1E057" offset=".841"/><stop stop-color="#C7D932" offset="1"/></linearGradient><linearGradient id="T" x1="110.39" x2="108.58" y1="142.11" y2="167.32" gradientUnits="userSpaceOnUse"><stop stop-color="#097F40" offset="0"/><stop stop-color="#008144" offset="1"/></linearGradient><linearGradient id="U" x1="196.52" x2="181.64" y1="275.78" y2="132.52" gradientUnits="userSpaceOnUse"><stop stop-color="#F08240" offset="0"/><stop stop-color="#F0893C" offset=".063"/><stop stop-color="#F29E2F" offset=".282"/><stop stop-color="#F2A62B" offset=".427"/><stop stop-color="#F4AD28" offset="1"/></linearGradient><linearGradient id="V" x1="188.87" x2="184.49" y1="183.71" y2="154.7" gradientUnits="userSpaceOnUse"><stop stop-color="#D66F2C" offset="0"/><stop stop-color="#DE7B2D" offset=".222"/><stop stop-color="#ED902E" offset=".691"/><stop stop-color="#F2982E" offset="1"/></linearGradient><linearGradient id="W" x1="237.62" x2="233.63" y1="174.73" y2="136.29" gradientUnits="userSpaceOnUse"><stop stop-color="#F08240" offset="0"/><stop stop-color="#F0893C" offset=".063"/><stop stop-color="#F29E2F" offset=".282"/><stop stop-color="#F2A62B" offset=".427"/><stop stop-color="#F7C324" offset="1"/></linearGradient><linearGradient id="X" x1="235.13" x2="230.91" y1="168.87" y2="140.96" gradientUnits="userSpaceOnUse"><stop stop-color="#D66F2C" offset="0"/><stop stop-color="#DE7B2D" offset=".222"/><stop stop-color="#ED902E" offset=".691"/><stop stop-color="#F2982E" offset="1"/></linearGradient><linearGradient id="Y" x1="284.38" x2="251.16" y1="246.77" y2="148.06" gradientUnits="userSpaceOnUse"><stop stop-color="#F08240" offset="0"/><stop stop-color="#F0893C" offset=".089"/><stop stop-color="#F29E2F" offset=".401"/><stop stop-color="#F2A62B" offset=".607"/><stop stop-color="#FBD027" offset="1"/></linearGradient><linearGradient id="Z" x1="271.55" x2="255.02" y1="259.88" y2="150.42" gradientUnits="userSpaceOnUse"><stop stop-color="#D66F2C" offset="0"/><stop stop-color="#DE7B2D" offset=".222"/><stop stop-color="#ED902E" offset=".691"/><stop stop-color="#F2982E" offset="1"/></linearGradient><linearGradient id="aa" x1="176.48" x2="190.45" y1="274.05" y2="155.57" gradientUnits="userSpaceOnUse"><stop stop-color="#F08240" offset="0"/><stop stop-color="#F0893C" offset=".095"/><stop stop-color="#F29E2F" offset=".427"/><stop stop-color="#F2A62B" offset=".646"/><stop stop-color="#FBD027" offset="1"/></linearGradient><linearGradient id="ab" x1="198.51" x2="183.6" y1="276.16" y2="177.44" gradientUnits="userSpaceOnUse"><stop stop-color="#D66F2C" offset="0"/><stop stop-color="#DE7B2D" offset=".222"/><stop stop-color="#ED902E" offset=".691"/><stop stop-color="#F2982E" offset="1"/></linearGradient><linearGradient id="ac" x1="240.24" x2="222.41" y1="286.76" y2="168.67" gradientUnits="userSpaceOnUse"><stop stop-color="#F08240" offset="0"/><stop stop-color="#F0893C" offset=".094"/><stop stop-color="#F29E2F" offset=".424"/><stop stop-color="#F2A62B" offset=".64"/><stop stop-color="#FBD027" offset="1"/></linearGradient><linearGradient id="ad" x1="220.56" x2="217.59" y1="159.8" y2="201.03" gradientUnits="userSpaceOnUse"><stop stop-color="#009649" offset="0"/><stop stop-color="#058040" offset=".32"/><stop stop-color="#096936" offset=".738"/><stop stop-color="#0B6032" offset="1"/></linearGradient><linearGradient id="ae" x1="220.23" x2="217.49" y1="159.95" y2="198.14" gradientUnits="userSpaceOnUse"><stop stop-color="#009649" offset="0"/><stop stop-color="#099948" offset=".034"/><stop stop-color="#4CB040" offset=".295"/><stop stop-color="#81C13A" offset=".532"/><stop stop-color="#A7CE36" offset=".735"/><stop stop-color="#BED633" offset=".898"/><stop stop-color="#C7D932" offset="1"/></linearGradient><linearGradient id="af" x1="224.75" x2="192.42" y1="188.18" y2="153.95" gradientUnits="userSpaceOnUse"><stop stop-color="#fff" offset="0"/><stop stop-color="#FEFEFB" offset=".135"/><stop stop-color="#FAFCEE" offset=".275"/><stop stop-color="#F5F8DA" offset=".417"/><stop stop-color="#EDF3BD" offset=".56"/><stop stop-color="#E3EC97" offset=".705"/><stop stop-color="#D6E36A" offset=".85"/><stop stop-color="#C8D934" offset=".994"/><stop stop-color="#C7D932" offset="1"/></linearGradient><linearGradient id="ag" x1="220.77" x2="216.75" y1="183.54" y2="155.66" gradientUnits="userSpaceOnUse"><stop stop-color="#007E41" offset="0"/><stop stop-color="#0D8541" offset=".172"/><stop stop-color="#2F9742" offset=".489"/><stop stop-color="#66B444" offset=".914"/><stop stop-color="#72BA44" offset="1"/></linearGradient><linearGradient id="ah" x1="220.33" x2="217.78" y1="181.71" y2="164.05" gradientUnits="userSpaceOnUse"><stop stop-color="#fff" offset=".011"/><stop stop-color="#CFE7BF" offset=".271"/><stop stop-color="#A7D48A" offset=".516"/><stop stop-color="#8AC664" offset=".726"/><stop stop-color="#78BD4D" offset=".895"/><stop stop-color="#72BA44" offset="1"/></linearGradient><linearGradient id="ai" x1="208.47" x2="205.54" y1="142.52" y2="183.26" gradientUnits="userSpaceOnUse"><stop stop-color="#009649" offset="0"/><stop stop-color="#099948" offset=".034"/><stop stop-color="#4CB040" offset=".295"/><stop stop-color="#81C13A" offset=".532"/><stop stop-color="#A7CE36" offset=".735"/><stop stop-color="#BED633" offset=".898"/><stop stop-color="#C7D932" offset="1"/></linearGradient><linearGradient id="aj" x1="218.79" x2="214.24" y1="175.87" y2="144.34" gradientUnits="userSpaceOnUse"><stop stop-color="#007E41" offset="0"/><stop stop-color="#0D8541" offset=".172"/><stop stop-color="#2F9742" offset=".489"/><stop stop-color="#66B444" offset=".914"/><stop stop-color="#72BA44" offset="1"/></linearGradient><linearGradient id="ak" x1="198.78" x2="197.17" y1="153.48" y2="175.92" gradientTransform="matrix(.9854 -.0077 -.0077 .996 4.109 2.293)" gradientUnits="userSpaceOnUse"><stop stop-color="#F8E47E" offset="0"/><stop stop-color="#8AB44C" offset=".839"/><stop stop-color="#74AA42" offset="1"/></linearGradient><linearGradient id="al" x1="200.85" x2="199.77" y1="158.17" y2="173.17" gradientUnits="userSpaceOnUse"><stop stop-color="#F8E47E" offset="0"/><stop stop-color="#FEFBEC" offset=".858"/><stop stop-color="#fff" offset="1"/></linearGradient><linearGradient id="am" x1="246.68" x2="239.31" y1="223.46" y2="174.67" gradientUnits="userSpaceOnUse"><stop stop-color="#F08240" offset="0"/><stop stop-color="#F0893C" offset=".094"/><stop stop-color="#F29E2F" offset=".424"/><stop stop-color="#F2A62B" offset=".64"/><stop stop-color="#FBD027" offset="1"/></linearGradient><linearGradient id="an" x1="220.2" x2="214.22" y1="222.85" y2="183.29" gradientUnits="userSpaceOnUse"><stop stop-color="#F1972E" offset="0"/><stop stop-color="#F3A953" offset=".127"/><stop stop-color="#F8C890" offset=".356"/><stop stop-color="#FBDFC0" offset=".566"/><stop stop-color="#FDF1E2" offset=".75"/><stop stop-color="#FEFBF7" offset=".901"/><stop stop-color="#fff" offset="1"/></linearGradient><linearGradient id="ao" x1="264.13" x2="231.64" y1="203.22" y2="168.83" gradientTransform="matrix(.7257 .445 -.6046 .9861 189.19 -112.56)" gradientUnits="userSpaceOnUse"><stop stop-color="#fff" offset="0"/><stop stop-color="#FFFEFB" offset=".155"/><stop stop-color="#FEFBEE" offset=".315"/><stop stop-color="#FDF6DA" offset=".478"/><stop stop-color="#FCEEBD" offset=".642"/><stop stop-color="#FAE597" offset=".808"/><stop stop-color="#F8D96A" offset=".972"/><stop stop-color="#F8D762" offset="1"/></linearGradient><linearGradient id="ap" x1="198.95" x2="218.7" y1="159.63" y2="143" gradientUnits="userSpaceOnUse"><stop stop-color="#fff" offset="0"/><stop stop-color="#F9FBE9" offset=".139"/><stop stop-color="#EAF0B1" offset=".429"/><stop stop-color="#D1E057" offset=".841"/><stop stop-color="#C7D932" offset="1"/></linearGradient><linearGradient id="aq" x1="218.1" x2="216.28" y1="154.44" y2="179.74" gradientUnits="userSpaceOnUse"><stop stop-color="#097F40" offset="0"/><stop stop-color="#008144" offset="1"/></linearGradient><path d="M202.24 77.086s-13.794-22.684-40.935-5.66c0 0-39.315 24.306-8.51 73.751 0 0 17.425 43.78 47.411 47.418l2.04-115.51z" fill="url(#a)" transform="matrix(.38812 0 0 .38812 -125.018 -162.184)"/><path d="M178.92 72.177s5.269 8.428-18.96 12.379c0 0-10.016 1.576-11.845 7.11l46.618 5.817.252-23.207-16.07-2.1z" fill="url(#b)" transform="matrix(.38812 0 0 .38812 -125.018 -162.184)"/><path d="M194.14 72.225s15.418-31.194 54.3-3.218l-4.055 14.16-38.088 10.13-12.16-21.072z" fill="url(#c)" transform="matrix(.38812 0 0 .38812 -125.018 -162.184)"/><path d="M204.73 61.374s3.856 16.433 30.033 9.757c.368-.091.705-.18 1.065-.265 27.1-7.38-10.009 13.955-10.009 13.955l-32.398-2.111.5-15.814 10.81-5.522z" fill="url(#d)" transform="matrix(.38812 0 0 .38812 -125.018 -162.184)"/><path d="M221.3 86.812s10.929-26.738 37.686-17.805c0 0 31.2 8.487 14.989 54.3 0 0-12.98 48.621-29.174 58.75l-23.51-95.248z" fill="url(#e)" transform="matrix(.38812 0 0 .38812 -125.018 -162.184)"/><path d="M264.19 138.39c2.81-11.23 2.593-22.19 2.593-22.19 4.458-22.762-23.014-26.756-23.014-26.756-17.365-2.586-15.742-11.05-15.742-11.05l-3.736 8.234 22.07 93.44c.596-.18 1.16-.469 1.714-.817l-.138.415c8.553-5.667 20.007-37.866 20.007-37.866-2.6 2.21-3.52-.07-3.75-3.41z" fill="url(#f)" transform="matrix(.38812 0 0 .38812 -125.018 -162.184)"/><path d="M188.45 94.524s-47.4-26.738-52.669 18.635c0 0 2.845 86.324 60.802 79.846l.8-95.665-8.93-2.821z" fill="url(#g)" transform="matrix(.38812 0 0 .38812 -125.018 -162.184)"/><path d="M185.15 100.65s-39.562-.547-26.01 43.652c0 0 10.664 34.184 28.71 49.024 0 0 10.942-.32 13.871-1.612l-16.57-91.06z" fill="url(#h)" transform="matrix(.38812 0 0 .38812 -125.018 -162.184)"/><path d="M210.36 101.4c.03-.072.08-.114.169-.186 9.775-11.14 30.215-9.131 30.215-9.131 37.686 5.252 17.028 54.317 17.028 54.317-3.254 4.457-8.115 28.344-8.115 28.344-5.269 27.567-24.312 30.804-24.312 30.804-17.432 4.463-30.39-9.318-30.39-9.318-42.972-51.058-26.761-77.392-26.761-77.392 9.732-26.365 42.166-16.632 42.166-16.632v-.8z" fill="url(#i)" transform="matrix(.38812 0 0 .38812 -125.018 -162.184)"/><path d="M182.73 103.97s15.765-3.194 30.448 1.756c0 0 7.417-11.489 17.601-12.62 0 0-2.76-11.639-1.695-15.633 0 0-14.815-2.4-25.644-1.425 0 0-11.446 6.863-23.652 7.795 0-.006 3.54 9.908 2.94 20.124z" fill="url(#j)" opacity=".63" transform="matrix(.38812 0 0 .38812 -125.018 -162.184)"/><path d="M183.48 102.04s15.062-2.959 29.055 1.612c0 0 7.067-10.623 16.83-11.657 0 0-2.665-10.773-1.63-14.448 0 0-14.154-2.22-24.482-1.335 0 0-10.924 6.351-22.563 7.242-.01-.002 3.38 9.135 2.78 18.588z" fill="url(#k)" transform="matrix(.38812 0 0 .38812 -125.018 -162.184)"/><path d="M193.38 94.65c-3.563-.283-6.389-1.612-8.82-3.525.482 2.846.83 6.16.596 9.528 0 0 14.094-2.755 27.165 1.498 0 0 3.525-5.24 8.962-8.463-9.31-2.598-18.63 1.986-27.9.963z" fill="url(#l)" opacity=".59" transform="matrix(.38812 0 0 .38812 -125.018 -162.184)"/><path d="M218.5 86.115c.849 4.915-4.656 9.937-12.271 11.248-7.597 1.281-14.437-1.66-15.284-6.568-.837-4.91 4.655-9.937 12.276-11.23 7.61-1.288 14.44 1.647 15.27 6.55z" fill="url(#m)" transform="matrix(.38812 0 0 .38812 -125.018 -162.184)"/><path d="M216.26 87.011c-.1-.499-.252-.999-.48-1.432-.637 3.2-3.742 4.698-6.22 5.51-5.853 2.6-10.497-1.419-15.471-4.457-.927 1.383-1.366 2.845-1.114 4.325.705 4.169 6.473 6.641 12.91 5.54 6.43-1.09 11.05-5.343 10.37-9.487z" fill="url(#n)" opacity=".58" transform="matrix(.38812 0 0 .38812 -125.018 -162.184)"/><path d="M171.94 70.415s8.626-27.851 35.743-1.973c0 0 6.418 7.645 5.685 15.285 0 0-3.478 8.163-14.341 3.459l-3.67-2.713-23.41-14.059z" fill="url(#o)" transform="matrix(.38812 0 0 .38812 -125.018 -162.184)"/><path d="M195.85 83.66s-1.726-16.265 3.677-13.974c0 0 11.36 5.077 11.613 16.512 0 0-2.46 4.572-10.117 2.034 0 0-4.92-2.275-5.42-3.032l.25-1.54z" fill="url(#p)" transform="matrix(.38812 0 0 .38812 -125.018 -162.184)"/><path d="M195.58 83.961c-1.709 3.248-8.464 3.056-15.099-.421-6.634-3.495-10.61-8.951-8.896-12.21 1.709-3.25 8.463-3.05 15.098.42 6.63 3.477 10.62 8.945 8.9 12.21z" fill="url(#q)" transform="matrix(.38812 0 0 .38812 -125.018 -162.184)"/><path d="M189.18 74.397c.83 1.377 1.46 2.76.781 4.15-3.007 3.032-8.77 1.619-12.859 2.118a24.533 24.533 0 003.567 2.31c5.9 3.086 11.892 3.248 13.396.349 1.25-2.341-.87-5.987-4.89-8.928z" fill="url(#r)" opacity=".74" transform="matrix(.38812 0 0 .38812 -125.018 -162.184)"/><path d="M213.56 107.32s11.627 7.29 15.573 34.13c0 0 24.86-23.88 5.919-47.34.01.005-13.62.209-21.49 13.21z" fill="url(#s)" transform="matrix(.38812 0 0 .38812 -125.018 -162.184)"/><path d="M189.85 118.08s19.79 1.847 34.521 19.327c0 0-3.688-27.147-21.185-32.206 0 0-10.582-3.693-17.499 2.749.01 0-8.72 6 4.17 10.13z" fill="url(#t)" opacity=".62" transform="matrix(.38812 0 0 .38812 -125.018 -162.184)"/><path d="M254.65 115.52c-3.879 6.329-8.733 3.67-15.271-.36-6.552-4-12.326-7.845-8.429-14.172 3.892-6.334 12.325-8.229 18.877-4.199 6.53 4.008 8.7 12.398 4.82 18.728z" fill="url(#u)" opacity=".62" transform="matrix(.38812 0 0 .38812 -125.018 -162.184)"/><path d="M181.83 67.811s6.136 1.245 9.745 5.13c0 0 1.763-13.281 13.901-3.5 0 0-13.25-17.15-23.65-1.63z" fill="url(#v)" opacity=".51" transform="matrix(.38812 0 0 .38812 -125.018 -162.184)"/><path d="M197.82 69.808s12.373 5.13 12.024 17.474c0 0-.198 1.3-4.578 1.642 0 0 1.437-9.822-9.066-15.724.01 0-.11-2.28 1.63-3.392z" fill="url(#w)" transform="matrix(.38812 0 0 .38812 -125.018 -162.184)"/><path d="M108.97 148.4s-13.624-22.4-40.434-5.594c0 0-38.828 24-8.415 72.845 0 0 17.203 43.201 46.822 46.804l2.03-114.06z" fill="url(#x)" transform="matrix(.38812 0 0 .38812 -125.018 -162.184)"/><path d="M85.916 143.56s5.203 8.313-18.731 12.222c0 0-9.877 1.57-11.705 7.025l46.034 5.733.264-22.9-15.854-2.08z" fill="url(#y)" transform="matrix(.38812 0 0 .38812 -125.018 -162.184)"/><path d="M100.93 143.61s15.219-30.822 53.62-3.2l-3.976 14.003-37.632 10.003-12.01-20.8z" fill="url(#z)" transform="matrix(.38812 0 0 .38812 -125.018 -162.184)"/><path d="M111.4 132.91s3.826 16.205 29.666 9.636c.35-.096.687-.186 1.035-.283 26.81-7.284-9.876 13.793-9.876 13.793l-32.001-2.081.529-15.633 10.64-5.44z" fill="url(#A)" transform="matrix(.38812 0 0 .38812 -125.018 -162.184)"/><path d="M127.77 158.01s10.802-26.395 37.197-17.601c0 0 30.822 8.397 14.804 53.607 0 0-12.788 48.038-28.819 58.029l-23.18-94.04z" fill="url(#B)" transform="matrix(.38812 0 0 .38812 -125.018 -162.184)"/><path d="M170.1 208.93c2.791-11.085 2.558-21.883 2.558-21.883 4.426-22.497-22.714-26.449-22.714-26.449-17.15-2.55-15.538-10.888-15.538-10.888l-3.687 8.12 21.787 92.256c.596-.15 1.161-.44 1.69-.8l-.131.415c8.433-5.57 19.759-37.397 19.759-37.397-2.55 2.18-3.5-.05-3.73-3.37z" fill="url(#C)" transform="matrix(.38812 0 0 .38812 -125.018 -162.184)"/><path d="M95.343 165.62s-46.829-26.4-52.038 18.413c0 0 2.81 85.229 60.044 78.835l.812-94.438-8.817-2.8z" fill="url(#D)" transform="matrix(.38812 0 0 .38812 -125.018 -162.184)"/><path d="M92.101 171.67s-39.081-.523-25.709 43.104c0 0 10.526 33.758 28.355 48.41 0 0 10.809-.307 13.684-1.593l-16.329-89.92z" fill="url(#E)" transform="matrix(.38812 0 0 .38812 -125.018 -162.184)"/><path d="M116.93 172.41c.067-.06.14-.126.182-.175 9.666-10.989 29.858-9.016 29.858-9.016 37.216 5.203 16.795 53.62 16.795 53.62-3.207 4.402-7.995 28.02-7.995 28.02-5.197 27.21-24.024 30.405-24.024 30.405-17.191 4.41-29.998-9.198-29.998-9.198-42.407-50.418-26.406-76.44-26.406-76.44 9.594-26.022 41.589-16.397 41.589-16.397v-.82z" fill="url(#F)" transform="matrix(.38812 0 0 .38812 -125.018 -162.184)"/><path d="M89.677 174.93s15.542-3.128 30.063 1.763c0 0 7.32-11.351 17.419-12.458 0 0-2.766-11.501-1.714-15.447 0 0-14.635-2.365-25.33-1.432 0 0-11.297 6.785-23.358 7.736-.004 0 3.51 9.77 2.915 19.84z" fill="url(#G)" opacity=".63" transform="matrix(.38812 0 0 .38812 -125.018 -162.184)"/><path d="M90.423 173.03s14.851-2.906 28.686 1.606c0 0 6.99-10.479 16.597-11.514 0 0-2.61-10.623-1.594-14.255 0 0-13.968-2.19-24.163-1.312 0 0-10.797 6.244-22.288 7.116-.011-.02 3.333 9.03 2.75 18.34z" fill="url(#H)" transform="matrix(.38812 0 0 .38812 -125.018 -162.184)"/><path d="M100.17 165.75c-3.495-.276-6.268-1.587-8.68-3.464.463 2.778.8 6.069.615 9.383 0 0 13.87-2.725 26.81 1.51 0 0 3.476-5.197 8.835-8.397-9.2-2.54-18.39 1.98-27.58.97z" fill="url(#I)" opacity=".59" transform="matrix(.38812 0 0 .38812 -125.018 -162.184)"/><path d="M125 157.33c.83 4.842-4.589 9.823-12.108 11.093-7.513 1.263-14.28-1.619-15.098-6.479-.83-4.848 4.607-9.817 12.108-11.091 7.53-1.27 14.27 1.63 15.1 6.48z" fill="url(#J)" transform="matrix(.38812 0 0 .38812 -125.018 -162.184)"/><path d="M122.79 158.2a7.147 7.147 0 00-.47-1.419c-.63 3.182-3.723 4.644-6.135 5.456-5.823 2.58-10.376-1.39-15.285-4.373-.914 1.335-1.366 2.796-1.119 4.252.686 4.09 6.412 6.544 12.758 5.456 6.36-1.09 10.95-5.28 10.25-9.38z" fill="url(#K)" opacity=".58" transform="matrix(.38812 0 0 .38812 -125.018 -162.184)"/><path d="M79.011 141.82s8.518-27.501 35.273-1.931c0 0 6.358 7.531 5.624 15.08 0 0-3.41 8.025-14.118 3.405l-3.663-2.67-23.11-13.89z" fill="url(#L)" transform="matrix(.38812 0 0 .38812 -125.018 -162.184)"/><path d="M102.63 154.89s-1.697-16.055 3.644-13.793c0 0 11.213 5.011 11.447 16.301 0 0-2.436 4.523-9.984 2.003 0 0-4.854-2.237-5.336-3.001l.23-1.51z" fill="url(#M)" transform="matrix(.38812 0 0 .38812 -125.018 -162.184)"/><path d="M102.38 155.18c-1.697 3.212-8.38 3.038-14.918-.41-6.54-3.446-10.461-8.818-8.794-12.054 1.672-3.194 8.36-3.002 14.911.415 6.541 3.45 10.471 8.83 8.801 12.04z" fill="url(#N)" transform="matrix(.38812 0 0 .38812 -125.018 -162.184)"/><path d="M96.041 145.75c.836 1.353 1.468 2.737.782 4.09-3.008 2.984-8.662 1.63-12.704 2.094a22.678 22.678 0 003.525 2.273c5.804 3.068 11.747 3.225 13.24.373 1.22-2.31-.88-5.92-4.839-8.82z" fill="url(#O)" opacity=".74" transform="matrix(.38812 0 0 .38812 -125.018 -162.184)"/><path d="M120.13 178.28s11.477 7.182 15.369 33.691c0 0 24.547-23.58 5.852-46.75 0 0-13.44.21-21.22 13.06z" fill="url(#P)" transform="matrix(.38812 0 0 .38812 -125.018 -162.184)"/><path d="M96.708 188.88s19.544 1.83 34.076 19.099c0 0-3.627-26.804-20.903-31.809 0 0-10.442-3.639-17.263 2.731.001 0-8.65 5.91 4.091 9.98z" fill="url(#Q)" opacity=".54" transform="matrix(.38812 0 0 .38812 -125.018 -162.184)"/><path d="M160.67 186.36c-3.824 6.255-8.583 3.627-15.068-.337-6.447-3.97-12.156-7.766-8.331-14.016 3.845-6.25 12.176-8.12 18.642-4.163 6.48 3.98 8.61 12.26 4.76 18.52z" fill="url(#R)" opacity=".54" transform="matrix(.38812 0 0 .38812 -125.018 -162.184)"/><path d="M88.792 139.24s6.051 1.246 9.649 5.077c0 0 1.708-13.113 13.703-3.47 0 0-13.086-16.93-23.348-1.61z" fill="url(#S)" opacity=".51" transform="matrix(.38812 0 0 .38812 -125.018 -162.184)"/><path d="M104.59 141.23s12.193 5.059 11.88 17.251c0 0-.229 1.306-4.542 1.63 0 0 1.395-9.714-8.95-15.537 0 0-.12-2.25 1.61-3.34z" fill="url(#T)" transform="matrix(.38812 0 0 .38812 -125.018 -162.184)"/><path d="M216.67 160.77s-13.654-22.46-40.531-5.618c0 0-38.899 24.06-8.432 72.995 0 0 17.27 43.32 46.947 46.93l2.01-114.3z" fill="url(#U)" transform="matrix(.38812 0 0 .38812 -125.018 -162.184)"/><path d="M193.58 155.91s5.208 8.349-18.773 12.252c0 0-9.913 1.576-11.725 7.044l46.113 5.732.29-22.936-15.9-2.08z" fill="url(#V)" opacity=".75" transform="matrix(.38812 0 0 .38812 -125.018 -162.184)"/><path d="M208.62 155.97s15.267-30.894 53.771-3.206l-4.024 14.028-37.703 10.021-12.05-20.84z" fill="url(#W)" transform="matrix(.38812 0 0 .38812 -125.018 -162.184)"/><path d="M219.13 145.22s3.794 16.259 29.721 9.654c.337-.084.686-.168 1.034-.264 26.847-7.303-9.913 13.817-9.913 13.817l-32.066-2.082.535-15.633 10.69-5.5z" fill="url(#X)" opacity=".75" transform="matrix(.38812 0 0 .38812 -125.018 -162.184)"/><path d="M235.51 170.39s10.811-26.455 37.289-17.63c0 0 30.901 8.415 14.845 53.746 0 0-12.848 48.122-28.878 58.143l-23.25-94.26z" fill="url(#Y)" transform="matrix(.38812 0 0 .38812 -125.018 -162.184)"/><path d="M277.98 221.45c2.791-11.122 2.544-21.973 2.544-21.973 4.42-22.522-22.749-26.479-22.749-26.479-17.204-2.562-15.574-10.917-15.574-10.917l-3.724 8.127 21.836 92.477a5.494 5.494 0 001.714-.806l-.133.409c8.453-5.588 19.797-37.48 19.797-37.48-2.58 2.19-3.51-.07-3.72-3.36z" fill="url(#Z)" opacity=".74" transform="matrix(.38812 0 0 .38812 -125.018 -162.184)"/><path d="M203.02 178.01s-46.931-26.467-52.122 18.46c0 0 2.78 85.434 60.158 79.028l.793-94.673-8.83-2.82z" fill="url(#aa)" transform="matrix(.38812 0 0 .38812 -125.018 -162.184)"/><path d="M199.76 184.09s-39.165-.53-25.764 43.213c0 0 10.539 33.83 28.422 48.513 0 0 10.864-.313 13.721-1.594l-16.38-90.13z" fill="url(#ab)" opacity=".72" transform="matrix(.38812 0 0 .38812 -125.018 -162.184)"/><path d="M224.68 184.85c.06-.06.096-.12.163-.199 9.696-11.014 29.938-9.041 29.938-9.041 37.307 5.221 16.85 53.752 16.85 53.752-3.213 4.422-8.05 28.073-8.05 28.073-5.209 27.285-24.048 30.497-24.048 30.497-17.27 4.409-30.089-9.222-30.089-9.222-42.509-50.558-26.46-76.622-26.46-76.622 9.612-26.07 41.696-16.446 41.696-16.446v-.79z" fill="url(#ac)" transform="matrix(.38812 0 0 .38812 -125.018 -162.184)"/><path d="M197.33 187.39s15.598-3.183 30.154 1.708c0 0 7.333-11.357 17.426-12.458 0 0-2.749-11.548-1.678-15.482 0 0-14.67-2.382-25.379-1.444 0 0-11.326 6.798-23.417 7.754.01 0 3.51 9.81 2.9 19.92z" fill="url(#ad)" opacity=".63" transform="matrix(.38812 0 0 .38812 -125.018 -162.184)"/><path d="M198.11 185.46s14.888-2.93 28.722 1.594c0 0 7.02-10.515 16.662-11.531 0 0-2.628-10.665-1.61-14.31 0 0-14.022-2.178-24.254-1.312 0 0-10.773 6.28-22.3 7.164 0 0 3.34 9.05 2.78 18.4z" fill="url(#ae)" transform="matrix(.38812 0 0 .38812 -125.018 -162.184)"/><path d="M207.86 178.15c-3.507-.283-6.303-1.594-8.698-3.471.488 2.785.8 6.087.602 9.407 0 0 13.913-2.73 26.894 1.51 0 0 3.489-5.214 8.843-8.415-9.2-2.55-18.42 1.99-27.63.97z" fill="url(#af)" opacity=".59" transform="matrix(.38812 0 0 .38812 -125.018 -162.184)"/><path d="M232.77 169.72c.807 4.842-4.63 9.835-12.155 11.11-7.531 1.293-14.317-1.612-15.147-6.478-.817-4.86 4.638-9.859 12.157-11.128 7.53-1.27 14.31 1.63 15.14 6.5z" fill="url(#ag)" transform="matrix(.38812 0 0 .38812 -125.018 -162.184)"/><path d="M230.52 170.59a5.54 5.54 0 00-.464-1.414c-.613 3.17-3.706 4.638-6.172 5.438-5.798 2.593-10.376-1.383-15.302-4.373-.926 1.335-1.348 2.803-1.095 4.252.686 4.122 6.419 6.57 12.77 5.493 6.36-1.07 10.97-5.29 10.26-9.4z" fill="url(#ah)" opacity=".58" transform="matrix(.38812 0 0 .38812 -125.018 -162.184)"/><path d="M186.65 154.17s8.548-27.574 35.399-1.937c0 0 6.333 7.567 5.617 15.11 0 0-3.427 8.066-14.184 3.423l-3.644-2.677-23.2-13.91z" fill="url(#ai)" transform="matrix(.38812 0 0 .38812 -125.018 -162.184)"/><path d="M210.34 167.28s-1.716-16.103 3.656-13.841c0 0 11.206 5.04 11.46 16.35 0 0-2.426 4.53-10.01 2.009 0 0-4.879-2.261-5.343-3.026l.23-1.49z" fill="url(#aj)" transform="matrix(.38812 0 0 .38812 -125.018 -162.184)"/><path d="M210.08 167.57c-1.708 3.2-8.398 3.031-14.947-.41-6.568-3.452-10.526-8.86-8.82-12.078 1.68-3.224 8.387-3.038 14.956.403 6.58 3.46 10.51 8.86 8.82 12.09z" fill="url(#ak)" transform="matrix(.38812 0 0 .38812 -125.018 -162.184)"/><path d="M203.74 158.1c.83 1.365 1.462 2.748.758 4.114-2.99 2.984-8.662 1.612-12.704 2.093a21.486 21.486 0 003.531 2.298c5.816 3.05 11.754 3.212 13.252.361 1.23-2.32-.87-5.95-4.84-8.86z" fill="url(#al)" opacity=".74" transform="matrix(.38812 0 0 .38812 -125.018 -162.184)"/><path d="M227.85 190.69s11.524 7.225 15.423 33.775c0 0 24.596-23.627 5.847-46.84 0 .01-13.45.21-21.27 13.07z" fill="url(#am)" transform="matrix(.38812 0 0 .38812 -125.018 -162.184)"/><path d="M204.38 201.34s19.591 1.835 34.179 19.14c0 0-3.657-26.87-20.951-31.886 0 0-10.485-3.657-17.318 2.737 0 0-8.67 5.92 4.09 10.01z" fill="url(#an)" opacity=".58" transform="matrix(.38812 0 0 .38812 -125.018 -162.184)"/><path d="M268.53 198.8c-3.861 6.262-8.667 3.615-15.14-.343-6.466-3.976-12.175-7.778-8.313-14.04 3.808-6.267 12.192-8.138 18.658-4.15 6.47 3.96 8.61 12.27 4.79 18.53z" fill="url(#ao)" opacity=".49" transform="matrix(.38812 0 0 .38812 -125.018 -162.184)"/><path d="M196.44 151.59s6.08 1.233 9.69 5.077c0 0 1.714-13.137 13.756-3.471-.01-.01-13.15-16.97-23.45-1.61z" fill="url(#ap)" opacity=".51" transform="matrix(.38812 0 0 .38812 -125.018 -162.184)"/><path d="M212.28 153.56s12.224 5.095 11.905 17.33c0 0-.218 1.288-4.56 1.619 0 0 1.42-9.74-8.957-15.58.01-.01-.1-2.29 1.62-3.37z" fill="url(#aq)" transform="matrix(.38812 0 0 .38812 -125.018 -162.184)"/></g></switch></svg>