<svg xmlns="http://www.w3.org/2000/svg" width="20" height="20"><g fill-rule="evenodd" stroke-width=".5"><path d="M8.741 2.922l-.012.025-.087.236c-.058.157-.09.248-.095.272l-.004.038-.005.037-.008.037v.199l.008.004.005.008.004.007.008.005.007-.024.005-.025.025-.005.025-.008.005-.007.007-.005.013-.025.012-.025.008-.005.005-.007.024-.013c.017-.008.03-.026.038-.054.008-.03.02-.045.037-.045.016 0 .04-.029.07-.087.027-.057.044-.078.049-.062.003.017.013.025.03.025.016 0 .024-.018.024-.054 0-.038.015-.063.045-.075a.13.13 0 00.06-.05.126.126 0 01.064-.049.178.178 0 00.075-.074.147.147 0 01.074-.075.614.614 0 00.05-.025l.005-.007.05-.05a.542.542 0 01.061-.057l.013-.005v-.005c0-.005.004-.01.012-.015l.012-.005.075-.129c.05-.087.099-.143.149-.168.05-.025.099-.058.148-.1.05-.04.112-.053.187-.037.074.017.16.028.26.033l.149.005v-.013l.136-.037a.732.732 0 00.174-.062c.025-.017.066-.02.124-.012a.29.29 0 01.092.02l.015.01.005.007.024.012.025.013.005.007.008.005.037.1c.025.065-.166.69-.57 1.872-.406 1.183-.679 1.96-.82 2.332-.14.372-.213.678-.218.918l-.005.36.13.558c.087.372.133.579.138.62l.005.062.144.484a28.86 28.86 0 01.303 1.104l.012.05.013.036.012.038.007.012.005.012h.075v-.124l-.005-.05a21.066 21.066 0 00-.14-.607l-.128-.558h-.012l-.013-.062-.05-.248-.037-.186v-.15l.008.006.005.007.005.008.007.005.008.005.005.007.004.007.008.005.007.005.005.008.005.007.008.005.007.005.005.008.005.007.008.005.007.005.005.007.005.008.007.005.008.005.005.007.005.008.007.005.489.49c.327.327.5.492.516.497.016.003.025.013.025.03 0 .016.008.025.024.025.017 0 .025.008.025.024 0 .017.009.025.025.025.017 0 .025.008.025.025 0 .016.092.112.278.285.187.174.368.35.545.529.18.177.277.268.293.273.017.003.054.036.112.099.058.06.36.344.905.848.546.505 1.166 1.063 1.86 1.675.695.612 1.22 1.054 1.576 1.327l.546.417.012.005h.005c.005 0 .01.004.015.012l.005.012h.005c.005 0 .01.004.015.013l.005.012h.005c.005 0 .01.004.015.013l.005.012.372.236c.248.157.382.31.402.459.021.148.02.277-.005.384a.68.68 0 00-.03.186c.003.017.013.025.03.025.016 0 .024.008.024.025 0 .016-.014.025-.044.025-.028 0-.048.018-.06.054a.253.253 0 01-.05.09c-.02.02-.03.089-.024.208.003.12.013.185.03.193l.024.013-.005.007-.007.005-.007.005-.005.007-.05.013a.958.958 0 01-.149.02c-.066.003-.1.025-.104.067a.247.247 0 01-.057.124c-.033.041-.069.099-.107.173a.575.575 0 01-.198.211c-.094.066-.18.114-.258.144a.459.459 0 00-.169.092.326.326 0 01-.161.074c-.075.017-.122.04-.142.067-.021.03-.067.047-.138.05-.07.005-.125.043-.167.114a.367.367 0 01-.131.141l-.067.038-.008.005-.005.007-.012.008-.012.004h-.013l-.007.005-.005.008-.025.012-.025.013-.025.012a3.788 3.788 0 01-.632.21c-.19.05-.36.08-.509.088-.149.008-.24.004-.273-.013a.483.483 0 01-.124-.106 1.653 1.653 0 00-.173-.16 3.13 3.13 0 01-.323-.346c-.149-.179-.231-.268-.248-.268-.016 0-.145-.157-.384-.472l-.36-.471-.012-.005c-.009-.005-.013-.01-.013-.015v-.005l-.025-.005-.024-.007-.005-.008-.008-.005-.007-.024-.005-.025-.025-.005-.025-.008-.005-.007-.007-.005-.008-.005-.005-.007-.005-.008-.007-.005-.008-.005-.004-.007-.005-.008-.008-.005-.007-.005-.005-.007-.025-.007-.025-.005.005.037.007.037.013.037.012.037v.1c0 .066-.014.15-.042.253a.483.483 0 01-.09.198c-.027.03-.045.082-.054.156a.396.396 0 01-.07.191.284.284 0 01-.153.115c-.066.02-.114.083-.144.19-.028.108-.086.168-.174.182a3.35 3.35 0 00-.19.03c-.042.008-.08.056-.117.143-.038.086-.055.138-.05.154.004.017-.024.02-.082.013-.058-.009-.099.005-.124.042-.024.038-.095.065-.21.082-.116.016-.187.037-.211.062-.025.024-.104.04-.236.044l-.199.005-.21.005c-.14.005-.38.008-.72.008-.339 0-.612-.009-.818-.025-.207-.017-.344-.058-.41-.124a1.231 1.231 0 01-.154-.181c-.038-.053-.11-.324-.218-.812a81.024 81.024 0 00-.625-2.517L6.98 14.06l-.005-.012a3.058 3.058 0 01-.07-.186l-.062-.174-.012-.024-.013-.025-.007-.005-.005-.008-.005-.007-.007-.005-.008-.025-.005-.025-.037.005-.037.008-.005.007-.008.005-.007.005-.005.008-.005.007-.007.005-.013.025-.012.025-.112.21-.124.236-.012.025-.013.025-.012.024-.013.025-.012.025-.007.005-.005.007-.005.008-.008.005-.007.012-.005.013-.55 1.153a33.144 33.144 0 00-.611 1.308 1.143 1.143 0 01-.298.461.268.268 0 00-.084.1c-.013.027-.028.044-.045.049-.016.003-.033.015-.05.035-.016.021-.061.036-.136.044-.074.008-.12.032-.136.07-.017.036-.05.053-.1.05-.05-.006-.082-.016-.099-.033-.016-.017-.05-.02-.099-.012a.398.398 0 00-.161.074.216.216 0 01-.186.037 1.38 1.38 0 01-.31-.149c-.14-.082-.257-.153-.348-.21a1.469 1.469 0 00-.215-.12 1.036 1.036 0 01-.174-.084 2.432 2.432 0 00-.169-.094c-.05-.025-.074-.04-.074-.045v-.005l-.013-.005c-.008-.005-.012-.01-.012-.015v-.005l-.012-.005c-.009-.004-.013-.01-.013-.014v-.005l-.012-.005c-.009-.005-.013-.01-.013-.015v-.005l-.012-.005c-.008-.005-.012-.01-.012-.015v-.005l-.013-.005c-.008-.005-.012-.01-.012-.015v-.005l-.025-.005-.025-.007-.005-.008-.007-.005-.008-.005a4.318 4.318 0 01-.074-.188.546.546 0 00-.191-.266.47.47 0 01-.174-.285 2.97 2.97 0 01-.067-.335l-.02-.136.005-.075.008-.074.007-.005.005-.007.005-.008.008-.005.012-.025a2.45 2.45 0 01.094-.148c.053-.083.088-.124.104-.124.017 0 .075-.075.174-.224l.149-.223.005-.1.02-.285c.008-.124.074-.36.198-.707.124-.347.3-.785.526-1.314l.342-.794.005-.013.008-.012.012-.149c.009-.099.046-.231.112-.397l.496-1.252c.265-.67.397-1.191.397-1.563 0-.372-.006-.596-.017-.67l-.02-.112-.005-.012a28.568 28.568 0 00-.293-.385c-.19-.248-.302-.413-.335-.496a.361.361 0 01-.025-.223.214.214 0 01.107-.144c.053-.028.086-.061.1-.1.01-.036-.016-.107-.083-.215a.74.74 0 01-.111-.248l-.013-.087.008-.005.005-.007.005-.008.007-.005.008-.005.005-.007.005-.007.007-.005.007-.005.005-.008.397-.05c.265-.033.455-.074.57-.124a.83.83 0 00.294-.205c.077-.086.152-.186.223-.298l.109-.174a.027.027 0 01.015-.005h.005V4.43c0-.005.008-.011.025-.02l.024-.012h.1l.005.008c.005.003.01.009.014.017l.005.012h.005c.005 0 .01.004.015.013l.005.012h.005c.005 0 .01.004.015.013l.005.012.328.347c.22.232.334.356.342.372l.012.025.008.005.005.008.005.007.007.005.008.005.004.007.005.008.008.005.007.005.005.007.005.008.008.005.007.005.005.007.005.007.007.005.008.005.005.008h.05l.004-.008.008-.005.007-.05.005-.049-.005-.037-.007-.037-.012-.112-.08-.645-.07-.533h-.012l-.012-.062c-.008-.042-.075-.45-.199-1.228l-.186-1.166.013-.025.012-.025.008-.005.005-.007.005-.008.007-.005.007-.005.005-.007.199.012c.132.009.269.015.41.02l.21.005.228-.037c.154-.025.275-.064.362-.117.086-.054.154-.102.204-.143.05-.042.078-.065.087-.07l.012-.005.037-.054a.143.143 0 01.112-.065c.05-.003.139.301.268.913.127.612.207 1.005.24 1.178.034.174.06.276.082.305.02.029.076-.05.167-.238.09-.185.144-.278.16-.278.017 0 .019.025.006.075a.534.534 0 01-.03.1z" fill="#fff" stroke="#fff" stroke-width=".012405"/><path d="M9.331 7.58l.005-.007.025-.007.025-.005.005.05q.007.05.02.086l.012.038.013.037.012.037h.012l.13.558q.13.558.138.62l.005.062-.02.509q-.017.509.095 1.116.111.608.352 1.471.243.861.412 1.35.166.491.414 1.198.248.707.248.819 0 .111-.012.136l-.025.05-.013.025-.012.024-.012.025-.008.005-.005.008-.005.007-.007.005-.008.005-.005.007-.005.008-.007.005-.007.005-.005.007-.025.008-.025.005-.005-.025-.007-.025h-.013l-.037-.005q-.037-.007-.05-.04-.012-.03-.05-.03-.036 0-.041-.037-.008-.037-.124-.216-.12-.18-.231-.396-.112-.219-.149-.224-.037-.007-.092-.114-.057-.104-.099-.216-.045-.111-.064-.124-.018-.012-.13-.322-.111-.31-.198-.484-.087-.174-.236-.595-.148-.422-.24-.69-.095-.265-.15-.432-.056-.168-.118-.342-.062-.174-.137-.36-.074-.186-.131-.235l-.055-.05-.005-.012q-.007-.013-.015-.013h-.004l-.005-.012-.025-.042q-.02-.032-.114-.362-.092-.328-.124-.333-.03-.007-.035-.139-.008-.129.183-.612l.194-.484.012-.005q.013-.008.013-.015V8.85l.005-.012q.007-.013.255-.571l.248-.558.013-.037.012-.038.013-.024.012-.025z" fill="#4b6e00" stroke="#4b6e00" stroke-width=".012405"/><path d="M10.036 9.397l.007-.05.1.075q.099.074.458.458.36.385.832.906.47.52.528.608.054.087.124.124.067.037.248.255.179.216.298.323.116.104.158.173.045.067.306.328.26.26.285.268.025.005.112.116.086.112.166.186.082.075.248.253.168.182.193.189.025.005.037.055.013.05.33.334.315.286.655.628l.504.501q.161.161.19.179.033.02.04.057.006.037.13.141.124.107.223.23.1.125.124.132.025.005.02.055-.008.05.017.124t.032.1l.005.024-.037.005q-.037.007-.025.02l.013.012-.005.008q-.008.005-.02.03l-.012.024-.008-.005q-.005-.007-.03-.015-.024-.005-.03.02l-.007.025-.007-.005q-.005-.007-.03-.015-.025-.005-.025.02t-.124-.012l-.124-.038-.005-.012q-.007-.012-.288-.223-.278-.211-.283-.236-.007-.025-.124-.104-.119-.082-.305-.189-.186-.104-.186-.129 0-.024-.094-.074-.092-.05-.074-.07.02-.017-.13-.116-.148-.1-.168-.132-.017-.03-.11-.084-.094-.057-.247-.198-.157-.144-.363-.313-.203-.166-.538-.489-.335-.322-.484-.434-.148-.111-.565-.49l-.605-.552-.194-.173-.005-.013q-.007-.012-.025-.062-.02-.05-.106-.099-.087-.05-.107-.1-.017-.049-.074-.074-.055-.024-.055-.05 0-.024-.025-.029-.025-.007-.037-.04-.012-.03-.074-.074-.063-.042-.211-.53l-.15-.492-.004-.05q-.008-.05-.14-.608l-.128-.558z" fill="#628801" stroke="#628801" stroke-width=".012405"/><path d="M9.713 9.558l.02-.509.144.484q.142.484.216.77l.087.334.012.05.013.037.012.037.007.013.005.012.005.025.008.025.335 1.153q.335 1.154.451 1.476.12.323.144.323.025 0 .08.16.056.162.218.547.161.384.168.409l.005.025-.005.037-.007.037-.007-.005-.005-.007-.005-.008-.008-.005v.447l-.012.037-.013.037-.007-.025q-.005-.024-.05-.024-.042 0-.042.186t-.012.21l-.013.025-.007.005-.005.008-.005.007-.007.005-.013.037-.012.038-.008-.005-.005-.008-.005-.007-.007-.005-.008-.005-.004-.008-.087-.012-.087-.012-.025-.013-.025-.012-.005-.008-.007-.005-.008.005-.005.008h-.024l-.038-.008-.037-.005v-.074h.013l.007.005.005.007.005.008.007.005.008.005.005.007h.025l.005-.007.007-.005.007-.005.005-.008.005-.007.008-.005.007-.005.005-.007.005-.008.008-.005.012-.025.012-.024.013-.025.025-.05q.012-.025.012-.136 0-.112-.248-.819t-.414-1.198q-.169-.489-.412-1.35-.24-.863-.352-1.47-.112-.608-.095-1.117zm1.762 5.847q.007-.005.015 0 .005.007-.008.007-.012 0-.007-.007z" fill="#5f8301" stroke="#5f8301" stroke-width=".012405"/><path d="M8.716 11.103l-.05-.243h.025q.025 0 .144.224.117.223.124.268.005.042.06.198.057.154.114.322.054.167.149.432.092.268.24.69.15.421.236.595.087.174.199.484.111.31.129.322.02.013.064.124.042.112.1.216.054.107.091.114.037.005.149.224.111.215.23.396.117.18.125.216.005.038.042.038.037 0 .05.03.012.032.049.039l.037.005.005.025q.008.025.015.025h.005v.005q0 .007.025.02l.025.012h.024l.005-.008.008-.005.007.005.005.008.025.012.025.013.087.012.087.012.004.008.008.005.007.005.005.007.005.008.008.005.012-.038.013-.037.007-.005.005-.007.005-.008.007-.005.013-.024q.012-.025.025-.062.012-.038-.005-.05-.02-.012-.02-.174V15.4h.037q.037 0 .042.025.008.025.02.05l.012.024.013-.037.012-.037v-.037V14.978l.008.005.005.008.005.007.007.005.007-.037.005-.037h.013l.007.005.005.007.005.008.008.004.012.038.012.037.013.025.012.025.008.004.005.008.012.007.012.005.13.31q.13.31.347.812.218.503.268.52.05.02.198.224l.154.213.007.005.013.025.012.025.008.005.005.007.005.008.007.005.012.024.013.025.007.005.005.008.005.007.008.005.007.025.005.025-.025-.005-.025-.008-.005-.007-.007-.005-.007-.005-.005-.008-.005-.007-.008-.005-.007-.025-.005-.025-.025-.005-.025-.007-.005-.007-.007-.005-.008-.005-.005-.008-.005-.007-.007-.005-.008-.005-.004-.008-.005-.007-.008-.005-.007-.005-.005-.007-.025-.008-.025-.005.005.037.007.038.013.037.012.037v.1q0 .098-.042.252-.045.157-.09.199-.041.044-.054.156-.012.112-.07.191-.054.082-.153.114-.1.03-.144.191-.042.161-.174.181-.129.018-.19.03-.063.012-.117.144-.057.129-.05.154.005.024-.082.012-.086-.012-.124.042-.037.057-.21.082-.174.025-.211.062-.038.037-.236.045l-.199.005v-.013l-.074-.012-.074-.012-.05-.013-.05-.012-.005-.008-.007-.005-.007.005-.005.008h-.025l-.005-.008-.008-.005-.007.005-.005.008-.005.007-.007.005-.008.005-.005.008-.025.007-.024.005v-.05l.024-.005.025-.007.005-.008.008-.004.007-.038.005-.037.161-.02q.161-.017.266-.074.106-.055.149-.1.044-.042.18-.066.137-.025.174-.043.037-.02.057-.057.018-.037.025-.042l.005-.007.005-.008.007-.005.008-.005.005-.007-.005-.007-.008-.005-.007-.005-.005-.008.005-.007.007-.005.008-.005.005-.008.005-.007.007-.005.013-.025.012-.025.013-.024.012-.025.007-.005.005-.008-.037-.012-.037-.012-.005-.008-.008-.005-.007-.005-.005-.007h-.137q-.061 0-.074-.033-.012-.03-.05-.034-.037-.008-.173-.065-.136-.054-.136-.092 0-.037-.025-.037t-.045-.037q-.017-.037-.166-.273-.149-.236-.29-.62-.144-.385-.17-.385-.024 0-.029-.086-.007-.087-.05-.142-.044-.057-.057-.09-.012-.029-.037-.034-.025-.007-.07-.09-.041-.078-.091-.215-.05-.136-.1-.446-.049-.31-.14-.663-.095-.355-.2-.734-.106-.377-.118-.44-.013-.061-.07-.235l-.054-.174.005-.024q.007-.025-.018-.286l-.05-.52q-.024-.261-.066-.678-.045-.414-.082-.55-.037-.137-.087-.378zm2.71 7.353q.007-.005.014 0l.005.008h-.012q-.013 0-.008-.008z" fill="#758e28" stroke="#758e28" stroke-width=".012405"/><path d="M12.102 14.544v-.062l.008.005.005.008.005.007.007.005.008.005.005.007.004.008.008.005.007.005.005.007.025.013.025.012.025.012.025.013.037.017q.037.02.042-.005.007-.025.082.05.074.074.067.104-.005.032.057.05.062.02.062.044 0 .025.054.037.057.013.219.125.161.111.168.136.005.025.241.218.236.191.273.199.037.005.124.099.087.092.298.228.21.137.223.144l.012.005v.005q0 .007.013.015l.012.005v.005q0 .007.013.015l.012.005.005.024.007.025.008.005.005.008.005.007.007.005.008.005.005.007.005.008.007.005.007.005.005.007.045.033q.042.03.05.079.005.05.166.161.161.112.285.266.124.156.323.297.198.144.198.169 0 .025.174.154.173.131.297.218t.204.194q.082.104.106.24.025.137.018.166-.005.033-.05.05-.042.02-.178.181-.137.161-.144.166l-.005.008-.005.007-.008.005-.007.005-.005.008-.005.007-.007.005-.008.005-.005.007-.005.008-.007.005-.008.005-.005.007-.005.008-.007.005-.007.005-.005.007-.005.007-.008.005-.007.013-.005.012v.005q0 .008-.186.02t-.603-.516q-.414-.526-.447-.613-.03-.087-.054-.087-.025 0-.03-.037-.007-.037-.437-.57-.426-.534-.451-.534-.025 0-.12-.124-.09-.124-.356-.446-.268-.323-.293-.323-.025 0-.26-.285l-.236-.285-.005-.013q-.008-.012-.015-.012h-.005l-.005-.013q-.007-.012-.015-.012h-.005l-.005-.012q-.007-.013-.015-.013h-.005l-.005-.012q-.007-.013-.015-.013h-.004l-.005-.099-.008-.099-.007-.005-.005-.007-.005-.008-.008-.005z" fill="#bece8a" stroke="#bece8a" stroke-width=".012405"/><path d="M9.92 8.876V8.8l.007.005.005.008.005.007.007.005.008.005.005.008.004.007.008.005.007.005.005.007.005.008.008.005.007.005.005.007.005.008.008.005.007.005.005.007.005.007.007.005.008.005.005.008.005.007.007.005.489.491q.491.49.516.497.025.004.025.03 0 .024.024.024.025 0 .025.025t.025.025.025.025q0 .024.278.285.28.26.545.528.268.266.293.273.025.005.112.1.087.091.905.848.819.756 1.86 1.674 1.043.918 1.576 1.327.533.41.546.417l.012.005v.005q0 .007.013.015l.012.005v.005q0 .007.012.015l.013.005v.005q0 .007.012.015l.013.004.03.038q.032.037.04.042l.004.007.144.142q.141.144.149.23.005.087-.02.087t-.08.137q-.057.136-.099.322-.044.186-.114.248-.067.062-.134.181-.07.117-.18.204-.112.087-.224.136-.112.05-.186.037-.075-.012-.248-.099-.174-.087-.335-.198-.161-.112-.161-.12v-.004l-.005-.013-.008-.012-.007-.005-.005-.008-.005-.007-.008-.005-.007-.005-.005-.007-.005-.008-.007-.005-.008-.005-.005-.007-.005-.008-.007-.005-.008-.005-.005-.007-.005-.007-.007-.005-.007-.005-.005-.008-.005-.007-.008-.005-.007-.025q-.005-.025-.085-.1l-.081-.074-.008-.005-.005-.007-.005-.007-.007-.005-.008-.005-.005-.008-.005-.007-.007-.005-.008-.005-.004-.008-.005-.007-.008-.005-.007-.005-.005-.007-.005-.008-.008-.005-.007-.025-.005-.024.025.004.025.008h.074l.05-.008q.05-.004.037.025-.013.033.017.025.032-.005.025-.054-.005-.05.032-.055l.037-.007.025-.013q.025-.012.025-.094v-.08l.124.038q.124.037.124.012 0-.025.025-.02.025.008.03.015l.007.005.008-.025q.005-.025.03-.02.024.008.03.015l.007.005.012-.025q.012-.024.02-.03l.005-.007-.013-.012q-.012-.013.025-.02l.037-.005-.005-.025q-.007-.025-.032-.099-.025-.074-.017-.124.005-.05-.02-.055-.025-.007-.124-.131-.1-.124-.223-.23-.124-.105-.13-.142-.007-.037-.04-.057-.029-.018-.19-.179l-.504-.501q-.34-.342-.655-.628-.317-.285-.33-.334-.012-.05-.037-.055-.025-.007-.193-.189-.166-.178-.248-.253-.08-.074-.166-.186-.087-.111-.112-.116-.025-.008-.285-.268-.26-.26-.306-.328-.042-.07-.158-.173-.12-.107-.298-.323-.181-.218-.248-.255-.07-.037-.124-.124-.057-.087-.528-.608-.472-.521-.832-.906-.36-.384-.458-.458l-.1-.075-.007.05-.005.05h-.012l-.013-.063-.05-.248-.037-.186z" fill="#86a514" stroke="#86a514" stroke-width=".012405"/><path d="M10.969 2.183l.005.007.024.013.025.012.005.008.008.004.037.1q.037.099-.57 1.873-.609 1.773-.82 2.331-.21.559-.218.918l-.005.36h-.012l-.012-.037-.013-.037-.012-.038q-.013-.037-.02-.086l-.005-.05-.025.005-.025.007-.005.008-.007.005-.012.025-.013.024-.012.038-.013.037-.248.558q-.248.558-.255.57l-.005.013H8.76q-.008 0-.015.012l-.005.013-.025.005q-.025.007-.08.05l-.056.044-.008.005-.005.007-.08.107q-.08.104-.391.811-.31.707-.318.732-.005.025-.03.025-.024 0-.118.223-.092.223-.258.558-.17.335-.194.34l-.025.008-.005.007-.007.005-.013.062-.012.062-.007.005-.005.007-.038.008-.037.005v-.1h.05l.005-.037.007-.037.013-.05q.012-.049.446-1.017.434-.967.893-2.07.46-1.105.88-2.246.423-1.141.906-2.518l.484-1.377v-.148l-.007.004-.005.008-.005.007-.008.005-.007.005q-.005.008-.067.04-.062.03-.062.005V2.4l-.005-.012-.008-.013h-.012l-.005-.012-.007-.012h-.013l-.005-.025-.007-.025-.008-.005-.005-.008-.024-.007-.025-.005v-.012l.136-.038q.137-.037.174-.062.037-.024.124-.012t.092.02l.015.01z" fill="#d1e5af" stroke="#d1e5af" stroke-width=".012405"/><path d="M5.437 4.348l-.02-.111h.173v.005q0 .007.013.015l.012.005v.005q0 .007.013.014l.012.005.328.348q.33.347.342.372l.012.025.008.005.005.007.005.008.007.004.008.005.004.008.005.007.008.005.007.005.005.008.005.007.008.005.007.005.005.007.005.008.007.005.008.005.005.007h.05l.004-.007.008-.005.007-.05.005-.05h.013l.007.006.005.007.005.008.008.004.012.025.012.025h.013l.104.732q.107.732.119.794l.012.062.013.025.012.024.008-.005.005-.007.005-.007.007-.005.007-.005.005-.008.005-.007.008-.005.007-.005.005-.008.025-.007.025-.005v-.074h.074v.062l-.005.007-.007.005-.013.05-.012.05-.285.62q-.286.62-.293.632l-.005.012h-.005q-.007 0-.015.013l-.005.012-.012.005q-.013.008-.017.015l-.008.005-.007.005-.005.007-.005.008-.008.005-.012.025-.013.024-.007.005-.005.008H6.26l-.005-.008-.007-.005-.008.005-.005.008-.111.173-.117.182L6 8.528l-.008.005-.005.008-.024.012-.025.013h-.05l-.005-.008-.007-.005-.013-.025-.012-.024-.008-.005q-.004-.008-.054-.075-.05-.07-.075-.07-.024 0-.094-.123-.067-.124-.109-.137-.045-.012-.057-.042-.012-.032-.156-.223-.142-.194-.298-.367l-.154-.174-.005-.161-.007-.161-.013-.05-.012-.05v-.099l.007.005.005.008.038.012.037.012.005.008.007.005.008.005.005.007.005.008.007.005.008.005.004.007.005.007.008.005.116.095q.12.091.174.109.057.02.075 0 .02-.018.081.044.062.062.067.07l.008.005.007.005.005.007.005.008.008.005.007.005.005.007.005.008.007.004.008.005.005.008.005.007.007.005.008.005.005.008.005.007.007.005.007.005.005.008h.05l.005-.008.007-.005.008-.005.005-.007-.005-.008-.008-.005-.012-.025-.012-.024-.008-.005-.005-.008-.005-.007-.007-.005-.008-.005-.005-.008-.005-.007-.007-.005-.012-.025-.013-.025-.007-.004q-.005-.008-.067-.17-.062-.16-.137-.297-.074-.136-.168-.352-.092-.218-.117-.553-.025-.335-.05-.36-.024-.025-.05-.186-.024-.161.043-.206.07-.042.082-.084.012-.045.087-.05.074-.007.198-.057.124-.05.104-.191-.017-.144-.034-.256z" fill="#3c5818" stroke="#3c5818" stroke-width=".012405"/><path d="M10.44 2.356l.062-.004v.004q0 .008.013.015l.012.005v.005q0 .008.012.015l.013.005v.025q0 .025.062-.005.062-.032.067-.04l.007-.005.008-.005.005-.007.005-.008.007-.004V2.5l-.484 1.377q-.483 1.377-.905 2.518-.422 1.141-.88 2.245-.46 1.104-.894 2.071-.434.968-.441 1.03l-.005.062h-.005q-.008 0-.015.025l-.005.025h-.05v.099l-.02.062q-.017.062-.017.124t-.012.112l-.013.05-.007.004-.005.008-.005.007-.008.005-.007.037-.005.037-.037.005-.037.008.012.007.012.005-.037.094-.099.241q-.062.149-.156.355-.092.203-.1.228l-.004.025h-.005q-.008 0-.015.012l-.005.013-.02.012q-.018.012-.025-.012-.005-.025-.035-.013-.032.013-.04.05-.004.037-.03.037-.024 0-.173.318-.149.315-.496.65-.347.334-.397.347l-.05.012-.037.013-.037.012-.025.012-.024.013-.005.007-.008.005-.007-.037-.005-.037h.05l-.006-.025-.032-.1q-.025-.074-.007-.446l.02-.372.004-.012q.008-.013.107-.211.1-.199.112-.26.012-.063.044-.075.03-.012.043-.062.012-.05.037-.055.025-.007.31-.61l.285-.6.005-.013.008-.012.012-.025.012-.025.013-.062q.012-.062.03-.099.02-.037.044-.037.025 0 .285-.54.261-.54.405-.844.141-.303.278-.576.136-.273.173-.41.038-.136.137-.346.099-.211.161-.348.062-.136.323-.732.26-.595.372-.88.111-.285.16-.434.05-.15.162-.422.112-.273.154-.385l.045-.111.005-.025q.007-.025.23-.57.224-.546.397-1.005.174-.46.347-.893.174-.434.33-.603.154-.166.216-.179.062-.012.124-.02z" fill="#608213" stroke="#608213" stroke-width=".012405"/><path d="M17.394 15.598l-.07-.074.41.273q.409.273.439.496.032.223-.005.385-.038.16-.03.186.005.024.03.024.024 0 .024.025t-.044.025q-.042 0-.06.055-.02.057-.05.089-.032.03-.024.208.005.181.03.194l.024.012-.005.008-.007.005-.007.005-.005.007-.05.012q-.05.013-.149.02-.1.005-.104.067-.007.062-.057.124t-.107.174q-.054.112-.198.21-.142.1-.258.145-.12.042-.169.091-.05.05-.161.075-.112.025-.142.067-.032.045-.138.05-.105.007-.167.114-.062.104-.131.141l-.067.037-.008.005-.005.008-.012.007-.012.005.005-.025.007-.025.008-.005.004-.007.005-.007.008-.005.007-.005.005-.008-.037-.012-.037-.013-.025-.012-.025-.012h-.297l-.005-.008-.008-.005h-.012l.005-.012.007-.013.008-.005.005-.007.005-.007.007-.005.007-.005.005-.008.005-.007.008-.005.007-.005.005-.008.005-.007.008-.005.007-.005.005-.007.005-.008.007-.005.008-.005.005-.007.005-.008q.007-.005.144-.166.136-.161.178-.181.045-.017.05-.05.007-.03-.018-.166-.024-.136-.106-.24-.08-.107-.204-.194-.124-.087-.297-.218-.174-.13-.174-.154 0-.025-.198-.169-.199-.141-.323-.297-.124-.154-.285-.266-.161-.111-.166-.161-.008-.05-.05-.08l-.045-.032-.005-.007-.007-.005-.007-.005-.005-.008-.005-.007-.008-.005-.007-.005-.005-.007-.005-.008-.008-.005-.007-.005-.005-.007-.005-.008-.007-.005-.008-.005-.005-.007-.005-.007-.007-.005-.008-.025-.005-.025.025.005.025.007.005.008.007.005.013.025.012.024.008.005.005.008.024.012.025.013.005.007.008.005.007.005.005.007.074.062q.075.062.174.045.1-.02.104.005l.008.025.007.005.005.007.005.008.007.005.008.005.005.007.005.008.007.005.008.004.005.008.062.007.062.005.119.075q.116.074.149.119.03.042.148.074.117.03.209.1.094.066.149.099l.064.034.005.008.025.012.025.013.005.007.007.005.008.005.005.007.024.013.025.012.037.008.038.005v.005q0 .007.16.119.162.111.336.198.173.087.248.1.074.012.186-.038t.223-.136q.112-.087.181-.204.067-.119.134-.18.07-.063.114-.249.042-.186.1-.322.054-.137.079-.137t.02-.087q-.008-.086-.15-.23l-.143-.142-.005-.007q-.007-.005-.074-.08z" fill="#a7ba63" stroke="#a7ba63" stroke-width=".012405"/><path d="M9.436 2.674h.024l-.119.285q-.116.286-.178.41-.062.124-.186.446-.124.323-.211.447t-.13.228q-.044.107-.188.536-.141.426-.302.836l-.186.471q-.025.062-.038.087l-.012.025-.012.024-.013.025-.007.037-.005.038h-.005q-.008 0-.015.012l-.005.013-.104.235-.348.762q-.243.528-.496 1.066-.255.541-.322.745-.07.206-.248.595-.181.392-.43.9-.248.51-.285.608-.037.1-.044.169-.005.067-.075.174-.067.104-.06.109.006.007 0 .015l-.007.005-.007.005-.005.007-.005.007-.008.005-.007.025-.005.025h-.005q-.007 0-.015.012l-.005.013h-.005q-.007 0-.015.012l-.005.013-.168.26q-.167.26-.24.41-.075.148-.15.26-.074.112-.092.166-.02.057-.044.07-.025.012-.037.02l-.013.004h-.012l-.008.005-.005.008-.005.007-.007.005-.007.005-.005.008-.005.007-.008.005-.007.005-.005.007-.037.008-.038.005v.074l-.037-.005-.037-.007.005-.008.007-.005.013-.037q.012-.037.02-.074.005-.037-.025-.05l-.032-.012-.008-.005-.005-.008-.005-.007-.007-.005-.008-.005-.005-.007-.062.012q-.062.012-.067.02l-.015.01-.005.007-.024.013-.025.012h-.025l-.005-.007-.007-.005v-.05l.007-.005.005-.007.005-.008.007-.005.008-.005.005-.007.005-.008.007-.005.013-.037q.012-.037.074-.161t.149-.422q.087-.297.129-.297.045 0 .04-.05-.008-.05.091-.236.1-.186.157-.21.054-.025.06-.05l.007-.025.012-.025.012-.025.008-.005.005-.007.005-.007.007-.005.008-.005.005-.008.005-.007.007-.005v-.075l-.007.005-.005.008-.005.007-.008.005-.007.005-.005.008-.005.007-.008.005-.007-.025-.005-.025-.055.025q-.057.025-.064.03l-.005.007-.005.008-.007.005-.008.005-.005.007-.005.008-.007.005-.008-.062-.005-.062.005-.025.008-.025.007-.005.005-.008.005-.007q.008-.005.288-.496.278-.489.804-1.613l.528-1.12.012-.038.013-.037.007-.025.005-.025.013-.005q.012-.007.012-.015v-.005l.005-.012q.007-.012.293-.633l.285-.62.012-.05.013-.05.007-.004.005-.007v-.013l.013-.005q.012-.007.414-.933.404-.922.528-1.17.124-.249.286-.645l.16-.397.013-.038.013-.037.012-.025.012-.024.008-.005.005-.008.005-.007.007-.005.013-.025.012-.025h.013l-.005.037-.008.038v.198l.008.005.005.007.004.008.008.005.007-.025.005-.025.025-.005.025-.007.005-.008.007-.005.013-.024.012-.025.008-.005.005-.008.024-.012q.025-.012.038-.055.012-.044.037-.044.025 0 .07-.087.041-.087.049-.062.005.025.03.025.024 0 .024-.055 0-.057.045-.074.042-.02.06-.05.02-.032.064-.05.042-.02.075-.074.03-.057.074-.074l.05-.025.005-.008.05-.067q.049-.069.074-.069zm-.938.963q-.005-.008 0-.015.007-.005.007.007t-.007.008z" fill="#deedbf" stroke="#deedbf" stroke-width=".012405"/><path d="M8.468 14.973l.025-.007h.074l.038.042q.037.045.074.05l.037.007.005.008.008.005.007.004q.005.008.017.015l.013.005v.005q0 .008.012.015l.013.005.119.484q.116.484.166.682.05.199.087.323.037.124.05.26.012.136.148.608.137.471.26.818.125.348.125.385 0 .037-.008.087l-.005.05-.025.004q-.024.008-.285.045l-.26.037-.038.008-.037.005-.062-.005q-.062-.008-.099-.025-.037-.02-.05-.07-.012-.05-.086-.054-.075-.008-.112-.09-.037-.079-.062-.084-.025-.007-.03-.198-.007-.194.018-.256.024-.062.037-.422.012-.36-.095-1.19l-.104-.831v-.72z" fill="#cddc9c" stroke="#cddc9c" stroke-width=".012405"/><path d="M8.696 13.477l.008-.037.017.03q.02.032.082.09.062.054.074.024.013-.032.05-.057.037-.025.05-.012.012.012.024.02l.013.004.054.174q.057.174.07.236.012.062.119.439.104.38.198.734.092.352.142.663.05.31.099.446.05.137.092.216.044.082.07.09.024.004.036.034.013.032.058.09.042.054.05.14.004.087.029.087t.169.385q.141.384.29.62t.166.273q.02.037.045.037.025 0 .025.037 0 .038.136.092.136.057.174.065.037.005.05.034.012.033.074.033H11.445l-.005.007-.007.005-.008.005-.005.008-.005.007-.007.005-.008.005-.005.007-.005.008-.007.005-.012.025-.013.024-.012.025-.013.025-.007.005-.005.007-.005.008-.008.005-.007.005-.005.007.005.008.007.005.008.005.005.007-.005.007-.008.005-.007.005-.005.008-.005.007q-.007.005-.025.042-.02.038-.057.057-.037.018-.173.043-.137.024-.181.067-.043.044-.15.099-.104.057-.265.074l-.161.02-.005.037-.007.038-.008.004-.005.008-.005.007q-.007.005-.015.018l-.005.012h-.005q-.007 0-.014.013l-.005.012-.124-.005q-.124-.007-.348-.032-.223-.025-.248-.087-.025-.062-.136-.087l-.112-.025-.005-.007-.007-.005-.008-.025-.005-.025-.037-.005-.037-.007-.025-.013-.025-.012v-.012l.037-.005.038-.008.26-.037q.26-.037.285-.045l.025-.005.005-.05q.008-.049.008-.086 0-.037-.124-.385-.124-.347-.26-.818-.137-.472-.15-.608-.012-.136-.05-.26-.037-.124-.086-.323-.05-.198-.166-.682l-.12-.484-.004-.012q-.008-.013-.015-.013h-.005l.005-.012q.007-.012.007-.025v-.012l-.012-.062q-.013-.062-.013-.075 0-.012-.074-.545l-.092-.67-.02-.137h.05l.005-.05q.007-.049.015-.024.005.025.03.025.024 0 .03-.038z" fill="#a7bd66" stroke="#a7bd66" stroke-width=".012405"/><path d="M6.459 13.366h.025l-.08.236q-.082.235-.094.31l-.013.074v.1h.013l-.55 1.153q-.554 1.153-.611 1.307-.055.156-.142.28-.086.124-.156.182-.067.054-.084.099-.02.042-.045.05-.025.004-.05.034-.024.032-.136.045-.111.012-.136.07-.025.054-.1.049-.074-.008-.099-.032-.025-.025-.099-.013-.074.013-.161.075-.087.062-.186.037-.1-.025-.31-.149-.211-.124-.348-.21-.136-.088-.215-.12-.082-.03-.174-.084-.094-.057-.169-.095-.074-.037-.074-.044v-.005l-.005-.013q-.008-.012-.015-.012H2.44l-.005-.012q-.007-.013-.015-.013h-.005l-.005-.012q-.007-.013-.015-.013H2.39l-.005-.012q-.007-.012-.014-.012h-.005l-.005-.013-.008-.012h-.012l-.005-.037-.008-.038-.007-.086-.005-.087.025.005.025.007.005.008.007.005.007.004.005.008.05.012q.05.013.149.025.099.013.173.062.075.05.36.075.285.024.484-.025.198-.05.253-.107.057-.054.094-.203.037-.15.112-.323.074-.173.087-.298.012-.124 0-.148-.013-.025.05-.211.061-.186.103-.216.045-.032.1-.174.057-.144.144-.268l.26-.372.174-.248.007-.005.005-.007L5 13.94l.007-.005.013-.024.012-.025.013-.025.012-.025h.013l-.02.372q-.018.372.007.447.025.074.032.099l.005.025h-.05l.006.037.007.037.008-.005.005-.007.024-.013.025-.012.037-.012.038-.013.05-.012q.049-.013.396-.347.347-.335.496-.65.15-.318.174-.318.025 0 .03-.037.007-.037.04-.05.03-.012.034.013.007.024.015 0 .005-.025.03-.025z" fill="#7f9736" stroke="#7f9736" stroke-width=".012405"/><path d="M5.987 11.915l.013.037h.012l-.285.6q-.285.603-.31.61-.025.005-.037.055-.013.05-.043.062-.032.012-.044.074-.013.062-.112.26l-.107.212-.004.012h-.013l-.012.025-.013.025-.012.025-.013.024-.007.005-.005.008-.005.007-.007.005-.174.248-.26.372q-.087.124-.144.268-.055.142-.1.174-.042.03-.104.216-.062.186-.05.21.013.025 0 .15-.012.124-.086.297-.075.174-.112.323-.037.149-.094.203-.055.057-.253.107-.199.05-.484.025t-.36-.075q-.074-.05-.173-.062-.1-.012-.149-.025l-.05-.012-.005-.008-.007-.004-.007-.005-.005-.008-.025-.007-.025-.005.005.087.007.086.025.038q.025.037.032.042l.005.007.005.008.008.005.007.005.005.007.005.007.008.005.007.005.005.008.005.007.007.005.008.025.005.025-.025-.005-.025-.008-.005-.007-.007-.005-.008-.005-.005-.007-.005-.008-.007-.005-.007-.005-.005-.007-.005-.008-.008-.005-.007-.005-.005-.007-.005-.007-.008-.005-.007-.005-.005-.008-.005-.007-.007-.005-.008-.005-.005-.008-.005-.007-.007-.005-.008-.005q-.005-.007-.074-.189-.067-.178-.191-.265-.124-.087-.174-.285-.05-.199-.067-.335l-.02-.137h.013l.012-.024.013-.025.007-.025.005-.025.074.005.075.008.005.007.007.005.013.025q.012.025.119.173.104.15.129.154.025.008.124.082.099.075.297.087.199.012.392-.303l.234-.387q.044-.067.094-.158.05-.095.074-.1.025-.007.087-.119.062-.111.067-.154.007-.044.04-.05.03-.007.154-.113.124-.104.129-.13.007-.024.04-.037.029-.012.017-.066-.013-.058-.013-.1 0-.044.075-.057.074-.012.079-.05.007-.037.074-.081.07-.042.095-.1.024-.054.05-.059.024-.007.128-.189l.107-.178.007-.005.005-.008.005-.007.008-.005.007-.025.005-.025.013-.005.037-.02q.025-.012.044-.069.018-.054.092-.166.075-.112.15-.26.073-.15.24-.41l.168-.26.013-.005q.012-.008.012-.015v-.005l.013-.005q.012-.008.012-.015v-.005l.025-.005.025-.007.005-.008.007-.005.007-.005.005-.007.005-.008.008-.005v.1l.007-.005.005-.008.025-.012q.025-.013.062-.07.037-.054.062-.06.025-.007.087-.093l.062-.087.005-.008.007-.005.008-.005.005-.007.012-.032q.013-.03.037-.03.025 0 .055.087.032.087.045.099.012.012.024.05z" fill="#a7be62" stroke="#a7be62" stroke-width=".012405"/><path d="M8.741 2.724l-.012.024-.087.236q-.087.236-.095.273l-.004.037H8.53l-.012.025-.013.025-.007.005-.005.007-.005.008-.008.005-.012.024-.012.025-.013.037-.012.038-.161.397q-.162.396-.286.645-.124.248-.528 1.17-.402.926-.414.933l-.013.005v-.05h-.074v.075l-.025.005-.025.007-.005.008-.007.005-.008.005-.005.007-.005.008-.007.005-.007.005-.005.007-.005.007-.008.005-.012-.024-.013-.025-.012-.062q-.012-.062-.12-.794l-.103-.732v-.1l.025.006.024.007.005.008.008.005.012.05.013.049.037.21q.037.212.05.261l.012.05.012.062.013.062.007.005.005.007h.025l.05-.007.049-.005.005-.037.007-.038.013-.037.012-.037.013-.037q.012-.037.104-.682.094-.645.119-.645.025 0 .07-.1.042-.099.066-.459.025-.36-.012-.52-.037-.162-.062-.422t-.062-.397q-.037-.137-.05-.57-.012-.435.12-.564.128-.131.215-.223.087-.094.124-.1Q7.65.9 7.674.844L7.7.79l.037-.055q.037-.057.112-.064.074-.005.268.912.19.918.24 1.179.05.26.082.305.03.042.167-.238.136-.278.16-.278.026 0 .006.074-.018.075-.03.1z" fill="#60840b" stroke="#60840b" stroke-width=".012405"/><path d="M4.678 7.387l-.08-.124.03.013q.032.012.04.017l.005.008.005.007.007.005.007.005.005.007.005.008.008.005.007.005.005.007.005.008.008.005.007.004.005.008.005.007.007.005.008-.062.005-.062.025.005.024.008.013.007.012.005.154.174q.156.173.298.367.144.19.156.223.012.03.057.042.042.013.11.137.069.124.093.124.025 0 .075.07.05.066.054.074l.008.005.012.024.013.025.007.005.005.008h.05l.025-.013.024-.012.005-.008L6 8.528l.007-.004.117-.182.111-.173.005-.008.008-.005.007.005.005.008h.025l.005-.008.007-.005.013-.024.012-.025.008-.005.005-.008.005-.007.007-.005.008-.025.004-.025h.05l-.005.025-.007.025-.008.005-.005.007-.005.008-.007.005-.013.037-.012.037-.528 1.121q-.526 1.124-.804 1.613-.28.491-.288.496l-.005.007-.005.008-.007.005-.008.025-.005.025-.129.186q-.131.186-.173.285-.045.1-.065.111-.017.013-.054.062-.038.05-.055.112-.02.062-.045.062-.024 0-.104.112-.082.111-.089.124l-.005.012h-.005q-.007 0-.015.013l-.005.012-.012.005q-.013.007-.018.015l-.007.005-.007.005-.005.007-.005.008-.008.005-.007.005-.005.007-.005.007-.015.01-.005.008-.005.007-.007.005-.008.005-.005.008-.005.007-.007.005-.008.005-.005.007-.005.008-.007.005-.007.005-.005.007-.025.013-.025.012-.005.008-.007.004-.008.005-.005.008-.005.007-.007.005v-.173l.012-.05q.013-.05.149-.36.136-.31.228-.645l.094-.335.013-.005q.012-.007.216-.51.206-.502.38-.998.173-.496.185-1.004.013-.509-.025-.695-.037-.186-.079-.266-.045-.081-.074-.163-.033-.08-.114-.204z" fill="#829678" stroke="#829678" stroke-width=".012405"/><path d="M7.63 11.51l.007-.005.007.005.005.008.005.007.008.005.012.037q.013.038.025.087l.012.05.013.05.012.049h.013l.094.595q.092.596.149.849.054.255.074.387.018.129.042.253.025.124.05.322.025.199.05.286l.042.156q.02.067.025.06.007-.006.014.032l.005.037-.005.05-.007.05-.007.004-.005.007-.005.008-.008.005-.012.087-.025.161-.012.074-.013.05-.012.05-.013-.025-.012-.025-.012-.025-.013-.025-.007.005-.005.008h-.025l-.005-.008-.007-.005-.008-.005-.005-.007-.005-.007-.007-.005-.008-.005-.005-.008-.005-.007q-.007-.005-.05-.092-.044-.087-.069-.087-.024 0-.08-.112-.056-.111-.255-.347-.198-.235-.404-.459l-.203-.223-.005-.012q-.008-.013-.07-.186l-.062-.174-.012-.025-.013-.025-.007-.005-.005-.007-.005-.008-.007-.005-.008-.024-.005-.025-.037.005-.037.007-.005.008-.008.005-.007.005-.005.007-.005.007-.007.005-.013.025-.012.025-.112.21-.124.237-.012.024-.013.025-.012.025-.013.025-.012.025-.007.005-.005.007-.005.007-.008.005-.007.013-.005.012h-.013v-.099l.013-.074q.012-.075.08-.298l.069-.223.012-.005q.013-.008.013-.015v-.005l.004-.025q.008-.025.1-.228.094-.206.156-.355l.1-.24.036-.095.025-.005q.025-.007.025-.015v-.005l.012-.005q.013-.007.018-.014l.007-.005.008-.005.005-.008.005-.007.007-.005.008-.005.004-.008.005-.007.008-.005.007-.005.005-.007.005-.008.008-.005.007-.005q.005-.007.13-.119.123-.112.242-.327l.117-.219.007-.005.005-.007.005-.007.008-.005.012-.025.012-.025.008-.005.005-.007.005-.008.007-.005.008-.005.005-.007z" fill="#3e5925" stroke="#3e5925" stroke-width=".012405"/><path d="M10.304 10.724v-.062l.149.491q.148.489.21.53.063.046.075.075.012.033.037.04.025.005.025.03 0 .025.055.05.057.024.074.074.02.05.107.1.086.049.106.098.018.05.025.062l.005.013.045.099q.042.1.05.104l.004.008.037.012q.038.012.087.136.05.124.268.355.216.228.223.253.005.025.1.112.092.087.414.422.322.334.628.662.302.33.327.337.025.005.025.05 0 .042.149.203.149.162.707.707.558.546.563.554l.007.004.013.038.012.037.008.005.004.007.005.008.008.005.007.005.005.007.038.013.037.012v.012l-.062-.005-.062-.007-.005-.008-.008-.004-.007-.005-.005-.008-.005-.007-.008-.005-.007-.005-.005-.008-.005-.007-.007-.005-.008-.025q-.005-.025-.104-.005-.1.017-.174-.045l-.074-.062-.005-.007-.007-.005-.008-.005-.005-.007-.025-.013-.024-.012-.005-.008-.008-.005-.007-.005q-.005-.007-.018-.014l-.012-.005-.005-.013q-.007-.012-.015-.012h-.005l-.005-.013q-.007-.012-.015-.012h-.005l-.012-.005-.223-.144q-.211-.136-.298-.228-.087-.094-.124-.1-.037-.007-.273-.198-.236-.193-.24-.218-.008-.025-.17-.136-.16-.112-.218-.125-.054-.012-.054-.037 0-.025-.1-.062-.099-.037-.086-.087.012-.05-.032-.086-.043-.038-.05-.013-.005.025-.042.005l-.037-.017-.025-.013-.025-.012-.025-.012-.025-.013-.005-.007-.007-.005-.008-.005-.004-.008-.005-.007-.008-.005-.007-.005-.005-.007-.005-.008-.008-.005v.124l.008.005.005.008.005.007.007.005.013.087.012.087.007.005.005.007.005.008.008.004.007.005.005.008.005.007.008.005.007.005.005.008.005.007.007.005.008.025.005.025-.025-.005-.025-.008-.005-.007-.007-.005-.008-.005-.005-.008-.005-.007-.007-.005-.008-.005-.004-.007-.005-.008-.008-.005-.012-.037-.013-.037-.007-.005-.005-.008-.005-.007q-.007-.005-.199-.228-.193-.223-.218-.223-.025 0-.037-.03l-.012-.033-.005-.007-.008-.005-.007-.005-.005-.007-.005-.008-.008-.005-.007-.005-.005-.007-.005-.008-.007-.005-.008-.004-.005-.008-.005-.007-.007-.005-.008-.005-.005-.008-.005-.007-.007-.005-.007-.005-.005-.008-.005-.007-.008-.005-.007-.005-.005-.007-.005-.008-.008-.005v.1l.013.024.012.025.013.037.012.038.087.248.099.285.012.037.013.037.012.037.013.025.012.025.007.05.005.05-.012-.006-.012-.007-.005-.008-.008-.004-.012-.025-.013-.025-.012-.037-.012-.038-.008-.004-.005-.008-.005-.007-.007-.005h-.013l-.005-.025q-.007-.025-.168-.41-.162-.384-.219-.545-.054-.161-.079-.161t-.144-.323q-.116-.322-.451-1.476l-.335-1.153-.008-.025-.005-.025h.075z" fill="#a7be62" stroke="#a7be62" stroke-width=".012405"/><path d="M4.568 11.667l.13-.186.004.062.008.062.007-.005.005-.008.005-.007.008-.005.007-.005.005-.008.005-.007q.007-.005.064-.03l.055-.025.005.025.007.025.008-.005.005-.007.005-.008.007-.005.008-.005.005-.007.005-.008.007-.005v.075l-.007.005-.005.007-.005.008-.008.005-.007.005-.005.007-.005.007-.008.005-.012.025-.012.025-.008.025q-.005.025-.06.05-.056.024-.094.099-.037.074-.03.099.006.025-.032.025-.037 0-.067.086-.032.087-.024.137.005.05-.04.05-.042 0-.13.297-.086.298-.148.422t-.074.161l-.013.037-.012.038-.013.037v.05l.008-.006.005-.007.025-.012.024-.013.005-.007.015-.01q.005-.008.067-.02l.062-.012.005.007.008.005.007.005.005.007.005.008.008.005.032.012q.03.013.03.037 0 .025.024.025.025 0 .025.025t.025.02l.025-.008.005-.007.007-.005.008-.005.005-.007.005-.008.007-.005.007-.005.005-.007.005-.008.008-.005h.012l-.005.025-.007.025-.008.005-.005.007-.005.008-.007.005-.107.178q-.104.182-.129.189-.025.005-.05.06-.024.057-.094.099-.067.044-.074.082-.005.037-.08.05-.074.012-.074.056 0 .042.013.1.012.054-.018.066-.032.013-.04.038-.004.025-.128.129-.124.106-.154.114-.033.005-.04.05-.005.042-.067.153-.062.112-.087.12-.025.004-.074.099-.05.091-.094.158l-.234.387q-.193.315-.392.303-.198-.012-.297-.087-.1-.074-.124-.082-.025-.005-.13-.154-.106-.148-.118-.173l-.013-.025-.007-.005-.005-.007-.075-.008-.074-.005-.005.025-.007.025-.013.025-.012.024h-.013l.005-.074.008-.074.007-.005.005-.008.005-.007.008-.005.012-.025q.012-.025.094-.149.08-.124.104-.124.025 0 .174-.223l.149-.223h.012l.013-.025.012-.025.008-.005.005-.007.005-.008.007-.005.007-.005.005-.007.005-.008.008-.005.007-.005.005-.007h.062q.013 0 .075-.037.062-.038.223-.186.161-.15.384-.434.224-.286.477-.616l.255-.327.013-.037.012-.038.007-.005.005-.007.005-.007.008-.005.007-.025.005-.025.013-.005q.012-.007.012-.015v-.005l.005-.012q.007-.013.09-.124.079-.112.103-.112.025 0 .045-.062.017-.062.055-.112.037-.05.054-.062.02-.012.065-.111.042-.1.173-.285zm-.124 1.736l.005.037-.037-.005-.037-.007.005-.008.007-.005.018-.03q.02-.032.024-.024.008.005.015.042z" fill="#d8e7ae" stroke="#d8e7ae" stroke-width=".012405"/><path d="M7.952 10.99l.008-.006.007.005.005.008.005.007.007.005.013.025.012.025v.05l.057.21q.055.211.08.211.024 0 .044.211.018.21.092.496.074.285.112.36.037.074.062.248.024.174.062.372.037.198.044.273l.005.074.02.137.092.67q.074.533.074.545 0 .013.013.075l.012.062.008.037.005.037h-.05l-.005-.025-.007-.024-.008-.005-.005-.008-.037-.007q-.037-.005-.074-.05l-.038-.042h-.074l-.025.007-.025.005v.72h-.012l-.013-.1-.012-.099-.012-.062q-.013-.062-.038-.273l-.024-.21-.013-.087-.012-.087h-.013l-.005-.037q-.007-.038-.014-.033-.005.008-.025-.06l-.042-.155q-.025-.087-.05-.286-.025-.198-.05-.322-.024-.124-.042-.253-.02-.132-.074-.387-.057-.253-.15-.849l-.093-.595-.005-.112-.008-.111-.012-.1q-.013-.099.012-.21l.025-.112.008-.005.004-.007.005-.008.008-.005.007-.005.005-.007.005-.008.008-.005.007-.005.005-.007.005-.007.008-.005.007-.005.005-.008.037-.007.037-.005.005-.025.008-.025.007-.005.005-.007z" fill="#b9ce7b" stroke="#b9ce7b" stroke-width=".012405"/><path d="M11.217 12.324l-.045-.1.194.174.605.551q.417.38.565.491.15.112.484.434.335.323.538.49.206.168.363.312.153.141.248.198.092.055.109.084.02.033.169.132.148.1.129.117-.018.02.074.069.094.05.094.074 0 .025.186.13.186.106.305.188.117.08.124.104.005.025.283.236.28.21.288.223l.005.012.005.038.007.037v.05l-.007.024-.005.025-.025.005-.025.008-.037.007q-.037.005-.032.055.007.05-.035.054-.044.008-.07-.017l-.024-.025h-.05l-.005.007-.007.005-.008.005-.004.008-.005.007-.008.005-.007.005-.005.008.005.007.007.005.008.005.005.007.004.008.008.005.007.005.005.007.005.008.008.005.007.005.005.007.005.007.008.005.081.075q.08.074.085.099l.007.025.008.005.005.007.005.008.007.005.007.005.005.007.005.007.008.005.007.005.005.008.005.007.008.005.007.005.005.008.005.007.007.005.008.005.005.007.005.008.007.005.008.012.005.013-.038-.005-.037-.008-.025-.012-.024-.013-.005-.007-.008-.005-.007-.005-.005-.007-.025-.013-.025-.012-.005-.008q-.007-.005-.064-.034-.055-.033-.15-.1-.09-.069-.208-.099-.119-.032-.148-.074-.033-.045-.15-.12l-.118-.074v-.012l-.037-.012-.038-.013-.005-.007-.007-.005-.008-.005-.005-.008-.004-.007-.008-.005-.012-.037-.013-.038-.007-.004q-.005-.008-.514-.504-.508-.496-.637-.628l-.223-.216q-.095-.086-.09-.111.008-.025-.302-.372-.31-.348-.633-.682-.322-.335-.414-.422-.095-.087-.1-.112-.007-.025-.223-.253-.218-.23-.268-.355-.05-.124-.087-.136l-.037-.012-.005-.008q-.007-.005-.05-.104zm4.55 4.172q.007-.004.014 0 .005.008-.007.008-.013 0-.008-.008z" fill="#7d992a" stroke="#7d992a" stroke-width=".012405"/><path d="M11.457 14.135v-.05l.008.005.005.008.005.007.007.005.008.005.005.007.005.008.007.005.007.005.005.007.005.008.008.005.007.005.005.007.005.008.008.004.007.005.005.008.005.007.007.005.008.005.005.008.005.007.007.005.008.005.005.007.012.033q.012.03.037.03.025 0 .218.223.192.223.199.228l.005.007.005.008.007.005.013.025q.012.024.02.024h.005v.005q0 .008.012.015l.012.005v.005q0 .008.013.015l.012.005v.005q0 .007.013.015l.012.005v.005q0 .007.012.015l.013.005.235.285q.236.285.26.285.026 0 .294.323.265.322.357.446.094.124.119.124.025 0 .451.534.43.533.437.57.005.037.03.037.025 0 .054.087.033.087.447.613.417.528.603.516.186-.012.186-.02v-.005h.012l.008.005.005.008h.297l.025.012.025.012.037.013.037.012-.005.008-.007.005-.008.005-.005.007-.004.007-.008.005-.007.025-.005.025h-.013l-.007.005-.005.007-.025.013-.025.012-.025.013q-.024.012-.186.074-.16.062-.446.136-.285.075-.509.087-.223.013-.273-.012-.05-.025-.124-.107-.074-.08-.173-.159-.1-.081-.323-.347-.223-.268-.248-.268-.025 0-.384-.471l-.36-.471-.005-.013q-.007-.012-.015-.012h-.005l-.005-.025-.007-.025-.013-.025-.012-.024-.007-.005-.005-.008-.005-.007-.008-.005-.012-.025-.013-.025-.007-.005-.154-.213q-.149-.204-.198-.223-.05-.018-.268-.521-.216-.501-.348-.812l-.129-.31-.005-.05-.007-.049-.012-.025-.013-.025-.012-.037-.013-.037-.012-.037-.1-.285-.086-.248-.012-.038-.013-.037-.012-.025-.013-.025z" fill="#638131" stroke="#638131" stroke-width=".012405"/><path d="M4.152 11.227l.024.005-.094.335q-.092.335-.228.645t-.149.36l-.012.05v.173l.007-.005.005-.007.005-.008.008-.005.007-.004.005-.008.025-.012.025-.013.005-.007.007-.005.007-.005.005-.008.005-.007.008-.005.007-.005.005-.007.005-.008.008-.005.007-.005.005-.007.005-.008.015-.01.005-.007.005-.007.007-.005.008-.005.005-.008.005-.007.007-.005.007-.025.005-.025h.05l-.005.025-.007.025-.008.005-.005.007-.005.008-.007.005-.008.005-.005.007-.005.007-.007.005-.012.038-.013.037-.255.327q-.253.33-.477.616-.223.285-.384.434-.161.148-.223.186-.062.037-.075.037h-.062l-.005.007-.007.005-.008.005-.005.008-.005.007-.007.005-.007.005-.005.008-.005.007-.008.005-.012.025-.013.025h-.012l.005-.1.02-.285q.012-.186.198-.707.186-.52.526-1.315l.342-.794h.013l.007.005.005.008.005.007.008.005.007.005.005.008h.05l.005-.008.007-.005.008-.005.004-.007.005-.008.008-.005.017-.037q.02-.037.045-.037.025 0 .025-.025t.05-.025q.049 0 .049.025t.08.013q.081-.013.099.007.02.017.119.042l.124.032z" fill="#bdc6c9" stroke="#bdc6c9" stroke-width=".012405"/><path d="M7.687.794l.012-.005-.025.054Q7.65.9 7.612.908q-.037.005-.124.099-.087.092-.216.223-.131.13-.119.563.013.434.05.57.037.137.062.398.025.26.062.422.037.16.012.52-.024.36-.067.46-.044.099-.07.099-.024 0-.118.645-.092.645-.104.682l-.013.037-.012.037-.013.037-.007.038-.005.037-.05.005-.05.007h-.024l-.005-.007-.007-.005-.013-.062-.012-.062-.013-.05q-.012-.05-.05-.26L6.67 5.13l-.013-.05-.012-.05-.008-.004-.005-.008-.024-.007-.025-.005v.1H6.57l-.012-.026-.012-.025-.008-.004-.005-.008-.005-.007-.007-.005h-.013l-.005-.038-.007-.037-.012-.111-.08-.645-.07-.534.006-.05.007-.049.008-.005.004-.007h.05l.005.007.007.005.013.037.012.037.008.005.005.008.005.007.007.005.008-.025.005-.024.037.005.037.007.025.008.025.004v-.05q0-.049-.05-.036-.05.012.005-.162.057-.173.09-.168.029.007.024-.16-.007-.168-.032-.317-.025-.148-.037-.731-.013-.583.094-.72l.104-.136.228-.037q.23-.038.362-.117.13-.082.204-.144.074-.062.087-.07z" fill="#88a843" stroke="#88a843" stroke-width=".012405"/><path d="M5.982 1.131l.005-.007.199.012q.198.012.41.02l.21.005-.104.136q-.107.137-.094.72.012.583.037.731.025.15.032.318.005.166-.025.159-.032-.005-.07.144-.036.148-.004.16.03.013.03.063v.05l-.025-.005-.025-.008-.037-.007-.037-.005-.005.024-.008.025-.007-.005-.005-.007-.005-.008-.008-.005-.012-.037-.013-.037-.007-.005-.005-.007h-.05l-.004.007-.008.005-.007.05-.005.05h-.013l-.012-.063q-.013-.062-.199-1.228L5.925 1.21l.013-.024.012-.025.008-.005.005-.008.005-.007.007-.005z" fill="#aeca6f" stroke="#aeca6f" stroke-width=".012405"/><path d="M5.43 4.207l.036-.007h.1l.03.017q.032.02.04.045l.004.024-.1-.02q-.098-.017-.093.09.007.104.024.248.02.141-.104.191-.124.05-.198.057-.075.005-.087.05-.012.042-.082.084-.067.045-.042.206.025.161.05.186.024.025.05.36.024.335.116.553.094.216.168.352.075.137.137.298.062.161.067.169l.007.004.013.025.012.025.007.005.005.007.005.008.008.005.007.005.005.007.005.008.008.005.012.024.012.025.008.005.005.008-.005.007-.008.005-.007.005-.005.008h-.05l-.005-.008-.007-.005-.007-.005-.005-.007-.005-.008-.008-.005-.007-.005-.005-.007-.005-.008-.008-.005-.007-.004-.005-.008-.005-.007-.007-.005-.008-.005-.005-.008-.005-.007-.007-.005-.008-.005q-.005-.008-.067-.07-.062-.062-.074-.03-.012.03-.074 0-.062-.032-.182-.123l-.116-.095-.008-.005-.005-.007-.004-.007-.008-.005-.007-.005-.005-.008-.005-.007-.008-.005-.007-.005-.005-.008-.037-.012-.038-.012-.005-.008-.007-.005v.1l.012.049.013.05.007.16.005.162-.012-.005-.013-.007-.024-.008-.025-.005-.005.062-.008.062-.007-.005-.005-.007-.005-.008-.007-.004-.008-.005-.005-.008-.005-.007-.007-.005-.008-.005-.005-.008-.005-.007-.007-.005-.007-.005-.005-.007-.025-.008-.025-.005-.005-.012q-.007-.013-.015-.013h-.005l-.012-.005q-.013-.007-.1-.099L4.4 7.065l-.005-.013-.293-.384q-.285-.372-.335-.496-.05-.124-.025-.223.025-.1.107-.144.08-.043.1-.1.017-.054-.083-.215-.099-.162-.111-.248l-.013-.087.008-.005.005-.008.005-.007.007-.005.008-.005.005-.008.005-.007.007-.005.007-.005.005-.007.397-.05q.397-.05.57-.124.174-.074.294-.206.116-.129.223-.315.104-.186.141-.19z" fill="#667f41" stroke="#667f41" stroke-width=".012405"/><path d="M7.446 15.648l-.466-1.786.203.223q.206.224.404.46.199.235.256.346.055.112.08.112.024 0 .069.087.042.087.05.092l.004.007.005.008.008.005.007.005.005.007.005.007.008.005.007.005.005.008h.025l.005-.008.007-.005.013.025.012.025.012.025.013.025.012-.05.013-.05.012-.074.025-.161.012-.087.008-.005.005-.008.005-.007.007-.005.007-.05.005-.05h.013l.012.088.013.086.024.211q.025.211.038.273l.012.062.012.1.013.099h.012l.104.83q.107.832.095 1.191-.013.36-.037.422-.025.062-.018.256.005.19.03.198.025.005.062.085.037.081.112.089.074.005.086.054.013.05.05.07.037.017.1.025l.061.005v.012l.025.012.025.013.037.007.037.005.005.025.008.025.007.005.005.007.137.033q.136.03.136.084 0 .057.223.082.224.025.348.032l.124.005.012-.005q.012-.007.012-.015v-.005l.025-.005.025-.007.005-.008.007-.005.008.005.005.008h.025l.005-.008.007-.005.007.005.005.008.05.012.05.013.074.012.074.012v.013l-.21.005q-.211.007-.72.007-.508 0-.818-.025-.31-.024-.41-.124-.099-.099-.154-.18-.057-.08-.218-.812-.161-.732-.625-2.518z" fill="#6d8457" stroke="#6d8457" stroke-width=".012405"/><path d="M8.696 5.75l.095-.1-.045.112q-.042.112-.154.385-.112.273-.161.422-.05.149-.161.434-.112.285-.372.88-.261.596-.323.732-.062.137-.161.348-.1.21-.137.347-.037.136-.173.41-.137.272-.278.575-.144.305-.405.843-.26.541-.285.541-.025 0-.044.037-.018.037-.03.1l-.013.061-.012.025-.012.025-.008.012-.005.013H6l-.013-.037q-.012-.038-.054-.112l-.045-.074-.037.005-.037.007-.005.007-.008.005-.007.005-.005.008-.062.087q-.062.086-.087.094-.025.005-.062.06-.037.056-.062.069l-.025.012-.005.008-.007.005V12l-.008.005-.005.008-.005.007-.007.005-.007.005-.005.008-.005.007-.008.005-.007.005-.005.007-.005.008-.008.005-.007.005-.005.007-.025.008-.025.005.005-.025.008-.025.007-.005.005-.007.005-.008.008-.005.007-.005.005-.007.005-.008.007-.005.008-.005.005-.007.005-.007.007-.005.008-.005q.005-.008 0-.015-.008-.005.06-.11.069-.106.074-.173.007-.07.044-.169t.286-.607q.248-.509.429-.901.178-.39.248-.595.067-.204.322-.745.253-.538.496-1.066l.348-.762.104-.235.012-.005q.013-.008.013-.015v-.005l.012-.005q.013-.008.017-.015l.008-.005.007-.005.005-.008.005-.007.008-.005.007-.005.005-.007.005-.008.008-.005.007-.005.005-.007.005-.008.007-.005.008-.004.005-.008.005-.007q.007-.005.05-.01.044-.008.089-.1.042-.094.124-.114.079-.017.099-.034.017-.02.054-.095.038-.074.105-.136.07-.062.074-.087.008-.025.1-.124z" fill="#98b35e" stroke="#98b35e" stroke-width=".012405"/><path d="M4.42 7.176l-.02-.111.087.094q.086.092.099.1l.012.004v.005q0 .008.013.015l.012.005.07.112q.066.111.099.19.03.083.074.164.042.08.08.266.037.186.024.695-.012.508-.186 1.004-.173.496-.38.997-.203.504-.215.511l-.013.005-.024-.005-.124-.032q-.1-.025-.12-.042-.017-.02-.099-.007-.08.012-.08-.013t-.049-.025q-.05 0-.05.025t-.024.025q-.025 0-.045.037l-.017.037-.008.005-.005.008-.004.007-.008.005-.007.005-.005.008h-.05l-.005-.008-.007-.005-.008-.005-.005-.007-.005-.008-.007-.005h-.013l.005-.012.008-.012.012-.15q.013-.148.112-.396.1-.248.496-1.253.397-1.005.397-1.563t-.017-.67z" fill="#c4cbce" stroke="#c4cbce" stroke-width=".012405"/><path d="M10.279 2.272l.149.005.025.005.024.007.005.008.008.005.025.025q.024.025.032.05l.005.024-.03-.012q-.032-.013-.04-.037-.005-.025-.067-.005-.062.017-.116.034-.057.02-.206.181-.149.162-.323.596-.173.434-.347.893-.173.459-.397 1.004-.223.546-.23.571l-.005.025-.095.1q-.091.098-.099.123-.005.025-.074.087-.067.062-.105.136-.037.075-.054.095-.02.017-.1.034-.081.02-.123.114-.045.092-.09.1-.042.005-.05.01l-.004.007-.005.008-.008.004-.007.005-.005.008-.005.007-.007.005-.008.005-.005.008-.005.007-.007.005-.008.005-.005.007-.005.008-.007.005-.008.025-.004.025h-.05l.005-.025.007-.025.013-.025.012-.025.013-.025.012-.024.012-.025q.013-.025.038-.087l.186-.471q.16-.41.302-.836.144-.43.189-.536.042-.104.129-.228.087-.124.186-.385.099-.26.136-.335.037-.074.12-.268.079-.19.153-.382l.075-.193h.005q.007 0 .014-.013l.005-.012.075-.129q.074-.131.149-.169.074-.037.148-.099.075-.062.187-.037.111.025.26.032z" fill="#b0c979" stroke="#b0c979" stroke-width=".012405"/><path d="M8.741 8.856l.025-.005-.204.496q-.206.496-.198.625.005.132.035.14.032.004.124.332.094.33.114.362l.025.042.005.012v.005q0 .008.012.015l.012.005.02.186q.018.186.042.248.025.062.057.181.03.117.075.531l.067.677.05.521q.024.26.017.286l-.005.024L9 13.535q-.012-.008-.024-.02-.013-.013-.05.012-.037.025-.05.057-.012.03-.074-.025-.062-.057-.082-.089l-.017-.03-.008.037q-.005.038-.03.038-.024 0-.03-.025-.007-.025-.014.025l-.005.05h-.05l-.005-.075q-.007-.075-.044-.273-.038-.198-.062-.372-.025-.174-.062-.248-.038-.075-.112-.36-.074-.285-.092-.496-.02-.21-.044-.21-.025 0-.08-.212l-.057-.21v-.05l-.012-.025-.013-.025-.007-.005-.005-.007-.005-.008-.007-.005-.008.005-.005.008-.005.007-.007.005-.008.025-.005.025-.037.005-.037.007-.005.008-.007.005-.008.005-.005.007-.005.007-.007.005-.008.005-.005.008-.005.007-.007.005-.008.005-.005.008-.004.007-.008.005-.025.112q-.025.111-.012.21l.012.1.008.111.005.112h-.013l-.012-.05-.013-.05-.012-.049q-.012-.05-.025-.087l-.012-.037-.008-.005-.005-.007-.005-.008-.007-.005-.007.005-.005.008-.005.007-.008.005-.007.005-.005.008-.005.007-.008.005-.012.025-.012.025-.008.005-.005.007-.005.007-.007.005-.117.219q-.119.215-.149.248-.032.03-.024.054.005.025-.04.025-.042 0-.1.055-.054.057-.059.064l-.007.005-.008.005-.005.008-.005.007-.007.005-.008.005-.005.007-.004.008-.008.005-.007.005-.005.007-.005.008-.008.005-.007.024-.005.025H6.88l-.012-.005-.012-.007.024-.013.025-.012.005-.007.008-.005.012-.025.012-.025.008-.005.005-.007.005-.008.007-.005.013-.05q.012-.05.012-.111 0-.062.017-.124l.02-.062.037-.005.038-.008.005-.007.007-.005v-.05q0-.05-.007-.062l-.005-.012.024-.005.025-.007.025-.008q.025-.005.07-.104.042-.1.05-.174.004-.074.041-.08.038-.007.117-.163.082-.154.174-.377.094-.223.119-.223.024 0 .03-.025.007-.025.317-.732t.392-.81l.08-.108.004-.007.008-.005.067-.055q.07-.057.094-.064z" fill="#8faf43" stroke="#8faf43" stroke-width=".012405"/></g></svg>