<svg xmlns="http://www.w3.org/2000/svg" width="20" height="20" viewBox="0 0 5.292 5.292"><path d="M148.388 214.907s-1.665.323-2.826-1.592l1.913-18.547s1.91-20.6 1.684-28.104c-.225-7.505.539-23.517-.118-31.296-.657-7.778-2.095-29.7-3.392-35.818 0 0-.175-4.278 1.236-.63 1.41 3.648 4.882 32.05 5.42 34.165.54 2.115-2.633-38.823-4.425-44.043 0 0-.147-4.985 1.709-.252 0 0 4.358 20.143 4.221 23.577 0 0-1.886-25.842-.542-23.324 0 0 .78-1.573 1.223 5.94l1.195 21.72.397 13.7 1.957 18.657s-.068-31.124-.718-33.694c-.65-2.57-1.737-26.14-1.737-26.14l-2.604-20.164s.192-4.26 1.905.625l2.961 17.065 1.671 14.463 2.086 15.444s.55-29.515 1.784-36.63c0 0 1.472-18.2 1.862-6.13.39 12.068-1.309 24.968-1.309 24.968l-.654 21.77-.26 9.557.296 3.087s1.639-32.698 2.3-36.107c0 0 1.663-16.654 1.975-7.676l-1.794 24.174-.174 13.908-.076 20.419s1.797-34.214 5.391-41.327c0 0 1.557-2.79.321 5.06 0 0-2.32 19.005-2.262 20.712.057 1.706-.778 21.632-.778 21.632l.373 20.983s2.229 29.996 3.194 32.353c0 0-1.152 2.413-4.752 1.106l.438 12.696s-1.057 2.369-3.462.391l-.408-5.322s-1.645.632-2.29-.83l-.092-3.758-.604 6.432s-3.374 2.313-5.372.742c0 0 1.651 2.646-4.113 1.938l-3.244-.326z" fill="#2f582a" stroke="#0b1410" stroke-width=".265" stroke-linecap="square" stroke-miterlimit="2.5" transform="matrix(.0399 0 0 .03251 -3.763 -2.101)"/><path d="M152.318 132.546l.782 33.69s-2.788 41.628-4.71 48.67" fill="none" stroke="#0b1410" stroke-width=".269" stroke-linecap="square" stroke-miterlimit="2.5" transform="matrix(.0399 0 0 .03251 -3.763 -2.101)"/><path d="M158.04 149.06s-1.537 43.676-2.68 51.149c-1.14 7.473-2.019 17.714-2.019 17.714M165.554 147.999s-1.533 11.884-.305 23.716c0 0 .773 32.773 1.792 36.803M161.15 212.778s1.304-18.74 1.494-20.136c.19-1.396.04-54.506.04-54.506s-.248-19.027-1.08-21.477" fill="none" stroke="#0b1410" stroke-width=".265" stroke-linecap="square" stroke-miterlimit="2.5" transform="matrix(.0399 0 0 .03251 -3.763 -2.101)"/><path d="M163.311 133.292l-.584 21.595" fill="none" stroke="#0b1410" stroke-width=".287" stroke-linecap="square" stroke-miterlimit="2.5" transform="matrix(.0399 0 0 .03251 -3.763 -2.101)"/><path d="M162.724 189.377s1.117 27.345 1.114 29.783" fill="none" stroke="#0b1410" stroke-width=".247" stroke-linecap="square" stroke-miterlimit="2.5" transform="matrix(.0399 0 0 .03251 -3.763 -2.101)"/><path d="M2.251 3.053l-.02.684-.07.975s-.056.128-.066.017c0 0 .084-.579.084-.664 0-.084.071-.938.072-1.012zM2.39 2.654l.019.803s-.037.848-.071.971c0 0-.054.48-.127.56 0 0-.03-.034.039-.372.068-.338.118-1 .114-1.074-.004-.073.055-.837.025-.888zM2.607 2.398l.01.651-.008.77-.057.729-.056.319s-.096.159-.087.017c.01-.142.072-.523.072-.523l.046-.399.027-.368.012-.25s.031-.975.04-.946z" fill="#82a95c"/><path d="M2.09 1.183s.117.484.146.794l-.031-.01z" fill="#749c58"/><path d="M2.168.771s.196.724.2.96c0 0 .023.092.035.295 0 0-.027-.122-.07-.407-.043-.284-.154-.704-.165-.848zM2.854 4.984l.027.01s-.06-.606-.058-.655c.003-.049-.024-.993-.024-.993l-.006-.628s-.02.442-.02.51c0 .07.014.66.014.66s.03 1.025.067 1.096zM2.937 3.623l.08.812c.008.062.037.2.037.2l-.03-.003s-.13-.859-.087-1.009zM2.379.183l.184 1.213.026-.004S2.482.549 2.452.478c-.03-.07-.073-.295-.073-.295zM3.046 1.464s-.135.56-.159.968c-.023.407-.02.394-.02.394l.028-.014s.021-.576.042-.654c.02-.078.087-.64.109-.694z" fill="#82a95c"/><path d="M147.931 220.497c-.223.163 4.296-2.143 7.32-.222 0 0-1.605 2.99-7.32.222z" fill="#638145" stroke="#0b1410" stroke-width=".265" transform="matrix(.0399 0 0 .03251 -3.763 -2.101)"/><path d="M153.378 218.036c.014-.1 3.78-2.212 7.107.134 0 0-3.437 2.724-7.107-.134z" fill="#638145" stroke="#0b1410" stroke-width=".258" transform="matrix(.0399 0 0 .03251 -3.763 -2.101)"/><path d="M2.722 2.085s.033.086.028.147l-.014.454-.011-.435z" fill="#0b1410"/><path d="M164.07 221.614s1.235-2.256 3.374-.41c0 0-1.042 2.347-3.373.41z" fill="#638145" stroke="#0b1410" stroke-width=".267" transform="matrix(.0399 0 0 .03251 -3.763 -2.101)"/><path d="M2.319 2.162l.007.265a6.401 6.401 0 01-.036-.309l.019.064zM2.529 2.656l-.002.377.016-.288.006-.102-.017.017zM2.845 2.562s-.042.35-.03.46l.028-.312.017-.162zM2.718 1.933l-.085-.508.058.195s.03.227.027.313z" fill="#0b1410"/></svg>