<svg xmlns="http://www.w3.org/2000/svg" width="20" height="20"><path fill="#301027" fill-rule="evenodd" d="M17.467 8.158l1.307 1.41s-.282.867-.446 1.22c-.075.162-.198.367-.289.52-.176.295-.418.684-.62.963a8.759 8.759 0 01-.478.594c-.3.34-.722.775-1.06 1.079-.37.334-.894.749-1.304 1.034-.39.273-.934.606-1.356.826-.588.306-1.399.666-2.026.878-.617.207-1.463.42-2.106.52-.681.105-1.604.165-2.293.146-.68-.018-1.59-.108-2.252-.267-.517-.123-1.202-.341-1.666-.6-.337-.187-.74-.515-1.015-.786a4.012 4.012 0 01-.558-.69 3.645 3.645 0 01-.34-.785 3.523 3.523 0 01-.123-.786 3.63 3.63 0 01.072-.754c.038-.183.132-.414.188-.591l16.365-3.931z"/><path fill="none" stroke="#301027" stroke-linecap="round" stroke-linejoin="round" d="M18.774 9.567s0 0 0 0l-1.307-1.41s0 0 0 0L1.102 12.09s0 0 0 0c-.056.177-.15.408-.188.59a3.63 3.63 0 00-.072.755c.007.239.056.557.123.786.07.246.207.565.34.785.138.228.369.503.558.69.274.271.678.6 1.015.787.464.258 1.149.476 1.666.6.662.158 1.572.248 2.252.266.69.019 1.612-.041 2.293-.147.643-.1 1.49-.312 2.106-.52a15.874 15.874 0 002.026-.877c.422-.22.965-.553 1.356-.826.41-.285.933-.7 1.304-1.034.338-.304.76-.74 1.06-1.08.152-.17.344-.408.478-.593.202-.279.444-.668.62-.963.091-.153.214-.358.289-.52.164-.353.446-1.22.446-1.22" stroke-width=".02505"/><path fill="#6b4344" fill-rule="evenodd" d="M6.558 16.601c-.139-.03-.319-.092-.456-.131 0 0 .733-.053 1.045-.087.147-.017.343-.042.489-.065.663-.107 1.548-.261 2.199-.428.638-.164 1.483-.42 2.093-.671a14.612 14.612 0 002.941-1.695c.338-.255.764-.628 1.073-.917.157-.147.358-.353.506-.51.257-.276.584-.657.826-.945.052-.062.124-.144.17-.21.01-.012.02-.03.029-.043l-.008.039c-.095.2-.21.474-.317.67-.069.125-.17.288-.25.406-.16.238-.39.547-.576.766-.226.266-.55.602-.808.838a12.345 12.345 0 01-2.247 1.61c-.47.257-1.127.542-1.626.737-.294.114-.693.25-.998.334-.492.135-1.158.29-1.666.348-.533.061-1.254.073-1.79.039a4.82 4.82 0 01-.629-.085m10.907-5.663z"/><path fill="none" stroke="#6b4344" stroke-linecap="round" stroke-linejoin="round" d="M6.102 16.47s0 0 0 0c.137.04.317.102.456.131.187.04.44.073.63.085.535.034 1.256.022 1.79-.04.507-.057 1.173-.212 1.665-.347.305-.084.704-.22.998-.334.499-.195 1.156-.48 1.626-.736.389-.212.884-.537 1.242-.797.315-.227.72-.552 1.005-.814.257-.236.582-.572.808-.838.187-.219.415-.528.576-.766.08-.118.181-.281.25-.407.106-.195.222-.468.317-.67 0 0 0 0 0 0l.008-.038s0 0 0 0l-.028.043c-.047.066-.119.148-.17.21-.243.288-.57.67-.827.945-.148.157-.349.363-.506.51-.31.289-.735.662-1.073.917a14.612 14.612 0 01-2.941 1.695c-.61.25-1.455.507-2.093.67-.651.168-1.536.322-2.2.429a11.21 11.21 0 01-.488.065c-.312.034-1.044.087-1.045.087" stroke-width=".02505"/><path fill="#581248" fill-rule="evenodd" d="M17.11 7.086c.182.206.284.575.405.82 0 0-.052.371-.082.529-.028.148-.07.345-.11.49a5.76 5.76 0 01-.217.635c-.11.256-.28.588-.431.822a7.646 7.646 0 01-.652.834c-.205.23-.497.522-.73.724-.251.22-.608.488-.886.673-.39.26-.937.569-1.355.783-.265.135-.625.3-.902.41-.638.254-1.505.556-2.17.726-.467.12-1.1.24-1.58.293-.762.084-1.79.11-2.555.07a8 8 0 01-1.053-.13c-.453-.092-1.055-.25-1.478-.435a5.524 5.524 0 01-1.1-.656 4.185 4.185 0 01-.646-.667 3.575 3.575 0 01-.328-.55c-.048-.1-.097-.24-.134-.344l-.012-.036s.075-.183.114-.257c.07-.132.173-.302.261-.422a3.974 3.974 0 01.522-.547c.165-.134.406-.288.594-.387.27-.142.65-.289.939-.382.35-.112.832-.21 1.193-.28.37-.073.868-.146 1.241-.197.456-.062 1.067-.116 1.523-.173.481-.06 1.127-.12 1.6-.221a9.263 9.263 0 001.25-.365 5.76 5.76 0 00.76-.364c.357-.21.794-.55 1.117-.807.184-.147.417-.358.592-.516.145-.132.342-.304.476-.447.027-.029.059-.07.084-.1.26.016.608.045.87.05.415.01.969-.037 1.384-.023.286.01.681-.02.95.078.186.067.415.221.546.37m-3.75-.474z"/><path fill="none" stroke="#581248" stroke-linecap="round" stroke-linejoin="round" d="M17.515 7.907s0 0 0 0c-.121-.246-.223-.615-.405-.82a1.507 1.507 0 00-.546-.37c-.269-.098-.664-.068-.95-.078-.415-.014-.97.033-1.384.024-.262-.006-.61-.035-.87-.05 0 0 0 0 0 0-.025.03-.057.07-.084.099-.134.143-.33.315-.476.447-.175.158-.408.369-.592.516-.323.258-.76.597-1.116.807a5.76 5.76 0 01-.761.364c-.365.14-.868.282-1.25.365-.473.102-1.119.16-1.6.22-.456.058-1.067.112-1.523.174-.373.05-.87.124-1.24.196-.362.071-.844.169-1.194.281-.29.093-.67.24-.939.382-.188.1-.429.253-.594.387a3.974 3.974 0 00-.37.367c-.047.052-.11.123-.152.18-.088.12-.192.29-.26.422a4.58 4.58 0 00-.115.257s0 0 0 0l.012.036c.037.104.086.244.134.343.083.174.212.398.328.55.168.223.428.494.645.668.3.24.75.501 1.101.656.423.186 1.025.343 1.478.435a8 8 0 001.053.13c.766.04 1.793.014 2.555-.07.48-.052 1.113-.173 1.58-.293.665-.17 1.532-.472 2.17-.726.277-.11.637-.275.902-.41.418-.214.964-.522 1.355-.783.278-.185.635-.454.887-.673.232-.202.524-.493.729-.724.21-.237.48-.567.652-.834.15-.234.322-.566.431-.822a5.76 5.76 0 00.217-.635c.04-.145.082-.342.11-.49.03-.158.082-.528.082-.528" stroke-width=".02505"/><path fill="#8f4a67" fill-rule="evenodd" stroke="#8f4a67" stroke-linecap="round" stroke-linejoin="round" d="M13.135 8.423c-.078.213-.202.49-.32.684a7.938 7.938 0 01-1.23 1.51A9.414 9.414 0 019.6 11.973c-.551.274-1.34.527-1.942.657a9.642 9.642 0 01-2.012.2c-.39-.009-.913-.059-1.285-.172-.228-.069-.52-.209-.72-.339a1.712 1.712 0 01-.3-.248c-.091-.1-.205-.245-.253-.37a.786.786 0 01-.046-.292.425.425 0 01.038-.151.64.64 0 01.143-.166c.082-.07.208-.145.307-.19.13-.06.317-.109.456-.141.226-.052.534-.084.763-.113.232-.029.543-.055.776-.078.459-.046 1.072-.096 1.53-.15.438-.05 1.023-.105 1.454-.196a11.686 11.686 0 001.463-.422 11.82 11.82 0 001.413-.638c.28-.152.635-.385.894-.57.183-.131.423-.315.59-.468.121-.112.262-.286.38-.403l.095-.09s0 0 0 0c0 .001-.126.56-.21.79z" stroke-width=".02505"/><path fill="#34102a" fill-rule="evenodd" stroke="#34102a" stroke-linecap="round" stroke-linejoin="round" d="M15.865 9.227c.14 0 .193.067.193.124 0 .057-.053.124-.193.124s-.193-.067-.193-.124c0-.057.053-.124.193-.124zM5.594 14.114c.27 0 .367.125.367.232 0 .107-.098.232-.367.232s-.367-.125-.367-.232c0-.107.098-.232.367-.232zM6.304 13.814c.147 0 .199.067.199.124 0 .057-.052.124-.2.124-.146 0-.198-.067-.198-.124 0-.057.052-.124.199-.124z" stroke-width=".02505"/><path fill="#3a5727" fill-rule="evenodd" d="M18.345 6.31c-.033.075-.084.173-.12.247 0 0 .234.362.323.524.096.17.208.407.291.584.019.04.048.09.06.132.038.136.037.328.04.47.007.23.003.537-.028.765-.028.213-.113.49-.162.7 0-.001-.22-.12-.305-.184a3.258 3.258 0 01-.53-.49 2.018 2.018 0 01-.244-.389c-.075-.163-.122-.4-.175-.572 0 0-.103.079-.152.105a3.517 3.517 0 01-.69.253 5.4 5.4 0 01-.762.125c-.234.023-.55.042-.784.027-.202-.012-.467-.072-.667-.103 0 0 .917-.727 1.275-1.077.12-.117.262-.29.374-.413 0 0-.417.06-.597.077-.156.015-.365.039-.522.035a3.587 3.587 0 01-.653-.08 3.287 3.287 0 01-.546-.19c-.123-.057-.275-.156-.393-.222 0 0 .494-.18.711-.242.768-.219 1.894-.195 2.601-.566.598-.315 1.156-1.072 1.656-1.527l.249-.224c.022.052.06.118.074.173.041.168.026.402.024.575a3.837 3.837 0 01-.03.48c-.02.12-.06.276-.095.391a6.394 6.394 0 01-.223.615m.25-2.234z"/><path fill="none" stroke="#3a5727" stroke-linecap="round" stroke-linejoin="round" d="M18.225 6.557s0 0 0 0c.036-.074.087-.172.12-.248.077-.18.167-.427.223-.615.034-.115.076-.272.094-.392.022-.142.029-.335.03-.48.003-.172.018-.406-.023-.574-.014-.055-.052-.121-.074-.173 0 0 0 0 0 0l-.25.224c-.499.455-1.057 1.212-1.655 1.527-.707.371-1.833.347-2.6.566-.218.062-.712.242-.712.242s0 0 0 0c.118.066.27.165.393.221.158.072.377.15.546.19.192.045.455.076.653.08.157.005.366-.019.522-.034.18-.018.597-.077.597-.077s0 0 0 0c-.112.124-.254.296-.374.413-.358.35-1.275 1.077-1.275 1.077s0 0 0 0c.2.03.465.09.667.103.235.015.55-.004.784-.027a5.4 5.4 0 00.761-.125c.214-.056.496-.15.69-.253.05-.026.153-.105.153-.105s0 0 0 0c.053.172.1.41.175.572.058.125.158.283.245.39.137.166.355.36.529.489.086.063.305.183.305.183s0 0 0 0c.049-.21.134-.486.162-.699a5.31 5.31 0 00.029-.765c-.004-.142-.003-.334-.041-.47-.012-.042-.041-.093-.06-.132a10.818 10.818 0 00-.29-.584c-.09-.162-.324-.524-.324-.524" stroke-width=".02505"/><path fill="#588d3d" fill-rule="evenodd" d="M17.548 1.97l-.513.506s.129.203.176.294c.03.057.064.138.09.198.05.123.125.287.16.417.022.086.04.204.047.292.012.126.025.297.009.422-.02.161-.086.372-.15.521a3.524 3.524 0 01-.407.675c-.04.05-.102.11-.146.157 0 0-.312-.063-.448-.077a3.846 3.846 0 00-1.092.054c-.205.047-.47.143-.66.234a3.67 3.67 0 00-.48.29c-.14.098-.312.25-.442.361-.104.089-.236.213-.337.304 0 0 .198.076.286.1.207.056.49.108.702.13.317.033.744.041 1.062.019.184-.013.427-.064.61-.092l-1.654 1.739s.349-.002.498-.01c.281-.015.657-.04.935-.087.257-.042.597-.119.844-.203.161-.056.366-.157.52-.232.078-.039.179-.096.256-.138 0 0 .03.239.056.338.036.137.073.333.163.442.064.077.192.14.285.178.086.035.21.072.304.068a.428.428 0 00.192-.055c.098-.063.181-.205.237-.307.061-.11.11-.273.143-.394.03-.114.07-.27.066-.388a1.407 1.407 0 00-.088-.362 3.052 3.052 0 00-.24-.514 3.247 3.247 0 00-.324-.43c-.114-.13-.291-.28-.416-.399 0 0 .19-.175.258-.261a3.133 3.133 0 00.586-1.33 1.763 1.763 0 00-.011-.52c-.064-.327-.266-.734-.424-1.027-.073-.137-.194-.305-.283-.431-.106-.149-.259-.337-.37-.482z"/><path fill="none" stroke="#588d3d" stroke-linecap="round" stroke-linejoin="round" d="M17.035 2.476s0 0 0 0l.513-.506s0 0 0 0c.111.145.264.333.37.482.09.126.21.294.283.43.158.294.36.701.424 1.028.03.153.033.366.011.52a3.133 3.133 0 01-.586 1.33c-.068.086-.258.261-.258.261s0 0 0 0c.125.12.302.269.416.398.108.121.241.292.324.431.088.146.184.353.24.514.036.105.084.25.088.362.004.118-.036.274-.066.388a1.908 1.908 0 01-.143.394c-.056.102-.139.244-.237.307a.428.428 0 01-.192.055.822.822 0 01-.304-.068c-.093-.038-.22-.1-.285-.178-.09-.109-.127-.305-.163-.442a3.977 3.977 0 01-.056-.338s0 0 0 0c-.077.042-.178.1-.257.138a5.017 5.017 0 01-.52.232 5.797 5.797 0 01-.843.203 9.401 9.401 0 01-1.433.097s0 0 0 0l1.654-1.739s0 0 0 0c-.183.028-.426.079-.61.092a6.823 6.823 0 01-1.062-.02 4.886 4.886 0 01-.702-.129 4.49 4.49 0 01-.286-.1s0 0 0 0c.1-.091.233-.215.337-.304.13-.112.302-.263.442-.362a3.67 3.67 0 01.48-.29c.19-.09.455-.186.66-.233a3.669 3.669 0 011.54.023s0 0 0 0c.044-.047.107-.106.146-.157.144-.187.313-.458.406-.675.065-.15.13-.36.15-.52a2.139 2.139 0 00-.008-.423 1.977 1.977 0 00-.047-.292c-.035-.13-.11-.294-.16-.417-.026-.06-.06-.14-.09-.198a5.835 5.835 0 00-.176-.294" stroke-width=".02505"/><path fill="#9fc939" fill-rule="evenodd" d="M17.044 2.465l.505-.498s.005.127-.003.18a.738.738 0 01-.067.253.367.367 0 01-.15.148.33.33 0 01-.172-.003.386.386 0 01-.106-.047l-.02-.017.013-.016z"/><path fill="none" stroke="#9fc939" stroke-linecap="round" stroke-linejoin="round" d="M17.549 1.967s0 0 0 0l-.505.498-.014.016s0 0 0 0l.021.017c.03.018.072.04.106.047a.33.33 0 00.172.003.367.367 0 00.15-.148.738.738 0 00.067-.253c.008-.053.003-.18.003-.18" stroke-width=".02505"/><path fill="#9fc939" fill-rule="evenodd" d="M16.428 5.716c.051.017.117.048.167.068l-.703.2-.684.197c-.192.056-.448.132-.64.187-.16.045-.37.104-.53.147l-.281.075c.134-.111.306-.27.448-.371.16-.115.385-.253.56-.344.12-.062.281-.14.41-.178a2.503 2.503 0 01.928-.065c.1.014.23.052.325.084m-2.671.874z"/><path fill="none" stroke="#9fc939" stroke-linecap="round" stroke-linejoin="round" d="M16.595 5.784s0 0 0 0c-.05-.02-.116-.05-.167-.068a2.06 2.06 0 00-.325-.084 2.503 2.503 0 00-.928.065 2.58 2.58 0 00-.41.178c-.175.09-.4.229-.56.344-.142.102-.314.26-.448.37 0 0 0 0 0 0l.281-.074c.16-.043.37-.102.53-.147.192-.055.448-.131.64-.187l.684-.197.703-.2" stroke-width=".02505"/></svg>