<svg xmlns="http://www.w3.org/2000/svg" width="20" height="20"><path d="M5.467 17.513c1.15.511 2.38.55 3.503-.068.493-.27 1.116-.644 1.398-1.152.295-.53.184-.994-.122-1.495-.101.401-.166.958-.733.87-.467-.074-.825-.527-1.142-.844-.079-.078-.38-.39-.351-.514.03-.139.35-.172.46-.218.438-.177.832-.519 1.18-.832.297-.268.706-.894.327-1.272-.419-.42-.828-.604-1.397-.751-.947-.246-2.141.014-3.037.354-.385.146-.782.294-1.145.492-.296.163-.808.451-.965.764-.11.22-.146.346.086.507.158.111.315.223.48.325.308.193.635.372.942.55-.388.38-.625 1.266-.559 1.796.04.323.09.657.318.903.117.125.216.243.359.336l.308.2c.051.033.117.115.09.05" fill="#b8b8b8"/><path d="M8.101 5.595c-.99-.43-2.769-1.405-1.928-2.742L4.898 1.767c.316 2.063-2.203 3.48-3.207 4.986-.604.906-.997 1.823-1.055 2.92-.047.902.625 1.97 1.324 2.495.206.154.399.289.63.404l-.027.054c.145.12.335.132.516.177.291.073.408.198.633.404.372.341.87.51 1.332.689a4.261 4.261 0 003.039.001c1.003-.39 1.144-1.48.531-2.297-.18-.24.127-.386.315-.583.19-.198.332-.43.489-.655.27-.39.483-.959.557-1.428.094-.605.032-1.417-.309-1.943a4.04 4.04 0 00-.745-.89c-.236-.211-.63-.289-.82-.506" fill="#661a00"/><path d="M8.101 5.595c-.99-.43-2.769-1.405-1.928-2.742L4.898 1.767c.316 2.063-2.203 3.48-3.207 4.986-.604.906-.997 1.823-1.055 2.92-.047.902.625 1.97 1.324 2.495.206.154.399.289.63.404l-.027.054c.145.12.335.132.516.177.291.073.408.198.633.404.372.341.87.51 1.332.689a4.261 4.261 0 003.039.001c1.003-.39 1.144-1.48.531-2.297-.18-.24.127-.386.315-.583.19-.198.332-.43.489-.655.27-.39.483-.959.557-1.428.094-.605.032-1.417-.309-1.943-.43-.662-.867-1.007-1.565-1.37" fill="none" stroke="#661a00" stroke-linecap="square" stroke-miterlimit="10" stroke-width=".08394"/><path d="M7.884 10.943c.884.553 1.48 1.664.781 2.596-.53.706-2.108.65-2.855.455-1.05-.274-2.077-.611-2.718-1.538-.34-.491.258-.997.602-1.226.382-.255.901-.393 1.353-.447a7.471 7.471 0 011.413-.045c.216.015.45.005.661.054.2.047.613.207.763.151" fill="#f2efdb"/><path d="M4.897 1.767l1.276 1.086c-.639 1.015.34 1.836 1.1 2.38.41.292.986.478 1.431.73.42.238.752.63.965 1.057.982 1.964-.39 4.284-2.227 5.152-1.818.859-4.297 1.297-5.825-.34-.688-.737-1.141-1.77-.927-2.787.223-1.057.699-1.95 1.383-2.78 1.034-1.257 3.106-2.658 2.824-4.498" fill="#f2efdb"/><path d="M5.522 12.844c.238-.012.62.01.733.271.137.314-.314.353-.547.353-.156 0-.785.03-.81-.217-.028-.266.526-.307.624-.407" fill="#b39940"/><path d="M1.232 8.255c.754-.116 1.509.212 2.22.44.752.242 1.526.549 2.312.653.834.111 1.643.19 2.445-.131.607-.243 1.279-.515 1.82-.88 0 2.153-1.79 3.77-3.803 4.217-.522.116-1.047.284-1.584.296-.644.015-1.091-.025-1.714-.185-1.043-.269-1.703-1.234-2.01-2.197-.233-.725-.204-1.637.314-2.213" fill="#b8b8b8"/><path d="M1.476 7.142c.89-.5 1.965-.412 2.959-.324 1.069.094 2.136.216 3.21.216.486 0 .972-.02 1.444-.139.285-.071.377-.183.526.065.127.211.238.47.286.711.038.19.276 1.383-.023 1.433-.488.081-.97.2-1.46.277-1.634.255-3.249.256-4.888.074-.824-.092-1.592-.375-2.354-.683-.155-.063-.228-.057-.27-.19-.037-.12.03-.35.063-.465.108-.377.25-.674.507-.975" fill="#e6cf95"/><path d="M6.906 5.513c.328.067.667.366.957.531.298.17.621.423.863.665.587.586.988 1.114.825 1.985-.315 1.682-1.47 2.707-2.943 3.444.675-1.009.923-2.066.998-3.264.037-.595-.07-1.186-.185-1.765a5.642 5.642 0 00-.195-.738c-.082-.24-.155-.69-.32-.858" fill="#fff"/><path d="M5.848 12.246c.539-.469.816-1.524.936-2.199.14-.784.197-1.665.017-2.447a12.162 12.162 0 00-.803-2.384c-.37-.805-.604-1.403-.34-2.282-.76.513-.594 1.616-.743 2.396-.185.97-.41 1.94-.54 2.918-.13.97-.297 1.943-.056 2.907.098.392.296.86.497 1.214.137.24.24.277.5.19.122-.04.513-.274.532-.313" fill="#fff"/><path d="M4.029 12.41c-.317-.623-.538-1.203-.572-1.92a7.43 7.43 0 01.234-2.162c.18-.716.332-1.438.503-2.157.151-.636.359-1.336.405-1.988a13.728 13.728 0 00-2.464 4.356c-.124.361-.217.76-.23 1.143-.014.387-.082 1.005.122 1.355l.365.626c.094.162.418.304.571.412.16.113.36.144.546.199l.406.12c.086.026.123.068.114.015M1.476 10.889c-.015-.815-.015-1.648.194-2.446.23-.882.601-1.644 1.082-2.414-.684.68-1.219 1.304-1.507 2.25-.128.421-.13.868-.085 1.302.034.337.124 1.148.316 1.308" fill="#fff"/><path d="M7.558 13.44c-.27.187-.832.283-1.032-.053-.078-.133-.026-.244-.135-.353-.068-.068-.245-.101-.326-.136.28-.117.55-.285.841-.394.26-.097.609-.345.891-.305.353.05.577.286.475.642-.06.211-.552.627-.714.6" fill="#661a00"/><path d="M7.477 13.387c-.27.186-.833.281-1.032-.055-.08-.132-.027-.243-.136-.353-.066-.066-.239-.101-.326-.135.28-.117.55-.285.842-.394.26-.097.608-.345.89-.305.353.05.578.286.476.642-.06.21-.552.627-.714.6" fill="#fff"/><path d="M7.178 12.355c.283-.151.665-.14.814.19.169.373-.127.591-.434.72-.222.092-.754.219-.842-.123-.069-.27.295-.628.462-.787" fill="#b39940"/><path d="M4.354 4.482c.253-.317.364-.736.53-1.1.159-.35.37-.85.285-1.235 0 .445-.054.88-.206 1.299-.1.276-.373.96-.609 1.036" fill="#802600"/><path d="M5.467 2.2l-.054 1.331c.204 0 .205-.037.258.122.051.154.08.319.122.476.09.336.224.638.38.95-.212-.432-.266-.999-.374-1.467a7.68 7.68 0 01-.141-.732c-.031-.235.044-.554-.19-.68" fill="#b39940"/><path d="M4.653 12.49c.514.81 1.5-.191 1.846-.624-.326.63-1.425 1.816-1.846.625" fill="#802600"/><path d="M5.739 12.708c.994-.332 1.93-.578 2.77-1.249-.843.453-1.82 1.084-2.77 1.25" fill="#661a00"/><path d="M7.966 13.25l.678.3-.869.434-.155-.468c-.02-.058.288-.225.346-.265" fill="#fff"/><path d="M8.237 12.328l.624-.272-.597.408a.403.403 0 01-.027-.136M8.318 12.572l.652-.108-.652.271c0-.05-.011-.113 0-.163M8.264 12.925l.706.082-.815.027c.052-.024.082-.088.109-.109M8.155 12.192l.543-.516-.652.462.11.054" fill="#e6cc99"/><path d="M7.612 13.495l.163.489-.271-.435.108-.054" fill="#b8b8b8"/><path d="M9.16 6.654c-.444-.48-.923-.87-1.55-1.13a3.506 3.506 0 01-.84-.472c-.253-.204-.391-.474-.61-.693.374.374.784.93 1.321 1.23.316.175.635.323.932.535.207.148.574.488.747.53" fill="#fff"/><path d="M9.377 14.744v-.434l-.244.326.244.108M8.426 15.504c-.646-.969-1.612-1.602-2.714-1.927-.34-.1-.512.047-.815.298-.34.282-.764.764-.706 1.25a.929.929 0 01.163-.49c-.766 1.637 1.08 2.866 2.498 2.96.778.051 1.571-.21 1.933-.935.155-.31.178-.738.266-1.074.075-.288.122-.586.19-.87-.192.285-.507.642-.815.788" fill="#661a00"/><path d="M8.426 15.504c-.646-.969-1.612-1.602-2.714-1.927-.34-.1-.512.047-.815.298-.34.282-.764.764-.706 1.25a.929.929 0 01.163-.49c-.766 1.637 1.08 2.866 2.498 2.96.778.051 1.571-.21 1.933-.935.155-.31.178-.738.266-1.074.075-.288.122-.586.19-.87-.192.285-.507.642-.815.788" fill="none" stroke="#661a00" stroke-linecap="square" stroke-miterlimit="10" stroke-width=".08394"/><path d="M4.191 15.097v.027" fill="none" stroke="#661a00" stroke-linecap="square" stroke-miterlimit="10" stroke-width=".048964999999999995"/><path d="M4.408 14.446c.188-.218.346-.469.57-.652.073-.059.423-.321.498-.296.588.2 1.139.348 1.645.71.41.292.877.654 1.16 1.077.191.287.232.185.471-.025.183-.16.353-.341.49-.543-.069.283-.116.581-.19.869-.089.336-.112.765-.266 1.074-.367.735-1.222 1.03-2.015.924-.792-.106-1.674-.355-2.159-1.048a2.291 2.291 0 01-.414-1.01c-.029-.203.018-.41.043-.612.019-.147.213-.348.167-.468" fill="#b39940"/><path d="M5.549 13.957c0 .6-.038 1.344.489 1.765.466.373 1.436.245 1.94-.007.223-.111.302-.18.204-.374-.136-.27-.53-.53-.755-.733-.502-.457-1.216-.651-1.878-.651" fill="#e6cf95"/><path d="M8.373 15.586c-.616.865-1.988 1.565-3.052 1.209-.628-.21-.994-.748-.994-1.423 0-.31.018-.606.19-.872.185-.286.488-.428.706-.679 0 .628.072 1.88.812 2.126.826.275 1.62.112 2.338-.361" fill="#f2efdb"/><path d="M6.445 13.902l-.896-.299c.118.277.712.3.896.3" fill="#e6cf95"/><path d="M9.106 15.043a4.542 4.542 0 00-.4 1.308c-.074.517-.46.879-.946 1.041-.876.292-2.047-.035-2.754-.584 1.612.83 3.15-.656 4.1-1.765" fill="#fafafa"/><path d="M5.712 14.065c.24.554.56 1.177 1.086 1.52l-.681-.093c-.175-.025-.174-.15-.276-.286-.213-.284-.237-.818-.13-1.14M5.902 14.147c.482.351.787 1.357 1.439 1.357l-.706-.678c-.22-.211-.468-.541-.733-.679M6.2 14.228l.915.827c.32.289.4.457.823.422l-1.737-1.249" fill="#f2efdb"/><path d="M5.033 14.011c0 .453.03.84.244 1.249.264.506.722.64 1.25.733-.389-.006-.99-.206-1.217-.532-.352-.503-.315-.861-.277-1.45" fill="#e6cc99"/><path d="M5.033 14.011c-.42.74-.347 1.515.407 1.955-.387-.118-.717-.403-.806-.803-.099-.449.268-.779.4-1.152" fill="#e6cc99"/><path d="M8.508 16.78c.212-.097.198-.452.245-.651.087-.377.232-.724.353-1.086a9.722 9.722 0 01-1.792 1.629c.287-.226.63-.544.996-.618.319-.064.279.559.198.726" fill="#f2efdb"/><path d="M7.26 16.807c-.63.264-1.66.372-2.254 0 .371.272.59.362 1.055.405.408.037.85-.23 1.198-.405" fill="#fafafa"/><path d="M5.223 13.821c-.012.459.077.898.233 1.326.18.495.49.704.989.819-1.064-.397-1.092-1.402-.95-2.39l-.272.245M7.992 16.074c.275-.28.52-.605.787-.896-.41.02-.534.701-.787.896" fill="#661a00"/><path d="M6.88 14.201c-.33-.138-1.108-.445-1.385-.108.007-.099-.03-.38.081-.38.134 0 .292.074.426.1.375.076.563.158.877.388" fill="#ff8099"/><path d="M5.712 12.328c.483-.301.813-1.147.966-1.667.103-.35.19-.698.228-1.062.027-.256.116-.69 0-.91-.16.224-.177.764-.543.815-.38.053-.508-.47-.55-.742-.039-.262-.1-1.044-.435-1.111-.441-.088-.598.608-.665.92-.182.85-.433 1.74-.304 2.617.057.394.154.845.407 1.167.11.14.302.308.497.23.111-.045.407-.176.399-.257M4.029 12.41c-.302-.922-.61-1.762-.557-2.756.025-.474.214-.956.136-1.423-.088-.53-.738-.454-1.034-.12-.559.627-.694 1.833-.479 2.641.127.475.29.872.685 1.182.15.12 1.261.598 1.249.475M6.608 12.138c1.122-.363 2.12-1.365 2.653-2.379.119-.225.53-1.512.089-1.558-.447-.047-.675 1.026-1.032 1.14.01-.235-.2-.925-.543-.76-.28.135-.322.928-.367 1.198-.076.457-.188.9-.279 1.353-.055.277-.313.815-.521 1.006" fill="#e6e6e6"/><path d="M7.096 11.84c.383-.2.742-.67 1.005-1.005.305-.389.664-.862.792-1.348.134-.51.232-1.005.144-1.533-.062-.37-.238-1.107-.664-1.219.706.71.622 1.845.41 2.727-.116.487-.459.943-.731 1.352-.16.238-.782 1.054-.956 1.025" fill="#b8b8b8"/><path d="M7.612 10.862c.217-.212.284-.693.353-.977.088-.362.149-.722.166-1.094.04-.876-.144-1.61-.492-2.409.108.335.32.64.423.988.132.447.175.865.175 1.33 0 .395-.098.785-.2 1.163-.064.236-.263.973-.425.999M6.282 11.568c-.097.3-.505 1.032-.88 1.032-.582 0-.732-.545-.94-1.005.164.297.442.679.829.679.41 0 .838-.334.99-.706M2.074 10.998l.712.254c.204.073.308.355.482.479.184.13.303.152.435.298.12.134.217.287.353.407l-.28-.711c-.067-.17-.446.008-.549-.12-.164-.206-.241-.374-.496-.433-.21-.05-.473-.07-.657-.174" fill="#b8b8b8"/><path d="M4.653 12.49c-.252.749-1.3.037-1.656-.217.442.37 1.383 1.268 1.656.218" fill="#802600"/><path d="M3.323 12.49c-.25-.018-.69-.405-.83-.602-.25-.349-.442-.692-.555-1.108-.217-.795-.068-1.625.176-2.398.243-.769.52-1.455.964-2.122.177-.264.232-.59.38-.883.178-.35.472-.612.76-.868-.693.144-.916 1.185-1.262 1.67-.498.696-.876 1.528-1.134 2.34-.227.713-.37 1.651-.065 2.364.26.604.897 1.526 1.566 1.608" fill="#b39940"/><path d="M3.676 12.79c-.406.116-.893-.144-1.276-.272.316.132.943.617 1.276.271" fill="#661a00"/><path d="M5.929 11.893c.178-.357.208-.838.273-1.23.076-.458.113-.907.132-1.371.036-.894-.032-1.75-.133-2.638.253.758.295 1.744.263 2.538-.038.936-.24 1.815-.535 2.701M12.336 12.654c.927.579 1.919.574 2.97.457a2.79 2.79 0 001.374-.512c.34-.24.958-.642 1.086-1.059-.217-.025-.411.157-.582.27-.213.143-.473.191-.718.252-.482.12-1.04.157-1.537.157-.474 0-.95.027-1.425.027-.158 0-1.624.098-1.168.408" fill="#b8b8b8"/><path d="M11.712 9.857c.03.027.056.006.054.055-.196.016-.392-.055-.59-.055-.063 0-.224-.078-.224.014 0 .114.022.23.04.342.087.52.276.962.52 1.425.479.902 1.566 1.386 2.562 1.341 2.033-.09 2.982-2.58 4.235-3.828.036-.035.035-.045.055-.081-.451.345-.96.905-1.494 1.086-.499.17-1.108.208-1.629.299-1.276.222-2.352-.145-3.53-.598" fill="#661a00"/><path d="M12.2 10.264c.743.29 1.586.457 2.38.4.826-.059 1.615-.222 2.426-.372.013.477-.697.894-1.054 1.092-.493.273-1.089.352-1.638.425-.595.08-1.175 0-1.72-.239-.528-.231-.825-.75-1.1-1.224.229.024.454-.08.272-.326.12.063.412.2.434.244" fill="#e6cf95"/><path d="M11.495 10.346c.336.833.971 1.496 1.905 1.612a4.761 4.761 0 002.791-.5c-.254.37-.658.954-1.094 1.128-.583.234-1.19.32-1.808.217-.638-.106-1.142-.535-1.541-1.022-.409-.5-.49-.954-.66-1.544l.407.109" fill="#f2efdb"/><path d="M12.553 11.54c-.495-.317-.866-.617-1.059-1.194.242.033.34-.104.272-.326.373.212.824.293 1.222.462-.228-.18-.857-.31-1.086-.082-.307.306.468.957.651 1.14" fill="#ff8099"/><path d="M17.087 10.156l-.054.38.869-.978c-.17.135-.638.634-.815.598" fill="#ffd9cc"/><path d="M12.2 10.265c1.156.621 2.319.695 3.584.407-1.086.656-2.714.17-3.774-.272.076-.047.19-.119.19-.135" fill="#f2efdb"/><path d="M12.092 10.536c.403.425 1.118.57 1.673.634.705.083 1.315-.037 1.992-.227-.597.194-1.207.374-1.846.353-.597-.02-1.482-.214-1.819-.76" fill="#f2efdb"/><path d="M11.82 10.509c.711.922 1.837 1.16 2.933 1.004-.271-.003-.533.082-.808.082-.288 0-.54-.013-.821-.082-.62-.15-.983-.47-1.303-1.004M16.49 10.889c.074-.036.304-.247.271-.353-.043-.143-.284-.078-.407-.027.227.016.281.376.136.38" fill="#f2efdb"/><path d="M11.088 10.21c.188.854.922 1.582 1.654 1.985.816.449 1.702.252 2.554.051-.743.61-1.8.81-2.67.347-.492-.263-.843-.627-1.131-1.107-.248-.412-.286-.836-.407-1.276" fill="#e6cc99"/><path d="M16.3 11.296c-.33.83-1.31 1.361-2.117 1.547.395-.217.79-.42 1.172-.664.32-.204.8-.525.945-.883" fill="#fbf9f3"/><path d="M11.414 10.318c.177-.31 0-.445-.272-.19.083.067.228.19.272.19" fill="#e6cc99"/><path d="M7.178 12.41c-.158.285-.617.72-.055.922-.753-.116-.16-.683.055-.923M5.25 13.387c-.176.052-.514-.19-.244-.38-.089.17.093.416.244.38M6.065 12.898c.335.26.383.514-.136.543.27-.066.522-.402.136-.543" fill="#802600"/><path d="M11.332 14.961c.106.952 1.572 1.441 2.375 1.616.967.21 2.08.224 2.972-.272.423-.236.82-.592 1.27-.76.173-.066 1.289-.433 1.175-.692-.079-.18-1.094.134-1.274.146-.519.035-1.033.044-1.553.044-.413 0-.86.002-1.234-.184-.42-.21-.87-.31-1.32-.435-.85-.236-1.924-.298-2.411.537" fill="#b8b8b8"/><path d="M10.87 12.273c.006.532-.07.999.047 1.53.101.453.29.95.603 1.302.715.805 1.713 1.118 2.771 1.214 1.134.103 1.92-.218 2.83-.855.402-.28.76-.592 1.188-.842.22-.129.433-.23.678-.304.057-.017.597-.115.598-.117h.027c-.386-.045-.668-.071-1.031 0-.375.073-.73.136-1.113.136-.873 0-1.677-.102-2.44-.548-.328-.191-.558-.528-.84-.775a4.723 4.723 0 00-1.023-.693c-.276-.138-.764-.45-1.073-.455-.374-.005-.9.491-1.222.407" fill="#661a00"/><path d="M12.418 12.165c-.252-.007-.787-.134-.787.285 0 .357.43.688.638.937.498.598 1.223 1.052 1.907 1.395.613.307 1.706.484 2.38.334.761-.17 1.487-.534 2.188-.86-1.073.2-2.376.325-3.422-.093-.282-.113-.558-.257-.759-.491-.197-.23-.365-.512-.597-.706a3.207 3.207 0 00-.704-.46c-.235-.104-.68-.19-.844-.34" fill="#e6cf95"/><path d="M11.44 12.545c.71.907 1.45 1.758 2.498 2.28.995.496 2.415.576 3.448.163-.188.251-.554.419-.787.652-.278.279-.76.448-1.14.516-.81.144-1.794.005-2.552-.299-.782-.312-1.482-.945-1.712-1.788-.128-.467-.16-.914-.188-1.396-.009-.152.097-.268.243-.264.116.004.229.112.19.136" fill="#e6e6e6"/><path d="M15.811 15.233c-.514.574-1.51.719-2.226.814.767.086 1.47.103 2.231-.05.336-.067.651-.258.92-.46.198-.149.528-.351.65-.549-.286.327-1.166.286-1.575.245" fill="#fbf9f3"/><path d="M12.5 12.328c1.046.494 1.757 1.928 2.986 1.928-1.209-.277-1.714-1.745-2.987-1.928M12.065 12.328c.653.457 1.481.852 1.928 1.52l-.95-.76c-.287-.229-.638-.629-.978-.76M11.902 12.437c.28.37.72.74 1.086 1.031.355.284.811.428 1.167.706-.962-.327-1.757-.864-2.253-1.737M15.404 14.934l.95-.353c-.238.136-.682.56-.95.353M16.626 14.961l.624-.434c-.131.263-.268.562-.624.434" fill="#f2efdb"/><path d="M11.278 12.572c-.003.606.24 1.49.641 1.952.25.288.516.628.866.795.397.189.75.28 1.18.375-.647-.035-1.348-.584-1.753-1.051-.523-.604-.745-1.311-.934-2.07" fill="#e6cc99"/><path d="M12.69 15.531c-.47-.084-1-.844-1.188-1.246-.297-.635-.336-1.183-.306-1.876-.296.572-.159 1.35.098 1.901.133.285.33.51.568.706.16.132.697.578.827.515" fill="#e6cc99"/><path d="M12.553 12.03c-.07-.076-.258-.367-.353-.38-.081-.013-.36.27-.434.325.207.021.64.134.787.054" fill="#661a00"/><path d="M12.69 12.246c-.481-.139-.935-.383-1.087.299.077-.153.257-.257.423-.313.225-.075.503.054.663.014" fill="#ff8099"/><path d="M11.739 12.952c-.077-.213-.307-.621-.584-.53-.272.092-.174.619-.149.829-.018-.187.032-.519.244-.57.156-.038.495.223.489.271" fill="#b39940"/><path d="M18.825 14.174c-.363.355-1.23.609-1.727.774-.499.167-1.09.296-1.612.149.316.006.71-.17 1.003-.287.217-.087.855-.256.327-.419.561 0 1.565.128 2.01-.217" fill="#ff8099"/><path d="M15.865 14.934l.733-.163c-.288.137-.436.27-.733.163M16.463 15.043l.434-.353c-.1.187-.197.482-.434.353M17.55 14.771l.76-.353c-.295.083-.527.094-.76.353" fill="#f2efdb"/><path d="M13.232 15.559c-.585-.068-1.214-.875-1.547-1.303-.028.322.27.66.494.856.209.183.807.547 1.053.447M12.255 13.332c.628.591 1.312 1.243 2.145 1.52-.398-.188-.774-.46-1.14-.705-.342-.229-.658-.637-1.005-.815" fill="#fbf9f3"/></svg>