<svg xmlns="http://www.w3.org/2000/svg" width="20" height="20"><defs><filter id="c" color-interpolation-filters="sRGB"><feGaussianBlur stdDeviation=".68"/></filter><filter id="b" color-interpolation-filters="sRGB"><feGaussianBlur stdDeviation="1.596"/></filter><filter id="d" color-interpolation-filters="sRGB"><feGaussianBlur stdDeviation="2.546"/></filter><filter id="h" color-interpolation-filters="sRGB"><feGaussianBlur stdDeviation=".9"/></filter><filter id="g" color-interpolation-filters="sRGB"><feGaussianBlur stdDeviation=".9"/></filter><filter id="f" color-interpolation-filters="sRGB"><feGaussianBlur stdDeviation=".9"/></filter><filter id="e" color-interpolation-filters="sRGB"><feGaussianBlur stdDeviation=".9"/></filter><filter id="k" color-interpolation-filters="sRGB"><feGaussianBlur stdDeviation=".9"/></filter><filter id="j" color-interpolation-filters="sRGB"><feGaussianBlur stdDeviation=".9"/></filter><filter id="i" color-interpolation-filters="sRGB"><feGaussianBlur stdDeviation=".9"/></filter><filter id="a" color-interpolation-filters="sRGB"><feGaussianBlur stdDeviation="6.751"/></filter></defs><path d="M136.32 846.19c-6.422.333-12.727 4.136-15.982 9.676-1.8 2.816-.018 6.21-.67 9.241 2.27 4.42 3.365 9.415 3.208 14.442-.07 1.155.215 2.377-.964 2.824-1.442 2.928-3.645 5.887-7.087 6.563-2.387.655-4.96 1.003-7.132 2.321.91-4.14 3.364-8.06 6.64-10.658-.294 1.915-1.644 3.53-1.964 5.402 2.707.997 7.026-.222 7.322-3.639.554-4.287-3.338-8.238-7.389-8.872-4.465-.298-9.084.496-13.17 2.354-5.589 2.978-7.2 10.048-6.194 15.893 1.37 8.19 7.86 15.632 16.295 16.653 2.043.69 2.771 3.327 3.203 5.2-.459 1.269-2.529.56-3.481.39-9.047-2.874-17.174-8.085-25.782-12.075-8.204-.154-16.681 1.197-23.951 5.09-1.427.44-1.93 2.586-.179 2.935 3.532.865 7.217 1.145 10.837 1.25 2.212.083 4.533-.8 6.652-.369-.14 1.438-1.903 2.351-1.82 3.795.554 1.827 6.027 6.682.976 2.634-7.213-4.711-16.639-8.395-25.063-4.711-3.863 1.417-6.738 4.735-7.66 8.735-4.059 13.44.982 27.976 9.23 38.749 4.396 5.734 9.422 11.198 15.911 14.56 8.737 6.595 12.695 18.136 22.277 23.873 2.842 1.598 6.339 1.485 9.465 1.305 5.346-5.669 7.074-13.789 12.199-19.554 3.056-3.096 7.734-2.52 11.64-2.053 4.274-.784 8.997-1.393 12.97.86 7.327 4.03 9.799 12.91 10.785 20.677.94 5.374-.177 11.398 3.188 16.131 5.22 7.252 14.618 10.126 23.203 10.52 6.18.118 13.451.121 17.97-4.784 4.469-5.343 4.584-12.885 3.626-19.452-1.02-9.102-.91-18.36-1.953-27.49 9.251 5.683 16.594 14.131 21.775 23.672 3.318 5.91 5.308 12.494 6.172 19.22 1.413 7.98 9.822 12.828 17.522 12.567 5.5-.038 10.972-1.3 16.161-2.97 6.77-2.594 11.676-9.057 12.655-16.198 1.06-4.588.727-9.608 2.78-13.901 1.373-1.522 3.8-.062 5.387.38 13.008 5.435 24.61 14.954 38.932 17.03 3.367.348 7.223 1.211 10.056-1.238 5.214-3.455 8.94-8.995 9.956-15.223 1.45-8.12-.079-16.83-4.13-23.973-1.267-2.601-4.335-3.55-5.77-5.927-1.278-2.302.073-5.96-2.824-7.232-6.737-5.153-7.754-13.996-10.67-21.406-1.7-4.775-4.637-9.232-9.134-11.779-5.18-4.485-10.692-8.859-17.307-11.008-10.193-3.72-21.228-3.555-31.94-3.486-4.336-2.227-9.177-4.883-14.208-4.084-2.53.787-3.038 4.612-1.272 6.305 3.854 1.33 8.912.173 11.696 3.817 1.304 1.805 2.43 3.932 2.567 6.183-2.187-2.533-4.015-5.342-5.726-8.17-.456-.795-1.66-.325-1.328.503-2.71-2.348-6.862-2.048-9.442.346-2.8 1.47-5.53 3.726-8.772 3.917-1.46-.743-.625-3.047-.692-4.341.748-7.052 3.754-14.667.424-21.484-2.177-4.533-7.367-6.229-11.975-6.875-15.703-5.061-31.443-10.45-46.272-17.69-5.574-2.987-11.628-6.27-14.866-11.908-2.176-6.387-7.126-12.658-14.297-13.337-.86-.136-1.74-.148-2.612-.123z" fill="#21160a" filter="url(#a)" transform="matrix(.04669 0 0 .04669 2.928 -34.964)"/><path d="M3.204 15.399c-.837-.308-1.407-1.142-2.363-1.157-.847-.375-.423-1.543.468-1.302.569.269 1.49-.302.692-.74-.727-.393-.7-1.65.24-1.691-.82-.525.337-1.278.954-.88.597-.027 1.244.059 1.864.129-.504-.679-1.02-1.817-.201-2.47.585-.538 1.53-.6 2.15-.3-.559-.633.06-1.552.826-1.557C7.841 4.59 9 3.78 9.66 4.487c.215.873 1.083.838 1.72 1.258.72.432 1.789.308 2.144 1.216.462.31 1.562.29 2.335.497.952.234 1.419 1.084 1.79 1.913.51.693 1.135 1.817.442 2.592-.715.787-1.811-.243-2.555-.522-.739-.122.264.862-.962 1.392-.835.413-1.868-.005-1.78-1.028-.106-.389-.775-1.257-.932-1.157.32.69.079 1.83-.658 2.208-.724-.036-1.81-.167-1.837-1.13.357-.988-.78-1.428-1.548-1.054-.054.407-.427 1.274-.924.835.402.746-.3 1.56-.536 2.237-.532.611-1.273.969-1.889 1.473a1.986 1.986 0 01-1.266.182zm1.13-.226c.638-.534 1.434-.918 1.923-1.602.442-.135.253-1.005-.226-.645-.418-.179-1.548.034-1.507-.163.818-.01 2.218.394 2.228-.892.15-.563-.646-1.161-1.067-1.586-.735-.696-1.805-.429-2.658-.59-.655-.25-1.393.498-.545.736.04.733-.807-.049-.845.716-.164.374.465 1.187.055.526.332.076 1.227 1.192.428 1.396-.544-.01-1.737-.129-1.59.747.393.174 1.51.61 2.823 1.482.33.01.673.01.98-.125zM2.771 15c-.102-.218.378.323 0 0zm-.578-5.155c.357-.36-.223.324 0 0zm12.024 2.962c1.32-.18.692-1.582 1.14-1.515.504.077 1.394.924 2.29.861.706-.303.724-1.154.465-1.76-.2-.417-.398-.181-.375-.658-.662-.368-.335-1.27-1.05-1.624-.615-.653-1.488-.683-2.252-.649-.184-.13-.876-.427-.711.058.315.08.518-.07.693.43.056.453-.336-.709-.808-.25-1.202.765.44-1.25-1.002-1.354-.861-.307-2.725-.877-2.87-1.45-.245-.754-1.125-.724-1.496-.095-.035.269.063.326-.016.379.265.35.142 1.085.126.791-.183.519-.583.293-.72.5-.052-.313.615-.97.265-.317.545.071.297-.714-.293-.53-1.033.049-.67 1.566.173 1.559.458.655-.375.226-1.2-.218-.39-.168-1.876.34-.901.328.304.125.734-.193.472.183-.181-.048.696.61.882.84.248.221.504.628.064.177-.518-.597-1.61-1.606-2.347-.894-.463.918.156 1.994.882 2.576.686.246.838 1.416 1.646 1.277.4-.358.332-1.209 1.12-1.002.154-.044.29-.055.407-.039.598.08.76.84.766 1.431-.02.707 1.084.999 1.744.799.552-.154.468-1.025.378-1.17.014-.589-.037-.959-.061-1.216.823.467 1.332 1.45 1.352 2.029.105.558.776.686 1.237.523zM7.307 7.334c.104-.23.173.081 0 0zm6.822.333c-.17-.167.13.3 0 0z" fill="#623d21"/><path d="M8.993 4.31a.945.945 0 00-.746.452c-.084.131-.001.29-.032.431.106.206.158.44.15.674-.003.054.01.111-.045.132-.067.137-.17.275-.33.307-.112.03-.232.046-.334.108a.894.894 0 01.31-.498c-.013.09-.076.165-.091.253.126.046.328-.01.342-.17.025-.2-.156-.385-.345-.415a1.292 1.292 0 00-.615.11c-.261.14-.336.47-.29.742.064.383.367.73.761.778.096.032.13.155.15.243-.022.059-.118.026-.163.018-.422-.134-.802-.378-1.203-.564-.383-.007-.78.056-1.119.238-.066.02-.09.12-.008.137.165.04.337.053.506.058.103.004.212-.037.31-.017-.006.067-.088.11-.084.177.025.085.28.312.045.123-.337-.22-.777-.392-1.17-.22a.571.571 0 00-.358.408c-.19.628.046 1.306.431 1.81.205.267.44.522.743.679.408.308.593.847 1.04 1.115.133.074.296.069.442.06.25-.264.33-.643.57-.912.142-.145.36-.118.543-.096.2-.037.42-.065.606.04.342.188.457.603.503.965.044.251-.008.532.15.753.243.339.682.473 1.082.491.289.006.628.006.84-.223.208-.25.213-.601.169-.908-.048-.425-.043-.857-.091-1.284.431.266.774.66 1.016 1.106.155.276.248.583.288.897.066.373.459.599.818.587.257-.002.513-.06.755-.139a.958.958 0 00.59-.756c.05-.214.035-.449.13-.65.065-.07.178-.002.252.019.607.253 1.15.698 1.818.795.157.016.337.056.47-.058.243-.161.417-.42.464-.71a1.698 1.698 0 00-.193-1.12c-.059-.122-.202-.166-.27-.277-.059-.107.004-.278-.13-.338-.315-.24-.363-.653-.5-.999-.078-.223-.216-.431-.426-.55-.241-.21-.499-.413-.808-.514-.476-.174-.99-.166-1.49-.163-.203-.104-.43-.228-.664-.19-.118.036-.142.215-.06.294.18.062.416.008.546.178a.57.57 0 01.12.289 2.78 2.78 0 01-.267-.381c-.021-.038-.078-.016-.062.023a.334.334 0 00-.44.016c-.132.069-.26.174-.41.183-.069-.035-.03-.142-.033-.203.035-.329.176-.684.02-1.003-.102-.211-.344-.29-.559-.32-.733-.237-1.468-.489-2.16-.827-.26-.14-.543-.292-.695-.556-.101-.298-.332-.59-.667-.622a.661.661 0 00-.122-.006z" fill="#9d6a30"/><path d="M2.711 9.623c-.252.012-.518.148-.621.387-.062.2.132.363.305.414.109.003.053.116.043.183-.016.1-.117.145-.21.139-.17.026-.38-.026-.518.102-.1.138-.107.323-.12.488.016.128.029.28.129.37.297.175.527.462.65.783.068.161.068.388-.104.485-.167.108-.383.046-.573.065-.337.01-.716-.007-.998.21a.49.49 0 00-.194.396c-.005.078-.028.193.076.214.888.386 1.764.812 2.577 1.342.096.06.185.146.307.118.35.002.745.01 1.023-.234.43-.33.895-.616 1.302-.975.18-.157.335-.338.5-.51.124-.078.236-.196.24-.352.018-.165-.047-.375-.222-.424-.102-.02-.192.035-.283.067a1.572 1.572 0 00-.364-.057c.351.004.757-.072.968-.382.159-.238.161-.54.16-.816-.048-.331-.306-.58-.519-.819-.27-.263-.523-.555-.842-.76-.435-.272-.962-.294-1.46-.317-.366-.014-.734-.022-1.091-.107a.828.828 0 00-.16-.01zM4.61 12.79c.177.004.353.02.53.031-.19-.007-.387.015-.57-.029.013-.002.027-.001.04-.002z" fill="#caa230"/><path d="M6.946 8.422c-.498-.517-.729-.803-1.033-.95-.305-.148-.738-.37-1.024-.13-.286.24-.443.499-.388.85.056.35.37 1.152.563 1.364.194.212.894 1.08 1.254 1.218.36.138.297.357.435.55.139.194.71.16.727-.034.019-.194.126-.246.135-.504.009-.258.04-.538.087-.649.046-.11.348-.322.228-.59-.12-.267-.984-1.125-.984-1.125z" fill="#8d5d37"/><path d="M6.872 8.508c-.45-.467-.66-.725-.934-.859-.275-.133-.667-.333-.926-.116-.258.216-.4.45-.35.767.05.317.334 1.042.509 1.234.175.191.884.975 1.209 1.1.325.125.442.225.567.4.125.175.392.242.408.067.017-.175 0-.275.009-.509.008-.233.15-.433.191-.533.042-.1.217-.284.109-.525-.109-.242-.792-1.026-.792-1.026z" fill="#d2b74c"/><path d="M185.24 927.52c25.417 8.177 46.836 27.841 77.529 13.89 2.551-1.16 11.385-4.377 12.122-7.324 2.091-8.365 1.765-22.475-13.385-17.425-16.415 5.472-48.425 14.941-64.397 4.294-19.057-12.705-22.302-49.541-52.78-41.921-11.541 2.885-6.326 25.639-15.657 30.305-1.077.538-6.645 14.123-21.133 12.256-14.666-1.89-38.266-19.215-41.431-15.68-3.175 3.546 28.39 27.893 35.29 30.193 18.586 6.195 61.402-14.197 83.843-8.587z" fill="#c09550" filter="url(#b)" transform="matrix(.04669 0 0 .04669 2.928 -34.964)"/><g transform="matrix(.04669 0 0 .04669 -7.477 -16.823)" fill="none" filter="url(#c)" opacity=".363" stroke="#663001" stroke-width="1.8"><path d="M338.91 519.51c14.788 6.64 13.033 23.697 20.203 34.85M341.68 504.35c20.236 13.439 37.853 27.896 46.972 48.74M355.32 496.78c23.206 15.966 60.669 27.672 55.306 59.852M363.4 484.4c12.421 13.067 32.728 18.146 46.214 27.779M420.22 520.52c-6.781 2.015-8.285 9.53-7.576 15.91M443.2 524.3c-9.612 12.353-21.971 25.195-21.971 41.669M452.3 529.86c-2.065 13.314-5.722 28.468.253 41.164M463.91 532.89c12.748 13.319 17.732 29.28 19.698 46.972M481.59 524.56c14.872 10.36 29.568 24.195 32.83 42.679M443.96 594.51c15.248-2.958 25.174-2.1 35.86 8.586M468.71 607.39c-9.879 2.246-15.931 6.131-20.203 14.142M384.11 618.5c-3.154-5.263-8.92-7.734-14.395-9.344M369.97 565.72c-3.109 5.212-5.702 9.332-7.071 15.152"/></g><path d="M2.433 10.475c-.136.497.082.683.313 1.067.752 1.253 1.754 1.025 3.024 1.279.473.095 1.07-.372.984-.89-.02-.122-.193-.338-.13-.466.037-.073.192.056.207.1.242.724-.049 1.686-1.12 1.533-.166-.024-.296-.167-.46-.194-.663-.11-1.263.173-1.833-.207-.513-.342-.738-.905-1.038-1.415-.18-.265-.063-.716.053-.807z" fill="#864211"/><path d="M6.507 12.966c-.05.086-.432.588-.625.684-.172.086-.233.303-.419.378-.195.078-.567.017-.778.017-.754 0-1.267.143-1.827-.418-.378-.378-.159-1.096-.466-1.403-.221-.221-.543-.343-.69-.637-.006-.012.038-1.051-.141-.513-.256.766.42.88.697 1.26.204.28.019 1.646 1.584 1.959.41.082.814-.13 1.209-.065.09.015.281.125.377.077.274-.137.577-.315.79-.513.53-.493.289-1.215.289-.826z" fill="#864211"/><path d="M5.575 14.255c-.075.245-.414.196-.607.324-.59.394-.898.714-1.704.613-.58-.072-.744-.672-1.096-.79-.55-.183-1.9-.517-1.562-1.19.122-.245.53-.204.928-.19.289.01.579-.013.716-.082.073-.036-.332-.003-.769-.003-.667 0-.87.003-1.146.558-.12.239.358.632.512.748.306.23.748.198 1.103.286.524.131 1.085 1.57 2.429.675.442-.295.756-.566 1.202-.79.097-.048.17-.294-.006-.159z" fill="#864211"/><g transform="matrix(.04669 0 0 .04669 -7.477 -16.823)" fill="#c09550" filter="url(#d)"><path d="M388.15 574.56c-27.509-11.695-.457 41.771 6.313 38.386 15.41-7.705 1.63-34.351-7.828-39.396M453.21 593.43c-11.806 1.999.902 31.472 9.821 30.357 4.96-.62 10.903-24.097 8.572-26.429-3.863-3.863-12.733-2.93-18.393-3.929zM533.57 575.93c-67.348 11.808 38.763 38.763 0 0zM323.57 486.65c-17.797 17.059 18 21.273 0 0zM359.29 457.36c-35.434.45-13.493 35.981 0 0zM432.86 501.65c-25.81.827 20.011 20.011 0 0z"/></g><path d="M107.5 974.86c4.021-2.696 10.599-1.229 14.098-1.131 9.844.274 14.53 7.168 17.847 14.992 5.221 12.317 1.784 22.925 6.627 22.925 6.252 0 17.319-71.651-27.857-60.357-10.753 2.688-11.31 12.842-10.714 23.57z" fill="#7e4a23" filter="url(#e)" transform="matrix(.04669 0 0 .04669 2.928 -34.964)"/><path d="M191.07 1007.9c-3.054 5.763-5.444 13.537-5.444 3.597 0-10.27-18.115-38.628-9.913-50.931 16.993-25.49 55.24 35.474 40 50.714-1.977 1.977-8.19-19.594-9.643-22.5-1.298-2.597-16.786-16.671-16.786-14.643 0 11.707 6.406 25.1 1.786 33.763z" fill="#7e4a23" filter="url(#f)" transform="matrix(.04669 0 0 .04669 2.928 -34.964)"/><path d="M258.21 1017c-9.658-6.614-2.857-16.832-2.857-26.071 0-49.937 43.765 9.958 41.429 12.143-5.491 5.134-10.152-7.162-30.715-11.426-3.958-.82.588 7.26-7.856 25.355z" fill="#7e4a23" filter="url(#g)" transform="matrix(.04669 0 0 .04669 2.928 -34.964)"/><path d="M307.14 938.43c13.711 23.318 31.61 46.253 18.571 64.286-3.385-21.715-18.879-70.868-45-83.929-25.734-12.867-42.275 2.368-61.429.714-4.696-4.696 14.707-8.776 17.844-14.78 24.862-2.385 65.511 8.194 70.013 33.71z" fill="#7e4a23" filter="url(#h)" transform="matrix(.04669 0 0 .04669 2.928 -34.964)"/><path d="M214.64 883.43c-10.669-1.056-14.931 16.284-21.071 13.214-7.207-3.603-2.168-12.168-6.429-16.429-5.343-5.344-15.824-7.253-21.429-12.857-2.551-2.551-16.493-7.468-21.429-5-1.241.62-2.59 3.125-3.571 2.143-1.55-1.55 2.171-14.314 2.857-15 .152-.152 2.936 5.494 7.855 9.288 3.46 2.669 9.418 3.7 10.002 4.283 6.633 6.633 40.88 17.89 53.214 20.357z" fill="#7e4a23" filter="url(#i)" transform="matrix(.04669 0 0 .04669 2.928 -34.964)"/><path d="M136.43 868.79c-6.73 3.242-24.276-9.295-30-3.571-1.846 1.846 3.972 7.543 4.286 7.857 3.774 3.774-3.742 10.544-.715 13.57 2.056 2.056 7.907 7.143 5 7.143-1.064 0 1.429-1.792 1.429-2.857 0-12.42 14.342-12.714 20-22.143z" fill="#7e4a23" filter="url(#j)" transform="matrix(.04669 0 0 .04669 2.928 -34.964)"/><path d="M85 886.65c.258-.57 5.018-3.554 6.429-2.143 6.433 6.434 24.253 17.987 22.143 26.43-.758 3.03-4.352 2.922-5.715 4.285-6.13 6.13-9.508-1.652-12.857-5-3.413-3.413-11.429-1.304-11.429-7.857 0-2.384 18.997 4.71 17.143 2.857-6.308-6.309-19.109-4.995-15.714-18.571z" fill="#7e4a23" filter="url(#k)" transform="matrix(.04669 0 0 .04669 2.928 -34.964)"/></svg>