<svg xmlns="http://www.w3.org/2000/svg" width="20" height="20" viewBox="0 0 5.292 5.292"><path d="M1.467 2.867s-.29.083-.412.334l.083.05-.204.292.085-.038-.08.178.05-.009s-.107.159-.102.358l.047.003-.041.186.096-.025s-.081.163.035.45c0 0 .174.034.456-.202l-.01.048s.137-.002.287-.171l.056.025s.182-.089.27-.34l.042.047s.142-.101.15-.335l.078.037s.028-.303-.004-.382c0 0 .13.183.207.18 0 0 .319.393.763.41l-.03-.171.437.059-.081-.089h.25l-.047-.085s.288.015.45-.093l-.033-.072.218-.08-.082-.114s.203-.007.46-.366c0 0-.248-.365-.541-.418l.045-.03s-.103-.179-.375-.266l-.009-.08s-.263-.194-.57-.1l.02-.096s-.28-.111-.448.06l-.008-.137s-.336.15-.444.28c0 0-.008-.61-.075-.677l-.109.08s0-.265-.236-.44l-.062.088S1.964.904 1.631.78l-.072.05S1.416.656 1.155.655l.02.075S.933.497.53.514c0 0-.112.29.015.618l-.144-.007.102.26h-.07s-.021.154.197.454l-.083.003.148.22-.113-.024s.215.258.324.336l-.122.1s.197.315.683.393z" fill="#7dbe26"/><path d="M.697.549s.137.036.125.418L.794.935S.821.675.697.55zM.503.84s.204.227.34.232l.034.035S.674 1.13.503.84zM.926.607s.306.372.092.636l-.021-.025S1.15 1.034.926.607zM.545 1.132s.332.239.508.22l.045.048s-.355.007-.553-.268zM1.175.73s.41.47.154.929l-.026-.026s.21-.454-.128-.903zM.503 1.385s.577.39.806.296c.049.058.014.014.042.05 0 0-.53.001-.848-.346zM1.559.83s.365.436-.046 1.047l-.02-.029s.315-.505.066-1.018zM.494 1.586s.474.34 1.018.367l.053.028s-.488.064-1.071-.395zM1.861.951s.282.393-.187 1.116l-.026-.038s.393-.521.213-1.078z" fill="#659e36"/><path d="M.63 1.84s.474.404 1.08.337l-.02-.03s-.511.025-1.06-.308zM.695 2.061s.518.3.879.317l.023.07s-.34-.01-.902-.387zM.906 2.374s.51.292.764.257l.027.066s-.381.017-.791-.323zM2.05 1.216s.247.416-.092 1.01l-.057-.001s.34-.443.148-1.009zM2.347 1.568s.128.394-.155.907l-.035-.077s.216-.218.19-.83z" fill="#649d36"/><path d="M1.77 2.262l-.636-.772S.554.668.53.514c0 0 .502.786.708 1.017.206.231.567.674.567.674z" fill="#649d36"/><path d="M2.206 2.64s.328-.557.777-.617c0 0-.405.095-.748.638z" fill="#659c3d"/><path d="M2.552 2.752s.215-.744.859-.695c0 0-.434-.078-.86.695z" fill="#639d2f"/><path d="M2.936 2.75s.112-.606.83-.679c0 0-.594.134-.83.678zM3.234 2.722s.215-.568.756-.484c0 0-.414-.04-.756.484zM3.509 2.751s.23-.412.81-.217c0 0-.494-.1-.81.217zM4.058 2.807s.278-.218.574-.087c0 0-.307-.048-.51.088zM4.229 2.845s.258.194.527.205c0 0-.21.083-.571-.206zM3.671 2.796l-.052-.001s.285.422.782.523c0 0-.452-.165-.73-.522zM3.152 2.788l-.046-.002s.351.718 1.192.798c0 0-.83-.188-1.146-.796zM2.662 2.812l.061-.008s.14.575 1.09.94c0 0-.887-.191-1.15-.932zM2.37 2.931l-.041.016s.146.564.588.9c0 0-.447-.476-.546-.916z" fill="#659c3d"/><path d="M2.496 2.763l-.018.078s.926-.176 2.383.11c0 0-1.248-.33-2.365-.188z" fill="#639d2f"/><path d="M2.12 2.794s.226.403.162.92c0 0-.038-.65-.192-.908zM1.076 3.168s.508-.358.793-.362l.045.054s-.173-.064-.838.308zM1.93 2.97l-.058.06s.219.348.204.946c0 0 .096-.506-.146-1.006zM1.005 3.485s.533-.51.812-.42c0 0-.438.115-.812.42zM1.013 3.662s.396-.443.65-.368c0 0-.28.05-.65.368zM1.754 3.222s.22.136.012 1.072c0 0 .104-.659-.012-1.072zM1.593 3.518s.111.37-.108.897c0 0 .109-.549.108-.897zM.944 4.006s.269-.414.562-.418l-.014.052s-.26.023-.548.366zM1 4.177s.189-.303.4-.348l-.047.08s-.051-.037-.353.268zM1.33 4.01s.043.139-.084.56c0 0 .073-.417.085-.56z" fill="#629b33"/><path d="M1.05 4.606s.595-1.508.95-1.768l.036.004s-.21.24-.375.599z" fill="#629b33"/><path d="M1.524 2.26s.084-.069.167-.033l-.029-.058s.06 0 .089.028l-.007-.038s.103.011.149.061l-.024-.04.078.035-.023-.039.118.106.007-.06s.164.136.135.25l.016-.04s.044.162.019.203c0 0 .067-.04.118-.034l.003.023s.063-.041.088.016c0 0 .064-.018.047.049 0 0 .084.021.087.063 0 0-.037.087-.076.097l.034.005s-.037.013-.056.013c0 0 .037.028-.054.053 0 0-.076.113-.16.035l-.023-.01s-.064-.035-.093-.132c0 0-.087.058-.197.059 0 0-.099.006-.117-.023l.056-.004s-.114-.046-.125-.069l.027-.023s-.109-.034-.145-.136l.053.017s-.086-.082-.11-.163l.023.002s-.09-.136-.075-.214z" fill="#9bcb51"/><path d="M2.106 2.628h.007s.003-.034-.004-.11a.704.704 0 00-.018-.105.475.475 0 00-.041-.108.426.426 0 01.039.109.657.657 0 01.014.104c.004.076-.003.11-.003.11h.006zM1.98 2.53l.006.001s.007-.025-.003-.092a.487.487 0 00-.086-.21.446.446 0 01.08.21c.007.067-.003.09-.003.09l.006.001zM1.868 2.452h.006s-.001-.025-.013-.08a.62.62 0 00-.058-.152c.01.018.023.043.034.078a.555.555 0 01.017.075c.01.056.007.08.007.08h.007zM1.764 2.385h.006s0-.011-.012-.041a.385.385 0 00-.059-.099c.023.03.043.066.053.101.009.03.006.04.006.04l.006-.001zM1.602 2.472l-.001.007s.023.005.08.007a.665.665 0 00.17-.016.588.588 0 01-.169.01c-.057-.006-.079-.014-.079-.014l-.001.006zM1.68 2.629l-.002.006s.02.01.086.008a.6.6 0 00.231-.061.542.542 0 01-.23.054c-.065-.001-.083-.013-.082-.013l-.002.006zM1.766 2.77v.006s.034.002.116-.013a.646.646 0 00.238-.086.578.578 0 01-.124.054.748.748 0 01-.115.026c-.082.011-.115.006-.115.006v.007z" fill="#649d36"/><path d="M1.528 2.258s.514.254.632.409c0 0-.256-.18-.314-.213a34.828 34.828 0 01-.318-.196z" fill="#649d36"/><path d="M2.179 2.796s.051.087.146.12c.094.034-.082-.027-.146-.12zM2.178 2.775s.23-.063.333-.044c0 0-.31.03-.333.044zM2.294 2.64s-.087.066-.108.106c0 0 .107-.092.108-.106zM2.373 2.64s-.085.064-.105.09l.105-.09zM2.293 2.785s.055.071.12.077c0 0-.072.01-.12-.077z" fill="#cfc349" fill-opacity=".396"/></svg>