<svg xmlns="http://www.w3.org/2000/svg" xmlns:xlink="http://www.w3.org/1999/xlink" width="20" height="20"><symbol id="z" viewBox="-0.033 -4.475 4.572 4.485"><path d="M4.25-1.05c.467-.934.367-1.684-.3-2.25-.767-.667-1.534-1.05-2.3-1.15-.767-.1-1.283.1-1.55.6-.267.467-.133 1.167.4 2.1C1-.817 1.533-.267 2.1-.1c.967.3 1.683-.017 2.15-.95z" clip-rule="evenodd" fill="#ffd670" fill-rule="evenodd"/></symbol><symbol id="y" viewBox="-0.01 -10.103 10.316 10.103"><path d="M3.65-.8C5.483-.133 7 .117 8.2-.05c1.333-.2 2.033-1.1 2.1-2.7.034-.867-.083-1.983-.35-3.35-.033-.667-.883-1.483-2.55-2.45-1.6-1-2.95-1.517-4.05-1.55-1.067-.033-1.917.267-2.55.9-.6.633-.867 1.5-.8 2.6.1 1.6.567 2.95 1.4 4.05.667.9 1.417 1.483 2.25 1.75z" clip-rule="evenodd" fill="#ffe39e" fill-rule="evenodd"/></symbol><symbol id="g" viewBox="0 -19.348 33.831 19.348"><path d="M33.45-2.35L33.3 0c.633-1.567.7-3.383.2-5.45A14.4 14.4 0 0031-10.7c-1.9-2.466-4.367-4.367-7.4-5.7-3.3-1.434-7.733-2.383-13.3-2.85-4.333-.367-7.767.3-10.3 2 1.367-.733 3.033-1.183 5-1.35 1.867-.167 4.25-.05 7.15.35 2.3.3 4.367.683 6.2 1.15 1.3.3 2.617.817 3.95 1.55.7.4 1.583.933 2.65 1.6.966.534 1.55.883 1.75 1.05.066.2.15.433.25.7.2.534.417.934.65 1.2.167.2.683.667 1.55 1.4.867.767 1.383 1.25 1.55 1.45l1.55 1.85c.833 1.2 1.233 2.517 1.2 3.95z" clip-rule="evenodd" fill-rule="evenodd"/></symbol><symbol id="x" viewBox="-0.003 -15.826 16.66 15.836"><path d="M9.85 0c3.367-.3 5.483-1.717 6.35-4.25.733-2.067.583-3.967-.45-5.7-1.3-2.2-2.95-3.816-4.95-4.85-2.566-1.333-5.267-1.367-8.1-.1-1.333.6-2.184 1.867-2.55 3.8-.467 2.4.133 5 1.8 7.8.6 1 1.917 1.85 3.95 2.55 1.733.567 3.05.817 3.95.75z" clip-rule="evenodd" fill="#ffebba" fill-rule="evenodd"/></symbol><symbol id="f" viewBox="0 -1.464 4.75 1.464"><path d="M2.55-.75l-1.8.2A.97.97 0 00.1-.2L0 0c.133-.133.267-.183.4-.15.434.1.85.1 1.25 0 .8-.2 1.283-.367 1.45-.5.333-.267.883-.483 1.65-.65-.267-.2-.6-.217-1-.05a2.07 2.07 0 01-1.2.6z" clip-rule="evenodd" fill="#ffd670" fill-rule="evenodd"/></symbol><symbol id="e" viewBox="0 -2.4 7.1 2.4"><path d="M3.8-1.9a2.36 2.36 0 00-.85.3 3.022 3.022 0 01-1.75.55c-.6 0-.983.1-1.15.3-.1.167-.05.417.15.75.333-.133.566-.15.7-.05h.7c.066 0 .1-.1.1-.3 0-.167.167-.267.5-.3.4-.033.65-.067.75-.1.067-.033.267-.15.6-.35.267-.133.45-.25.55-.35.067-.067.3-.117.7-.15.633-.1 1.4-.367 2.3-.8-1.067.4-1.867.583-2.4.55-.533-.033-.833-.05-.9-.05z" clip-rule="evenodd" fill="#ffe39e" fill-rule="evenodd"/></symbol><symbol id="d" viewBox="0 -3.5 7.25 3.5"><path d="M6.55-2.2c.333-.133.55-.383.65-.75.066-.3.066-.483 0-.55 0 .1-.15.2-.45.3-.4.133-.95.2-1.65.2-.667 0-1.283.083-1.85.25-.633.233-1.133.417-1.5.55-.7.1-1.183.183-1.45.25-.4.133-.4.417 0 .85H.2l1.1.3 1.95.8c.2 0 .417-.067.65-.2.233-.1.333-.216.3-.35 0-.3-.017-.534-.05-.7 0-.033.15-.033.45 0 .467.033.933-.117 1.4-.45l.15-.2c.133-.167.267-.267.4-.3z" clip-rule="evenodd" fill="#ffe5a3" fill-rule="evenodd"/></symbol><symbol id="c" viewBox="0 -22.658 35.206 22.658"><path d="M30.55-8.15c.967.733 1.633 1.45 2 2.15.3.5.45.5.45 0 0-.767.067-1.2.2-1.3.233-.167.466-.034.7.4.267.467.4 1.083.4 1.85 0 .533-.25 1.316-.75 2.35-.533 1-1.133 1.9-1.8 2.7 2.4-1.333 3.55-3.5 3.45-6.5-.1-2.633-1.034-5.133-2.8-7.5-1.9-2.467-4.367-4.367-7.4-5.7-3.3-1.433-7.733-2.383-13.3-2.85-5.267-.467-9.167.583-11.7 3.15 2.6-1.233 5.8-1.7 9.6-1.4 2.566.2 4.683.7 6.35 1.5.9.433 1.867.983 2.9 1.65.867.333 1.933.867 3.2 1.6.267.167.867.3 1.8.4.867.1 1.383.233 1.55.4l.95 1.1c-.3.1-.567.217-.8.35-.533.233-.7.383-.5.45.1.033.3.15.6.35.233.2.567.35 1 .45.567.167.917.333 1.05.5.167.133.25.4.25.8 0 .333-.35.583-1.05.75l-1.05.2 2.25.8c.733.233 1.55.683 2.45 1.35z" clip-rule="evenodd" fill-rule="evenodd"/></symbol><linearGradient id="a" x1="10.747" x2="28.199" y1="-14.75" y2="-14.75" gradientTransform="scale(.8) rotate(72.836 -3.78 16.067)" gradientUnits="userSpaceOnUse"><stop stop-color="#B39345" offset="0"/><stop stop-color="#6E5720" offset="1"/></linearGradient><linearGradient id="b" x1="7.807" x2="12.386" y1="-17.502" y2="-17.502" gradientTransform="scale(.8) rotate(72.849 -3.778 16.066)" gradientUnits="userSpaceOnUse"><stop stop-color="#997E38" offset="0"/><stop stop-color="#9C7F3A" offset="1"/></linearGradient><linearGradient id="h" x1="16.828" x2="18.37" y1="-10.054" y2="-10.054" gradientTransform="rotate(73.037 -2.994 12.829) scale(.8)" gradientUnits="userSpaceOnUse"><stop stop-color="#856629" offset="0"/><stop stop-color="#96782D" offset=".988"/></linearGradient><linearGradient id="i" x1="9.583" x2="10.128" y1="-7.394" y2="-7.394" gradientTransform="rotate(74.053 -2.846 12.703) scale(.8)" gradientUnits="userSpaceOnUse"><stop stop-color="#7A5E26" offset="0"/><stop stop-color="#96782D" offset=".988"/></linearGradient><linearGradient id="j" x1="14.923" x2="16.101" y1="-15.044" y2="-15.044" gradientTransform="rotate(72.722 -3.04 12.868) scale(.8)" gradientUnits="userSpaceOnUse"><stop stop-color="#8F6E2C" offset="0"/><stop stop-color="#9E7F2F" offset=".988"/></linearGradient><linearGradient id="k" x1="20.671" x2="21.43" y1="-.73" y2="-.73" gradientTransform="scale(.8) rotate(72.759 -3.795 16.08)" gradientUnits="userSpaceOnUse"><stop stop-color="#7A5E26" offset="0"/><stop stop-color="#96782D" offset=".988"/></linearGradient><linearGradient id="l" x1="22.357" x2="23.33" y1="-14.24" y2="-14.24" gradientTransform="rotate(72.031 -3.145 12.956) scale(.8)" gradientUnits="userSpaceOnUse"><stop stop-color="#7A5E26" offset="0"/><stop stop-color="#96782D" offset=".988"/></linearGradient><linearGradient id="m" x1="12.678" x2="13.303" y1="-21.669" y2="-21.669" gradientTransform="rotate(73.74 -2.892 12.741) scale(.8)" gradientUnits="userSpaceOnUse"><stop stop-color="#A17C31" offset="0"/><stop stop-color="#A18130" offset=".988"/></linearGradient><linearGradient id="n" x1="17.092" x2="17.986" y1="-24.666" y2="-24.666" gradientTransform="scale(.8) rotate(72.068 -3.924 16.19)" gradientUnits="userSpaceOnUse"><stop stop-color="#91702D" offset="0"/><stop stop-color="#A38332" offset=".988"/></linearGradient><linearGradient id="o" x1="19.289" x2="20.285" y1="-19.65" y2="-19.65" gradientTransform="scale(.8) rotate(72.476 -3.847 16.123)" gradientUnits="userSpaceOnUse"><stop stop-color="#856629" offset="0"/><stop stop-color="#96782D" offset=".988"/></linearGradient><linearGradient id="p" x1="20.586" x2="21.108" y1="-23.537" y2="-23.537" gradientTransform="scale(.8) rotate(73.298 -3.695 15.996)" gradientUnits="userSpaceOnUse"><stop stop-color="#7A5E26" offset="0"/><stop stop-color="#96782D" offset=".988"/></linearGradient><linearGradient id="q" x1="11.342" x2="12.125" y1="-28.876" y2="-28.876" gradientTransform="scale(.8) rotate(73.298 -3.695 15.996)" gradientUnits="userSpaceOnUse"><stop stop-color="#AB8435" offset="0"/><stop stop-color="#997B2E" offset=".988"/></linearGradient><linearGradient id="r" x1="14.22" x2="15.343" y1="-30.062" y2="-30.062" gradientTransform="scale(.8) rotate(73.18 -3.716 16.013)" gradientUnits="userSpaceOnUse"><stop stop-color="#96742E" offset="0"/><stop stop-color="#A38332" offset=".988"/></linearGradient><linearGradient id="s" x1="16.174" x2="16.957" y1="-29.13" y2="-29.13" gradientTransform="scale(.8) rotate(73.298 -3.695 15.996)" gradientUnits="userSpaceOnUse"><stop stop-color="#96742E" offset="0"/><stop stop-color="#A38332" offset=".988"/></linearGradient><linearGradient id="t" x1="10.781" x2="11.588" y1="-31.505" y2="-31.505" gradientTransform="rotate(73.814 -2.88 12.732) scale(.8)" gradientUnits="userSpaceOnUse"><stop stop-color="#AB8435" offset="0"/><stop stop-color="#997B2E" offset=".988"/></linearGradient><linearGradient id="u" x1="9.784" x2="10.361" y1="-24.206" y2="-24.206" gradientTransform="scale(.8) rotate(72.346 -3.871 16.145)" gradientUnits="userSpaceOnUse"><stop stop-color="#AB8435" offset="0"/><stop stop-color="#997B2E" offset=".988"/></linearGradient><linearGradient id="v" x1="17.88" x2="18.64" y1="2.718" y2="2.718" gradientTransform="scale(.8) rotate(72.759 -3.795 16.08)" gradientUnits="userSpaceOnUse"><stop stop-color="#7A5E26" offset="0"/><stop stop-color="#96782D" offset=".988"/></linearGradient><linearGradient id="w" x1="23.119" x2="23.926" y1="-6.25" y2="-6.25" gradientTransform="rotate(73.814 -2.88 12.732) scale(.8)" gradientUnits="userSpaceOnUse"><stop stop-color="#7A5E26" offset="0"/><stop stop-color="#96782D" offset=".988"/></linearGradient><g transform="translate(-5.568 -3.286) scale(.61957)"><path d="M35.43 12.23c3.013.64 4.64 2.333 4.88 5.08.213 2.373-.521 4.68-2.2 6.92-1.521 1.973-3.493 3.493-5.92 4.56-2.64 1.146-6.187 1.907-10.64 2.28-4.4.399-7.6-.521-9.6-2.76-1.867-2.054-2.32-4.693-1.36-7.921.667-2.266 2.467-3.853 5.4-4.759 1.173-.374 3.707-.787 7.6-1.24.88-.08 2.72-.653 5.52-1.72 2.027-.746 4.132-.893 6.32-.44z" clip-rule="evenodd" fill="url(#a)" fill-rule="evenodd"/><path d="M26.63 14.91c.293.107.693.253 1.2.44.453.133.946.2 1.479.2.56 0 1 .053 1.319.16.241.08.36.16.36.24-.532-.187-1.373-.173-2.52.04-.587.107-1.054.081-1.4-.08l-.319-.24c-.667.267-1.134.227-1.4-.12-.133-.187-.4-.307-.8-.36-.907-.08-1.72-.2-2.44-.36a5.054 5.054 0 00-1.4-.08c.78-.095 1.74-.215 2.879-.36.641-.08 1.267-.2 1.88-.36-.32.347-.32.573 0 .68.215.054.601.12 1.162.2z" clip-rule="evenodd" fill="url(#b)" fill-rule="evenodd"/><use transform="matrix(.8 0 0 -.8 12.2 13.05)" y="-22.658" width="35.206" height="22.658" opacity=".121" xlink:href="#c"/><use transform="matrix(.8 0 0 -.8 25.25 13.15)" y="-3.5" width="7.25" height="3.5" opacity=".07" xlink:href="#d"/><use transform="matrix(.8 0 0 -.8 25.35 14.05)" y="-2.4" width="7.1" height="2.4" opacity=".102" xlink:href="#e"/><use transform="matrix(.8 0 0 -.8 25.3 14.5)" y="-1.464" width="4.75" height="1.464" opacity=".301" xlink:href="#f"/><use transform="matrix(.8 0 0 -.8 13.35 15.7)" y="-19.348" width="33.831" height="19.348" opacity=".191" xlink:href="#g"/><path d="M21.87 22.23c1.067.187 1.347.546.84 1.08-.534.56-1.014.706-1.44.439-.32-.187-.413-.493-.28-.92.16-.452.453-.652.88-.599z" clip-rule="evenodd" fill="url(#h)" fill-rule="evenodd"/><path d="M18.03 17.59c.427-.026.533.08.32.32-.213.267-.426.36-.64.28-.187-.054-.227-.16-.12-.32.08-.16.226-.253.44-.28z" clip-rule="evenodd" fill="url(#i)" fill-rule="evenodd"/><path d="M25.35 19.51c.693-.106.92.094.68.601-.267.533-.64.746-1.12.64-.427-.106-.573-.333-.44-.68.133-.321.426-.508.88-.561z" clip-rule="evenodd" fill="url(#j)" fill-rule="evenodd"/><path d="M15.83 27.51c.586.133.707.307.359.52-.373.214-.707.214-1 0-.266-.187-.293-.332-.08-.439.187-.108.428-.134.721-.081z" clip-rule="evenodd" fill="url(#k)" fill-rule="evenodd"/><path d="M26.63 25.229c.72-.079.92.107.6.561-.319.427-.693.6-1.12.521-.32-.081-.373-.281-.16-.601.187-.294.413-.453.68-.481z" clip-rule="evenodd" fill="url(#l)" fill-rule="evenodd"/><path d="M29.75 16.71c.399-.026.533.094.399.36-.16.267-.387.36-.68.28-.267-.054-.36-.174-.28-.36.081-.16.267-.253.561-.28z" clip-rule="evenodd" fill="url(#m)" fill-rule="evenodd"/><path d="M32.949 18.75c.693-.293.987-.213.88.24-.133.479-.413.706-.84.68-.347-.026-.493-.174-.439-.439a.713.713 0 01.399-.481z" clip-rule="evenodd" fill="url(#n)" fill-rule="evenodd"/><path d="M29.949 21.71c.721-.08.961.094.721.521-.268.426-.667.613-1.2.56-.48-.08-.601-.28-.36-.601a1.1 1.1 0 01.839-.48z" clip-rule="evenodd" fill="url(#o)" fill-rule="evenodd"/><path d="M32.989 22.189c.4 0 .534.107.4.32-.133.214-.347.294-.64.24-.24-.054-.32-.16-.24-.32a.541.541 0 01.48-.24z" clip-rule="evenodd" fill="url(#p)" fill-rule="evenodd"/><path d="M34.829 13.87c.454-.08.628.054.521.4-.107.347-.293.48-.561.4-.213-.08-.306-.227-.279-.439.026-.214.133-.335.319-.361z" clip-rule="evenodd" fill="url(#q)" fill-rule="evenodd"/><path d="M36.87 15.59c.399.107.426.387.079.841-.347.479-.64.6-.88.359-.213-.213-.187-.493.08-.84.267-.32.507-.44.721-.36z" clip-rule="evenodd" fill="url(#r)" fill-rule="evenodd"/><path d="M36.229 17.511c.347-.027.493.093.44.359-.081.24-.254.387-.521.44-.24.053-.32-.067-.24-.36.055-.293.161-.439.321-.439z" clip-rule="evenodd" fill="url(#s)" fill-rule="evenodd"/><path d="M36.47 13.11c.267-.027.467.026.6.16a.458.458 0 01.12.48c-.054.133-.227.067-.52-.2-.268-.239-.334-.386-.2-.44z" clip-rule="evenodd" fill="url(#t)" fill-rule="evenodd"/><path d="M30.629 13.59a.8.8 0 01.521-.2c.16.027.267.08.32.16.053.08.04.173-.04.28-.106.107-.254.16-.44.16a.538.538 0 01-.399-.16c-.081-.106-.068-.186.038-.24z" clip-rule="evenodd" fill="url(#u)" fill-rule="evenodd"/><path d="M12.47 26.189c.454.188.547.374.28.561-.24.187-.467.213-.68.08-.16-.133-.2-.293-.12-.48.107-.213.28-.266.52-.161z" clip-rule="evenodd" fill="url(#v)" fill-rule="evenodd"/><path d="M19.87 28.229c.587-.079.854.014.8.28-.026.24-.2.4-.52.48-.24.026-.4-.08-.48-.32-.08-.266-.014-.412.2-.44z" clip-rule="evenodd" fill="url(#w)" fill-rule="evenodd"/><use transform="matrix(.8 0 0 -.8 10.55 15.7)" x="-.003" y="-15.826" width="16.66" height="15.836" opacity=".07" xlink:href="#x"/><use transform="matrix(.8 0 0 -.8 11.35 16.75)" x="-.01" y="-10.103" width="10.316" height="10.103" opacity=".102" xlink:href="#y"/><use transform="matrix(.8 0 0 -.8 12.7 18.1)" x="-.033" y="-4.475" width="4.572" height="4.485" opacity=".301" xlink:href="#z"/></g></svg>