<svg xmlns="http://www.w3.org/2000/svg" width="20" height="20"><g stroke-width=".394"><path d="M10.08.463c.246-.062.531-.092.761.04.218.135.32.383.393.616.211.669.172 1.38.147 2.074-.018.448-.046.899.003 1.346.147 1.286.098 2.58.16 3.869.055 1.506.414 2.981.85 4.417.177.577.349 1.156.564 1.72.22.587.463 1.17.598 1.78.021.107.077.202.113.304.102.263.15.546.163.828.003.165-.07.34-.015.503.208.184.53.175.736.365.027.034.067.067.061.117-.024.033-.055.06-.086.088-.202-.088-.408-.174-.6-.282-.12-.073-.237-.18-.268-.322.11-.193.083-.426.055-.638-.104-.678-.423-1.294-.628-1.942-.387-1.208-.721-2.43-1.11-3.638-.08-.245-.173-.487-.262-.73-.04-.098-.027-.205-.043-.31-.067-.405-.085-.816-.156-1.22-.123-.626-.123-1.264-.132-1.9-.01-.254.015-.508-.003-.763-.04-.552-.03-1.107-.064-1.66-.05-.573-.007-1.147-.007-1.72.004-.626.01-1.258-.11-1.878-.055-.254-.123-.527-.313-.715a.591.591 0 00-.092-.082.981.981 0 00-.187-.046h-.15c-.052 0-.105.003-.157.006-.052.003-.104.003-.153.009-.061.01-.126.01-.181.043-.074.11-.074.248-.092.374-.175.015-.35.046-.522.019-.165-.013-.343-.043-.503.018-.073.028-.083.113-.095.18-.024.234.01.47.01.703-.068-.202-.13-.405-.206-.604a.432.432 0 00-.313-.285c-.393-.09-.807.067-1.104.325-.105.092-.123.236-.083.365.132.515.454.95.644 1.442.138.34.288.675.433 1.012.092.22.199.439.263.669-.68-.945-1.362-1.917-1.724-3.037-.193.187-.392.368-.585.558a2.1 2.1 0 00-.28.356c-.107-.123-.214-.26-.37-.325-.071-.03-.145.012-.206.043-.04.03-.08.067-.117.104a2.62 2.62 0 00-.196.218c-.034.04-.065.08-.098.123-.04.055-.08.107-.123.162-.034.046-.068.095-.101.144-.025.034-.05.07-.074.108l-.086.132a1.818 1.818 0 00-.049.08c-.024.036-.049.073-.07.113-.028.055-.086.129-.022.184.561.742 1.28 1.353 1.951 2 .463.442.902.914 1.276 1.436.288.377.58.754.853 1.144.454.638.899 1.285 1.316 1.948.11.171.218.346.334.515.209.626.384 1.264.577 1.893.172.595.368 1.187.546 1.782.307 1.083.46 2.215.926 3.248a.747.747 0 00.476.427c.027.009.055.015.083.024l.003.028c.015.169.021.347-.031.51-.083.122-.23.174-.334.278.104.013.217.03.319-.012.086-.037.14-.114.2-.178.017.141.036.282.06.423-.012.016-.03.046-.043.065-.058-.092-.064-.212-.144-.285-.113 0-.178.138-.297.144-.062.003-.16.04-.184-.04.055-.126.162-.221.22-.347.077-.144.111-.325.028-.472-.067-.16-.233-.24-.34-.368-.322-.368-.497-.838-.63-1.301-.125-.442-.195-.899-.275-1.35-.114-.549-.282-1.086-.439-1.622-.227-.764-.472-1.522-.687-2.292-.04-.113-.037-.242-.114-.34-1.033-1.424-1.834-3.013-2.972-4.362-.638-.764-1.457-1.34-2.147-2.05-.227-.233-.512-.423-.666-.72-.126-.237-.077-.531.068-.749.205-.307.454-.586.739-.822.147-.113.313-.236.506-.24.163.065.245.24.353.372.267-.285.518-.583.81-.844.187.092.26.298.328.479.08.24.196.46.307.687.128.26.27.525.484.724-.273-.497-.552-.99-.764-1.515-.073-.197-.16-.405-.122-.62a.52.52 0 01.322-.377c.27-.12.57-.08.856-.083a.99.99 0 01.622.233.452.452 0 01.243-.245c.26-.108.546-.065.819-.034.055-.212.12-.473.346-.552z" fill="#000100" stroke="#000100" stroke-width=".01208792"/><path d="M9.96.742c.056-.034.12-.034.182-.043.006.488.083.972.11 1.46.077.865.138 1.73.114 2.598-.01.36-.086.715-.056 1.074.028-.246.062-.49.108-.736.07-.405.083-.82.077-1.23.006-.752-.059-1.5-.117-2.249-.03-.31-.04-.62-.08-.93.052-.002.104-.002.157-.005.021.337.11.665.147 1.003.08.561.129 1.125.175 1.69.012.359.009.718-.034 1.077-.03.457-.117.914-.095 1.377.052-.485.156-.96.208-1.442.117-.764.05-1.54-.042-2.3-.043-.47-.132-.936-.212-1.402.064.012.126.027.187.046 0 .214.089.41.126.62.15.766.19 1.548.172 2.33.006.973-.04 1.952.088 2.918.007-.592-.012-1.187.022-1.782.04-.746.052-1.491.037-2.24-.03-.42-.074-.84-.154-1.254-.033-.181-.12-.347-.199-.51.19.19.258.46.313.715.116.617.113 1.249.11 1.877 0 .574-.043 1.148.006 1.721.037.553.028 1.108.065 1.66a.912.912 0 00-.104.343c-.04.353-.003.71-.003 1.065.003.432 0 .868.033 1.3-.098-.088-.126-.22-.18-.334-.025-.07-.053-.144-.077-.215a7.493 7.493 0 01-.178-1.404c-.123.438-.031.901.067 1.334.025.135.052.27.074.405-.016.162-.012.328.018.49-.027-.015-.055-.027-.083-.04v.031a3.014 3.014 0 00-.113-.273 4.827 4.827 0 01-.138-.589c-.05-.291-.074-.589-.166-.87.012.377.062.748.098 1.122.013.113.025.227.031.344-.015.134-.018.27-.006.404l-.09-.046c-.03-.122-.06-.245-.094-.368-.037-.2-.058-.398-.092-.595-.05.3-.028.605.003.908.006.261.024.525-.006.785a2.038 2.038 0 01-.163.568l-.027.061c-.034-.064-.071-.125-.092-.193.036-.058.082-.116.08-.187.005-.512.054-1.022.048-1.534-.003-.12 0-.242.01-.362.015-.2-.025-.392-.053-.589-.089-.601-.257-1.196-.233-1.81.016-.604.077-1.205.105-1.81.03-.631.043-1.266.006-1.901-.062-.559-.178-1.11-.181-1.675-.258.003-.516.009-.773-.025.113.62.306 1.227.38 1.853.101.782.12 1.574.157 2.362.003.638.049 1.28-.01 1.914-.009-.009-.024-.034-.033-.043-.053-.552 0-1.113-.123-1.656a28.164 28.164 0 01-.445-2.764c-.01.331-.006.663.037.994.043.626.144 1.248.264 1.862.083.435.061.88.073 1.322-.086-.117-.214-.218-.233-.371A31.082 31.082 0 018.9 4.687c-.058-.55-.14-1.095-.14-1.648-.004-.334.005-.671 0-1.006 0-.233-.031-.469-.01-.702.01-.068.018-.154.095-.181.16-.062.338-.03.503-.019.175.028.35-.003.522-.018.018-.123.021-.26.092-.371zM7.136 1.472c.297-.258.711-.414 1.104-.325.147.03.264.144.313.285-.006.018-.016.058-.022.08a.44.44 0 00-.555-.328c.04.199.086.395.153.589.114.316.203.64.295.966.037.147.07.294.126.438l.003.016-.013.077c-.131-.206-.23-.433-.328-.657-.15-.368-.26-.767-.521-1.077.024.132.064.261.101.39.114.39.212.785.316 1.18.052.197.11.394.132.596-.129-.212-.175-.46-.288-.678-.142-.34-.313-.666-.473-.997-.101-.193-.202-.39-.343-.555zM6.083 2.478c.194-.19.393-.371.586-.558.365 1.116 1.043 2.092 1.724 3.037.154.294.246.616.356.932.058.175.129.347.169.528-.316-.356-.586-.746-.871-1.126-.365-.503-.737-1-1.09-1.51-.306-.426-.58-.87-.874-1.303z" fill="#539a34" stroke="#539a34" stroke-width=".01208792"/><path d="M7.976 1.18a.44.44 0 01.555.329c-.12.549-.006 1.11.019 1.662-.052-.144-.09-.291-.126-.438a13.469 13.469 0 00-.295-.967 4.695 4.695 0 01-.153-.585zM7.053 1.837c-.04-.129-.022-.273.083-.365.14.166.239.362.343.552.16.331.331.657.473.997.116.218.162.466.288.678-.025-.202-.08-.399-.132-.595-.104-.393-.202-.788-.316-1.181-.04-.129-.08-.258-.101-.39.26.31.371.709.521 1.077.101.224.197.45.328.656l.013-.076c.101.644.178 1.294.3 1.935.031.163.092.326.065.491-.034.104-.138.166-.169.273-.107-.313-.202-.635-.356-.932-.067-.233-.172-.448-.264-.67-.144-.337-.291-.67-.432-1.011-.19-.491-.512-.927-.644-1.439z" fill="#2f8a0f" stroke="#2f8a0f" stroke-width=".01208792"/><path d="M10.142.699l.153-.01c.04.307.05.62.08.93.058.749.123 1.497.116 2.249.007.41-.006.825-.076 1.23-.043.245-.08.487-.108.736-.027-.359.05-.715.056-1.074.024-.868-.037-1.736-.114-2.598-.024-.49-.101-.975-.107-1.463z" fill="#318911" stroke="#318911" stroke-width=".01208792"/><path d="M10.452.687c.049-.003.1-.003.15 0 .077.466.166.93.212 1.402.088.76.159 1.536.042 2.3-.052.485-.159.96-.208 1.442-.022-.46.061-.917.095-1.377a6.64 6.64 0 00.034-1.077 31.226 31.226 0 00-.175-1.69c-.037-.335-.126-.663-.15-1zM9.059 3.788a6.716 6.716 0 01-.037-.994c.104.926.249 1.85.445 2.764.123.543.07 1.104.123 1.656l-.194-.239c-.015-.442.01-.886-.073-1.322-.12-.62-.221-1.24-.264-1.865z" fill="#308910" stroke="#308910" stroke-width=".01208792"/><path d="M10.789.733a.591.591 0 01.092.082c.083.163.169.329.2.51.08.414.125.834.153 1.254.015.746.003 1.494-.037 2.24-.034.592-.015 1.187-.022 1.782-.128-.966-.085-1.945-.088-2.917.018-.78-.025-1.565-.172-2.332-.037-.208-.126-.405-.126-.62z" fill="#308911" stroke="#308911" stroke-width=".01208792"/><path d="M9.096 1.125c.257.034.515.028.773.025.003.564.12 1.116.18 1.675.038.632.022 1.267-.005 1.902-.028.604-.09 1.205-.105 1.81-.024.613.148 1.208.233 1.81.028.196.065.389.053.588a.119.119 0 01-.034-.018c-.295-.344-.519-.736-.749-1.123a14.032 14.032 0 00-.782-1.24c-.68-.953-1.497-1.803-2.175-2.76-.214-.325-.423-.656-.672-.96.083-.126.17-.252.28-.356.291.433.567.877.874 1.298.353.509.724 1.009 1.089 1.509.285.38.555.773.871 1.126-.04-.181-.11-.353-.169-.528.031-.107.138-.169.169-.273.028-.166-.034-.328-.064-.49-.126-.642-.203-1.292-.301-1.936l-.003-.016c-.025-.552-.141-1.113-.019-1.662.007-.019.016-.059.022-.08.077.2.138.402.205.604.007.335 0 .672 0 1.006 0 .553.083 1.099.142 1.648.073.64.153 1.279.263 1.91.019.154.148.255.234.372.064.08.125.162.193.24.009.011.024.033.034.042.058-.638.012-1.276.009-1.914-.037-.788-.055-1.58-.157-2.362-.083-.62-.276-1.227-.39-1.847z" fill="#136812" stroke="#136812" stroke-width=".01208792"/><path d="M5.23 2.552c.062-.031.136-.074.206-.043.154.064.264.202.371.325.249.3.457.635.672.96.681.957 1.494 1.807 2.175 2.76.288.397.537.817.782 1.24.23.387.454.78.749 1.123-.04.08-.07.162-.095.245-.513-.598-.85-1.322-1.323-1.95.163.515.454.978.737 1.435.12.2.257.386.359.595-.261-.196-.44-.475-.678-.696.248.414.54.816.668 1.288-.27-.27-.469-.601-.69-.911.095.331.34.589.47.905-.181-.144-.32-.331-.467-.51-.251-.285-.478-.591-.711-.889-.166-.212-.329-.423-.503-.626-.135-.156-.264-.322-.427-.45-.374-.522-.81-.994-1.276-1.436-.672-.647-1.39-1.258-1.954-2.006-.064-.056-.003-.13.022-.184.171.254.41.457.62.677.156.172.34.316.496.491.126.138.28.249.411.384.371.377.773.718 1.123 1.113.521.54 1 1.126 1.402 1.761.147.202.279.417.432.617-.034-.17-.162-.295-.242-.442-.184-.322-.396-.626-.592-.939-.38-.543-.831-1.027-1.282-1.509-.267-.285-.574-.528-.829-.825.215.129.396.3.596.445.365.306.742.607 1.073.95.347.341.61.755.966 1.09-.199-.298-.42-.58-.647-.856-.123-.178-.288-.32-.402-.503.169.116.31.27.454.414.135.135.237.3.38.426a2.143 2.143 0 00-.25-.365c-.406-.515-.915-.932-1.406-1.359a11.148 11.148 0 01-1.08-1.04 10.55 10.55 0 01-.84-1.11c.04-.055.08-.108.123-.163.208.335.441.657.702.954.568.66 1.242 1.212 1.874 1.807.19.156.353.34.522.518.178.194.356.387.515.596.101.125.181.27.3.383-.076-.209-.22-.377-.343-.561a8.44 8.44 0 00-1-1.117c-.708-.712-1.5-1.353-2.092-2.172-.135-.172-.23-.374-.38-.53.061-.077.129-.15.196-.218.193.374.399.742.641 1.089.147.245.34.46.543.656.356.371.776.675 1.15 1.028.09.086.178.172.277.248-.172-.251-.4-.463-.623-.668-.368-.378-.78-.721-1.083-1.157-.294-.402-.54-.847-.791-1.288z" fill="#539a33" stroke="#539a33" stroke-width=".01208792"/><path d="M5.114 2.656c.037-.037.077-.07.117-.104.251.441.497.886.791 1.297.304.436.715.78 1.083 1.157.224.205.45.417.623.668a3.54 3.54 0 01-.276-.248c-.375-.353-.792-.656-1.15-1.028a3.36 3.36 0 01-.544-.656 9.194 9.194 0 01-.644-1.086z" fill="#318811" stroke="#318811" stroke-width=".01208792"/><path d="M4.82 2.993c.03-.04.064-.082.098-.122.15.16.245.359.38.53.595.82 1.384 1.46 2.092 2.172.368.34.696.721 1 1.117.123.18.267.353.344.561-.12-.113-.197-.258-.3-.383a6.341 6.341 0 00-.516-.595c-.169-.178-.335-.362-.522-.519-.632-.595-1.306-1.147-1.874-1.807a6.948 6.948 0 01-.702-.954z" fill="#308811" stroke="#308811" stroke-width=".01208792"/><path d="M4.599 3.3l.1-.144c.262.383.532.764.841 1.11.338.372.697.718 1.08 1.04.491.427 1.003.844 1.405 1.36.095.113.184.23.252.364-.144-.125-.246-.291-.38-.426-.148-.144-.286-.298-.455-.414.114.184.28.325.402.503.227.276.448.558.647.856-.355-.332-.62-.749-.966-1.09-.331-.346-.705-.643-1.073-.95-.203-.144-.384-.32-.596-.445.255.298.562.54.829.825.454.482.905.966 1.282 1.51.2.312.408.619.592.938.08.147.208.27.242.442-.153-.2-.285-.414-.432-.617-.402-.635-.88-1.22-1.402-1.76-.35-.396-.755-.74-1.123-1.114-.129-.135-.285-.245-.41-.383-.154-.175-.338-.32-.498-.491-.208-.224-.448-.424-.62-.678.022-.04.047-.077.071-.114.12.117.23.246.368.344-.095-.15-.227-.27-.319-.423.028-.046.058-.09.086-.132.359.438.681.92 1.138 1.263-.101-.153-.233-.279-.35-.42-.248-.31-.5-.616-.711-.954z" fill="#30890f" stroke="#30890f" stroke-width=".01208792"/><path d="M4.599 3.3c.211.335.463.644.714.951.117.141.249.267.35.42-.457-.343-.779-.825-1.138-1.263.025-.037.05-.071.074-.108z" fill="#519f35" stroke="#519f35" stroke-width=".01208792"/><path d="M4.387 3.62l.05-.08c.091.153.223.272.318.423-.135-.098-.245-.227-.368-.344z" fill="#429325" stroke="#429325" stroke-width=".01208792"/><path d="M11.27 7.132a.97.97 0 01.105-.344c.015.255-.006.51.003.764.01.635.01 1.273.132 1.899.07.404.089.816.156 1.22 0 .09-.012.181-.03.267a1.428 1.428 0 01-.439.175c-.328.065-.663.058-.997.043.074-.18.141-.371.163-.567.03-.261.012-.525.006-.786.009-.138.021-.273.027-.41l.065.1c.03.123.061.246.095.369.055.211.116.423.187.632-.025-.332-.05-.663-.092-.991a6.491 6.491 0 00-.03-.344c.02-.034.042-.064.064-.098a.653.653 0 00.144.433c.043.088.08.177.113.273.031.098.08.193.135.279a2.544 2.544 0 00-.07-.761c-.022-.135-.052-.27-.074-.405.006-.064.016-.126.022-.19a.66.66 0 00.089.26c.027.071.052.145.076.215.074.304.15.608.246.905-.01-.193-.046-.38-.065-.57-.033-.433-.03-.868-.033-1.301-.004-.359-.037-.715.003-1.067z" fill="#b6fc22" stroke="#b6fc22" stroke-width=".01208792"/><path d="M8.77 7.211c.47.63.807 1.353 1.323 1.951-.074.316-.08.641-.052.963.012.175.055.35.036.528-.003.104-.003.215-.049.313-.116-.169-.224-.344-.334-.515-.42-.663-.862-1.31-1.316-1.948.024-.025.052-.046.077-.07.233.297.46.603.711.889.148.178.286.365.467.509-.13-.316-.375-.574-.47-.905.218.31.417.641.69.911-.128-.472-.42-.874-.668-1.288.239.218.417.5.678.696-.099-.209-.24-.396-.36-.595-.282-.46-.57-.923-.732-1.439z" fill="#b5fc24" stroke="#b5fc24" stroke-width=".01208792"/><path d="M7.525 7.359c.163.128.292.294.427.45.174.203.34.415.503.626a1.603 1.603 0 00-.077.07c-.273-.389-.565-.766-.853-1.146z" fill="#baf930" stroke="#baf930" stroke-width=".01208792"/><path d="M10.863 7.543c.006.475.086.941.178 1.405a.712.712 0 01-.09-.261c-.006.064-.015.126-.02.19-.1-.433-.191-.893-.068-1.334z" fill="#b3fc31" stroke="#b3fc31" stroke-width=".01208792"/><path d="M10.522 8.033c.092.283.117.58.166.872.034.199.083.395.138.589a.653.653 0 01-.144-.433c-.022.03-.043.064-.065.098-.034-.377-.083-.748-.095-1.126z" fill="#b3fb30" stroke="#b3fb30" stroke-width=".01208792"/><path d="M10.372 8.892c.034.2.055.4.092.595l-.065-.1c-.006.137-.018.272-.027.41-.028-.297-.05-.604 0-.905z" fill="#affa3e" stroke="#affa3e" stroke-width=".01208792"/><path d="M10.188 8.917l.033.018c-.009.12-.012.243-.009.362.003.512-.043 1.022-.049 1.534.003.07-.043.132-.08.187-.018-.123-.006-.245-.009-.365.019-.178-.024-.353-.037-.528a3.077 3.077 0 01.053-.963c.024-.086.058-.165.098-.245z" fill="#2f8a0c" stroke="#2f8a0c" stroke-width=".01208792"/><path d="M11.12 9.162c.055.114.083.246.181.335.019.19.055.38.065.57-.098-.297-.172-.601-.246-.905z" fill="#6ab017" stroke="#6ab017" stroke-width=".01208792"/><path d="M11.007 9.285c.058.248.089.506.07.76a1.233 1.233 0 01-.135-.278v-.031c.028.012.056.024.083.04a1.649 1.649 0 01-.018-.491z" fill="#589b21" stroke="#589b21" stroke-width=".01208792"/><path d="M10.65 9.5c.044.328.072.66.093.99a9.297 9.297 0 01-.187-.631l.089.046c-.012-.135-.01-.27.006-.405z" fill="#579d1f" stroke="#579d1f" stroke-width=".01208792"/><path d="M10.028 10.966c.046-.098.043-.209.05-.313.002.123-.01.245.009.365.021.068.058.132.092.193l.027-.061c.331.015.669.021.997-.043.184.255.32.537.46.813.172.328.295.678.424 1.021.242.62.417 1.264.61 1.902.083.233.141.473.212.712.1.393.267.764.334 1.166.064.297.077.604.046.908-.015.107-.034.224-.11.303a.25.25 0 01-.071-.135c-.07-.325-.055-.665-.135-.987a7.464 7.464 0 00-.242-.9c-.11-.284-.194-.582-.307-.864-.129-.371-.282-.733-.387-1.114-.131-.41-.131-.859-.303-1.26a.626.626 0 00-.243-.344c-.024.35.05.696.13 1.034.06.303.159.598.245.895.14.375.23.767.39 1.135.143.445.33.9.294 1.375-.23-.243-.276-.592-.374-.896-.16-.463-.286-.936-.442-1.396-.11-.374-.233-.745-.316-1.129-.09-.3-.123-.616-.221-.914a1.548 1.548 0 00-.218-.512.563.563 0 00-.049.255c.015.38.19.723.26 1.095.068.35.12.705.2 1.055.068.264.095.537.187.794.117.378.27.743.418 1.11.098.31.239.602.319.918.067.252.16.503.177.767.01.135.028.267.053.399a.747.747 0 01-.476-.427c-.466-1.033-.62-2.165-.926-3.248-.178-.595-.371-1.184-.546-1.782-.184-.626-.36-1.264-.568-1.89m.236.236c.01.092.019.181.04.27.166.795.427 1.565.672 2.338.166.521.402 1.021.488 1.564.132.681.224 1.39.567 2.003.065.117.12.245.233.32a.333.333 0 00.031-.27c-.098-.363-.23-.713-.35-1.065-.187-.559-.374-1.117-.558-1.675-.205-.663-.423-1.328-.524-2.019-.059-.42-.099-.843-.172-1.26-.012-.068-.025-.141-.062-.2-.12-.03-.245-.009-.365-.006z" fill="#d9d9b7" stroke="#d9d9b7" stroke-width=".01208792"/><path d="M11.67 10.668c.015.105.006.212.042.31.092.243.181.485.261.73.387 1.206.72 2.43 1.11 3.638.21.648.525 1.264.63 1.942.027.212.055.445-.056.638-.012.025-.027.05-.04.074-.224.297-.626.408-.981.34-.028-.009-.056-.015-.083-.024a4.434 4.434 0 01-.052-.399c-.019-.264-.108-.515-.178-.767-.083-.313-.224-.607-.32-.917-.143-.368-.3-.73-.416-1.11-.092-.258-.12-.531-.188-.795-.076-.35-.128-.706-.199-1.055-.07-.368-.245-.715-.26-1.095-.01-.09.02-.172.048-.255.108.153.172.331.218.512.098.298.132.614.221.914.08.384.202.755.316 1.13.156.462.282.935.442 1.395.098.307.147.653.374.896.037-.479-.15-.93-.295-1.375-.159-.368-.248-.76-.39-1.135-.085-.297-.183-.592-.245-.895-.08-.338-.153-.684-.128-1.034a.626.626 0 01.242.344c.172.401.169.846.304 1.26.104.378.257.743.386 1.114.114.285.197.58.307.865.095.294.184.592.242.899.08.325.065.662.135.987.01.05.03.099.07.135.077-.082.093-.199.111-.303.03-.304.016-.61-.046-.908-.067-.402-.233-.773-.334-1.166-.074-.236-.129-.479-.212-.712-.196-.635-.371-1.279-.61-1.902-.13-.346-.252-.696-.424-1.021-.144-.276-.279-.558-.46-.813.157-.024.3-.098.439-.175.006-.086.018-.178.018-.267z" fill="#d0cea7" stroke="#d0cea7" stroke-width=".01208792"/><path d="M10.264 11.202c.12 0 .246-.024.362.01.037.058.05.131.062.199.073.417.113.84.172 1.26.1.69.319 1.353.524 2.019.184.558.371 1.117.558 1.675.12.353.255.702.35 1.064a.334.334 0 01-.03.27c-.117-.077-.17-.205-.234-.319-.343-.613-.435-1.322-.567-2.003-.09-.543-.322-1.043-.488-1.564-.245-.773-.506-1.543-.672-2.338-.018-.092-.027-.184-.037-.273z" fill="#f3f1cb" stroke="#f3f1cb" stroke-width=".01208792"/><path d="M13.614 18c.016-.025.028-.05.04-.074.03.141.147.249.267.322.193.11.399.194.601.282-.015 0-.03.007-.046.007-.22-.01-.45.015-.66-.083.019.061.04.122.059.187-.092.034-.193.04-.288.049.058.04.12.077.177.12a.588.588 0 01-.34-.031c.04.08.074.166.141.227.058.049.132.08.2.113-.175.09-.375.04-.528-.067.055.092.135.18.147.294l-.046.034c-.172-.077-.276-.242-.383-.39a1.422 1.422 0 01-.037.252c-.019.05-.04.098-.065.147-.024-.14-.043-.282-.06-.423-.062.068-.117.144-.2.178-.102.043-.215.028-.32.012.102-.104.252-.156.335-.279.052-.162.043-.34.03-.51.022.096.062.185.102.274l.052-.184c.052.08.107.16.163.236.009-.028.024-.08.033-.104.099.086.203.165.32.22-.062-.104-.126-.208-.188-.315.15.067.307.135.479.128-.09-.085-.184-.165-.28-.245.133.015.265.028.393-.006l-.23-.11c.11-.046.23-.019.338.015a1.844 1.844 0 01-.206-.276z" fill="#dec167" stroke="#dec167" stroke-width=".01208792"/><path d="M12.633 18.34c.355.07.76-.04.981-.34.062.098.129.19.203.279-.11-.034-.227-.061-.338-.015l.23.11a1.057 1.057 0 01-.392.006c.095.08.19.16.279.246-.169.006-.325-.062-.479-.13.062.108.126.21.187.317a1.288 1.288 0 01-.319-.221c-.009.024-.024.077-.033.104l-.163-.236c-.015.061-.034.123-.052.184a1.461 1.461 0 01-.101-.273z" fill="#b19848" stroke="#b19848" stroke-width=".01208792"/><path d="M13.82 18.457c.208.095.438.073.66.083-.222.122-.492.16-.682.334-.08.089.043.169.11.212-.128.116-.315.178-.389.343-.22.068-.448-.021-.598-.184.021-.083.03-.165.037-.251.107.144.211.31.383.39l.046-.034c-.015-.11-.092-.2-.147-.295.153.107.353.156.528.068-.068-.037-.142-.065-.2-.114-.064-.064-.101-.15-.14-.227a.59.59 0 00.34.03c-.059-.04-.117-.08-.178-.119.098-.01.196-.012.288-.049a3.334 3.334 0 00-.058-.187z" fill="#020100" stroke="#020100" stroke-width=".01208792"/></g></svg>